# Blender 5.0.1
# www.blender.org
mtllib arco_negro.mtl
g Arco_negro_Malla
v -2.408023 -0.001100 -0.122758
v -2.408023 -0.001100 0.029489
v -2.305880 -0.001100 0.029489
v -2.305880 -0.001100 -0.122758
v -2.404904 0.121976 -0.122758
v -2.404904 0.121976 0.029489
v -2.302892 0.116802 0.029489
v -2.302892 0.116802 -0.122758
v -2.395555 0.244735 -0.122758
v -2.395555 0.244735 0.029489
v -2.293936 0.234402 0.029489
v -2.293936 0.234402 -0.122758
v -2.380001 0.366864 -0.122757
v -2.380001 0.366864 0.029489
v -2.279036 0.351397 0.029489
v -2.279036 0.351397 -0.122757
v -2.358281 0.488048 -0.122757
v -2.358281 0.488048 0.029489
v -2.258229 0.467487 0.029489
v -2.258229 0.467487 -0.122757
v -2.330451 0.607977 -0.122757
v -2.330451 0.607977 0.029489
v -2.231569 0.582374 0.029489
v -2.231569 0.582374 -0.122757
v -2.296583 0.726342 -0.122757
v -2.296583 0.726341 0.029489
v -2.199124 0.695764 0.029489
v -2.199124 0.695764 -0.122757
v -2.256763 0.842839 -0.122757
v -2.256763 0.842839 0.029489
v -2.160978 0.807364 0.029489
v -2.160978 0.807364 -0.122757
v -2.211093 0.957170 -0.122757
v -2.211093 0.957170 0.029489
v -2.117228 0.916890 0.029489
v -2.117228 0.916890 -0.122757
v -2.159691 1.069042 -0.122757
v -2.159691 1.069042 0.029489
v -2.067987 1.024059 0.029489
v -2.067987 1.024059 -0.122757
v -2.102690 1.178166 -0.122757
v -2.102690 1.178166 0.029489
v -2.013381 1.128596 0.029489
v -2.013381 1.128596 -0.122757
v -2.040234 1.284263 -0.122757
v -2.040234 1.284263 0.029489
v -1.953551 1.230233 0.029489
v -1.953551 1.230233 -0.122757
v -1.972484 1.387061 -0.122757
v -1.972484 1.387061 0.029489
v -1.888649 1.328710 0.029489
v -1.888649 1.328710 -0.122757
v -1.899615 1.486295 -0.122757
v -1.899615 1.486295 0.029489
v -1.818843 1.423773 0.029489
v -1.818843 1.423773 -0.122757
v -1.821814 1.581712 -0.122757
v -1.821814 1.581712 0.029489
v -1.744312 1.515178 0.029489
v -1.744312 1.515178 -0.122757
v -1.739279 1.673065 -0.122757
v -1.739279 1.673065 0.029490
v -1.665247 1.602692 0.029489
v -1.665247 1.602692 -0.122757
v -1.652223 1.760120 -0.122757
v -1.652223 1.760120 0.029490
v -1.581850 1.686088 0.029490
v -1.581850 1.686088 -0.122757
v -1.560870 1.842655 -0.122757
v -1.560870 1.842655 0.029490
v -1.494337 1.765153 0.029490
v -1.494337 1.765153 -0.122757
v -1.465454 1.920456 -0.122757
v -1.465454 1.920456 0.029490
v -1.402932 1.839684 0.029490
v -1.402932 1.839684 -0.122757
v -1.366220 1.993325 -0.122757
v -1.366220 1.993325 0.029490
v -1.307869 1.909490 0.029490
v -1.307869 1.909490 -0.122757
v -1.263422 2.061075 -0.122757
v -1.263422 2.061075 0.029490
v -1.209392 1.974392 0.029490
v -1.209392 1.974392 -0.122757
v -1.157325 2.123531 -0.122757
v -1.157325 2.123531 0.029490
v -1.107755 2.034222 0.029490
v -1.107755 2.034222 -0.122757
v -1.048201 2.180532 -0.122757
v -1.048201 2.180532 0.029490
v -1.003218 2.088828 0.029490
v -1.003218 2.088828 -0.122757
v -0.936329 2.231934 -0.122757
v -0.936329 2.231934 0.029490
v -0.896048 2.138069 0.029490
v -0.896048 2.138069 -0.122757
v -0.821998 2.277604 -0.122757
v -0.821998 2.277604 0.029490
v -0.786523 2.181819 0.029490
v -0.786523 2.181819 -0.122757
v -0.705500 2.317424 -0.122757
v -0.705500 2.317424 0.029490
v -0.674922 2.219965 0.029490
v -0.674922 2.219965 -0.122757
v -0.587135 2.351292 -0.122757
v -0.587135 2.351292 0.029490
v -0.561533 2.252410 0.029490
v -0.561533 2.252410 -0.122757
v -0.467207 2.379122 -0.122757
v -0.467207 2.379122 0.029490
v -0.446646 2.279070 0.029490
v -0.446646 2.279070 -0.122757
v -0.346023 2.400842 -0.122757
v -0.346023 2.400842 0.029490
v -0.330555 2.299877 0.029490
v -0.330555 2.299877 -0.122757
v -0.223894 2.416396 -0.122757
v -0.223894 2.416396 0.029490
v -0.213560 2.314777 0.029490
v -0.213560 2.314777 -0.122757
v -0.101134 2.425745 -0.122757
v -0.101134 2.425745 0.029490
v -0.095961 2.323733 0.029490
v -0.095961 2.323733 -0.122757
v 0.021941 2.428864 -0.122757
v 0.021941 2.428864 0.029490
v 0.021941 2.326720 0.029490
v 0.021941 2.326720 -0.122757
v 0.145017 2.425745 -0.122757
v 0.145017 2.425745 0.029490
v 0.139844 2.323733 0.029490
v 0.139844 2.323733 -0.122757
v 0.267777 2.416396 -0.122757
v 0.267777 2.416396 0.029490
v 0.257443 2.314777 0.029490
v 0.257443 2.314777 -0.122757
v 0.389905 2.400842 -0.122757
v 0.389905 2.400842 0.029490
v 0.374438 2.299877 0.029490
v 0.374438 2.299877 -0.122757
v 0.511090 2.379122 -0.122757
v 0.511090 2.379122 0.029490
v 0.490528 2.279070 0.029490
v 0.490528 2.279070 -0.122757
v 0.631018 2.351292 -0.122757
v 0.631018 2.351292 0.029490
v 0.605416 2.252410 0.029490
v 0.605416 2.252410 -0.122757
v 0.749383 2.317423 -0.122757
v 0.749383 2.317423 0.029490
v 0.718805 2.219965 0.029490
v 0.718805 2.219965 -0.122757
v 0.865881 2.277603 -0.122757
v 0.865881 2.277603 0.029490
v 0.830406 2.181818 0.029490
v 0.830406 2.181818 -0.122757
v 0.980212 2.231934 -0.122757
v 0.980212 2.231934 0.029490
v 0.939931 2.138068 0.029490
v 0.939931 2.138068 -0.122757
v 1.092083 2.180532 -0.122757
v 1.092083 2.180532 0.029490
v 1.047100 2.088828 0.029490
v 1.047100 2.088828 -0.122757
v 1.201208 2.123530 -0.122757
v 1.201208 2.123530 0.029490
v 1.151637 2.034221 0.029490
v 1.151637 2.034221 -0.122757
v 1.307305 2.061074 -0.122757
v 1.307305 2.061074 0.029490
v 1.253275 1.974391 0.029490
v 1.253275 1.974391 -0.122757
v 1.410102 1.993325 -0.122757
v 1.410102 1.993325 0.029490
v 1.351751 1.909489 0.029490
v 1.351751 1.909489 -0.122757
v 1.509337 1.920455 -0.122757
v 1.509337 1.920455 0.029490
v 1.446814 1.839683 0.029490
v 1.446814 1.839683 -0.122757
v 1.604753 1.842654 -0.122757
v 1.604753 1.842654 0.029490
v 1.538220 1.765152 0.029490
v 1.538220 1.765152 -0.122757
v 1.696106 1.760119 -0.122757
v 1.696106 1.760119 0.029490
v 1.625733 1.686087 0.029490
v 1.625733 1.686087 -0.122757
v 1.783162 1.673064 -0.122757
v 1.783162 1.673064 0.029490
v 1.709129 1.602691 0.029489
v 1.709129 1.602691 -0.122757
v 1.865696 1.581710 -0.122757
v 1.865696 1.581710 0.029489
v 1.788194 1.515177 0.029489
v 1.788194 1.515177 -0.122757
v 1.943498 1.486294 -0.122757
v 1.943498 1.486294 0.029489
v 1.862725 1.423772 0.029489
v 1.862725 1.423772 -0.122757
v 2.016367 1.387060 -0.122757
v 2.016367 1.387060 0.029489
v 1.932531 1.328709 0.029489
v 1.932531 1.328709 -0.122757
v 2.084116 1.284262 -0.122757
v 2.084116 1.284262 0.029489
v 1.997433 1.230232 0.029489
v 1.997433 1.230232 -0.122757
v 2.146572 1.178165 -0.122757
v 2.146572 1.178165 0.029489
v 2.057263 1.128595 0.029489
v 2.057263 1.128595 -0.122757
v 2.203574 1.069040 -0.122757
v 2.203574 1.069040 0.029489
v 2.111869 1.024057 0.029489
v 2.111869 1.024057 -0.122757
v 2.254975 0.957169 -0.122757
v 2.254975 0.957169 0.029489
v 2.161110 0.916888 0.029489
v 2.161110 0.916888 -0.122757
v 2.300645 0.842838 -0.122757
v 2.300645 0.842838 0.029489
v 2.204860 0.807363 0.029489
v 2.204860 0.807363 -0.122757
v 2.340465 0.726340 -0.122757
v 2.340465 0.726340 0.029489
v 2.243006 0.695762 0.029489
v 2.243006 0.695762 -0.122757
v 2.374333 0.607975 -0.122757
v 2.374333 0.607975 0.029489
v 2.275451 0.582373 0.029489
v 2.275451 0.582373 -0.122757
v 2.402163 0.488047 -0.122757
v 2.402163 0.488047 0.029489
v 2.302111 0.467485 0.029489
v 2.302111 0.467485 -0.122757
v 2.423883 0.366863 -0.122757
v 2.423883 0.366863 0.029489
v 2.322918 0.351395 0.029489
v 2.322918 0.351395 -0.122757
v 2.439437 0.244734 -0.122758
v 2.439437 0.244734 0.029489
v 2.337818 0.234400 0.029489
v 2.337818 0.234400 -0.122758
v 2.448785 0.121974 -0.122758
v 2.448785 0.121974 0.029489
v 2.346774 0.116801 0.029489
v 2.346774 0.116801 -0.122758
v 2.451904 -0.001101 -0.122758
v 2.451904 -0.001101 0.029489
v 2.349761 -0.001101 0.029489
v 2.349761 -0.001101 -0.122758
v 2.420412 0.023539 -0.075436
v 2.420412 -0.014811 -0.075436
v 3.223331 0.023539 -0.075436
v 3.223331 -0.014810 -0.075436
v 2.420412 0.023539 0.006295
v 2.420412 -0.014811 0.006295
v 3.223331 0.023539 0.006295
v 3.223331 -0.014810 0.006295
v 2.420412 0.113544 -0.075436
v 2.420412 0.075195 -0.075436
v 3.223331 0.113545 -0.075436
v 3.223331 0.075195 -0.075436
v 2.420412 0.113544 0.006295
v 2.420412 0.075195 0.006295
v 3.223331 0.113545 0.006295
v 3.223331 0.075195 0.006295
v 2.420412 0.203917 -0.075436
v 2.420412 0.165568 -0.075436
v 3.223331 0.203917 -0.075436
v 3.223331 0.165568 -0.075436
v 2.420412 0.203917 0.006295
v 2.420412 0.165568 0.006295
v 3.223331 0.203917 0.006295
v 3.223331 0.165568 0.006295
v -3.265477 -0.003846 -0.122758
v -3.265477 -0.003846 0.029489
v -3.133856 -0.003846 0.029489
v -3.133856 -0.003846 -0.122758
v -3.247468 0.339783 -0.122757
v -3.247468 0.339783 0.029489
v -3.116568 0.326025 0.029489
v -3.116568 0.326025 -0.122757
v -3.193639 0.679647 -0.122757
v -3.193639 0.679646 0.029489
v -3.064894 0.652281 0.029489
v -3.064894 0.652281 -0.122757
v -3.104579 1.012021 -0.122757
v -3.104579 1.012021 0.029489
v -2.979400 0.971348 0.029489
v -2.979400 0.971348 -0.122757
v -2.981265 1.333266 -0.122757
v -2.981265 1.333266 0.029489
v -2.861023 1.279731 0.029489
v -2.861023 1.279731 -0.122757
v -2.825047 1.639861 -0.122757
v -2.825047 1.639861 0.029490
v -2.711060 1.574051 0.029489
v -2.711060 1.574051 -0.122757
v -2.637637 1.928448 -0.122757
v -2.637637 1.928448 0.029490
v -2.531153 1.851084 0.029490
v -2.531153 1.851084 -0.122757
v -2.421088 2.195864 -0.122757
v -2.421088 2.195864 0.029490
v -2.323275 2.107793 0.029490
v -2.323275 2.107793 -0.122757
v -2.177773 2.439180 -0.122757
v -2.177773 2.439180 0.029490
v -2.089701 2.341367 0.029490
v -2.089701 2.341367 -0.122757
v -1.910357 2.655729 -0.122757
v -1.910357 2.655729 0.029490
v -1.832992 2.549245 0.029490
v -1.832992 2.549245 -0.122757
v -1.621771 2.843140 -0.122757
v -1.621771 2.843140 0.029490
v -1.555960 2.729152 0.029490
v -1.555960 2.729152 -0.122757
v -1.315176 2.999358 -0.122757
v -1.315176 2.999358 0.029490
v -1.261640 2.879117 0.029490
v -1.261640 2.879117 -0.122757
v -0.993930 3.122673 -0.122757
v -0.993930 3.122673 0.029490
v -0.953257 2.997494 0.029490
v -0.953257 2.997494 -0.122757
v -0.661555 3.211733 -0.122757
v -0.661555 3.211733 0.029490
v -0.634189 3.082988 0.029490
v -0.634189 3.082988 -0.122757
v -0.321691 3.265563 -0.122757
v -0.321691 3.265563 0.029490
v -0.307933 3.134662 0.029490
v -0.307933 3.134662 -0.122757
v 0.021937 3.283572 -0.122757
v 0.021937 3.283572 0.029490
v 0.021937 3.151951 0.029490
v 0.021937 3.151951 -0.122757
v 0.365566 3.265563 -0.122757
v 0.365566 3.265563 0.029490
v 0.351808 3.134663 0.029490
v 0.351808 3.134663 -0.122757
v 0.705430 3.211734 -0.122757
v 0.705430 3.211734 0.029490
v 0.678065 3.082989 0.029490
v 0.678065 3.082989 -0.122757
v 1.037805 3.122675 -0.122757
v 1.037805 3.122675 0.029490
v 0.997132 2.997496 0.029490
v 0.997132 2.997496 -0.122757
v 1.359051 2.999361 -0.122757
v 1.359051 2.999361 0.029490
v 1.305516 2.879119 0.029490
v 1.305516 2.879119 -0.122757
v 1.665647 2.843143 -0.122757
v 1.665647 2.843143 0.029490
v 1.599836 2.729156 0.029490
v 1.599836 2.729156 -0.122757
v 1.954234 2.655733 -0.122757
v 1.954234 2.655733 0.029490
v 1.876869 2.549249 0.029490
v 1.876869 2.549249 -0.122757
v 2.221650 2.439183 -0.122757
v 2.221650 2.439183 0.029490
v 2.133579 2.341370 0.029490
v 2.133579 2.341370 -0.122757
v 2.464966 2.195868 -0.122757
v 2.464966 2.195868 0.029490
v 2.367153 2.107796 0.029490
v 2.367153 2.107796 -0.122757
v 2.681515 1.928452 -0.122757
v 2.681515 1.928452 0.029490
v 2.575032 1.851087 0.029490
v 2.575032 1.851087 -0.122757
v 2.868926 1.639866 -0.122757
v 2.868926 1.639866 0.029490
v 2.754939 1.574055 0.029489
v 2.754939 1.574055 -0.122757
v 3.025145 1.333270 -0.122757
v 3.025145 1.333270 0.029489
v 2.904903 1.279735 0.029489
v 2.904903 1.279735 -0.122757
v 3.148460 1.012025 -0.122757
v 3.148460 1.012025 0.029489
v 3.023281 0.971352 0.029489
v 3.023281 0.971352 -0.122757
v 3.237520 0.679650 -0.122757
v 3.237520 0.679650 0.029489
v 3.108775 0.652284 0.029489
v 3.108775 0.652284 -0.122757
v 3.291349 0.339786 -0.122757
v 3.291349 0.339786 0.029489
v 3.160449 0.326028 0.029489
v 3.160449 0.326028 -0.122757
v 3.309358 -0.003843 -0.122758
v 3.309358 -0.003843 0.029489
v 3.177737 -0.003843 0.029489
v 3.177737 -0.003843 -0.122758
v 2.116984 1.155201 -0.075436
v 2.136159 1.121990 -0.075436
v 2.812333 1.556661 -0.075436
v 2.831507 1.523449 -0.075436
v 2.116984 1.155201 0.006295
v 2.136159 1.121990 0.006295
v 2.812333 1.556661 0.006295
v 2.831507 1.523449 0.006295
v 2.059637 1.254530 -0.075436
v 2.078812 1.221318 -0.075436
v 2.754985 1.655989 -0.075436
v 2.774160 1.622778 -0.075436
v 2.059637 1.254530 0.006295
v 2.078812 1.221318 0.006295
v 2.754985 1.655989 0.006295
v 2.774160 1.622778 0.006295
v 1.205579 2.079977 -0.075436
v 1.238790 2.060802 -0.075436
v 1.607038 2.775325 -0.075436
v 1.640250 2.756150 -0.075436
v 1.205579 2.079977 0.006295
v 1.238790 2.060802 0.006295
v 1.607038 2.775325 0.006295
v 1.640250 2.756150 0.006295
v 0.217083 2.380609 -0.075436
v 0.255432 2.380609 -0.075436
v 0.217083 3.183528 -0.075436
v 0.255432 3.183528 -0.075436
v 0.217083 2.380609 0.006295
v 0.255432 2.380609 0.006295
v 0.217083 3.183528 0.006295
v 0.255432 3.183528 0.006295
v 0.102388 2.380609 -0.075436
v 0.140738 2.380609 -0.075436
v 0.102388 3.183528 -0.075436
v 0.140738 3.183528 -0.075436
v 0.102388 2.380609 0.006295
v 0.140738 2.380609 0.006295
v 0.102388 3.183528 0.006295
v 0.140738 3.183528 0.006295
v 0.028767 2.388467 -0.075436
v 0.068988 2.403106 -0.075436
v -0.252423 3.161031 -0.075436
v -0.212203 3.175670 -0.075436
v 0.028767 2.388467 0.015784
v 0.068988 2.403106 0.015784
v -0.252423 3.161031 0.015784
v -0.212202 3.175670 0.015784
v -0.252423 2.403106 -0.075436
v -0.212203 2.388467 -0.075436
v 0.028767 3.175670 -0.075436
v 0.068988 3.161031 -0.075436
v -0.252423 2.403106 0.015784
v -0.212203 2.388467 0.015784
v 0.028767 3.175670 0.015784
v 0.068988 3.161031 0.015784
v -0.880296 2.205456 -0.075436
v -0.845540 2.221663 -0.075436
v -1.219625 2.933148 -0.075436
v -1.184868 2.949355 -0.075436
v -0.880296 2.205456 0.006295
v -0.845540 2.221663 0.006295
v -1.219625 2.933148 0.006295
v -1.184868 2.949355 0.006295
v -0.950341 2.181464 -0.075436
v -0.920076 2.211730 -0.075436
v -1.531685 2.762809 -0.075436
v -1.501420 2.793074 -0.075436
v -0.950341 2.181464 0.015784
v -0.920076 2.211730 0.015784
v -1.531685 2.762809 0.015784
v -1.501420 2.793074 0.015784
v -1.211373 2.075896 -0.075436
v -1.168734 2.079626 -0.075436
v -1.283027 2.894912 -0.075436
v -1.240388 2.898642 -0.075436
v -1.211373 2.075896 0.015784
v -1.168734 2.079626 0.015784
v -1.283027 2.894912 0.015784
v -1.240388 2.898642 0.015784
v -1.858452 1.475543 -0.075436
v -1.847374 1.516886 -0.075436
v -2.652582 1.688330 -0.075436
v -2.641505 1.729673 -0.075436
v -1.858452 1.475543 0.015784
v -1.847374 1.516886 0.015784
v -2.652582 1.688330 0.015784
v -2.641505 1.729673 0.015784
v -2.031727 1.253602 -0.075436
v -1.996666 1.278152 -0.075436
v -2.503290 1.927064 -0.075436
v -2.468229 1.951614 -0.075436
v -2.031727 1.253602 0.015784
v -1.996666 1.278152 0.015784
v -2.503290 1.927064 0.015784
v -2.468229 1.951614 0.015784
v -2.364416 0.025880 -0.075436
v -2.364416 0.064229 -0.075436
v -3.167335 0.025880 -0.075436
v -3.167335 0.064230 -0.075436
v -2.364416 0.025880 0.006295
v -2.364416 0.064229 0.006295
v -3.167335 0.025880 0.006295
v -3.167335 0.064230 0.006295
v -2.379461 0.109236 -0.075436
v -2.362010 0.148318 -0.075436
v -3.130166 0.444445 -0.075436
v -3.112715 0.483527 -0.075436
v -2.379461 0.109236 0.015784
v -2.362010 0.148318 0.015784
v -3.130166 0.444444 0.015784
v -3.112714 0.483527 0.015784
v -2.344941 0.388683 -0.075436
v -2.356694 0.429839 -0.075436
v -3.135481 0.162924 -0.075436
v -3.147235 0.204080 -0.075436
v -2.344941 0.388683 0.015784
v -2.356694 0.429839 0.015784
v -3.135481 0.162924 0.015784
v -3.147235 0.204080 0.015784
vn -0.9997 0.0253 -0.0000
vn -0.9987 0.0506 -0.0000
vn -0.0000 -0.0000 1.0000
vn 0.9997 -0.0253 -0.0000
vn 0.9987 -0.0506 -0.0000
vn 0.9987 -0.0507 -0.0000
vn -0.0000 -0.0000 -1.0000
vn -0.9949 0.1012 -0.0000
vn 0.9949 -0.1012 -0.0000
vn -0.9885 0.1514 -0.0000
vn 0.9885 -0.1514 -0.0000
vn -0.9795 0.2013 -0.0000
vn 0.9795 -0.2013 -0.0000
vn -0.9681 0.2507 -0.0000
vn 0.9681 -0.2507 -0.0000
vn -0.9541 0.2994 -0.0000
vn 0.9541 -0.2994 -0.0000
vn -0.9378 0.3473 -0.0000
vn 0.9378 -0.3473 -0.0000
vn -0.9190 0.3944 -0.0000
vn 0.9190 -0.3944 -0.0000
vn -0.8978 0.4404 -0.0000
vn 0.8978 -0.4404 -0.0000
vn -0.8743 0.4853 -0.0000
vn 0.8743 -0.4853 -0.0000
vn -0.8486 0.5290 -0.0000
vn 0.8486 -0.5290 -0.0000
vn -0.8208 0.5713 -0.0000
vn 0.8208 -0.5713 -0.0000
vn -0.7908 0.6121 -0.0000
vn 0.7908 -0.6121 -0.0000
vn -0.7588 0.6514 -0.0000
vn 0.7588 -0.6514 -0.0000
vn -0.7248 0.6890 -0.0000
vn 0.7248 -0.6890 -0.0000
vn -0.6890 0.7248 -0.0000
vn 0.6890 -0.7248 -0.0000
vn -0.6514 0.7588 -0.0000
vn 0.6514 -0.7588 -0.0000
vn -0.6121 0.7908 -0.0000
vn 0.6121 -0.7908 -0.0000
vn -0.5713 0.8208 -0.0000
vn 0.5713 -0.8208 -0.0000
vn -0.5290 0.8486 -0.0000
vn 0.5290 -0.8486 -0.0000
vn -0.4853 0.8743 -0.0000
vn 0.4853 -0.8743 -0.0000
vn -0.4404 0.8978 -0.0000
vn 0.4404 -0.8978 -0.0000
vn -0.3944 0.9190 -0.0000
vn 0.3944 -0.9190 -0.0000
vn -0.3473 0.9378 -0.0000
vn 0.3473 -0.9378 -0.0000
vn -0.2994 0.9541 -0.0000
vn 0.2994 -0.9541 -0.0000
vn -0.2507 0.9681 -0.0000
vn 0.2507 -0.9681 -0.0000
vn -0.2013 0.9795 -0.0000
vn 0.2013 -0.9795 -0.0000
vn -0.1514 0.9885 -0.0000
vn 0.1514 -0.9885 -0.0000
vn -0.1012 0.9949 -0.0000
vn 0.1012 -0.9949 -0.0000
vn -0.0506 0.9987 -0.0000
vn 0.0506 -0.9987 -0.0000
vn -0.0000 1.0000 -0.0000
vn -0.0000 -1.0000 -0.0000
vn 0.0506 0.9987 -0.0000
vn 0.0507 0.9987 -0.0000
vn -0.0506 -0.9987 -0.0000
vn -0.0507 -0.9987 -0.0000
vn 0.1012 0.9949 -0.0000
vn -0.1012 -0.9949 -0.0000
vn 0.1514 0.9885 -0.0000
vn -0.1514 -0.9885 -0.0000
vn 0.2013 0.9795 -0.0000
vn -0.2013 -0.9795 -0.0000
vn 0.2507 0.9681 -0.0000
vn -0.2507 -0.9681 -0.0000
vn 0.2994 0.9541 -0.0000
vn -0.2994 -0.9541 -0.0000
vn 0.3473 0.9378 -0.0000
vn -0.3473 -0.9378 -0.0000
vn 0.3944 0.9190 -0.0000
vn -0.3944 -0.9190 -0.0000
vn 0.4404 0.8978 -0.0000
vn -0.4404 -0.8978 -0.0000
vn 0.4853 0.8743 -0.0000
vn -0.4853 -0.8743 -0.0000
vn 0.5290 0.8486 -0.0000
vn -0.5290 -0.8486 -0.0000
vn 0.5713 0.8208 -0.0000
vn -0.5713 -0.8208 -0.0000
vn 0.6121 0.7908 -0.0000
vn -0.6121 -0.7908 -0.0000
vn 0.6514 0.7588 -0.0000
vn -0.6514 -0.7588 -0.0000
vn 0.6890 0.7248 -0.0000
vn -0.6890 -0.7248 -0.0000
vn 0.7248 0.6890 -0.0000
vn -0.7248 -0.6890 -0.0000
vn 0.7588 0.6514 -0.0000
vn -0.7588 -0.6514 -0.0000
vn 0.7908 0.6121 -0.0000
vn -0.7908 -0.6121 -0.0000
vn 0.8208 0.5713 -0.0000
vn -0.8208 -0.5713 -0.0000
vn 0.8486 0.5290 -0.0000
vn -0.8486 -0.5290 -0.0000
vn 0.8743 0.4853 -0.0000
vn -0.8743 -0.4853 -0.0000
vn 0.8978 0.4404 -0.0000
vn -0.8978 -0.4404 -0.0000
vn 0.9190 0.3944 -0.0000
vn -0.9190 -0.3944 -0.0000
vn 0.9378 0.3473 -0.0000
vn -0.9378 -0.3473 -0.0000
vn 0.9541 0.2994 -0.0000
vn -0.9541 -0.2994 -0.0000
vn 0.9681 0.2507 -0.0000
vn -0.9681 -0.2507 -0.0000
vn 0.9795 0.2013 -0.0000
vn -0.9795 -0.2013 -0.0000
vn 0.9885 0.1514 -0.0000
vn -0.9885 -0.1514 -0.0000
vn 0.9949 0.1012 -0.0000
vn -0.9949 -0.1012 -0.0000
vn 0.9987 0.0506 -0.0000
vn -0.9987 -0.0506 -0.0000
vn 0.9997 0.0253 -0.0000
vn -0.9997 -0.0253 -0.0000
vn -1.0000 -0.0000 -0.0000
vn 1.0000 -0.0000 -0.0000
vn -0.9986 0.0523 -0.0000
vn -0.9945 0.1045 -0.0000
vn 0.9986 -0.0523 -0.0000
vn 0.9945 -0.1045 -0.0000
vn -0.9781 0.2079 -0.0000
vn 0.9781 -0.2079 -0.0000
vn -0.9511 0.3090 -0.0000
vn 0.9511 -0.3090 -0.0000
vn -0.9135 0.4067 -0.0000
vn 0.9135 -0.4067 -0.0000
vn -0.8660 0.5000 -0.0000
vn 0.8660 -0.5000 -0.0000
vn -0.8090 0.5878 -0.0000
vn 0.8090 -0.5878 -0.0000
vn -0.7431 0.6691 -0.0000
vn 0.7431 -0.6691 -0.0000
vn -0.6691 0.7431 -0.0000
vn 0.6691 -0.7431 -0.0000
vn -0.5878 0.8090 -0.0000
vn 0.5878 -0.8090 -0.0000
vn -0.5000 0.8660 -0.0000
vn 0.5000 -0.8660 -0.0000
vn -0.4067 0.9135 -0.0000
vn 0.4067 -0.9135 -0.0000
vn -0.3090 0.9511 -0.0000
vn 0.3090 -0.9511 -0.0000
vn -0.2079 0.9781 -0.0000
vn 0.2079 -0.9781 -0.0000
vn -0.1045 0.9945 -0.0000
vn 0.1045 -0.9945 -0.0000
vn 0.1045 0.9945 -0.0000
vn -0.1045 -0.9945 -0.0000
vn 0.2079 0.9781 -0.0000
vn -0.2079 -0.9781 -0.0000
vn 0.3090 0.9511 -0.0000
vn -0.3090 -0.9511 -0.0000
vn 0.4067 0.9135 -0.0000
vn -0.4067 -0.9135 -0.0000
vn 0.5000 0.8660 -0.0000
vn -0.5000 -0.8660 -0.0000
vn 0.5878 0.8090 -0.0000
vn -0.5878 -0.8090 -0.0000
vn 0.6691 0.7431 -0.0000
vn -0.6691 -0.7431 -0.0000
vn 0.7431 0.6691 -0.0000
vn -0.7431 -0.6691 -0.0000
vn 0.8090 0.5878 -0.0000
vn -0.8090 -0.5878 -0.0000
vn 0.8660 0.5000 -0.0000
vn -0.8660 -0.5000 -0.0000
vn 0.9135 0.4067 -0.0000
vn -0.9135 -0.4067 -0.0000
vn 0.9511 0.3090 -0.0000
vn -0.9511 -0.3090 -0.0000
vn 0.9781 0.2079 -0.0000
vn -0.9781 -0.2079 -0.0000
vn 0.9945 0.1045 -0.0000
vn -0.9945 -0.1045 -0.0000
vn 0.9986 0.0523 -0.0000
vn -0.9986 -0.0523 -0.0000
vn 0.3420 -0.9397 -0.0000
vn 0.9397 0.3420 -0.0000
vn -0.3420 0.9397 -0.0000
vn -0.9397 -0.3420 -0.0000
vn -0.3420 -0.9397 -0.0000
vn 0.9397 -0.3420 -0.0000
vn 0.3420 0.9397 -0.0000
vn -0.9397 0.3420 -0.0000
vn 0.4226 -0.9063 -0.0000
vn 0.9063 0.4226 -0.0000
vn -0.4226 0.9063 -0.0000
vn -0.9063 -0.4226 -0.0000
vn 0.7071 -0.7071 -0.0000
vn 0.7071 0.7071 -0.0000
vn -0.7071 0.7071 -0.0000
vn -0.7071 -0.7071 -0.0000
vn 0.0872 -0.9962 -0.0000
vn 0.9962 0.0872 -0.0000
vn -0.0872 0.9962 -0.0000
vn -0.9962 -0.0872 -0.0000
vn 0.9659 -0.2588 -0.0000
vn 0.2588 0.9659 -0.0000
vn -0.9659 0.2588 -0.0000
vn -0.2588 -0.9659 -0.0000
vn 0.5736 -0.8192 -0.0000
vn 0.8192 0.5736 -0.0000
vn -0.5736 0.8192 -0.0000
vn -0.8192 -0.5736 -0.0000
vn 0.9131 -0.4077 -0.0000
vn 0.4077 0.9131 -0.0000
vn -0.9131 0.4077 -0.0000
vn -0.4077 -0.9131 -0.0000
vn 0.9616 0.2746 -0.0000
vn -0.2746 0.9616 -0.0000
vn -0.9616 -0.2746 -0.0000
vn 0.2746 -0.9616 -0.0000
vt 0.058231 0.384504
vt 0.067116 0.384504
vt 0.067116 0.391686
vt 0.058231 0.391686
vt 0.002785 0.272055
vt 0.002785 0.266379
vt 0.009336 0.266213
vt 0.009624 0.271881
vt 0.058613 0.482567
vt 0.049666 0.482567
vt 0.049666 0.475638
vt 0.058613 0.475638
vt 0.137812 0.538801
vt 0.137812 0.544477
vt 0.130973 0.544303
vt 0.131261 0.538635
vt 0.067116 0.398851
vt 0.058231 0.398851
vt 0.015871 0.265715
vt 0.016445 0.271362
vt 0.049666 0.468727
vt 0.058613 0.468727
vt 0.124152 0.543784
vt 0.124726 0.538137
vt 0.067116 0.405978
vt 0.058231 0.405978
vt 0.022372 0.264887
vt 0.023232 0.270497
vt 0.049666 0.461852
vt 0.058613 0.461852
vt 0.117365 0.542919
vt 0.118225 0.537309
vt 0.067116 0.413051
vt 0.058231 0.413051
vt 0.028823 0.263731
vt 0.029966 0.269291
vt 0.049666 0.455029
vt 0.058613 0.455029
vt 0.110631 0.541713
vt 0.111774 0.536153
vt 0.067116 0.420050
vt 0.058231 0.420050
vt 0.035207 0.262249
vt 0.036630 0.267744
vt 0.049666 0.448278
vt 0.058613 0.448278
vt 0.103967 0.540166
vt 0.105390 0.534671
vt 0.067116 0.426958
vt 0.058231 0.426958
vt 0.041508 0.260447
vt 0.043207 0.265862
vt 0.049666 0.441614
vt 0.058613 0.441614
vt 0.097390 0.538284
vt 0.099089 0.532869
vt 0.067116 0.433757
vt 0.058231 0.433757
vt 0.047709 0.258327
vt 0.049681 0.263649
vt 0.049666 0.435056
vt 0.058613 0.435056
vt 0.090916 0.536071
vt 0.092888 0.530749
vt 0.067116 0.440429
vt 0.058231 0.440429
vt 0.053795 0.255896
vt 0.056034 0.261112
vt 0.049666 0.428620
vt 0.058613 0.428620
vt 0.084563 0.533534
vt 0.086802 0.528318
vt 0.067116 0.446958
vt 0.058231 0.446958
vt 0.059751 0.253160
vt 0.062250 0.258255
vt 0.049666 0.422322
vt 0.058613 0.422322
vt 0.078347 0.530677
vt 0.080846 0.525582
vt 0.067116 0.453327
vt 0.058231 0.453327
vt 0.065559 0.250125
vt 0.068314 0.255088
vt 0.049666 0.416178
vt 0.058613 0.416178
vt 0.072283 0.527510
vt 0.075038 0.522547
vt 0.067116 0.459519
vt 0.058231 0.459519
vt 0.071207 0.246801
vt 0.074209 0.251617
vt 0.049666 0.410205
vt 0.058613 0.410205
vt 0.066387 0.524039
vt 0.069390 0.519223
vt 0.067116 0.465518
vt 0.058231 0.465518
vt 0.076679 0.243194
vt 0.079922 0.247853
vt 0.049666 0.404418
vt 0.058613 0.404418
vt 0.060675 0.520275
vt 0.063918 0.515616
vt 0.067116 0.471310
vt 0.058231 0.471310
vt 0.081962 0.239315
vt 0.085436 0.243804
vt 0.049666 0.398832
vt 0.058613 0.398832
vt 0.055161 0.516226
vt 0.058635 0.511737
vt 0.067116 0.476878
vt 0.058231 0.476878
vt 0.087041 0.235174
vt 0.090738 0.239480
vt 0.049666 0.393460
vt 0.058613 0.393460
vt 0.049859 0.511902
vt 0.053556 0.507596
vt 0.067116 0.482210
vt 0.058231 0.482210
vt 0.091904 0.230780
vt 0.095814 0.234894
vt 0.049666 0.388317
vt 0.058613 0.388317
vt 0.044783 0.507316
vt 0.048693 0.503202
vt 0.021056 0.060116
vt 0.030003 0.060116
vt 0.030003 0.065232
vt 0.021056 0.065232
vt 0.096538 0.226146
vt 0.100652 0.230057
vt 0.049666 0.383416
vt 0.058613 0.383416
vt 0.039945 0.502479
vt 0.044059 0.498568
vt 0.030003 0.070600
vt 0.021056 0.070600
vt 0.100931 0.221283
vt 0.105238 0.224980
vt 0.019453 0.269203
vt 0.010536 0.269203
vt 0.010536 0.264078
vt 0.019453 0.264078
vt 0.035359 0.497402
vt 0.039666 0.493705
vt 0.030003 0.076207
vt 0.021056 0.076207
vt 0.105073 0.216204
vt 0.109561 0.219678
vt 0.010536 0.258724
vt 0.019453 0.258724
vt 0.031036 0.492100
vt 0.035524 0.488626
vt 0.030003 0.082039
vt 0.021056 0.082039
vt 0.108952 0.210922
vt 0.113610 0.214164
vt 0.010536 0.253157
vt 0.019453 0.253157
vt 0.026987 0.486586
vt 0.031645 0.483344
vt 0.030003 0.088080
vt 0.021056 0.088080
vt 0.112558 0.205450
vt 0.117375 0.208452
vt 0.010536 0.247389
vt 0.019453 0.247389
vt 0.023222 0.480874
vt 0.028039 0.477872
vt 0.030003 0.094315
vt 0.021056 0.094315
vt 0.115883 0.199802
vt 0.120846 0.202556
vt 0.010536 0.241436
vt 0.019453 0.241436
vt 0.019751 0.474978
vt 0.024714 0.472224
vt 0.030003 0.100728
vt 0.021056 0.100728
vt 0.118917 0.193993
vt 0.124013 0.196493
vt 0.010536 0.235313
vt 0.019453 0.235313
vt 0.016584 0.468914
vt 0.021680 0.466415
vt 0.030003 0.107302
vt 0.021056 0.107302
vt 0.121653 0.188038
vt 0.126869 0.190276
vt 0.010536 0.229036
vt 0.019453 0.229036
vt 0.013728 0.462698
vt 0.018944 0.460460
vt 0.030003 0.114021
vt 0.021056 0.114021
vt 0.124084 0.181952
vt 0.129407 0.183923
vt 0.010536 0.222622
vt 0.019453 0.222622
vt 0.011190 0.456345
vt 0.016513 0.454374
vt 0.030003 0.120867
vt 0.021056 0.120867
vt 0.126204 0.175750
vt 0.131620 0.177449
vt 0.010536 0.216085
vt 0.019453 0.216085
vt 0.008977 0.449871
vt 0.014393 0.448172
vt 0.030003 0.127823
vt 0.021056 0.127823
vt 0.128007 0.169450
vt 0.133502 0.170872
vt 0.010536 0.209444
vt 0.019453 0.209444
vt 0.007095 0.443294
vt 0.012590 0.441871
vt 0.030003 0.134871
vt 0.021056 0.134871
vt 0.129489 0.163066
vt 0.135048 0.164208
vt 0.010536 0.202715
vt 0.019453 0.202715
vt 0.005549 0.436630
vt 0.011108 0.435488
vt 0.030003 0.141993
vt 0.021056 0.141993
vt 0.130645 0.156615
vt 0.136255 0.157474
vt 0.010536 0.195916
vt 0.019453 0.195916
vt 0.004342 0.429896
vt 0.009952 0.429037
vt 0.030003 0.149170
vt 0.021056 0.149170
vt 0.131473 0.150114
vt 0.137119 0.150688
vt 0.010536 0.189064
vt 0.019453 0.189064
vt 0.003478 0.423110
vt 0.009124 0.422536
vt 0.030003 0.156384
vt 0.021056 0.156384
vt 0.131970 0.143579
vt 0.137639 0.143866
vt 0.010536 0.182176
vt 0.019453 0.182176
vt 0.002958 0.416288
vt 0.008627 0.416001
vt 0.030003 0.163617
vt 0.021056 0.163617
vt 0.132136 0.137027
vt 0.137812 0.137027
vt 0.010536 0.175270
vt 0.019453 0.175270
vt 0.002785 0.409449
vt 0.008461 0.409449
vt 0.030003 0.170849
vt 0.021056 0.170849
vt 0.131970 0.130476
vt 0.137639 0.130188
vt 0.010536 0.168365
vt 0.019453 0.168365
vt 0.002958 0.402610
vt 0.008627 0.402898
vt 0.030003 0.178064
vt 0.021056 0.178064
vt 0.131473 0.123941
vt 0.137119 0.123367
vt 0.010536 0.161477
vt 0.019453 0.161477
vt 0.003478 0.395789
vt 0.009124 0.396363
vt 0.030003 0.185241
vt 0.021056 0.185241
vt 0.130645 0.117440
vt 0.136255 0.116580
vt 0.010536 0.154625
vt 0.019453 0.154625
vt 0.004342 0.389002
vt 0.009952 0.389862
vt 0.030003 0.192362
vt 0.021056 0.192362
vt 0.129489 0.110989
vt 0.135048 0.109846
vt 0.010536 0.147825
vt 0.019453 0.147825
vt 0.005549 0.382268
vt 0.011108 0.383411
vt 0.030003 0.199410
vt 0.021056 0.199410
vt 0.128007 0.104605
vt 0.133502 0.103182
vt 0.010536 0.141097
vt 0.019453 0.141097
vt 0.007095 0.375604
vt 0.012590 0.377027
vt 0.030003 0.206366
vt 0.021056 0.206366
vt 0.126204 0.098304
vt 0.131620 0.096605
vt 0.010536 0.134455
vt 0.019453 0.134455
vt 0.008977 0.369027
vt 0.014393 0.370726
vt 0.030003 0.213212
vt 0.021056 0.213212
vt 0.124084 0.092103
vt 0.129407 0.090132
vt 0.010536 0.127919
vt 0.019453 0.127919
vt 0.011190 0.362554
vt 0.016513 0.364525
vt 0.030003 0.219931
vt 0.021056 0.219931
vt 0.121653 0.086017
vt 0.126869 0.083778
vt 0.010536 0.121504
vt 0.019453 0.121504
vt 0.013728 0.356200
vt 0.018944 0.358439
vt 0.030003 0.226505
vt 0.021056 0.226505
vt 0.118917 0.080062
vt 0.124013 0.077562
vt 0.010536 0.115227
vt 0.019453 0.115227
vt 0.016584 0.349984
vt 0.021680 0.352484
vt 0.030003 0.232918
vt 0.021056 0.232918
vt 0.115883 0.074253
vt 0.120846 0.071498
vt 0.010536 0.109105
vt 0.019453 0.109105
vt 0.019751 0.343920
vt 0.024714 0.346675
vt 0.030003 0.239153
vt 0.021056 0.239153
vt 0.112558 0.068605
vt 0.117375 0.065603
vt 0.010536 0.103152
vt 0.019453 0.103152
vt 0.023222 0.338025
vt 0.028039 0.341027
vt 0.030003 0.245194
vt 0.021056 0.245194
vt 0.108952 0.063133
vt 0.113610 0.059890
vt 0.010536 0.097384
vt 0.019453 0.097384
vt 0.026987 0.332312
vt 0.031645 0.335555
vt 0.030003 0.251026
vt 0.021056 0.251026
vt 0.105073 0.057850
vt 0.109561 0.054376
vt 0.010536 0.091816
vt 0.019453 0.091816
vt 0.031036 0.326798
vt 0.035524 0.330272
vt 0.030003 0.256633
vt 0.021056 0.256633
vt 0.100931 0.052771
vt 0.105238 0.049074
vt 0.010536 0.086463
vt 0.019453 0.086463
vt 0.035359 0.321496
vt 0.039666 0.325193
vt 0.030003 0.262002
vt 0.021056 0.262002
vt 0.096538 0.047908
vt 0.100652 0.043998
vt 0.010536 0.081337
vt 0.019453 0.081337
vt 0.039945 0.316420
vt 0.044059 0.320330
vt 0.030003 0.267118
vt 0.021056 0.267118
vt 0.091904 0.043274
vt 0.095814 0.039160
vt 0.010536 0.076453
vt 0.019453 0.076453
vt 0.044783 0.311582
vt 0.048693 0.315696
vt 0.120194 0.381779
vt 0.129079 0.381779
vt 0.129079 0.387111
vt 0.120194 0.387111
vt 0.087041 0.038881
vt 0.090738 0.034574
vt 0.289006 0.448001
vt 0.280120 0.448001
vt 0.280120 0.442894
vt 0.289006 0.442894
vt 0.049859 0.306996
vt 0.053556 0.311303
vt 0.129079 0.392679
vt 0.120194 0.392679
vt 0.081962 0.034739
vt 0.085436 0.030251
vt 0.280120 0.437559
vt 0.289006 0.437559
vt 0.055161 0.302673
vt 0.058635 0.307161
vt 0.129079 0.398471
vt 0.120194 0.398471
vt 0.076679 0.030860
vt 0.079922 0.026202
vt 0.280120 0.432011
vt 0.289006 0.432011
vt 0.060675 0.298624
vt 0.063918 0.303282
vt 0.129079 0.404470
vt 0.120194 0.404470
vt 0.071207 0.027254
vt 0.074209 0.022437
vt 0.280120 0.426264
vt 0.289006 0.426264
vt 0.066388 0.294859
vt 0.069390 0.299676
vt 0.129079 0.410662
vt 0.120194 0.410662
vt 0.065559 0.023929
vt 0.068314 0.018967
vt 0.280120 0.420332
vt 0.289006 0.420332
vt 0.072283 0.291389
vt 0.075038 0.296351
vt 0.129079 0.417031
vt 0.120194 0.417031
vt 0.059750 0.020895
vt 0.062250 0.015799
vt 0.280120 0.414231
vt 0.289006 0.414231
vt 0.078347 0.288221
vt 0.080847 0.293317
vt 0.129079 0.423560
vt 0.120194 0.423560
vt 0.053795 0.018159
vt 0.056034 0.012943
vt 0.280120 0.407977
vt 0.289006 0.407977
vt 0.084563 0.285365
vt 0.086802 0.290581
vt 0.129079 0.430232
vt 0.120194 0.430232
vt 0.047709 0.015728
vt 0.049681 0.010405
vt 0.280120 0.401585
vt 0.289006 0.401585
vt 0.090916 0.282827
vt 0.092888 0.288150
vt 0.129079 0.437031
vt 0.120194 0.437031
vt 0.041508 0.013608
vt 0.043207 0.008192
vt 0.280120 0.395072
vt 0.289006 0.395072
vt 0.097390 0.280614
vt 0.099089 0.286030
vt 0.129079 0.443939
vt 0.120194 0.443939
vt 0.035207 0.011805
vt 0.036630 0.006310
vt 0.280120 0.388454
vt 0.289006 0.388454
vt 0.103967 0.278732
vt 0.105390 0.284227
vt 0.129079 0.450938
vt 0.120194 0.450938
vt 0.028823 0.010324
vt 0.029966 0.004764
vt 0.280120 0.381749
vt 0.289006 0.381749
vt 0.110631 0.277186
vt 0.111774 0.282746
vt 0.129079 0.458011
vt 0.120194 0.458011
vt 0.022372 0.009167
vt 0.023232 0.003557
vt 0.280120 0.374974
vt 0.289006 0.374974
vt 0.117365 0.275979
vt 0.118225 0.281589
vt 0.129079 0.465138
vt 0.120194 0.465138
vt 0.015871 0.008339
vt 0.016445 0.002693
vt 0.280120 0.368146
vt 0.289006 0.368146
vt 0.124152 0.275115
vt 0.124726 0.280761
vt 0.129079 0.472303
vt 0.120194 0.472303
vt 0.009336 0.007842
vt 0.009624 0.002173
vt 0.280120 0.361283
vt 0.289006 0.361283
vt 0.130973 0.274595
vt 0.131261 0.280264
vt 0.129079 0.479485
vt 0.120194 0.479485
vt 0.002785 0.007676
vt 0.002785 0.002000
vt 0.280120 0.354402
vt 0.289006 0.354402
vt 0.137812 0.274422
vt 0.137812 0.280098
vt 0.081448 0.054902
vt 0.075772 0.054902
vt 0.075772 0.046442
vt 0.081448 0.046442
vt 0.071538 0.054976
vt 0.071538 0.063436
vt 0.065862 0.063436
vt 0.065862 0.054976
vt 0.146948 0.495431
vt 0.146948 0.450814
vt 0.149078 0.450814
vt 0.149078 0.495431
vt 0.216368 0.512295
vt 0.214237 0.512295
vt 0.214237 0.467679
vt 0.216368 0.467679
vt 0.086653 0.050378
vt 0.088784 0.050378
vt 0.088784 0.054919
vt 0.086653 0.054919
vt 0.128923 0.477359
vt 0.128923 0.432743
vt 0.133465 0.432743
vt 0.133465 0.477359
vt 0.081205 0.225424
vt 0.083336 0.225424
vt 0.083336 0.229966
vt 0.081205 0.229966
vt 0.287687 0.545465
vt 0.287687 0.500848
vt 0.292229 0.500848
vt 0.292229 0.545465
vt 0.163366 0.491745
vt 0.163366 0.447129
vt 0.165497 0.447129
vt 0.165497 0.491745
vt 0.293493 0.385072
vt 0.291362 0.385072
vt 0.291362 0.340455
vt 0.293493 0.340455
vt 0.059411 0.034351
vt 0.061542 0.034351
vt 0.061542 0.038892
vt 0.059411 0.038892
vt 0.017021 0.324803
vt 0.017021 0.280187
vt 0.021563 0.280187
vt 0.021563 0.324803
vt 0.064859 0.237853
vt 0.066990 0.237853
vt 0.066990 0.242394
vt 0.064859 0.242394
vt 0.287687 0.250624
vt 0.287687 0.206008
vt 0.292229 0.206008
vt 0.292229 0.250624
vt 0.298733 0.366648
vt 0.298733 0.322032
vt 0.300864 0.322032
vt 0.300864 0.366648
vt 0.190347 0.452617
vt 0.190347 0.450486
vt 0.234963 0.450486
vt 0.234963 0.452617
vt 0.070308 0.234970
vt 0.072439 0.234970
vt 0.072439 0.239512
vt 0.070308 0.239512
vt 0.017021 0.545465
vt 0.017021 0.500848
vt 0.021563 0.500848
vt 0.021563 0.545465
vt 0.075756 0.229522
vt 0.077887 0.229522
vt 0.077887 0.234063
vt 0.075756 0.234063
vt 0.049892 0.385509
vt 0.049892 0.340892
vt 0.054434 0.340892
vt 0.054434 0.385509
vt 0.034660 0.067334
vt 0.043641 0.067334
vt 0.043641 0.087603
vt 0.034660 0.087603
vt 0.139205 0.544059
vt 0.139205 0.536745
vt 0.157535 0.535784
vt 0.158299 0.543058
vt 0.052175 0.211294
vt 0.043195 0.211294
vt 0.043195 0.191836
vt 0.052175 0.191836
vt 0.506154 0.536745
vt 0.506154 0.544059
vt 0.487059 0.543058
vt 0.487824 0.535784
vt 0.043641 0.107650
vt 0.034660 0.107650
vt 0.175664 0.532913
vt 0.177185 0.540067
vt 0.043195 0.172592
vt 0.052175 0.172592
vt 0.468174 0.540067
vt 0.469695 0.532913
vt 0.043641 0.127255
vt 0.034660 0.127255
vt 0.193394 0.528162
vt 0.195654 0.535118
vt 0.043195 0.153771
vt 0.052175 0.153771
vt 0.449705 0.535118
vt 0.451965 0.528162
vt 0.043641 0.146204
vt 0.034660 0.146204
vt 0.210530 0.521584
vt 0.213505 0.528266
vt 0.043195 0.135581
vt 0.052175 0.135581
vt 0.431854 0.528266
vt 0.434829 0.521584
vt 0.043641 0.164289
vt 0.034660 0.164289
vt 0.226885 0.513251
vt 0.230542 0.519585
vt 0.043195 0.118221
vt 0.052175 0.118221
vt 0.414817 0.519585
vt 0.418474 0.513251
vt 0.043641 0.181311
vt 0.034660 0.181311
vt 0.242279 0.503254
vt 0.246578 0.509171
vt 0.043195 0.101880
vt 0.052175 0.101880
vt 0.398781 0.509171
vt 0.403080 0.503254
vt 0.043641 0.197085
vt 0.034660 0.197085
vt 0.256543 0.491703
vt 0.261437 0.497138
vt 0.043195 0.086738
vt 0.052175 0.086738
vt 0.383921 0.497138
vt 0.388815 0.491703
vt 0.043641 0.211437
vt 0.034660 0.211437
vt 0.269523 0.478724
vt 0.274958 0.483618
vt 0.043195 0.072960
vt 0.052175 0.072960
vt 0.370401 0.483618
vt 0.375836 0.478724
vt 0.138211 0.268471
vt 0.147131 0.268471
vt 0.147131 0.284139
vt 0.138211 0.284139
vt 0.281074 0.464459
vt 0.286991 0.468758
vt 0.010920 0.270715
vt 0.002000 0.270715
vt 0.002000 0.255675
vt 0.010920 0.255675
vt 0.358368 0.468758
vt 0.364285 0.464459
vt 0.147131 0.301047
vt 0.138211 0.301047
vt 0.291071 0.449065
vt 0.297405 0.452722
vt 0.002000 0.239443
vt 0.010920 0.239443
vt 0.347954 0.452722
vt 0.354288 0.449065
vt 0.147131 0.319011
vt 0.138211 0.319011
vt 0.299404 0.432710
vt 0.306086 0.435685
vt 0.002000 0.222199
vt 0.010920 0.222199
vt 0.339273 0.435685
vt 0.345955 0.432710
vt 0.147131 0.337832
vt 0.138211 0.337832
vt 0.305982 0.415574
vt 0.312938 0.417834
vt 0.002000 0.204131
vt 0.010920 0.204131
vt 0.332421 0.417834
vt 0.339377 0.415574
vt 0.147131 0.357306
vt 0.138211 0.357306
vt 0.310733 0.397844
vt 0.317887 0.399365
vt 0.002000 0.185437
vt 0.010920 0.185437
vt 0.327472 0.399365
vt 0.334626 0.397844
vt 0.147131 0.377219
vt 0.138211 0.377219
vt 0.313604 0.379715
vt 0.320878 0.380480
vt 0.002000 0.166321
vt 0.010920 0.166321
vt 0.324481 0.380480
vt 0.331755 0.379715
vt 0.147131 0.397352
vt 0.138211 0.397352
vt 0.314565 0.361385
vt 0.321879 0.361385
vt 0.002000 0.146994
vt 0.010920 0.146994
vt 0.323480 0.361385
vt 0.330794 0.361385
vt 0.147131 0.417485
vt 0.138211 0.417485
vt 0.313604 0.343055
vt 0.320878 0.342290
vt 0.002000 0.127667
vt 0.010920 0.127667
vt 0.324481 0.342290
vt 0.331755 0.343055
vt 0.147131 0.437398
vt 0.138211 0.437398
vt 0.310733 0.324926
vt 0.317887 0.323405
vt 0.002000 0.108552
vt 0.010920 0.108552
vt 0.327472 0.323405
vt 0.334626 0.324926
vt 0.147131 0.456872
vt 0.138211 0.456872
vt 0.305982 0.307196
vt 0.312938 0.304936
vt 0.002000 0.089858
vt 0.010920 0.089858
vt 0.332421 0.304936
vt 0.339377 0.307196
vt 0.147131 0.475693
vt 0.138211 0.475693
vt 0.299404 0.290060
vt 0.306086 0.287085
vt 0.002000 0.071790
vt 0.010920 0.071790
vt 0.339273 0.287085
vt 0.345955 0.290060
vt 0.147131 0.493657
vt 0.138211 0.493657
vt 0.291071 0.273705
vt 0.297405 0.270048
vt 0.002000 0.054545
vt 0.010920 0.054545
vt 0.347954 0.270048
vt 0.354288 0.273705
vt 0.147131 0.510565
vt 0.138211 0.510565
vt 0.281074 0.258311
vt 0.286991 0.254012
vt 0.002000 0.038314
vt 0.010920 0.038314
vt 0.358368 0.254012
vt 0.364285 0.258311
vt 0.147131 0.526233
vt 0.138211 0.526233
vt 0.269523 0.244046
vt 0.274958 0.239152
vt 0.002000 0.023273
vt 0.010920 0.023273
vt 0.370401 0.239152
vt 0.375836 0.244046
vt 0.147131 0.540489
vt 0.138211 0.540489
vt 0.256544 0.231067
vt 0.261438 0.225632
vt 0.002000 0.009588
vt 0.010920 0.009588
vt 0.383921 0.225632
vt 0.388815 0.231067
vt 0.059841 0.082251
vt 0.068694 0.082251
vt 0.068694 0.097801
vt 0.059841 0.097801
vt 0.242279 0.219516
vt 0.246578 0.213599
vt 0.043577 0.482489
vt 0.034724 0.482489
vt 0.034724 0.467562
vt 0.043577 0.467562
vt 0.398781 0.213599
vt 0.403080 0.219516
vt 0.068694 0.114581
vt 0.059841 0.114581
vt 0.226885 0.209519
vt 0.230542 0.203185
vt 0.034724 0.451453
vt 0.043577 0.451453
vt 0.414817 0.203185
vt 0.418474 0.209519
vt 0.068694 0.132409
vt 0.059841 0.132409
vt 0.210530 0.201186
vt 0.213505 0.194504
vt 0.034724 0.434339
vt 0.043577 0.434339
vt 0.431854 0.194504
vt 0.434829 0.201186
vt 0.068694 0.151089
vt 0.059841 0.151089
vt 0.193394 0.194608
vt 0.195654 0.187652
vt 0.034724 0.416407
vt 0.043577 0.416407
vt 0.449705 0.187652
vt 0.451965 0.194608
vt 0.068694 0.170415
vt 0.059841 0.170415
vt 0.175664 0.189857
vt 0.177185 0.182703
vt 0.034724 0.397854
vt 0.043577 0.397854
vt 0.468174 0.182703
vt 0.469694 0.189857
vt 0.068694 0.190178
vt 0.059841 0.190178
vt 0.157535 0.186985
vt 0.158300 0.179712
vt 0.034724 0.378883
vt 0.043577 0.378883
vt 0.487059 0.179712
vt 0.487824 0.186985
vt 0.068694 0.210159
vt 0.059841 0.210159
vt 0.139205 0.186025
vt 0.139205 0.178711
vt 0.034724 0.359702
vt 0.043577 0.359702
vt 0.506154 0.178711
vt 0.506154 0.186025
vt 0.083093 0.063436
vt 0.075779 0.063436
vt 0.075779 0.054976
vt 0.083093 0.054976
vt 0.093990 0.054976
vt 0.093990 0.063436
vt 0.086676 0.063436
vt 0.086676 0.054976
vt 0.175561 0.367349
vt 0.176672 0.411952
vt 0.174542 0.412005
vt 0.173431 0.367402
vt 0.180696 0.527010
vt 0.178565 0.527037
vt 0.178010 0.482424
vt 0.180140 0.482398
vt 0.111973 0.374512
vt 0.113956 0.374512
vt 0.113956 0.379392
vt 0.111973 0.379392
vt 0.049010 0.064745
vt 0.049010 0.023225
vt 0.053891 0.023225
vt 0.053891 0.064745
vt 0.111973 0.383674
vt 0.113956 0.383674
vt 0.113956 0.388555
vt 0.111973 0.388555
vt 0.188880 0.452477
vt 0.230400 0.452477
vt 0.230400 0.457358
vt 0.188880 0.457358
vt 0.158976 0.330547
vt 0.160087 0.375149
vt 0.157957 0.375202
vt 0.156846 0.330600
vt 0.199124 0.519639
vt 0.196993 0.519666
vt 0.196437 0.475053
vt 0.198568 0.475027
vt 0.111973 0.379093
vt 0.113956 0.379093
vt 0.113956 0.383973
vt 0.111973 0.383973
vt 0.120389 0.383514
vt 0.120389 0.338898
vt 0.124931 0.338898
vt 0.124931 0.383514
vt 0.161273 0.457674
vt 0.163256 0.457674
vt 0.163256 0.462555
vt 0.161273 0.462555
vt 0.224864 0.502705
vt 0.224864 0.461185
vt 0.229744 0.461185
vt 0.229744 0.502705
vt 0.059004 0.090107
vt 0.059560 0.134720
vt 0.057429 0.134746
vt 0.056873 0.090133
vt 0.292263 0.500862
vt 0.294393 0.500809
vt 0.295504 0.545412
vt 0.293374 0.545465
vt 0.111973 0.388256
vt 0.113956 0.388256
vt 0.113956 0.393136
vt 0.111973 0.393136
vt 0.146789 0.535875
vt 0.146789 0.494355
vt 0.151669 0.494355
vt 0.151669 0.535875
vt 0.118163 0.458548
vt 0.120146 0.458548
vt 0.120146 0.463428
vt 0.118163 0.463428
vt 0.163207 0.532189
vt 0.163207 0.490669
vt 0.168087 0.490669
vt 0.168087 0.532189
vt 0.173426 0.366958
vt 0.173426 0.322342
vt 0.175557 0.322342
vt 0.175557 0.366958
vt 0.295560 0.206008
vt 0.297691 0.206008
vt 0.297691 0.250624
vt 0.295560 0.250624
vt 0.111182 0.006436
vt 0.111182 0.004305
vt 0.115723 0.004305
vt 0.115723 0.006436
vt 0.173436 0.527037
vt 0.173436 0.482421
vt 0.177978 0.482421
vt 0.177978 0.527037
vt 0.111182 0.227093
vt 0.111182 0.224962
vt 0.115723 0.224962
vt 0.115723 0.227093
vt 0.191864 0.519666
vt 0.191864 0.475050
vt 0.196405 0.475050
vt 0.196405 0.519666
vt 0.295528 0.545465
vt 0.295528 0.500848
vt 0.297659 0.500848
vt 0.297659 0.545465
vt 0.190411 0.217064
vt 0.192542 0.217064
vt 0.192542 0.261681
vt 0.190411 0.261681
vt 0.107085 0.072073
vt 0.109216 0.072073
vt 0.109216 0.076615
vt 0.107085 0.076615
vt 0.173436 0.457013
vt 0.173436 0.412396
vt 0.177978 0.412396
vt 0.177978 0.457013
vt 0.083134 0.058912
vt 0.085265 0.058912
vt 0.085265 0.063453
vt 0.083134 0.063453
vt 0.182650 0.261681
vt 0.182650 0.217064
vt 0.187192 0.217064
vt 0.187192 0.261681
vt 0.282686 0.310358
vt 0.282847 0.356043
vt 0.280469 0.356051
vt 0.280307 0.310367
vt 0.015858 0.034732
vt 0.018235 0.034651
vt 0.019780 0.080310
vt 0.017403 0.080390
vt 0.182605 0.429969
vt 0.184910 0.429969
vt 0.184910 0.435198
vt 0.182605 0.435198
vt 0.127347 0.053066
vt 0.127347 0.008781
vt 0.132576 0.008781
vt 0.132576 0.053066
vt 0.182605 0.424856
vt 0.184910 0.424856
vt 0.184910 0.430085
vt 0.182605 0.430085
vt 0.002135 0.546150
vt 0.002135 0.501864
vt 0.007364 0.501864
vt 0.007364 0.546150
vt 0.211834 0.512290
vt 0.210289 0.466632
vt 0.212666 0.466551
vt 0.214211 0.512210
vt 0.140955 0.274148
vt 0.138577 0.274156
vt 0.138415 0.228472
vt 0.140793 0.228463
vt 0.081170 0.229928
vt 0.083475 0.229928
vt 0.083475 0.235157
vt 0.081170 0.235157
vt 0.052533 0.254659
vt 0.052533 0.210373
vt 0.057762 0.210373
vt 0.057762 0.254659
vt 0.182605 0.419743
vt 0.184910 0.419743
vt 0.184910 0.424972
vt 0.182605 0.424972
vt 0.002135 0.325488
vt 0.002135 0.281203
vt 0.007364 0.281203
vt 0.007364 0.325488
vt 0.054095 0.090111
vt 0.054729 0.134723
vt 0.052599 0.134753
vt 0.051964 0.090142
vt 0.190388 0.261631
vt 0.188258 0.261680
vt 0.187225 0.217076
vt 0.189356 0.217027
vt 0.118183 0.463184
vt 0.120212 0.463184
vt 0.120212 0.467955
vt 0.118183 0.467955
vt 0.044484 0.064315
vt 0.044484 0.021841
vt 0.049254 0.021841
vt 0.049254 0.064315
vt 0.118183 0.467765
vt 0.120212 0.467765
vt 0.120212 0.472536
vt 0.118183 0.472536
vt 0.039902 0.064315
vt 0.039902 0.021841
vt 0.044673 0.021841
vt 0.044673 0.064315
vt 0.026390 0.064645
vt 0.027286 0.018969
vt 0.029664 0.019016
vt 0.028768 0.064691
vt 0.294641 0.250619
vt 0.292263 0.250573
vt 0.293159 0.204897
vt 0.295536 0.204943
vt 0.111136 0.470185
vt 0.113514 0.470185
vt 0.113514 0.475254
vt 0.111136 0.475254
vt 0.117021 0.273038
vt 0.117021 0.227353
vt 0.122090 0.227353
vt 0.122090 0.273038
vt 0.111136 0.465072
vt 0.113514 0.465072
vt 0.113514 0.470141
vt 0.111136 0.470141
vt 0.040354 0.256693
vt 0.040354 0.211008
vt 0.045423 0.211008
vt 0.045423 0.256693
vt 0.033493 0.107077
vt 0.032190 0.152742
vt 0.029813 0.152675
vt 0.031116 0.107009
vt 0.057362 0.135142
vt 0.059741 0.135168
vt 0.059252 0.180850
vt 0.056874 0.180824
vt 0.160820 0.425536
vt 0.163194 0.425536
vt 0.163194 0.430615
vt 0.160820 0.430615
vt 0.021280 0.064736
vt 0.021280 0.019138
vt 0.026358 0.019138
vt 0.026358 0.064736
vt 0.160820 0.430649
vt 0.163194 0.430649
vt 0.163194 0.435728
vt 0.160820 0.435728
vt 0.045463 0.256737
vt 0.045463 0.211139
vt 0.050541 0.211139
vt 0.050541 0.256737
vt 0.302582 0.367120
vt 0.301118 0.412782
vt 0.298740 0.412705
vt 0.300205 0.367044
vt 0.052290 0.135149
vt 0.054669 0.135166
vt 0.054342 0.180850
vt 0.051964 0.180833
vt 0.056851 0.084776
vt 0.059189 0.084776
vt 0.059189 0.089933
vt 0.056851 0.089933
vt 0.122090 0.273431
vt 0.122090 0.228531
vt 0.127248 0.228531
vt 0.127248 0.273431
vt 0.051942 0.084780
vt 0.054279 0.084780
vt 0.054279 0.089938
vt 0.051942 0.089938
vt 0.122269 0.052769
vt 0.122269 0.007869
vt 0.127427 0.007869
vt 0.127427 0.052769
vt 0.036527 0.259417
vt 0.034901 0.213761
vt 0.037278 0.213676
vt 0.038904 0.259332
vt 0.113559 0.273038
vt 0.111187 0.272860
vt 0.114602 0.227303
vt 0.116973 0.227481
vt 0.160822 0.420428
vt 0.163201 0.420428
vt 0.163201 0.425496
vt 0.160822 0.425496
vt 0.117200 0.052376
vt 0.117200 0.006692
vt 0.122269 0.006692
vt 0.122269 0.052376
vt 0.118130 0.472198
vt 0.120283 0.472198
vt 0.120283 0.477798
vt 0.118130 0.477798
vt 0.034640 0.065272
vt 0.034640 0.023924
vt 0.040241 0.023924
vt 0.040241 0.065272
vt 0.160821 0.420210
vt 0.160821 0.375594
vt 0.162952 0.375594
vt 0.162952 0.420210
vt 0.184770 0.419605
vt 0.182639 0.419605
vt 0.182639 0.374989
vt 0.184770 0.374989
vt 0.002213 0.015228
vt 0.002213 0.013097
vt 0.006754 0.013097
vt 0.006754 0.015228
vt 0.012440 0.545465
vt 0.012440 0.500848
vt 0.016981 0.500848
vt 0.016981 0.545465
vt 0.086653 0.219976
vt 0.088784 0.219976
vt 0.088784 0.224518
vt 0.086653 0.224518
vt 0.012440 0.324803
vt 0.012440 0.280187
vt 0.016981 0.280187
vt 0.016981 0.324803
vt 0.291370 0.431121
vt 0.293063 0.385468
vt 0.295440 0.385556
vt 0.293747 0.431209
vt 0.113559 0.052376
vt 0.111188 0.052189
vt 0.114781 0.006646
vt 0.117152 0.006833
vt 0.086603 0.224442
vt 0.088876 0.224442
vt 0.088876 0.229746
vt 0.086603 0.229746
vt 0.007211 0.325785
vt 0.007211 0.282131
vt 0.012515 0.282131
vt 0.012515 0.325785
vt 0.059361 0.239931
vt 0.061633 0.239931
vt 0.061633 0.245236
vt 0.059361 0.245236
vt 0.007211 0.546447
vt 0.007211 0.502793
vt 0.012515 0.502793
vt 0.012515 0.546447
vt 0.111559 0.464849
vt 0.111138 0.419167
vt 0.113516 0.419145
vt 0.113937 0.464827
vt 0.029813 0.060941
vt 0.032190 0.060874
vt 0.033476 0.106541
vt 0.031098 0.106608
vt 0.051939 0.079661
vt 0.054272 0.079661
vt 0.054272 0.084830
vt 0.051939 0.084830
vt 0.010699 0.080833
vt 0.010699 0.036035
vt 0.015868 0.036035
vt 0.015868 0.080833
vt 0.056849 0.079657
vt 0.059181 0.079657
vt 0.059181 0.084826
vt 0.056849 0.084826
vt 0.127198 0.273480
vt 0.127198 0.228682
vt 0.132367 0.228682
vt 0.132367 0.273480
s 1
g off
g Arco_negro_Material_#261
usemtl Material_#261
f 1/1/1 2/2/1 6/3/2
f 6/3/2 5/4/2 1/1/1
s 2
f 2/5/3 3/6/3 7/7/3
f 7/7/3 6/8/3 2/5/3
s 3
f 3/9/4 4/10/4 8/11/5
f 8/11/5 7/12/6 3/9/4
s 4
f 4/13/7 1/14/7 5/15/7
f 5/15/7 8/16/7 4/13/7
s 1
f 5/4/2 6/3/2 10/17/8
f 10/17/8 9/18/8 5/4/2
s 2
f 6/8/3 7/7/3 11/19/3
f 11/19/3 10/20/3 6/8/3
s 3
f 7/12/6 8/11/5 12/21/9
f 12/21/9 11/22/9 7/12/6
s 4
f 8/16/7 5/15/7 9/23/7
f 9/23/7 12/24/7 8/16/7
s 1
f 9/18/8 10/17/8 14/25/10
f 14/25/10 13/26/10 9/18/8
s 2
f 10/20/3 11/19/3 15/27/3
f 15/27/3 14/28/3 10/20/3
s 3
f 11/22/9 12/21/9 16/29/11
f 16/29/11 15/30/11 11/22/9
s 4
f 12/24/7 9/23/7 13/31/7
f 13/31/7 16/32/7 12/24/7
s 1
f 13/26/10 14/25/10 18/33/12
f 18/33/12 17/34/12 13/26/10
s 2
f 14/28/3 15/27/3 19/35/3
f 19/35/3 18/36/3 14/28/3
s 3
f 15/30/11 16/29/11 20/37/13
f 20/37/13 19/38/13 15/30/11
s 4
f 16/32/7 13/31/7 17/39/7
f 17/39/7 20/40/7 16/32/7
s 1
f 17/34/12 18/33/12 22/41/14
f 22/41/14 21/42/14 17/34/12
s 2
f 18/36/3 19/35/3 23/43/3
f 23/43/3 22/44/3 18/36/3
s 3
f 19/38/13 20/37/13 24/45/15
f 24/45/15 23/46/15 19/38/13
s 4
f 20/40/7 17/39/7 21/47/7
f 21/47/7 24/48/7 20/40/7
s 1
f 21/42/14 22/41/14 26/49/16
f 26/49/16 25/50/16 21/42/14
s 2
f 22/44/3 23/43/3 27/51/3
f 27/51/3 26/52/3 22/44/3
s 3
f 23/46/15 24/45/15 28/53/17
f 28/53/17 27/54/17 23/46/15
s 4
f 24/48/7 21/47/7 25/55/7
f 25/55/7 28/56/7 24/48/7
s 1
f 25/50/16 26/49/16 30/57/18
f 30/57/18 29/58/18 25/50/16
s 2
f 26/52/3 27/51/3 31/59/3
f 31/59/3 30/60/3 26/52/3
s 3
f 27/54/17 28/53/17 32/61/19
f 32/61/19 31/62/19 27/54/17
s 4
f 28/56/7 25/55/7 29/63/7
f 29/63/7 32/64/7 28/56/7
s 1
f 29/58/18 30/57/18 34/65/20
f 34/65/20 33/66/20 29/58/18
s 2
f 30/60/3 31/59/3 35/67/3
f 35/67/3 34/68/3 30/60/3
s 3
f 31/62/19 32/61/19 36/69/21
f 36/69/21 35/70/21 31/62/19
s 4
f 32/64/7 29/63/7 33/71/7
f 33/71/7 36/72/7 32/64/7
s 1
f 33/66/20 34/65/20 38/73/22
f 38/73/22 37/74/22 33/66/20
s 2
f 34/68/3 35/67/3 39/75/3
f 39/75/3 38/76/3 34/68/3
s 3
f 35/70/21 36/69/21 40/77/23
f 40/77/23 39/78/23 35/70/21
s 4
f 36/72/7 33/71/7 37/79/7
f 37/79/7 40/80/7 36/72/7
s 1
f 37/74/22 38/73/22 42/81/24
f 42/81/24 41/82/24 37/74/22
s 2
f 38/76/3 39/75/3 43/83/3
f 43/83/3 42/84/3 38/76/3
s 3
f 39/78/23 40/77/23 44/85/25
f 44/85/25 43/86/25 39/78/23
s 4
f 40/80/7 37/79/7 41/87/7
f 41/87/7 44/88/7 40/80/7
s 1
f 41/82/24 42/81/24 46/89/26
f 46/89/26 45/90/26 41/82/24
s 2
f 42/84/3 43/83/3 47/91/3
f 47/91/3 46/92/3 42/84/3
s 3
f 43/86/25 44/85/25 48/93/27
f 48/93/27 47/94/27 43/86/25
s 4
f 44/88/7 41/87/7 45/95/7
f 45/95/7 48/96/7 44/88/7
s 1
f 45/90/26 46/89/26 50/97/28
f 50/97/28 49/98/28 45/90/26
s 2
f 46/92/3 47/91/3 51/99/3
f 51/99/3 50/100/3 46/92/3
s 3
f 47/94/27 48/93/27 52/101/29
f 52/101/29 51/102/29 47/94/27
s 4
f 48/96/7 45/95/7 49/103/7
f 49/103/7 52/104/7 48/96/7
s 1
f 49/98/28 50/97/28 54/105/30
f 54/105/30 53/106/30 49/98/28
s 2
f 50/100/3 51/99/3 55/107/3
f 55/107/3 54/108/3 50/100/3
s 3
f 51/102/29 52/101/29 56/109/31
f 56/109/31 55/110/31 51/102/29
s 4
f 52/104/7 49/103/7 53/111/7
f 53/111/7 56/112/7 52/104/7
s 1
f 53/106/30 54/105/30 58/113/32
f 58/113/32 57/114/32 53/106/30
s 2
f 54/108/3 55/107/3 59/115/3
f 59/115/3 58/116/3 54/108/3
s 3
f 55/110/31 56/109/31 60/117/33
f 60/117/33 59/118/33 55/110/31
s 4
f 56/112/7 53/111/7 57/119/7
f 57/119/7 60/120/7 56/112/7
s 1
f 57/114/32 58/113/32 62/121/34
f 62/121/34 61/122/34 57/114/32
s 2
f 58/116/3 59/115/3 63/123/3
f 63/123/3 62/124/3 58/116/3
s 3
f 59/118/33 60/117/33 64/125/35
f 64/125/35 63/126/35 59/118/33
s 4
f 60/120/7 57/119/7 61/127/7
f 61/127/7 64/128/7 60/120/7
s 1
f 61/129/34 62/130/34 66/131/36
f 66/131/36 65/132/36 61/129/34
s 2
f 62/124/3 63/123/3 67/133/3
f 67/133/3 66/134/3 62/124/3
s 3
f 63/126/35 64/125/35 68/135/37
f 68/135/37 67/136/37 63/126/35
s 4
f 64/128/7 61/127/7 65/137/7
f 65/137/7 68/138/7 64/128/7
s 1
f 65/132/36 66/131/36 70/139/38
f 70/139/38 69/140/38 65/132/36
s 2
f 66/134/3 67/133/3 71/141/3
f 71/141/3 70/142/3 66/134/3
s 3
f 67/143/37 68/144/37 72/145/39
f 72/145/39 71/146/39 67/143/37
s 4
f 68/138/7 65/137/7 69/147/7
f 69/147/7 72/148/7 68/138/7
s 1
f 69/140/38 70/139/38 74/149/40
f 74/149/40 73/150/40 69/140/38
s 2
f 70/142/3 71/141/3 75/151/3
f 75/151/3 74/152/3 70/142/3
s 3
f 71/146/39 72/145/39 76/153/41
f 76/153/41 75/154/41 71/146/39
s 4
f 72/148/7 69/147/7 73/155/7
f 73/155/7 76/156/7 72/148/7
s 1
f 73/150/40 74/149/40 78/157/42
f 78/157/42 77/158/42 73/150/40
s 2
f 74/152/3 75/151/3 79/159/3
f 79/159/3 78/160/3 74/152/3
s 3
f 75/154/41 76/153/41 80/161/43
f 80/161/43 79/162/43 75/154/41
s 4
f 76/156/7 73/155/7 77/163/7
f 77/163/7 80/164/7 76/156/7
s 1
f 77/158/42 78/157/42 82/165/44
f 82/165/44 81/166/44 77/158/42
s 2
f 78/160/3 79/159/3 83/167/3
f 83/167/3 82/168/3 78/160/3
s 3
f 79/162/43 80/161/43 84/169/45
f 84/169/45 83/170/45 79/162/43
s 4
f 80/164/7 77/163/7 81/171/7
f 81/171/7 84/172/7 80/164/7
s 1
f 81/166/44 82/165/44 86/173/46
f 86/173/46 85/174/46 81/166/44
s 2
f 82/168/3 83/167/3 87/175/3
f 87/175/3 86/176/3 82/168/3
s 3
f 83/170/45 84/169/45 88/177/47
f 88/177/47 87/178/47 83/170/45
s 4
f 84/172/7 81/171/7 85/179/7
f 85/179/7 88/180/7 84/172/7
s 1
f 85/174/46 86/173/46 90/181/48
f 90/181/48 89/182/48 85/174/46
s 2
f 86/176/3 87/175/3 91/183/3
f 91/183/3 90/184/3 86/176/3
s 3
f 87/178/47 88/177/47 92/185/49
f 92/185/49 91/186/49 87/178/47
s 4
f 88/180/7 85/179/7 89/187/7
f 89/187/7 92/188/7 88/180/7
s 1
f 89/182/48 90/181/48 94/189/50
f 94/189/50 93/190/50 89/182/48
s 2
f 90/184/3 91/183/3 95/191/3
f 95/191/3 94/192/3 90/184/3
s 3
f 91/186/49 92/185/49 96/193/51
f 96/193/51 95/194/51 91/186/49
s 4
f 92/188/7 89/187/7 93/195/7
f 93/195/7 96/196/7 92/188/7
s 1
f 93/190/50 94/189/50 98/197/52
f 98/197/52 97/198/52 93/190/50
s 2
f 94/192/3 95/191/3 99/199/3
f 99/199/3 98/200/3 94/192/3
s 3
f 95/194/51 96/193/51 100/201/53
f 100/201/53 99/202/53 95/194/51
s 4
f 96/196/7 93/195/7 97/203/7
f 97/203/7 100/204/7 96/196/7
s 1
f 97/198/52 98/197/52 102/205/54
f 102/205/54 101/206/54 97/198/52
s 2
f 98/200/3 99/199/3 103/207/3
f 103/207/3 102/208/3 98/200/3
s 3
f 99/202/53 100/201/53 104/209/55
f 104/209/55 103/210/55 99/202/53
s 4
f 100/204/7 97/203/7 101/211/7
f 101/211/7 104/212/7 100/204/7
s 1
f 101/206/54 102/205/54 106/213/56
f 106/213/56 105/214/56 101/206/54
s 2
f 102/208/3 103/207/3 107/215/3
f 107/215/3 106/216/3 102/208/3
s 3
f 103/210/55 104/209/55 108/217/57
f 108/217/57 107/218/57 103/210/55
s 4
f 104/212/7 101/211/7 105/219/7
f 105/219/7 108/220/7 104/212/7
s 1
f 105/214/56 106/213/56 110/221/58
f 110/221/58 109/222/58 105/214/56
s 2
f 106/216/3 107/215/3 111/223/3
f 111/223/3 110/224/3 106/216/3
s 3
f 107/218/57 108/217/57 112/225/59
f 112/225/59 111/226/59 107/218/57
s 4
f 108/220/7 105/219/7 109/227/7
f 109/227/7 112/228/7 108/220/7
s 1
f 109/222/58 110/221/58 114/229/60
f 114/229/60 113/230/60 109/222/58
s 2
f 110/224/3 111/223/3 115/231/3
f 115/231/3 114/232/3 110/224/3
s 3
f 111/226/59 112/225/59 116/233/61
f 116/233/61 115/234/61 111/226/59
s 4
f 112/228/7 109/227/7 113/235/7
f 113/235/7 116/236/7 112/228/7
s 1
f 113/230/60 114/229/60 118/237/62
f 118/237/62 117/238/62 113/230/60
s 2
f 114/232/3 115/231/3 119/239/3
f 119/239/3 118/240/3 114/232/3
s 3
f 115/234/61 116/233/61 120/241/63
f 120/241/63 119/242/63 115/234/61
s 4
f 116/236/7 113/235/7 117/243/7
f 117/243/7 120/244/7 116/236/7
s 1
f 117/238/62 118/237/62 122/245/64
f 122/245/64 121/246/64 117/238/62
s 2
f 118/240/3 119/239/3 123/247/3
f 123/247/3 122/248/3 118/240/3
s 3
f 119/242/63 120/241/63 124/249/65
f 124/249/65 123/250/65 119/242/63
s 4
f 120/244/7 117/243/7 121/251/7
f 121/251/7 124/252/7 120/244/7
s 1
f 121/246/64 122/245/64 126/253/66
f 126/253/66 125/254/66 121/246/64
s 2
f 122/248/3 123/247/3 127/255/3
f 127/255/3 126/256/3 122/248/3
s 3
f 123/250/65 124/249/65 128/257/67
f 128/257/67 127/258/67 123/250/65
s 4
f 124/252/7 121/251/7 125/259/7
f 125/259/7 128/260/7 124/252/7
s 1
f 125/254/66 126/253/66 130/261/68
f 130/261/68 129/262/69 125/254/66
s 2
f 126/256/3 127/255/3 131/263/3
f 131/263/3 130/264/3 126/256/3
s 3
f 127/258/67 128/257/67 132/265/70
f 132/265/70 131/266/71 127/258/67
s 4
f 128/260/7 125/259/7 129/267/7
f 129/267/7 132/268/7 128/260/7
s 1
f 129/262/69 130/261/68 134/269/72
f 134/269/72 133/270/72 129/262/69
s 2
f 130/264/3 131/263/3 135/271/3
f 135/271/3 134/272/3 130/264/3
s 3
f 131/266/71 132/265/70 136/273/73
f 136/273/73 135/274/73 131/266/71
s 4
f 132/268/7 129/267/7 133/275/7
f 133/275/7 136/276/7 132/268/7
s 1
f 133/270/72 134/269/72 138/277/74
f 138/277/74 137/278/74 133/270/72
s 2
f 134/272/3 135/271/3 139/279/3
f 139/279/3 138/280/3 134/272/3
s 3
f 135/274/73 136/273/73 140/281/75
f 140/281/75 139/282/75 135/274/73
s 4
f 136/276/7 133/275/7 137/283/7
f 137/283/7 140/284/7 136/276/7
s 1
f 137/278/74 138/277/74 142/285/76
f 142/285/76 141/286/76 137/278/74
s 2
f 138/280/3 139/279/3 143/287/3
f 143/287/3 142/288/3 138/280/3
s 3
f 139/282/75 140/281/75 144/289/77
f 144/289/77 143/290/77 139/282/75
s 4
f 140/284/7 137/283/7 141/291/7
f 141/291/7 144/292/7 140/284/7
s 1
f 141/286/76 142/285/76 146/293/78
f 146/293/78 145/294/78 141/286/76
s 2
f 142/288/3 143/287/3 147/295/3
f 147/295/3 146/296/3 142/288/3
s 3
f 143/290/77 144/289/77 148/297/79
f 148/297/79 147/298/79 143/290/77
s 4
f 144/292/7 141/291/7 145/299/7
f 145/299/7 148/300/7 144/292/7
s 1
f 145/294/78 146/293/78 150/301/80
f 150/301/80 149/302/80 145/294/78
s 2
f 146/296/3 147/295/3 151/303/3
f 151/303/3 150/304/3 146/296/3
s 3
f 147/298/79 148/297/79 152/305/81
f 152/305/81 151/306/81 147/298/79
s 4
f 148/300/7 145/299/7 149/307/7
f 149/307/7 152/308/7 148/300/7
s 1
f 149/302/80 150/301/80 154/309/82
f 154/309/82 153/310/82 149/302/80
s 2
f 150/304/3 151/303/3 155/311/3
f 155/311/3 154/312/3 150/304/3
s 3
f 151/306/81 152/305/81 156/313/83
f 156/313/83 155/314/83 151/306/81
s 4
f 152/308/7 149/307/7 153/315/7
f 153/315/7 156/316/7 152/308/7
s 1
f 153/310/82 154/309/82 158/317/84
f 158/317/84 157/318/84 153/310/82
s 2
f 154/312/3 155/311/3 159/319/3
f 159/319/3 158/320/3 154/312/3
s 3
f 155/314/83 156/313/83 160/321/85
f 160/321/85 159/322/85 155/314/83
s 4
f 156/316/7 153/315/7 157/323/7
f 157/323/7 160/324/7 156/316/7
s 1
f 157/318/84 158/317/84 162/325/86
f 162/325/86 161/326/86 157/318/84
s 2
f 158/320/3 159/319/3 163/327/3
f 163/327/3 162/328/3 158/320/3
s 3
f 159/322/85 160/321/85 164/329/87
f 164/329/87 163/330/87 159/322/85
s 4
f 160/324/7 157/323/7 161/331/7
f 161/331/7 164/332/7 160/324/7
s 1
f 161/326/86 162/325/86 166/333/88
f 166/333/88 165/334/88 161/326/86
s 2
f 162/328/3 163/327/3 167/335/3
f 167/335/3 166/336/3 162/328/3
s 3
f 163/330/87 164/329/87 168/337/89
f 168/337/89 167/338/89 163/330/87
s 4
f 164/332/7 161/331/7 165/339/7
f 165/339/7 168/340/7 164/332/7
s 1
f 165/334/88 166/333/88 170/341/90
f 170/341/90 169/342/90 165/334/88
s 2
f 166/336/3 167/335/3 171/343/3
f 171/343/3 170/344/3 166/336/3
s 3
f 167/338/89 168/337/89 172/345/91
f 172/345/91 171/346/91 167/338/89
s 4
f 168/340/7 165/339/7 169/347/7
f 169/347/7 172/348/7 168/340/7
s 1
f 169/342/90 170/341/90 174/349/92
f 174/349/92 173/350/92 169/342/90
s 2
f 170/344/3 171/343/3 175/351/3
f 175/351/3 174/352/3 170/344/3
s 3
f 171/346/91 172/345/91 176/353/93
f 176/353/93 175/354/93 171/346/91
s 4
f 172/348/7 169/347/7 173/355/7
f 173/355/7 176/356/7 172/348/7
s 1
f 173/350/92 174/349/92 178/357/94
f 178/357/94 177/358/94 173/350/92
s 2
f 174/352/3 175/351/3 179/359/3
f 179/359/3 178/360/3 174/352/3
s 3
f 175/354/93 176/353/93 180/361/95
f 180/361/95 179/362/95 175/354/93
s 4
f 176/356/7 173/355/7 177/363/7
f 177/363/7 180/364/7 176/356/7
s 1
f 177/358/94 178/357/94 182/365/96
f 182/365/96 181/366/96 177/358/94
s 2
f 178/360/3 179/359/3 183/367/3
f 183/367/3 182/368/3 178/360/3
s 3
f 179/362/95 180/361/95 184/369/97
f 184/369/97 183/370/97 179/362/95
s 4
f 180/364/7 177/363/7 181/371/7
f 181/371/7 184/372/7 180/364/7
s 1
f 181/366/96 182/365/96 186/373/98
f 186/373/98 185/374/98 181/366/96
s 2
f 182/368/3 183/367/3 187/375/3
f 187/375/3 186/376/3 182/368/3
s 3
f 183/370/97 184/369/97 188/377/99
f 188/377/99 187/378/99 183/370/97
s 4
f 184/372/7 181/371/7 185/379/7
f 185/379/7 188/380/7 184/372/7
s 1
f 185/374/98 186/373/98 190/381/100
f 190/381/100 189/382/100 185/374/98
s 2
f 186/376/3 187/375/3 191/383/3
f 191/383/3 190/384/3 186/376/3
s 3
f 187/378/99 188/377/99 192/385/101
f 192/385/101 191/386/101 187/378/99
s 4
f 188/380/7 185/379/7 189/387/7
f 189/387/7 192/388/7 188/380/7
s 1
f 189/389/100 190/390/100 194/391/102
f 194/391/102 193/392/102 189/389/100
s 2
f 190/384/3 191/383/3 195/393/3
f 195/393/3 194/394/3 190/384/3
s 3
f 191/395/101 192/396/101 196/397/103
f 196/397/103 195/398/103 191/395/101
s 4
f 192/388/7 189/387/7 193/399/7
f 193/399/7 196/400/7 192/388/7
s 1
f 193/392/102 194/391/102 198/401/104
f 198/401/104 197/402/104 193/392/102
s 2
f 194/394/3 195/393/3 199/403/3
f 199/403/3 198/404/3 194/394/3
s 3
f 195/398/103 196/397/103 200/405/105
f 200/405/105 199/406/105 195/398/103
s 4
f 196/400/7 193/399/7 197/407/7
f 197/407/7 200/408/7 196/400/7
s 1
f 197/402/104 198/401/104 202/409/106
f 202/409/106 201/410/106 197/402/104
s 2
f 198/404/3 199/403/3 203/411/3
f 203/411/3 202/412/3 198/404/3
s 3
f 199/406/105 200/405/105 204/413/107
f 204/413/107 203/414/107 199/406/105
s 4
f 200/408/7 197/407/7 201/415/7
f 201/415/7 204/416/7 200/408/7
s 1
f 201/410/106 202/409/106 206/417/108
f 206/417/108 205/418/108 201/410/106
s 2
f 202/412/3 203/411/3 207/419/3
f 207/419/3 206/420/3 202/412/3
s 3
f 203/414/107 204/413/107 208/421/109
f 208/421/109 207/422/109 203/414/107
s 4
f 204/416/7 201/415/7 205/423/7
f 205/423/7 208/424/7 204/416/7
s 1
f 205/418/108 206/417/108 210/425/110
f 210/425/110 209/426/110 205/418/108
s 2
f 206/420/3 207/419/3 211/427/3
f 211/427/3 210/428/3 206/420/3
s 3
f 207/422/109 208/421/109 212/429/111
f 212/429/111 211/430/111 207/422/109
s 4
f 208/424/7 205/423/7 209/431/7
f 209/431/7 212/432/7 208/424/7
s 1
f 209/426/110 210/425/110 214/433/112
f 214/433/112 213/434/112 209/426/110
s 2
f 210/428/3 211/427/3 215/435/3
f 215/435/3 214/436/3 210/428/3
s 3
f 211/430/111 212/429/111 216/437/113
f 216/437/113 215/438/113 211/430/111
s 4
f 212/432/7 209/431/7 213/439/7
f 213/439/7 216/440/7 212/432/7
s 1
f 213/434/112 214/433/112 218/441/114
f 218/441/114 217/442/114 213/434/112
s 2
f 214/436/3 215/435/3 219/443/3
f 219/443/3 218/444/3 214/436/3
s 3
f 215/438/113 216/437/113 220/445/115
f 220/445/115 219/446/115 215/438/113
s 4
f 216/440/7 213/439/7 217/447/7
f 217/447/7 220/448/7 216/440/7
s 1
f 217/442/114 218/441/114 222/449/116
f 222/449/116 221/450/116 217/442/114
s 2
f 218/444/3 219/443/3 223/451/3
f 223/451/3 222/452/3 218/444/3
s 3
f 219/446/115 220/445/115 224/453/117
f 224/453/117 223/454/117 219/446/115
s 4
f 220/448/7 217/447/7 221/455/7
f 221/455/7 224/456/7 220/448/7
s 1
f 221/450/116 222/449/116 226/457/118
f 226/457/118 225/458/118 221/450/116
s 2
f 222/452/3 223/451/3 227/459/3
f 227/459/3 226/460/3 222/452/3
s 3
f 223/454/117 224/453/117 228/461/119
f 228/461/119 227/462/119 223/454/117
s 4
f 224/456/7 221/455/7 225/463/7
f 225/463/7 228/464/7 224/456/7
s 1
f 225/458/118 226/457/118 230/465/120
f 230/465/120 229/466/120 225/458/118
s 2
f 226/460/3 227/459/3 231/467/3
f 231/467/3 230/468/3 226/460/3
s 3
f 227/462/119 228/461/119 232/469/121
f 232/469/121 231/470/121 227/462/119
s 4
f 228/464/7 225/463/7 229/471/7
f 229/471/7 232/472/7 228/464/7
s 1
f 229/466/120 230/465/120 234/473/122
f 234/473/122 233/474/122 229/466/120
s 2
f 230/468/3 231/467/3 235/475/3
f 235/475/3 234/476/3 230/468/3
s 3
f 231/470/121 232/469/121 236/477/123
f 236/477/123 235/478/123 231/470/121
s 4
f 232/472/7 229/471/7 233/479/7
f 233/479/7 236/480/7 232/472/7
s 1
f 233/474/122 234/473/122 238/481/124
f 238/481/124 237/482/124 233/474/122
s 2
f 234/476/3 235/475/3 239/483/3
f 239/483/3 238/484/3 234/476/3
s 3
f 235/478/123 236/477/123 240/485/125
f 240/485/125 239/486/125 235/478/123
s 4
f 236/480/7 233/479/7 237/487/7
f 237/487/7 240/488/7 236/480/7
s 1
f 237/482/124 238/481/124 242/489/126
f 242/489/126 241/490/126 237/482/124
s 2
f 238/484/3 239/483/3 243/491/3
f 243/491/3 242/492/3 238/484/3
s 3
f 239/486/125 240/485/125 244/493/127
f 244/493/127 243/494/127 239/486/125
s 4
f 240/488/7 237/487/7 241/495/7
f 241/495/7 244/496/7 240/488/7
s 1
f 241/490/126 242/489/126 246/497/128
f 246/497/128 245/498/128 241/490/126
s 2
f 242/492/3 243/491/3 247/499/3
f 247/499/3 246/500/3 242/492/3
s 3
f 243/494/127 244/493/127 248/501/129
f 248/501/129 247/502/129 243/494/127
s 4
f 244/496/7 241/495/7 245/503/7
f 245/503/7 248/504/7 244/496/7
s 1
f 245/498/128 246/497/128 250/505/130
f 250/505/130 249/506/130 245/498/128
s 2
f 246/500/3 247/499/3 251/507/3
f 251/507/3 250/508/3 246/500/3
s 3
f 247/502/129 248/501/129 252/509/131
f 252/509/131 251/510/131 247/502/129
s 4
f 248/504/7 245/503/7 249/511/7
f 249/511/7 252/512/7 248/504/7
s 5
f 3/513/67 2/514/67 1/515/67
f 1/515/67 4/516/67 3/513/67
s 6
f 249/517/67 250/518/67 251/519/67
f 251/519/67 252/520/67 249/517/67
s 7
f 253/521/7 255/522/7 256/523/7
f 256/523/7 254/524/7 253/521/7
s 8
f 257/525/3 258/526/3 260/527/3
f 260/527/3 259/528/3 257/525/3
s 9
f 253/529/132 254/530/132 258/531/132
f 258/531/132 257/532/132 253/529/132
s 10
f 254/533/67 256/534/67 260/535/67
f 260/535/67 258/536/67 254/533/67
s 11
f 256/537/133 255/538/133 259/539/133
f 259/539/133 260/540/133 256/537/133
s 12
f 255/541/66 253/542/66 257/543/66
f 257/543/66 259/544/66 255/541/66
s 13
f 261/545/7 263/546/7 264/547/7
f 264/547/7 262/548/7 261/545/7
s 14
f 265/549/3 266/550/3 268/551/3
f 268/551/3 267/552/3 265/549/3
s 15
f 261/553/132 262/554/132 266/555/132
f 266/555/132 265/556/132 261/553/132
s 16
f 262/557/67 264/558/67 268/559/67
f 268/559/67 266/560/67 262/557/67
s 17
f 264/561/133 263/562/133 267/563/133
f 267/563/133 268/564/133 264/561/133
s 18
f 263/565/66 261/566/66 265/567/66
f 265/567/66 267/568/66 263/565/66
s 19
f 269/569/7 271/570/7 272/571/7
f 272/571/7 270/572/7 269/569/7
s 20
f 273/573/3 274/574/3 276/575/3
f 276/575/3 275/576/3 273/573/3
s 21
f 269/577/132 270/578/132 274/579/132
f 274/579/132 273/580/132 269/577/132
s 22
f 270/581/67 272/582/67 276/583/67
f 276/583/67 274/584/67 270/581/67
s 23
f 272/585/133 271/586/133 275/587/133
f 275/587/133 276/588/133 272/585/133
s 24
f 271/589/66 269/590/66 273/591/66
f 273/591/66 275/592/66 271/589/66
s 25
f 277/593/134 278/594/134 282/595/135
f 282/595/135 281/596/135 277/593/134
s 26
f 278/597/3 279/598/3 283/599/3
f 283/599/3 282/600/3 278/597/3
s 27
f 279/601/136 280/602/136 284/603/137
f 284/603/137 283/604/137 279/601/136
s 28
f 280/605/7 277/606/7 281/607/7
f 281/607/7 284/608/7 280/605/7
s 25
f 281/596/135 282/595/135 286/609/138
f 286/609/138 285/610/138 281/596/135
s 26
f 282/600/3 283/599/3 287/611/3
f 287/611/3 286/612/3 282/600/3
s 27
f 283/604/137 284/603/137 288/613/139
f 288/613/139 287/614/139 283/604/137
s 28
f 284/608/7 281/607/7 285/615/7
f 285/615/7 288/616/7 284/608/7
s 25
f 285/610/138 286/609/138 290/617/140
f 290/617/140 289/618/140 285/610/138
s 26
f 286/612/3 287/611/3 291/619/3
f 291/619/3 290/620/3 286/612/3
s 27
f 287/614/139 288/613/139 292/621/141
f 292/621/141 291/622/141 287/614/139
s 28
f 288/616/7 285/615/7 289/623/7
f 289/623/7 292/624/7 288/616/7
s 25
f 289/618/140 290/617/140 294/625/142
f 294/625/142 293/626/142 289/618/140
s 26
f 290/620/3 291/619/3 295/627/3
f 295/627/3 294/628/3 290/620/3
s 27
f 291/622/141 292/621/141 296/629/143
f 296/629/143 295/630/143 291/622/141
s 28
f 292/624/7 289/623/7 293/631/7
f 293/631/7 296/632/7 292/624/7
s 25
f 293/626/142 294/625/142 298/633/144
f 298/633/144 297/634/144 293/626/142
s 26
f 294/628/3 295/627/3 299/635/3
f 299/635/3 298/636/3 294/628/3
s 27
f 295/630/143 296/629/143 300/637/145
f 300/637/145 299/638/145 295/630/143
s 28
f 296/632/7 293/631/7 297/639/7
f 297/639/7 300/640/7 296/632/7
s 25
f 297/634/144 298/633/144 302/641/146
f 302/641/146 301/642/146 297/634/144
s 26
f 298/636/3 299/635/3 303/643/3
f 303/643/3 302/644/3 298/636/3
s 27
f 299/638/145 300/637/145 304/645/147
f 304/645/147 303/646/147 299/638/145
s 28
f 300/640/7 297/639/7 301/647/7
f 301/647/7 304/648/7 300/640/7
s 25
f 301/642/146 302/641/146 306/649/148
f 306/649/148 305/650/148 301/642/146
s 26
f 302/644/3 303/643/3 307/651/3
f 307/651/3 306/652/3 302/644/3
s 27
f 303/646/147 304/645/147 308/653/149
f 308/653/149 307/654/149 303/646/147
s 28
f 304/648/7 301/647/7 305/655/7
f 305/655/7 308/656/7 304/648/7
s 25
f 305/650/148 306/649/148 310/657/150
f 310/657/150 309/658/150 305/650/148
s 26
f 306/652/3 307/651/3 311/659/3
f 311/659/3 310/660/3 306/652/3
s 27
f 307/654/149 308/653/149 312/661/151
f 312/661/151 311/662/151 307/654/149
s 28
f 308/656/7 305/655/7 309/663/7
f 309/663/7 312/664/7 308/656/7
s 25
f 309/665/150 310/666/150 314/667/152
f 314/667/152 313/668/152 309/665/150
s 26
f 310/660/3 311/659/3 315/669/3
f 315/669/3 314/670/3 310/660/3
s 27
f 311/671/151 312/672/151 316/673/153
f 316/673/153 315/674/153 311/671/151
s 28
f 312/664/7 309/663/7 313/675/7
f 313/675/7 316/676/7 312/664/7
s 25
f 313/668/152 314/667/152 318/677/154
f 318/677/154 317/678/154 313/668/152
s 26
f 314/670/3 315/669/3 319/679/3
f 319/679/3 318/680/3 314/670/3
s 27
f 315/674/153 316/673/153 320/681/155
f 320/681/155 319/682/155 315/674/153
s 28
f 316/676/7 313/675/7 317/683/7
f 317/683/7 320/684/7 316/676/7
s 25
f 317/678/154 318/677/154 322/685/156
f 322/685/156 321/686/156 317/678/154
s 26
f 318/680/3 319/679/3 323/687/3
f 323/687/3 322/688/3 318/680/3
s 27
f 319/682/155 320/681/155 324/689/157
f 324/689/157 323/690/157 319/682/155
s 28
f 320/684/7 317/683/7 321/691/7
f 321/691/7 324/692/7 320/684/7
s 25
f 321/686/156 322/685/156 326/693/158
f 326/693/158 325/694/158 321/686/156
s 26
f 322/688/3 323/687/3 327/695/3
f 327/695/3 326/696/3 322/688/3
s 27
f 323/690/157 324/689/157 328/697/159
f 328/697/159 327/698/159 323/690/157
s 28
f 324/692/7 321/691/7 325/699/7
f 325/699/7 328/700/7 324/692/7
s 25
f 325/694/158 326/693/158 330/701/160
f 330/701/160 329/702/160 325/694/158
s 26
f 326/696/3 327/695/3 331/703/3
f 331/703/3 330/704/3 326/696/3
s 27
f 327/698/159 328/697/159 332/705/161
f 332/705/161 331/706/161 327/698/159
s 28
f 328/700/7 325/699/7 329/707/7
f 329/707/7 332/708/7 328/700/7
s 25
f 329/702/160 330/701/160 334/709/162
f 334/709/162 333/710/162 329/702/160
s 26
f 330/704/3 331/703/3 335/711/3
f 335/711/3 334/712/3 330/704/3
s 27
f 331/706/161 332/705/161 336/713/163
f 336/713/163 335/714/163 331/706/161
s 28
f 332/708/7 329/707/7 333/715/7
f 333/715/7 336/716/7 332/708/7
s 25
f 333/710/162 334/709/162 338/717/66
f 338/717/66 337/718/66 333/710/162
s 26
f 334/712/3 335/711/3 339/719/3
f 339/719/3 338/720/3 334/712/3
s 27
f 335/714/163 336/713/163 340/721/67
f 340/721/67 339/722/67 335/714/163
s 28
f 336/716/7 333/715/7 337/723/7
f 337/723/7 340/724/7 336/716/7
s 25
f 337/718/66 338/717/66 342/725/164
f 342/725/164 341/726/164 337/718/66
s 26
f 338/720/3 339/719/3 343/727/3
f 343/727/3 342/728/3 338/720/3
s 27
f 339/722/67 340/721/67 344/729/165
f 344/729/165 343/730/165 339/722/67
s 28
f 340/724/7 337/723/7 341/731/7
f 341/731/7 344/732/7 340/724/7
s 25
f 341/726/164 342/725/164 346/733/166
f 346/733/166 345/734/166 341/726/164
s 26
f 342/728/3 343/727/3 347/735/3
f 347/735/3 346/736/3 342/728/3
s 27
f 343/730/165 344/729/165 348/737/167
f 348/737/167 347/738/167 343/730/165
s 28
f 344/732/7 341/731/7 345/739/7
f 345/739/7 348/740/7 344/732/7
s 25
f 345/734/166 346/733/166 350/741/168
f 350/741/168 349/742/168 345/734/166
s 26
f 346/736/3 347/735/3 351/743/3
f 351/743/3 350/744/3 346/736/3
s 27
f 347/738/167 348/737/167 352/745/169
f 352/745/169 351/746/169 347/738/167
s 28
f 348/740/7 345/739/7 349/747/7
f 349/747/7 352/748/7 348/740/7
s 25
f 349/742/168 350/741/168 354/749/170
f 354/749/170 353/750/170 349/742/168
s 26
f 350/744/3 351/743/3 355/751/3
f 355/751/3 354/752/3 350/744/3
s 27
f 351/746/169 352/745/169 356/753/171
f 356/753/171 355/754/171 351/746/169
s 28
f 352/748/7 349/747/7 353/755/7
f 353/755/7 356/756/7 352/748/7
s 25
f 353/750/170 354/749/170 358/757/172
f 358/757/172 357/758/172 353/750/170
s 26
f 354/752/3 355/751/3 359/759/3
f 359/759/3 358/760/3 354/752/3
s 27
f 355/754/171 356/753/171 360/761/173
f 360/761/173 359/762/173 355/754/171
s 28
f 356/756/7 353/755/7 357/763/7
f 357/763/7 360/764/7 356/756/7
s 25
f 357/758/172 358/757/172 362/765/174
f 362/765/174 361/766/174 357/758/172
s 26
f 358/760/3 359/759/3 363/767/3
f 363/767/3 362/768/3 358/760/3
s 27
f 359/762/173 360/761/173 364/769/175
f 364/769/175 363/770/175 359/762/173
s 28
f 360/764/7 357/763/7 361/771/7
f 361/771/7 364/772/7 360/764/7
s 25
f 361/766/174 362/765/174 366/773/176
f 366/773/176 365/774/176 361/766/174
s 26
f 362/768/3 363/767/3 367/775/3
f 367/775/3 366/776/3 362/768/3
s 27
f 363/770/175 364/769/175 368/777/177
f 368/777/177 367/778/177 363/770/175
s 28
f 364/772/7 361/771/7 365/779/7
f 365/779/7 368/780/7 364/772/7
s 25
f 365/774/176 366/773/176 370/781/178
f 370/781/178 369/782/178 365/774/176
s 26
f 366/776/3 367/775/3 371/783/3
f 371/783/3 370/784/3 366/776/3
s 27
f 367/778/177 368/777/177 372/785/179
f 372/785/179 371/786/179 367/778/177
s 28
f 368/780/7 365/779/7 369/787/7
f 369/787/7 372/788/7 368/780/7
s 25
f 369/789/178 370/790/178 374/791/180
f 374/791/180 373/792/180 369/789/178
s 26
f 370/784/3 371/783/3 375/793/3
f 375/793/3 374/794/3 370/784/3
s 27
f 371/795/179 372/796/179 376/797/181
f 376/797/181 375/798/181 371/795/179
s 28
f 372/788/7 369/787/7 373/799/7
f 373/799/7 376/800/7 372/788/7
s 25
f 373/792/180 374/791/180 378/801/182
f 378/801/182 377/802/182 373/792/180
s 26
f 374/794/3 375/793/3 379/803/3
f 379/803/3 378/804/3 374/794/3
s 27
f 375/798/181 376/797/181 380/805/183
f 380/805/183 379/806/183 375/798/181
s 28
f 376/800/7 373/799/7 377/807/7
f 377/807/7 380/808/7 376/800/7
s 25
f 377/802/182 378/801/182 382/809/184
f 382/809/184 381/810/184 377/802/182
s 26
f 378/804/3 379/803/3 383/811/3
f 383/811/3 382/812/3 378/804/3
s 27
f 379/806/183 380/805/183 384/813/185
f 384/813/185 383/814/185 379/806/183
s 28
f 380/808/7 377/807/7 381/815/7
f 381/815/7 384/816/7 380/808/7
s 25
f 381/810/184 382/809/184 386/817/186
f 386/817/186 385/818/186 381/810/184
s 26
f 382/812/3 383/811/3 387/819/3
f 387/819/3 386/820/3 382/812/3
s 27
f 383/814/185 384/813/185 388/821/187
f 388/821/187 387/822/187 383/814/185
s 28
f 384/816/7 381/815/7 385/823/7
f 385/823/7 388/824/7 384/816/7
s 25
f 385/818/186 386/817/186 390/825/188
f 390/825/188 389/826/188 385/818/186
s 26
f 386/820/3 387/819/3 391/827/3
f 391/827/3 390/828/3 386/820/3
s 27
f 387/822/187 388/821/187 392/829/189
f 392/829/189 391/830/189 387/822/187
s 28
f 388/824/7 385/823/7 389/831/7
f 389/831/7 392/832/7 388/824/7
s 25
f 389/826/188 390/825/188 394/833/190
f 394/833/190 393/834/190 389/826/188
s 26
f 390/828/3 391/827/3 395/835/3
f 395/835/3 394/836/3 390/828/3
s 27
f 391/830/189 392/829/189 396/837/191
f 396/837/191 395/838/191 391/830/189
s 28
f 392/832/7 389/831/7 393/839/7
f 393/839/7 396/840/7 392/832/7
s 25
f 393/834/190 394/833/190 398/841/192
f 398/841/192 397/842/192 393/834/190
s 26
f 394/836/3 395/835/3 399/843/3
f 399/843/3 398/844/3 394/836/3
s 27
f 395/838/191 396/837/191 400/845/193
f 400/845/193 399/846/193 395/838/191
s 28
f 396/840/7 393/839/7 397/847/7
f 397/847/7 400/848/7 396/840/7
s 29
f 279/849/67 278/850/67 277/851/67
f 277/851/67 280/852/67 279/849/67
s 30
f 397/853/67 398/854/67 399/855/67
f 399/855/67 400/856/67 397/853/67
s 31
f 401/857/7 403/858/7 404/859/7
f 404/859/7 402/860/7 401/857/7
s 32
f 405/861/3 406/862/3 408/863/3
f 408/863/3 407/864/3 405/861/3
s 33
f 401/865/183 402/866/183 406/867/183
f 406/867/183 405/868/183 401/865/183
s 34
f 402/869/155 404/870/155 408/871/155
f 408/871/155 406/872/155 402/869/155
s 35
f 404/873/182 403/874/182 407/875/182
f 407/875/182 408/876/182 404/873/182
s 36
f 403/877/154 401/878/154 405/879/154
f 405/879/154 407/880/154 403/877/154
s 37
f 409/881/7 411/882/7 412/883/7
f 412/883/7 410/884/7 409/881/7
s 38
f 413/885/3 414/886/3 416/887/3
f 416/887/3 415/888/3 413/885/3
s 39
f 409/889/183 410/890/183 414/891/183
f 414/891/183 413/892/183 409/889/183
s 40
f 410/893/155 412/894/155 416/895/155
f 416/895/155 414/896/155 410/893/155
s 41
f 412/897/182 411/898/182 415/899/182
f 415/899/182 416/900/182 412/897/182
s 42
f 411/901/154 409/902/154 413/903/154
f 413/903/154 415/904/154 411/901/154
s 43
f 417/905/7 419/906/7 420/907/7
f 420/907/7 418/908/7 417/905/7
s 44
f 421/909/3 422/910/3 424/911/3
f 424/911/3 423/912/3 421/909/3
s 45
f 417/913/173 418/914/173 422/915/173
f 422/915/173 421/916/173 417/913/173
s 46
f 418/917/145 420/918/145 424/919/145
f 424/919/145 422/920/145 418/917/145
s 47
f 420/921/172 419/922/172 423/923/172
f 423/923/172 424/924/172 420/921/172
s 48
f 419/925/144 417/926/144 421/927/144
f 421/927/144 423/928/144 419/925/144
s 49
f 425/929/7 427/930/7 428/931/7
f 428/931/7 426/932/7 425/929/7
s 50
f 429/933/3 430/934/3 432/935/3
f 432/935/3 431/936/3 429/933/3
s 51
f 425/937/67 426/938/67 430/939/67
f 430/939/67 429/940/67 425/937/67
s 52
f 426/941/133 428/942/133 432/943/133
f 432/943/133 430/944/133 426/941/133
s 53
f 428/945/66 427/946/66 431/947/66
f 431/947/66 432/948/66 428/945/66
s 54
f 427/949/132 425/950/132 429/951/132
f 429/951/132 431/952/132 427/949/132
s 55
f 433/953/7 435/954/7 436/955/7
f 436/955/7 434/956/7 433/953/7
s 56
f 437/957/3 438/958/3 440/959/3
f 440/959/3 439/960/3 437/957/3
s 57
f 433/961/67 434/962/67 438/963/67
f 438/963/67 437/964/67 433/961/67
s 58
f 434/965/133 436/966/133 440/967/133
f 440/967/133 438/968/133 434/965/133
s 59
f 436/969/66 435/970/66 439/971/66
f 439/971/66 440/972/66 436/969/66
s 60
f 435/973/132 433/974/132 437/975/132
f 437/975/132 439/976/132 435/973/132
s 61
f 441/977/7 443/978/7 444/979/7
f 444/979/7 442/980/7 441/977/7
s 62
f 445/981/3 446/982/3 448/983/3
f 448/983/3 447/984/3 445/981/3
s 63
f 441/985/194 442/986/194 446/987/194
f 446/987/194 445/988/194 441/985/194
s 64
f 442/989/195 444/990/195 448/991/195
f 448/991/195 446/992/195 442/989/195
s 65
f 444/993/196 443/994/196 447/995/196
f 447/995/196 448/996/196 444/993/196
s 66
f 443/997/197 441/998/197 445/999/197
f 445/999/197 447/1000/197 443/997/197
s 67
f 449/1001/7 451/1002/7 452/1003/7
f 452/1003/7 450/1004/7 449/1001/7
s 68
f 453/1005/3 454/1006/3 456/1007/3
f 456/1007/3 455/1008/3 453/1005/3
s 69
f 449/1009/198 450/1010/198 454/1011/198
f 454/1011/198 453/1012/198 449/1009/198
s 70
f 450/1013/199 452/1014/199 456/1015/199
f 456/1015/199 454/1016/199 450/1013/199
s 71
f 452/1017/200 451/1018/200 455/1019/200
f 455/1019/200 456/1020/200 452/1017/200
s 72
f 451/1021/201 449/1022/201 453/1023/201
f 453/1023/201 455/1024/201 451/1021/201
s 73
f 457/1025/7 459/1026/7 460/1027/7
f 460/1027/7 458/1028/7 457/1025/7
s 74
f 461/1029/3 462/1030/3 464/1031/3
f 464/1031/3 463/1032/3 461/1029/3
s 75
f 457/1033/202 458/1034/202 462/1035/202
f 462/1035/202 461/1036/202 457/1033/202
s 76
f 458/1037/203 460/1038/203 464/1039/203
f 464/1039/203 462/1040/203 458/1037/203
s 77
f 460/1041/204 459/1042/204 463/1043/204
f 463/1043/204 464/1044/204 460/1041/204
s 78
f 459/1045/205 457/1046/205 461/1047/205
f 461/1047/205 463/1048/205 459/1045/205
s 79
f 465/1049/7 467/1050/7 468/1051/7
f 468/1051/7 466/1052/7 465/1049/7
s 80
f 469/1053/3 470/1054/3 472/1055/3
f 472/1055/3 471/1056/3 469/1053/3
s 81
f 465/1057/206 466/1058/206 470/1059/206
f 470/1059/206 469/1060/206 465/1057/206
s 82
f 466/1061/207 468/1062/207 472/1063/207
f 472/1063/207 470/1064/207 466/1061/207
s 83
f 468/1065/208 467/1066/208 471/1067/208
f 471/1067/208 472/1068/208 468/1065/208
s 84
f 467/1069/209 465/1070/209 469/1071/209
f 469/1071/209 471/1072/209 467/1069/209
s 85
f 473/1073/7 475/1074/7 476/1075/7
f 476/1075/7 474/1076/7 473/1073/7
s 86
f 477/1077/3 478/1078/3 480/1079/3
f 480/1079/3 479/1080/3 477/1077/3
s 87
f 473/1081/210 474/1082/210 478/1083/210
f 478/1083/210 477/1084/210 473/1081/210
s 88
f 474/1085/211 476/1086/211 480/1087/211
f 480/1087/211 478/1088/211 474/1085/211
s 89
f 476/1089/212 475/1090/212 479/1091/212
f 479/1091/212 480/1092/212 476/1089/212
s 90
f 475/1093/213 473/1094/213 477/1095/213
f 477/1095/213 479/1096/213 475/1093/213
s 91
f 481/1097/7 483/1098/7 484/1099/7
f 484/1099/7 482/1100/7 481/1097/7
s 92
f 485/1101/3 486/1102/3 488/1103/3
f 488/1103/3 487/1104/3 485/1101/3
s 93
f 481/1105/214 482/1106/214 486/1107/214
f 486/1107/214 485/1108/214 481/1105/214
s 94
f 482/1109/215 484/1110/215 488/1111/215
f 488/1111/215 486/1112/215 482/1109/215
s 95
f 484/1113/216 483/1114/216 487/1115/216
f 487/1115/216 488/1116/216 484/1113/216
s 96
f 483/1117/217 481/1118/217 485/1119/217
f 485/1119/217 487/1120/217 483/1117/217
s 97
f 489/1121/7 491/1122/7 492/1123/7
f 492/1123/7 490/1124/7 489/1121/7
s 98
f 493/1125/3 494/1126/3 496/1127/3
f 496/1127/3 495/1128/3 493/1125/3
s 99
f 489/1129/218 490/1130/218 494/1131/218
f 494/1131/218 493/1132/218 489/1129/218
s 100
f 490/1133/219 492/1134/219 496/1135/219
f 496/1135/219 494/1136/219 490/1133/219
s 101
f 492/1137/220 491/1138/220 495/1139/220
f 495/1139/220 496/1140/220 492/1137/220
s 102
f 491/1141/221 489/1142/221 493/1143/221
f 493/1143/221 495/1144/221 491/1141/221
s 103
f 497/1145/7 499/1146/7 500/1147/7
f 500/1147/7 498/1148/7 497/1145/7
s 104
f 501/1149/3 502/1150/3 504/1151/3
f 504/1151/3 503/1152/3 501/1149/3
s 105
f 497/1153/133 498/1154/133 502/1155/133
f 502/1155/133 501/1156/133 497/1153/133
s 106
f 498/1157/66 500/1158/66 504/1159/66
f 504/1159/66 502/1160/66 498/1157/66
s 107
f 500/1161/132 499/1162/132 503/1163/132
f 503/1163/132 504/1164/132 500/1161/132
s 108
f 499/1165/67 497/1166/67 501/1167/67
f 501/1167/67 503/1168/67 499/1165/67
s 109
f 505/1169/7 507/1170/7 508/1171/7
f 508/1171/7 506/1172/7 505/1169/7
s 110
f 509/1173/3 510/1174/3 512/1175/3
f 512/1175/3 511/1176/3 509/1173/3
s 111
f 505/1177/222 506/1178/222 510/1179/222
f 510/1179/222 509/1180/222 505/1177/222
s 112
f 506/1181/223 508/1182/223 512/1183/223
f 512/1183/223 510/1184/223 506/1181/223
s 113
f 508/1185/224 507/1186/224 511/1187/224
f 511/1187/224 512/1188/224 508/1185/224
s 114
f 507/1189/225 505/1190/225 509/1191/225
f 509/1191/225 511/1192/225 507/1189/225
s 115
f 513/1193/7 515/1194/7 516/1195/7
f 516/1195/7 514/1196/7 513/1193/7
s 116
f 517/1197/3 518/1198/3 520/1199/3
f 520/1199/3 519/1200/3 517/1197/3
s 117
f 513/1201/226 514/1202/226 518/1203/226
f 518/1203/226 517/1204/226 513/1201/226
s 118
f 514/1205/227 516/1206/227 520/1207/227
f 520/1207/227 518/1208/227 514/1205/227
s 119
f 516/1209/228 515/1210/228 519/1211/228
f 519/1211/228 520/1212/228 516/1209/228
s 120
f 515/1213/229 513/1214/229 517/1215/229
f 517/1215/229 519/1216/229 515/1213/229
