# Blender 5.0.1
# www.blender.org
mtllib carro_llanta.mtl
o Llanta
v -0.055560 -0.022192 0.075968
v -0.061497 0.007658 0.075968
v -0.038651 -0.047498 0.075968
v -0.013345 -0.064407 0.075968
v 0.046356 -0.064407 0.075968
v 0.071662 -0.047498 0.075968
v 0.088571 -0.022192 0.075968
v 0.088571 0.037509 0.075968
v 0.046356 0.079723 0.075968
v -0.013345 0.079723 0.075968
v -0.055560 0.037509 0.075968
v -0.180981 -0.074143 0.075968
v 0.016505 -0.206099 0.075968
v 0.098307 -0.189828 0.075968
v 0.167655 0.158807 0.075968
v 0.098307 0.205144 0.075968
v -0.065296 0.205144 0.075968
v -0.180981 0.089460 0.075968
v 0.016505 -0.031642 0.078687
v 0.001466 -0.028651 0.078687
v 0.031545 -0.028651 0.078687
v 0.055806 0.007658 0.078687
v 0.031545 0.043967 0.078687
v -0.019804 -0.007382 0.078687
v -0.019804 0.022698 0.078687
v -0.134644 -0.143491 0.066008
v -0.180981 -0.074143 0.066008
v 0.016505 -0.206099 0.066008
v 0.167654 -0.143491 0.066008
v 0.098307 -0.189828 0.066008
v 0.213991 -0.074143 0.066008
v 0.098307 0.205144 0.066008
v -0.134644 0.158807 0.066008
v -0.197252 0.007658 0.066008
v -0.180981 0.089460 0.066008
v -0.038651 -0.047498 0.066008
v 0.071662 -0.047498 0.066008
v 0.046356 -0.064407 0.066008
v 0.088571 -0.022192 0.066008
v 0.016505 0.085661 0.066008
v 0.046356 0.079723 0.066008
v -0.061497 0.007658 0.066008
v 0.016505 -0.066118 0.084764
v 0.044738 -0.060502 0.084764
v 0.068673 -0.044509 0.084764
v 0.084665 -0.020575 0.084764
v 0.084665 0.035891 0.084764
v -0.035662 0.059826 0.084764
v -0.051655 -0.020575 0.084764
v 0.016505 0.081434 0.084764
v -0.051655 0.035891 0.084764
v 0.044295 -0.020132 0.078687
v 0.044295 0.035448 0.078687
v -0.022795 0.007658 0.078687
v 0.016505 -0.040167 0.078687
v -0.001797 -0.036527 0.078687
v 0.060690 -0.010644 0.078687
v 0.050323 -0.026159 0.078687
v 0.060690 0.025960 0.078687
v -0.001797 0.051843 0.078687
v 0.016505 0.055484 0.078687
v -0.027679 -0.010644 0.078687
v -0.031320 0.007658 0.078687
v -0.027679 0.025960 0.078687
v 0.029006 -0.022521 0.085883
v 0.046684 -0.004842 0.085883
v 0.039603 -0.015440 0.085883
v 0.046684 0.020159 0.085883
v 0.039603 0.030756 0.085883
v 0.016505 0.040324 0.085883
v 0.049171 0.007658 0.085883
v -0.013674 -0.004842 0.085883
v -0.016160 0.007658 0.085883
v -0.006592 -0.015440 0.085883
v 0.060690 -0.010644 0.074090
v 0.050323 -0.026159 0.074090
v -0.001797 0.051843 0.074090
v 0.016505 0.055484 0.074090
v 0.050323 0.041476 0.074090
v 0.034807 0.051843 0.074090
v -0.027679 -0.010644 0.074090
v -0.001797 -0.036527 0.074090
v 0.064331 0.007658 0.074090
v -0.017312 0.041476 0.074090
v 0.016505 -0.031642 0.074090
v 0.044295 -0.020132 0.074090
v 0.044295 0.035448 0.074090
v -0.019804 -0.007382 0.074090
v -0.022795 0.007658 0.074090
v -0.011284 -0.020132 0.074090
v -0.019804 0.022698 0.074090
v -0.011284 0.035448 0.074090
v 0.016505 -0.070345 0.075968
v 0.094508 0.007658 0.075968
v 0.071662 0.062815 0.075968
v 0.016505 0.085661 0.075968
v -0.038651 0.062815 0.075968
v -0.197252 0.007658 0.075968
v -0.134644 -0.143491 0.075968
v -0.065296 -0.189828 0.075968
v 0.167654 -0.143491 0.075968
v 0.213991 -0.074143 0.075968
v 0.230263 0.007658 0.075968
v 0.213991 0.089460 0.075968
v 0.016505 0.221415 0.075968
v -0.134644 0.158807 0.075968
v -0.065296 -0.189828 0.066008
v 0.230263 0.007658 0.066008
v 0.167655 0.158807 0.066008
v 0.213991 0.089460 0.066008
v 0.016505 0.221415 0.066008
v -0.065296 0.205144 0.066008
v -0.055560 -0.022192 0.066008
v 0.016505 -0.070345 0.066008
v -0.013345 -0.064407 0.066008
v 0.094508 0.007658 0.066008
v 0.071662 0.062815 0.066008
v 0.088571 0.037509 0.066008
v -0.038651 0.062815 0.066008
v -0.013345 0.079723 0.066008
v -0.055560 0.037509 0.066008
v -0.011727 -0.060502 0.084764
v 0.090281 0.007658 0.084764
v 0.068673 0.059825 0.084764
v 0.044738 0.075818 0.084764
v -0.011727 0.075818 0.084764
v -0.057270 0.007658 0.084764
v -0.035662 -0.044509 0.084764
v 0.052814 -0.007382 0.078687
v 0.052814 0.022698 0.078687
v 0.001466 0.043967 0.078687
v -0.011284 0.035448 0.078687
v -0.011284 -0.020132 0.078687
v 0.016505 0.046959 0.078687
v 0.034807 -0.036527 0.078687
v 0.050323 0.041476 0.078687
v -0.017312 0.041476 0.078687
v 0.064331 0.007658 0.078687
v 0.034807 0.051843 0.078687
v -0.017312 -0.026159 0.078687
v 0.016505 0.007658 0.085883
v 0.016505 -0.025007 0.085883
v 0.004005 -0.022521 0.085883
v 0.004005 0.037837 0.085883
v -0.006592 0.030756 0.085883
v 0.029006 0.037837 0.085883
v -0.013674 0.020159 0.085883
v 0.034807 -0.036527 0.074090
v 0.016505 -0.040167 0.074090
v -0.031320 0.007658 0.074090
v -0.017312 -0.026159 0.074090
v 0.060690 0.025960 0.074090
v -0.027679 0.025960 0.074090
v 0.031545 -0.028651 0.074090
v 0.052814 -0.007382 0.074090
v 0.001466 0.043967 0.074090
v 0.016505 0.046959 0.074090
v 0.031545 0.043967 0.074090
v 0.001466 -0.028651 0.074090
v 0.052814 0.022698 0.074090
v 0.055806 0.007658 0.074090
v -0.197470 -0.077807 0.090653
v 0.000016 -0.209763 0.090653
v 0.151165 -0.147155 0.090653
v 0.197502 -0.077807 0.090653
v 0.151165 0.155144 0.090653
v 0.081817 0.201480 0.090653
v 0.000016 0.217752 0.090653
v -0.081786 0.201480 0.090653
v 0.000015 0.003994 -0.117164
v -0.326806 0.003995 -0.117164
v -0.231082 -0.227103 -0.117164
v -0.125054 -0.297949 0.090653
v 0.125085 -0.297949 -0.117164
v 0.231113 -0.227103 -0.117164
v 0.301959 -0.121075 0.090653
v 0.301959 0.129064 0.090653
v 0.231113 0.235092 -0.117164
v -0.125054 0.305938 0.090653
v -0.231082 0.235092 0.090653
v -0.301928 0.129064 0.090653
v -0.072050 -0.025856 0.071338
v -0.077987 0.003995 0.071338
v -0.055141 -0.051162 0.071338
v -0.029835 -0.068071 0.071338
v 0.029866 -0.068071 0.071338
v 0.055172 -0.051162 0.071338
v 0.029866 0.076060 0.071338
v -0.029835 0.076060 0.071338
v -0.072050 0.033845 0.071338
v -0.197470 -0.077807 0.071338
v 0.000016 -0.209763 0.071338
v 0.081817 -0.193491 0.071338
v 0.151165 0.155144 0.071338
v 0.081817 0.201480 0.071338
v -0.081786 0.201480 0.071338
v -0.197470 0.085796 0.071338
v 0.000016 -0.035306 0.074057
v -0.015024 -0.032315 0.074057
v 0.015055 -0.032315 0.074057
v 0.039316 0.003995 0.074057
v -0.036293 -0.011045 0.074057
v -0.036293 0.019034 0.074057
v -0.151133 -0.147155 0.061378
v -0.197470 -0.077807 0.061378
v 0.000016 -0.209763 0.061378
v 0.151165 -0.147155 0.061378
v 0.081817 -0.193491 0.061378
v 0.197502 -0.077807 0.061378
v 0.081817 0.201480 0.061378
v -0.151133 0.155144 0.061378
v -0.213742 0.003995 0.061378
v -0.197470 0.085796 0.061378
v -0.055141 -0.051162 0.061378
v 0.055172 -0.051162 0.061378
v 0.029866 -0.068071 0.061378
v 0.000016 0.081997 0.061378
v 0.029866 0.076060 0.061378
v -0.077987 0.003995 0.061378
v 0.027806 0.031784 0.074057
v -0.039285 0.003995 0.074057
v -0.018286 -0.040190 0.074057
v 0.044201 -0.014307 0.074057
v 0.033833 -0.029823 0.074057
v 0.044201 0.022297 0.074057
v -0.018286 0.048179 0.074057
v 0.000016 0.051820 0.074057
v -0.047810 0.003995 0.074057
v 0.044201 -0.014307 0.069460
v 0.033833 -0.029823 0.069460
v -0.018286 0.048179 0.069460
v 0.000016 0.051820 0.069460
v 0.033833 0.037812 0.069460
v 0.018318 0.048179 0.069460
v -0.018286 -0.040190 0.069460
v 0.047841 0.003995 0.069460
v -0.033802 0.037812 0.069460
v 0.000016 -0.035306 0.069460
v 0.027805 -0.023795 0.069460
v 0.027806 0.031784 0.069460
v -0.036293 -0.011045 0.069460
v -0.039285 0.003995 0.069460
v -0.027774 -0.023795 0.069460
v -0.036293 0.019034 0.069460
v -0.027774 0.031784 0.069460
v -0.213742 0.003995 0.090653
v -0.151133 -0.147155 0.090653
v -0.081786 -0.193491 0.090653
v 0.081817 -0.193491 0.090653
v 0.213773 0.003995 0.090653
v 0.197502 0.085796 0.090653
v -0.151133 0.155144 0.090653
v -0.197470 0.085796 0.090653
v -0.301928 -0.121075 -0.117164
v -0.301928 -0.121075 0.090653
v -0.326806 0.003995 0.090653
v -0.231082 -0.227103 0.090653
v -0.125054 -0.297949 -0.117164
v 0.000016 -0.322827 -0.117164
v 0.000016 -0.322827 0.090653
v 0.125085 -0.297949 0.090653
v 0.231113 -0.227103 0.090653
v 0.301959 -0.121075 -0.117164
v 0.326837 0.003994 -0.117164
v 0.326837 0.003995 0.090653
v 0.301959 0.129064 -0.117164
v 0.231113 0.235092 0.090653
v 0.125085 0.305938 -0.117164
v 0.125085 0.305938 0.090653
v 0.000016 0.330816 -0.117164
v 0.000016 0.330816 0.090653
v -0.125054 0.305938 -0.117164
v -0.231082 0.235092 -0.117164
v -0.301928 0.129064 -0.117164
v 0.000016 -0.074008 0.071338
v 0.078019 0.003995 0.071338
v 0.055172 0.059151 0.071338
v -0.213742 0.003995 0.071338
v -0.151133 -0.147155 0.071338
v -0.081786 -0.193491 0.071338
v 0.151165 -0.147155 0.071338
v 0.197502 -0.077807 0.071338
v 0.213773 0.003995 0.071338
v 0.197502 0.085796 0.071338
v 0.000016 0.217752 0.071338
v -0.151133 0.155144 0.071338
v -0.081786 -0.193491 0.061378
v 0.213773 0.003995 0.061378
v 0.151165 0.155144 0.061378
v 0.197502 0.085796 0.061378
v 0.000016 0.217752 0.061378
v -0.081786 0.201480 0.061378
v -0.072050 -0.025856 0.061378
v 0.000016 -0.074008 0.061378
v -0.029835 -0.068071 0.061378
v 0.078019 0.003995 0.061378
v 0.055172 0.059151 0.061378
v -0.029835 0.076060 0.061378
v -0.072050 0.033845 0.061378
v 0.036325 -0.011045 0.074057
v 0.036325 0.019034 0.074057
v -0.027774 0.031784 0.074057
v -0.027774 -0.023795 0.074057
v 0.000016 0.043295 0.074057
v 0.018318 -0.040190 0.074057
v 0.033833 0.037812 0.074057
v -0.033802 0.037812 0.074057
v 0.047841 0.003995 0.074057
v 0.018318 0.048179 0.074057
v -0.033802 -0.029823 0.074057
v 0.018318 -0.040190 0.069460
v -0.047810 0.003995 0.069460
v -0.033802 -0.029823 0.069460
v 0.044201 0.022297 0.069460
v 0.015055 -0.032315 0.069460
v 0.036325 -0.011045 0.069460
v 0.000016 0.043295 0.069460
v -0.015024 -0.032315 0.069460
v 0.036325 0.019034 0.069460
v 0.039316 0.003995 0.069460
vn -0.3449 -0.8327 0.4331
vn -0.6373 -0.6373 0.4331
vn -0.0000 -0.0000 1.0000
vn 0.7071 0.7071 -0.0000
vn -0.0000 1.0000 -0.0000
vn 1.0000 -0.0000 -0.0000
vn -0.8327 -0.3449 0.4331
vn 0.7245 0.6255 0.2896
vn 0.8327 0.3449 0.4331
vn 0.8551 0.4300 0.2896
vn -0.0000 -0.9013 0.4331
vn 0.3449 0.8327 0.4331
vn 0.3006 0.9087 0.2896
vn 0.3449 -0.8327 0.4331
vn 0.0700 0.9546 0.2896
vn 0.6373 -0.6373 0.4332
vn -0.3449 0.8327 0.4331
vn -0.4300 0.8551 0.2896
vn 0.8327 -0.3449 0.4331
vn 0.9087 -0.3006 0.2896
vn -0.6255 0.7245 0.2896
vn 0.9013 -0.0000 0.4331
vn 0.9546 -0.0700 0.2896
vn -0.8327 0.3449 0.4331
vn -0.6373 0.6373 0.4331
vn -0.9013 -0.0000 0.4331
vn -0.7071 0.7071 -0.0000
vn 0.9239 -0.3827 -0.0000
vn 0.9808 -0.1951 -0.0000
vn 0.9239 0.3827 -0.0000
vn -0.7071 -0.7071 -0.0000
vn 0.8315 0.5556 -0.0000
vn 0.3827 0.9239 -0.0000
vn 0.1951 0.9808 -0.0000
vn -0.3827 0.9239 -0.0000
vn -0.5556 0.8315 -0.0000
vn 0.0873 0.2106 0.9737
vn -0.0000 0.1649 0.9863
vn 0.0631 0.1523 0.9863
vn -0.0000 0.2280 0.9737
vn -0.0631 0.1523 0.9863
vn -0.1612 0.1612 0.9737
vn -0.1166 0.1166 0.9863
vn -0.2106 0.0873 0.9737
vn -0.1523 0.0631 0.9863
vn -0.1649 -0.0000 0.9863
vn -0.2106 -0.0873 0.9737
vn -0.1166 -0.1166 0.9863
vn -0.1523 -0.0631 0.9863
vn 0.0873 -0.2106 0.9737
vn 0.1166 -0.1166 0.9863
vn 0.0631 -0.1523 0.9863
vn 0.2280 -0.0000 0.9737
vn 0.1523 0.0631 0.9863
vn 0.1649 -0.0000 0.9863
vn 0.1612 0.1612 0.9737
vn 0.1166 0.1166 0.9863
vn -0.0631 -0.1523 0.9863
vn -0.0000 -0.2280 0.9737
vn -0.0000 -0.1649 0.9863
vn 0.1612 -0.1612 0.9737
vn 0.1523 -0.0631 0.9863
vn 0.2106 -0.0873 0.9737
vn -0.5198 0.5198 0.6779
vn -0.6792 0.2813 0.6779
vn 0.9808 0.1951 -0.0000
vn -0.1951 0.9808 -0.0000
vn 0.5556 0.8315 -0.0000
vn 0.5198 -0.5198 0.6779
vn 0.6792 -0.2813 0.6779
vn -0.0000 0.7352 0.6779
vn -0.2813 0.6792 0.6779
vn 0.7352 -0.0000 0.6779
vn 0.6792 0.2813 0.6779
vn -0.5198 -0.5198 0.6779
vn -0.2813 -0.6792 0.6779
vn 0.5198 0.5198 0.6779
vn 0.2813 0.6792 0.6779
vn 0.2813 -0.6792 0.6779
vn -0.7352 -0.0000 0.6779
vn -0.6792 -0.2813 0.6779
vn -0.0000 -0.7352 0.6779
vn 0.8315 -0.5556 -0.0000
vn -0.1612 -0.1612 0.9737
vn 0.6373 0.6373 0.4331
vn -0.0000 0.9013 0.4331
vn -0.0873 0.2106 0.9737
vn -0.2280 -0.0000 0.9737
vn 0.2106 0.0873 0.9737
vn -0.0873 -0.2106 0.9737
vn -0.9239 -0.3827 -0.0000
vn -1.0000 -0.0000 -0.0000
vn -0.3827 -0.9239 -0.0000
vn -0.0000 -1.0000 -0.0000
vn 0.3827 -0.9239 -0.0000
vn 0.7071 -0.7071 -0.0000
vn -0.9239 0.3827 -0.0000
vn 0.6588 -0.7523 -0.0000
vn -0.0000 -0.0000 -1.0000
vn 0.8965 0.4430 -0.0000
vn -0.9978 0.0662 -0.0000
vn 0.9472 -0.3207 -0.0000
vn 0.7523 0.6588 -0.0000
vn 0.9978 -0.0662 -0.0000
vn -0.7523 -0.6588 -0.0000
vn 0.0662 0.9978 -0.0000
vn -0.3207 -0.9472 -0.0000
vn -0.4430 0.8965 -0.0000
vn -0.0662 -0.9978 -0.0000
vn -0.6588 0.7523 -0.0000
vn 0.4430 -0.8965 -0.0000
vn -0.9472 0.3207 -0.0000
vn -0.1951 -0.9808 -0.0000
vn -0.9808 0.1951 -0.0000
vn -0.8315 -0.5556 -0.0000
vn -0.8965 -0.4430 -0.0000
vn 0.5556 -0.8315 -0.0000
vn 0.3207 0.9472 -0.0000
vn -0.5556 -0.8315 -0.0000
vn -0.9808 -0.1951 -0.0000
vn -0.8315 0.5556 -0.0000
vn 0.1951 -0.9808 -0.0000
vt 0.265523 0.172266
vt 0.263277 0.207143
vt 0.261810 0.206349
vt 0.331552 0.306551
vt 0.296984 0.277792
vt 0.304276 0.259780
vt 0.801762 0.747271
vt 0.783346 0.987968
vt 0.783346 0.746444
vt 0.339258 0.207945
vt 0.306982 0.241789
vt 0.306992 0.223083
vt 0.300768 0.089629
vt 0.298994 0.189656
vt 0.292429 0.180404
vt 0.764966 0.746444
vt 0.764966 0.975066
vt 0.746741 0.749214
vt 0.261918 0.102993
vt 0.285214 0.177346
vt 0.278301 0.184172
vt 0.237610 0.194399
vt 0.272359 0.197963
vt 0.269249 0.217013
vt 0.236811 0.253257
vt 0.269383 0.218201
vt 0.269044 0.239230
vt 0.271253 0.257786
vt 0.264620 0.357146
vt 0.244223 0.308034
vt 0.764966 0.978501
vt 0.764966 0.746444
vt 0.783346 0.976193
vt 0.288023 0.284988
vt 0.284603 0.366893
vt 0.281752 0.283297
vt 0.262219 0.242665
vt 0.861386 0.796601
vt 0.838719 0.752954
vt 0.855616 0.747162
vt 0.277148 0.058623
vt 0.248815 0.106780
vt 0.270580 0.054234
vt 0.847129 0.853061
vt 0.864508 0.853004
vt 0.505256 0.727843
vt 0.492219 0.766493
vt 0.488250 0.732938
vt 0.864508 0.907785
vt 0.284855 0.307707
vt 0.286215 0.277256
vt 0.294977 0.307192
vt 0.844176 0.947260
vt 0.861386 0.952601
vt 0.503225 0.628757
vt 0.486103 0.684367
vt 0.486103 0.628174
vt 0.855616 0.980633
vt 0.505256 0.576491
vt 0.488250 0.572913
vt 0.363343 0.278184
vt 0.418677 0.270437
vt 0.420218 0.278184
vt 0.277148 0.211813
vt 0.310796 0.256418
vt 0.270579 0.216201
vt 0.492219 0.526999
vt 0.364884 0.270436
vt 0.304214 0.205246
vt 0.339293 0.207422
vt 0.307032 0.222623
vt 0.318809 0.114986
vt 0.303790 0.205318
vt 0.298970 0.189493
vt 0.285045 0.178681
vt 0.300826 0.089434
vt 0.292337 0.180093
vt 0.246414 0.141852
vt 0.277951 0.184035
vt 0.272515 0.198106
vt 0.281571 0.283547
vt 0.264776 0.357224
vt 0.275345 0.274009
vt 0.316989 0.343079
vt 0.288156 0.285596
vt 0.296855 0.278093
vt 0.306985 0.242740
vt 0.331679 0.306740
vt 0.304209 0.259983
vt 0.108991 0.523830
vt 0.820195 1.000000
vt 0.838719 0.746444
vt 0.838719 0.999927
vt 0.467581 0.627890
vt 0.746741 0.748604
vt 0.728434 0.940707
vt 0.728434 0.746444
vt 0.874037 0.746444
vt 0.820195 0.746444
vt 0.801762 0.999565
vt 0.801762 0.746645
vt 0.266788 0.174908
vt 0.279014 0.174780
vt 0.274558 0.191127
vt 0.273662 0.149692
vt 0.284972 0.165473
vt 0.292960 0.134022
vt 0.291524 0.164622
vt 0.302446 0.145953
vt 0.297673 0.172357
vt 0.302483 0.187499
vt 0.316623 0.201619
vt 0.308005 0.231087
vt 0.307755 0.208821
vt 0.294902 0.306700
vt 0.286231 0.277413
vt 0.292783 0.276562
vt 0.267888 0.272722
vt 0.272532 0.234290
vt 0.275271 0.254535
vt 0.272282 0.212024
vt 0.303196 0.250908
vt 0.306625 0.293419
vt 0.298740 0.267255
vt 0.284794 0.308013
vt 0.280081 0.269678
vt 0.275309 0.296082
vt 0.286702 0.267360
vt 0.282869 0.254253
vt 0.287070 0.259536
vt 0.277110 0.196455
vt 0.280772 0.183022
vt 0.302322 0.210096
vt 0.302484 0.187561
vt 0.307722 0.208846
vt 0.302308 0.210111
vt 0.302514 0.228408
vt 0.292087 0.266661
vt 0.291052 0.174674
vt 0.285668 0.175374
vt 0.300058 0.193474
vt 0.296105 0.181030
vt 0.074218 0.776810
vt 0.065768 0.788012
vt 0.065768 0.775814
vt 0.275446 0.231924
vt 0.275240 0.213627
vt 0.300644 0.245580
vt 0.296982 0.259013
vt 0.281649 0.261005
vt 0.277696 0.248561
vt 0.290709 0.182301
vt 0.296111 0.180991
vt 0.294910 0.187986
vt 0.295614 0.252598
vt 0.291545 0.258955
vt 0.300041 0.211952
vt 0.298170 0.198124
vt 0.277542 0.214874
vt 0.279097 0.200602
vt 0.302418 0.228501
vt 0.298736 0.241213
vt 0.300214 0.227645
vt 0.300579 0.245386
vt 0.295638 0.252380
vt 0.300010 0.193519
vt 0.298099 0.197933
vt 0.285766 0.175643
vt 0.286270 0.183027
vt 0.277713 0.230083
vt 0.279584 0.243911
vt 0.302310 0.209924
vt 0.300072 0.212155
vt 0.286209 0.183080
vt 0.282140 0.189437
vt 0.288877 0.221017
vt 0.298657 0.241433
vt 0.300212 0.227160
vt 0.294885 0.187781
vt 0.290685 0.182498
vt 0.266412 0.274834
vt 0.263632 0.241330
vt 0.267871 0.272674
vt 0.291576 0.164596
vt 0.296101 0.180898
vt 0.291063 0.174777
vt 0.275328 0.296014
vt 0.284394 0.312030
vt 0.274293 0.300308
vt 0.284951 0.165536
vt 0.280767 0.183027
vt 0.279047 0.174819
vt 0.272282 0.211968
vt 0.277109 0.196505
vt 0.275218 0.213579
vt 0.272617 0.234483
vt 0.277745 0.248428
vt 0.275299 0.254753
vt 0.280127 0.269617
vt 0.286656 0.267489
vt 0.286253 0.277328
vt 0.274271 0.300199
vt 0.267893 0.272738
vt 0.275286 0.296084
vt 0.307972 0.231243
vt 0.300599 0.245419
vt 0.302476 0.228337
vt 0.041208 0.793912
vt 0.041208 0.775814
vt 0.048728 0.789843
vt 0.704405 0.802467
vt 0.712953 0.774286
vt 0.712953 0.802598
vt 0.015624 0.810266
vt 0.024173 0.775944
vt 0.024173 0.810397
vt 0.285332 0.268227
vt 0.294070 0.268646
vt 0.286294 0.278129
vt 0.271653 0.258926
vt 0.236927 0.253787
vt 0.269128 0.239170
vt 0.317010 0.235967
vt 0.316938 0.342418
vt 0.801762 0.988794
vt 0.339230 0.259207
vt 0.318758 0.114984
vt 0.280863 0.084287
vt 0.246132 0.142194
vt 0.237740 0.195631
vt 0.275189 0.273931
vt 0.304159 0.354448
vt 0.844176 0.799714
vt 0.847129 0.904872
vt 0.503225 0.681904
vt 0.509010 0.533064
vt 0.331572 0.159804
vt 0.332017 0.158351
vt 0.280843 0.085566
vt 0.261311 0.103292
vt 0.284506 0.367137
vt 0.304262 0.354821
vt 0.339285 0.259489
vt 0.820195 0.746517
vt 0.469729 0.572630
vt 0.746741 0.942867
vt 0.879806 0.795883
vt 0.820195 0.999364
vt 0.509010 0.608050
vt 0.526266 0.660041
vt 0.509010 0.666525
vt 0.282852 0.135334
vt 0.312399 0.170388
vt 0.555929 0.318042
vt 0.506230 0.338628
vt 0.496770 0.291065
vt 0.263664 0.241492
vt 0.313499 0.268203
vt 0.261178 0.149535
vt 0.252176 0.175028
vt 0.250475 0.172341
vt 0.291016 0.174627
vt 0.297006 0.259111
vt 0.284800 0.308019
vt 0.266438 0.274878
vt 0.292076 0.266770
vt 0.296987 0.259045
vt 0.298734 0.267183
vt 0.057227 0.775813
vt 0.057227 0.790980
vt 0.048728 0.790599
vt 0.243845 0.307925
vt 0.250483 0.172394
vt 0.252144 0.175073
vt 0.247536 0.207762
vt 0.256562 0.108321
vt 0.509010 0.759579
vt 0.838719 0.973773
vt 0.450896 0.346375
vt 0.452437 0.338627
vt 0.315185 0.249850
vt 0.262252 0.242768
vt 0.946255 0.279516
vt 0.947855 0.226125
vt 0.952259 0.271371
vt 0.941726 0.293760
vt 0.936805 0.244044
vt 0.939306 0.312032
vt 0.928522 0.271319
vt 0.939322 0.331806
vt 0.924430 0.305954
vt 0.941808 0.350238
vt 0.924644 0.343100
vt 0.946422 0.364530
vt 0.929590 0.377924
vt 0.952517 0.372429
vt 0.938420 0.405011
vt 0.959205 0.372755
vt 0.950203 0.418461
vt 0.965503 0.365321
vt 0.962750 0.418671
vt 0.983901 0.376426
vt 0.974237 0.403286
vt 0.972521 0.331553
vt 0.969891 0.349966
vt 0.969903 0.292495
vt 0.988110 0.298748
vt 0.972533 0.311271
vt 0.965095 0.278235
vt 0.982289 0.262987
vt 0.958877 0.270857
vt 0.972822 0.235637
vt 0.960500 0.223181
vt 0.407606 0.051912
vt 0.418280 0.106051
vt 0.405090 0.063877
vt 0.389824 0.164813
vt 0.382594 0.208322
vt 0.384975 0.157435
vt 0.273969 0.091245
vt 0.233274 0.042248
vt 0.248053 0.022699
vt 0.393574 0.179073
vt 0.242553 0.155716
vt 0.215356 0.114267
vt 0.395625 0.197849
vt 0.202367 0.191907
vt 0.395615 0.218131
vt 0.235904 0.205123
vt 0.200146 0.280618
vt 0.393565 0.236544
vt 0.236251 0.258113
vt 0.211263 0.368590
vt 0.390143 0.251899
vt 0.258637 0.346430
vt 0.239591 0.426058
vt 0.385230 0.259333
vt 0.270654 0.466725
vt 0.380015 0.259007
vt 0.298174 0.365917
vt 0.305014 0.456586
vt 0.375261 0.251108
vt 0.337916 0.430683
vt 0.371663 0.236816
vt 0.332546 0.305653
vt 0.362685 0.362695
vt 0.369724 0.218384
vt 0.385393 0.271801
vt 0.369711 0.198610
vt 0.339386 0.194843
vt 0.374152 0.169799
vt 0.371598 0.180338
vt 0.361278 0.081755
vt 0.375131 0.166094
vt 0.314541 0.104813
vt 0.349162 0.037629
vt 0.297430 0.033475
vt 0.379813 0.157949
vt 0.354362 0.067324
vt 0.371316 0.052005
vt 0.356848 0.078356
vt 0.392106 0.383997
vt 0.374788 0.375916
vt 0.391278 0.368809
vt 0.023566 0.516762
vt 0.345007 0.122001
vt 0.348249 0.128842
vt 0.369721 0.037384
vt 0.388600 0.027708
vt 0.421797 0.313790
vt 0.407068 0.350650
vt 0.418956 0.302991
vt 0.337020 0.247650
vt 0.342015 0.183267
vt 0.340949 0.245455
vt 0.342932 0.316493
vt 0.346284 0.307123
vt 0.428505 0.162217
vt 0.429854 0.239274
vt 0.424459 0.167770
vt 0.357768 0.361027
vt 0.359879 0.347409
vt 0.421504 0.096762
vt 0.374116 0.391272
vt 0.332215 0.381874
vt 0.334789 0.357813
vt 0.334289 0.382511
vt 0.422879 0.090296
vt 0.444125 0.169763
vt 0.392329 0.392366
vt 0.414591 -0.037307
vt 0.421707 -0.038475
vt 0.415368 -0.029225
vt 0.367913 -0.026025
vt 0.373003 -0.041625
vt 0.369589 -0.021673
vt 0.352686 0.062972
vt 0.423330 0.319682
vt 0.409133 0.363791
vt 0.386316 0.003953
vt 0.387093 0.012035
vt 0.446379 -0.008555
vt 0.445500 0.001901
vt 0.445500 -0.008555
vt 0.430711 0.159599
vt 0.434133 0.234196
vt 0.332715 0.357176
vt 0.408981 0.045446
vt 0.343331 0.117649
vt 0.368944 0.029302
vt 0.334945 0.247013
vt 0.338390 0.179969
vt 0.443942 0.238297
vt 0.442410 0.232405
vt 0.356403 0.367929
vt 0.436339 0.231578
vt 0.443294 0.351353
vt 0.445906 0.036974
vt 0.445500 0.039903
vt 0.445500 0.036974
vt 0.445500 0.011240
vt 0.445906 0.004829
vt 0.445906 0.011240
vt 0.445500 0.034045
vt 0.445906 0.028777
vt 0.445906 0.034045
vt 0.445500 0.004829
vt 0.445906 0.001901
vt 0.445906 -0.016752
vt 0.445500 -0.011484
vt 0.445500 -0.016752
vt 0.445906 0.017651
vt 0.445500 0.020580
vt 0.445500 0.017651
vt 0.445500 -0.029020
vt 0.445906 -0.031949
vt 0.445906 -0.029020
vt 0.445500 -0.022610
vt 0.445906 -0.022610
vt 0.445906 0.039903
vt 0.445500 0.045171
vt 0.445906 0.020580
vt 0.445500 0.025848
vt 0.445500 0.020580
vt 0.445906 -0.011484
vt 0.445906 -0.019681
vt 0.445500 -0.019681
vt 0.445500 -0.040146
vt 0.445906 -0.046557
vt 0.445906 -0.040146
vt 0.445906 0.025848
vt 0.445500 0.028777
vt 0.445500 -0.037217
vt 0.445906 -0.037217
vt 0.445500 -0.019681
vt 0.988612 0.338663
vt 0.421609 0.380525
vt 0.421386 0.372156
vt 0.256013 0.116807
vt 0.244287 0.307790
vt 0.277785 0.365618
vt 0.316840 0.343970
vt 0.340201 0.251783
vt 0.329926 0.143830
vt 0.294519 0.087045
vt 0.394344 0.009594
vt 0.421550 0.042442
vt 0.336315 0.179331
vt 0.445500 0.348735
vt 0.445500 -0.031949
vt 0.243210 0.438135
vt 0.214301 0.380620
vt 0.445500 0.163297
vt 0.374339 0.399641
vt 0.420930 -0.046557
vt 0.371327 -0.045977
vt 0.410666 0.369683
vt 0.380552 0.440415
vt 0.341567 0.323396
vt 0.445500 0.028777
vt 0.445906 0.045171
vt 0.445500 -0.046557
vt 0.445906 0.028777
vt 0.300059 0.193516
vt 0.074218 0.789009
vt 0.297693 0.172277
vt 0.285659 0.175322
vt 0.274573 0.191126
vt 0.275382 0.231997
vt 0.281612 0.261060
vt 0.303184 0.250872
vt 0.015624 0.775813
vt 0.446379 0.001901
vt 0.445500 0.001901
vt 0.445906 0.020580
vt 0.445906 -0.008555
s 1
g off
g Llanta_MT_Car
usemtl MT_Car
f 4/1/1 128/2/2 3/3/2
f 98/4/3 1/5/3 2/6/3
f 119/7/4 106/8/4 97/9/4
f 99/10/3 4/11/3 3/12/3
f 13/13/3 5/14/3 93/15/3
f 42/16/5 98/17/5 2/18/5
f 101/19/3 7/20/3 6/21/3
f 103/22/3 8/23/3 94/24/3
f 15/25/3 9/26/3 95/27/3
f 105/28/3 10/29/3 96/30/3
f 40/31/6 105/32/6 96/33/6
f 97/34/3 18/35/3 11/36/3
f 128/2/2 1/37/7 3/3/2
f 95/38/8 47/39/9 8/40/10
f 43/41/11 4/42/1 93/43/11
f 125/44/12 95/38/8 9/45/13
f 44/46/14 93/47/11 5/48/14
f 96/49/15 125/44/12 9/45/13
f 45/50/16 5/51/14 6/52/16
f 126/53/17 96/49/15 10/54/18
f 46/55/19 6/56/16 7/57/20
f 97/58/21 126/53/17 10/54/18
f 123/59/22 7/57/20 94/60/23
f 11/61/24 48/62/25 97/63/21
f 49/64/7 2/65/26 1/66/7
f 8/67/10 123/59/22 94/60/23
f 2/65/26 51/68/24 11/61/24
f 113/69/3 26/70/3 36/71/3
f 107/72/3 114/73/3 115/74/3
f 38/75/3 29/76/3 37/77/3
f 31/78/3 116/79/3 39/80/3
f 41/81/3 111/82/3 40/83/3
f 112/84/3 119/85/3 120/86/3
f 121/87/3 34/88/3 42/89/3
f 36/90/27 99/90/27 3/90/27
f 107/91/28 4/92/28 100/93/28
f 39/94/29 94/60/23 7/57/20
f 30/95/30 5/96/30 14/97/30
f 37/90/31 101/90/31 6/90/31
f 118/98/32 95/38/8 8/40/10
f 31/99/33 7/100/33 102/101/33
f 41/90/34 96/90/15 9/90/13
f 110/90/35 8/90/35 104/90/35
f 120/90/36 97/90/21 10/90/18
f 122/102/37 55/103/38 56/104/39
f 43/105/40 135/106/41 55/103/38
f 135/106/41 45/107/42 58/108/43
f 58/108/43 46/109/44 57/110/45
f 46/109/44 138/111/46 57/110/45
f 47/112/47 136/113/48 59/114/49
f 126/115/50 137/116/51 60/117/52
f 127/118/53 62/119/54 63/120/55
f 62/119/54 128/2/56 140/121/57
f 128/2/56 56/104/39 140/121/57
f 138/111/46 47/112/47 59/114/49
f 139/122/58 50/123/59 61/124/60
f 61/124/60 126/115/50 60/117/52
f 48/125/61 64/126/62 137/116/51
f 51/127/63 63/120/55 64/126/62
f 132/128/64 147/129/65 145/130/64
f 20/131/3 55/103/38 19/132/3
f 81/133/66 63/134/66 62/135/66
f 130/136/3 136/113/48 53/137/3
f 60/117/52 132/128/3 131/138/3
f 135/106/41 52/139/3 21/140/3
f 57/110/45 22/141/3 129/142/3
f 156/143/30 60/144/30 131/145/30
f 148/90/67 55/90/67 135/90/67
f 24/146/3 140/121/57 133/147/3
f 23/148/3 61/124/60 134/149/3
f 87/90/68 23/90/68 53/90/68
f 25/150/3 63/120/55 54/151/3
f 67/152/69 129/153/70 66/154/70
f 70/155/71 131/138/72 144/156/72
f 22/141/73 68/157/74 71/158/73
f 74/159/75 20/131/76 143/160/76
f 53/161/77 146/162/78 69/163/77
f 23/164/78 70/165/71 146/162/78
f 66/154/70 22/166/73 71/167/73
f 21/168/79 67/152/69 65/169/79
f 54/151/80 72/170/81 73/171/80
f 147/129/65 54/151/80 73/171/80
f 72/170/81 133/147/75 74/159/75
f 130/172/74 69/163/77 68/173/74
f 19/132/82 65/174/79 142/175/82
f 144/156/3 141/176/3 70/155/3
f 70/155/3 141/176/3 146/177/3
f 146/177/3 141/176/3 69/178/3
f 69/178/3 141/176/3 68/157/3
f 68/157/3 141/176/3 71/158/3
f 71/158/3 141/176/3 66/179/3
f 66/179/3 141/176/3 67/180/3
f 67/180/3 141/176/3 65/174/3
f 65/174/3 141/176/3 142/175/3
f 143/160/3 141/176/3 74/159/3
f 74/159/3 141/176/3 72/170/3
f 72/170/3 141/176/3 73/171/3
f 73/171/3 141/176/3 147/129/3
f 142/175/82 20/131/76 19/132/82
f 149/181/3 154/182/3 85/183/3
f 76/184/3 155/185/3 86/186/3
f 78/187/3 156/188/3 157/189/3
f 87/190/3 80/191/3 158/192/3
f 150/193/3 88/194/3 89/195/3
f 90/196/3 82/197/3 159/198/3
f 161/199/3 152/200/3 160/201/3
f 84/202/3 91/203/3 92/204/3
f 161/90/66 130/90/66 22/90/66
f 82/205/68 140/206/68 56/207/68
f 158/208/28 139/209/28 23/210/28
f 86/211/83 129/212/83 52/213/83
f 88/90/35 62/90/35 24/90/35
f 153/214/83 137/215/83 64/216/83
f 149/217/6 19/218/6 55/219/6
f 91/90/33 64/90/33 25/90/33
f 76/90/4 52/90/4 58/90/4
f 118/220/3 109/221/3 117/222/3
f 124/223/84 139/122/58 136/113/48
f 131/138/72 145/130/64 144/156/72
f 147/129/3 141/176/3 145/130/3
f 145/130/3 141/176/3 144/156/3
f 142/175/3 141/176/3 143/160/3
f 157/90/67 131/90/67 134/90/67
f 98/4/3 12/224/3 1/5/3
f 119/7/4 33/225/4 106/8/4
f 99/10/3 100/226/3 4/11/3
f 13/13/3 14/227/3 5/14/3
f 42/90/5 34/90/5 98/90/5
f 101/19/3 102/228/3 7/20/3
f 103/22/3 104/229/3 8/23/3
f 15/25/3 16/230/3 9/26/3
f 105/28/3 17/231/3 10/29/3
f 97/34/3 106/232/3 18/35/3
f 95/38/8 124/233/85 47/39/9
f 125/44/12 124/233/85 95/38/8
f 96/49/15 50/234/86 125/44/12
f 45/235/16 44/46/14 5/48/14
f 126/53/17 50/234/86 96/49/15
f 46/55/19 45/235/16 6/56/16
f 123/59/22 46/55/19 7/57/20
f 8/67/10 47/236/9 123/59/22
f 113/69/3 27/237/3 26/70/3
f 107/72/3 28/238/3 114/73/3
f 38/75/3 30/239/3 29/76/3
f 31/78/3 108/240/3 116/79/3
f 41/81/3 32/241/3 111/82/3
f 112/84/3 33/242/3 119/85/3
f 121/87/3 35/243/3 34/88/3
f 107/91/28 115/244/28 4/92/28
f 39/94/29 116/245/29 94/60/23
f 30/95/30 38/246/30 5/96/30
f 118/98/32 117/247/32 95/38/8
f 31/99/33 39/248/33 7/100/33
f 41/249/34 40/250/34 96/251/15
f 122/102/37 43/105/40 55/103/38
f 43/105/40 44/252/87 135/106/41
f 135/106/41 44/252/87 45/107/42
f 58/108/43 45/107/42 46/109/44
f 46/109/44 123/253/88 138/111/46
f 47/112/47 124/223/84 136/113/48
f 126/254/50 48/255/61 137/256/51
f 127/118/53 49/257/89 62/119/54
f 62/119/54 49/257/89 128/2/56
f 128/2/56 122/102/37 56/104/39
f 138/111/46 123/253/88 47/112/47
f 139/122/58 125/258/90 50/123/59
f 61/124/60 50/123/59 126/115/50
f 48/125/61 51/127/63 64/126/62
f 51/127/63 127/118/53 63/120/55
f 20/131/3 56/104/39 55/103/38
f 60/117/52 137/116/51 132/128/3
f 135/106/41 58/108/43 52/139/3
f 57/110/45 138/111/46 22/141/3
f 23/148/3 139/122/58 61/124/60
f 87/259/68 158/260/68 23/261/68
f 25/150/3 64/126/62 63/120/55
f 67/152/69 52/262/69 129/153/70
f 70/155/71 134/149/71 131/138/72
f 22/141/73 130/136/74 68/157/74
f 53/161/77 23/164/78 146/162/78
f 23/164/78 134/263/71 70/165/71
f 66/154/70 129/153/70 22/166/73
f 21/168/79 52/262/69 67/152/69
f 130/172/74 53/161/77 69/163/77
f 19/132/82 21/140/79 65/174/79
f 78/187/3 77/264/3 156/188/3
f 84/202/3 153/265/3 91/203/3
f 161/90/66 160/90/66 130/90/66
f 158/90/28 80/90/28 139/90/28
f 149/266/6 85/267/6 19/268/6
f 76/269/4 86/270/4 52/271/4
f 118/220/3 110/272/3 109/221/3
f 124/223/84 125/258/90 139/122/58
f 4/273/1 122/274/1 128/275/2
f 128/2/2 49/257/7 1/37/7
f 43/41/11 122/276/1 4/42/1
f 44/46/14 43/277/11 93/47/11
f 97/58/21 48/278/25 126/53/17
f 11/279/24 51/280/24 48/255/25
f 49/64/7 127/281/26 2/65/26
f 2/65/26 127/281/26 51/68/24
f 36/90/27 26/90/27 99/90/27
f 132/128/64 25/150/65 147/129/65
f 24/146/3 62/119/54 140/121/57
f 74/159/75 133/147/75 20/131/76
f 54/151/80 24/146/81 72/170/81
f 147/129/65 25/150/65 54/151/80
f 72/170/81 24/146/81 133/147/75
f 142/175/82 143/160/76 20/131/76
f 149/181/3 148/282/3 154/182/3
f 131/138/72 132/128/64 145/130/64
f 254/283/91 256/284/92 171/285/92
f 172/286/31 255/287/91 254/283/91
f 258/288/93 257/289/31 172/286/31
f 259/290/94 173/291/93 258/288/93
f 174/292/95 260/293/94 259/290/94
f 175/294/96 261/295/95 174/292/95
f 263/296/28 262/297/96 175/294/96
f 264/298/6 176/299/28 263/296/28
f 266/300/30 265/301/6 264/298/6
f 266/300/30 267/302/4 177/303/30
f 268/304/33 267/302/4 178/305/4
f 272/306/35 271/307/5 270/308/5
f 273/309/27 179/310/35 272/306/35
f 274/311/97 180/312/27 273/309/27
f 171/285/92 181/313/97 274/311/97
f 286/314/98 169/315/95 252/316/96
f 273/317/99 170/318/99 274/319/99
f 256/320/3 162/321/3 246/322/3
f 272/323/99 170/318/99 273/317/99
f 162/321/3 257/324/3 247/325/3
f 270/326/99 170/318/99 272/323/99
f 257/324/3 248/327/3 247/325/3
f 268/328/99 170/318/99 270/326/99
f 173/329/3 163/330/3 248/327/3
f 178/331/99 170/318/99 268/328/99
f 260/332/3 249/333/3 163/330/3
f 266/334/99 170/318/99 178/331/99
f 249/333/3 262/335/3 164/336/3
f 264/337/99 170/318/99 266/334/99
f 262/335/3 165/338/3 164/336/3
f 263/339/99 170/318/99 264/337/99
f 165/338/3 265/340/3 250/341/3
f 175/342/99 170/318/99 263/339/99
f 265/340/3 251/343/3 250/341/3
f 174/344/99 170/318/99 175/342/99
f 251/343/3 267/345/3 166/346/3
f 259/347/99 170/318/99 174/344/99
f 267/345/3 167/348/3 166/346/3
f 258/349/99 170/318/99 259/347/99
f 167/348/3 271/350/3 168/351/3
f 172/352/99 170/318/99 258/349/99
f 271/350/3 169/353/3 168/351/3
f 254/354/99 170/318/99 172/352/99
f 169/353/3 180/355/3 252/356/3
f 180/355/3 253/357/3 252/356/3
f 171/358/99 170/318/99 254/354/99
f 253/357/3 256/320/3 246/322/3
f 191/359/100 246/360/6 162/361/30
f 283/362/101 165/363/97 250/364/92
f 197/365/102 252/365/96 253/365/28
f 279/366/103 162/361/30 247/367/4
f 278/368/104 253/369/28 246/360/6
f 194/370/105 251/371/91 166/372/31
f 192/373/106 248/374/33 163/375/5
f 195/365/107 166/365/31 167/365/93
f 193/376/108 163/375/5 249/377/35
f 285/378/109 167/379/93 168/380/94
f 281/381/110 249/377/35 164/382/27
f 196/383/111 168/380/94 169/315/95
f 282/384/112 164/382/27 165/363/97
f 295/385/113 275/386/113 185/387/113
f 292/388/91 189/389/91 196/383/91
f 288/390/114 282/384/112 283/362/101
f 299/391/114 183/392/114 190/393/114
f 293/394/115 184/395/115 182/396/115
f 274/319/99 170/318/99 171/358/99
f 205/397/95 182/396/95 191/359/95
f 289/398/115 284/399/116 194/370/105
f 213/400/93 190/393/93 197/401/93
f 216/402/117 187/403/117 186/404/117
f 291/405/113 195/406/107 285/378/109
f 294/407/92 192/373/92 275/386/92
f 211/408/117 196/383/111 286/314/98
f 204/409/32 191/359/100 279/366/103
f 212/410/29 197/401/102 278/368/104
f 206/411/34 280/412/118 192/373/106
f 297/413/96 194/370/96 277/414/96
f 207/415/36 193/376/108 281/381/110
f 210/416/97 188/417/97 195/406/97
f 237/418/31 302/419/31 307/420/31
f 234/421/119 306/422/119 309/423/119
f 242/424/120 202/425/120 221/426/120
f 233/427/27 220/428/27 306/422/27
f 243/429/119 199/430/119 303/431/119
f 232/432/92 304/433/92 227/434/92
f 236/435/5 201/436/5 308/437/5
f 314/438/120 308/437/120 225/439/120
f 245/440/121 203/441/121 302/419/121
f 238/442/122 200/443/122 198/444/122
f 312/420/94 221/426/94 228/418/94
f 318/445/97 222/404/97 199/430/97
f 313/446/96 303/431/96 310/447/96
f 229/448/121 224/449/121 223/450/121
f 315/451/91 305/452/91 200/443/91
f 316/453/93 223/450/93 300/454/93
f 231/423/122 227/434/122 226/421/122
f 319/455/95 225/439/95 301/446/95
f 270/308/5 269/456/33 268/304/33
f 284/399/116 250/364/92 251/371/91
f 280/412/118 247/367/4 248/374/33
f 296/457/94 283/362/94 276/458/94
f 175/294/96 262/297/96 261/295/95
f 263/296/28 176/299/28 262/297/96
f 264/298/6 265/301/6 176/299/28
f 266/300/30 177/303/30 265/301/6
f 266/300/30 178/305/4 267/302/4
f 268/304/33 269/456/33 267/302/4
f 272/306/35 179/310/35 271/307/5
f 286/314/98 196/383/111 169/315/95
f 256/320/3 255/459/3 162/321/3
f 162/321/3 255/459/3 257/324/3
f 257/324/3 173/329/3 248/327/3
f 173/329/3 260/332/3 163/330/3
f 260/332/3 261/460/3 249/333/3
f 249/333/3 261/460/3 262/335/3
f 262/335/3 176/461/3 165/338/3
f 165/338/3 176/461/3 265/340/3
f 265/340/3 177/462/3 251/343/3
f 251/343/3 177/462/3 267/345/3
f 267/345/3 269/463/3 167/348/3
f 167/348/3 269/463/3 271/350/3
f 271/350/3 179/464/3 169/353/3
f 169/353/3 179/464/3 180/355/3
f 180/355/3 181/465/3 253/357/3
f 253/357/3 181/465/3 256/320/3
f 191/359/100 278/368/104 246/360/6
f 197/466/102 286/314/98 252/316/96
f 279/366/103 191/359/100 162/361/30
f 278/368/104 197/401/102 253/369/28
f 194/370/105 284/399/116 251/371/91
f 192/373/106 280/412/118 248/374/33
f 193/376/108 192/373/106 163/375/5
f 217/467/6 291/405/6 285/378/6
f 205/397/95 293/394/95 182/396/95
f 211/408/117 292/388/117 196/383/111
f 204/409/32 205/397/32 191/359/100
f 212/410/29 213/400/29 197/401/102
f 206/411/34 287/468/34 280/412/118
f 297/413/96 289/398/96 194/370/96
f 210/416/97 218/469/97 188/417/97
f 239/470/83 316/453/83 300/454/83
f 270/308/5 271/307/5 269/456/33
f 280/412/118 279/366/103 247/367/4
f 273/309/27 180/312/27 179/310/35
f 274/311/97 181/313/97 180/312/27
f 254/283/91 255/287/91 256/284/92
f 172/286/31 257/289/31 255/287/91
f 258/288/93 173/291/93 257/289/31
f 259/290/94 260/293/94 173/291/93
f 174/292/95 261/295/95 260/293/94
f 171/285/92 256/284/92 181/313/97
f 283/362/101 282/384/112 165/363/97
f 195/365/107 194/365/105 166/365/31
f 285/378/109 195/406/107 167/379/93
f 281/471/110 193/472/108 249/333/35
f 196/383/111 285/378/109 168/380/94
f 282/384/112 281/381/110 164/382/27
f 295/385/113 294/407/113 275/386/113
f 292/388/91 298/473/91 189/389/91
f 288/390/114 209/474/114 282/384/112
f 299/391/114 219/475/114 183/392/114
f 293/394/115 214/476/115 184/395/115
f 289/398/115 290/477/115 284/399/116
f 213/400/93 299/391/93 190/393/93
f 291/405/113 210/416/113 195/406/107
f 294/407/92 206/411/92 192/373/92
f 215/478/31 207/415/31 281/381/31
f 207/415/36 208/479/36 193/376/108
f 242/424/120 241/480/120 202/425/120
f 243/429/119 318/445/119 199/430/119
f 245/440/121 244/481/121 203/441/121
f 312/420/94 242/424/94 221/426/94
f 229/448/121 230/482/121 224/449/121
f 315/451/91 311/483/91 305/452/91
f 231/423/122 232/432/122 227/434/122
f 284/399/116 283/362/101 250/364/92
f 296/457/94 288/390/94 283/362/94
f 110/90/35 118/90/35 8/90/35
f 120/90/36 119/90/36 97/90/21
f 81/133/66 150/484/66 63/134/66
f 130/136/3 59/114/49 136/113/48
f 156/143/30 77/485/30 60/144/30
f 148/90/67 149/90/67 55/90/67
f 76/184/3 75/486/3 155/185/3
f 87/190/3 79/487/3 80/191/3
f 150/193/3 81/488/3 88/194/3
f 90/196/3 151/489/3 82/197/3
f 161/199/3 83/490/3 152/200/3
f 82/205/68 151/491/68 140/206/68
f 88/90/35 81/90/35 62/90/35
f 153/214/83 84/492/83 137/215/83
f 91/90/33 153/90/33 64/90/33
f 157/90/67 156/90/67 131/90/67
f 216/402/117 215/493/117 187/403/117
f 237/418/31 245/440/31 302/419/31
f 234/421/119 233/427/119 306/422/119
f 233/427/27 240/494/27 220/428/27
f 232/432/92 317/495/92 304/433/92
f 236/435/5 320/470/5 201/436/5
f 314/438/120 236/435/120 308/437/120
f 238/442/122 315/451/122 200/443/122
f 318/445/97 235/496/97 222/404/97
f 313/446/96 243/429/96 303/431/96
f 316/453/93 229/448/93 223/450/93
f 319/455/95 314/438/95 225/439/95
