# Blender 5.0.1
# www.blender.org
mtllib carro_parrilla.mtl
o Parrilla
v 0.001023 0.055745 -1.007146
v 0.001023 -0.140512 -1.007146
v 0.001023 0.204369 -0.899145
v 0.001023 0.135537 -0.949163
v 0.001023 -0.260544 -1.007146
v 0.009951 -0.105050 -0.853875
v 0.009951 0.092257 -0.853875
v 0.009951 0.091257 -0.447029
v 0.009951 -0.104050 -0.447029
v 0.009951 -0.105050 -0.732379
v 0.009951 0.092257 -0.732379
v 0.007821 0.108604 -0.870221
v 0.007821 -0.121396 -0.870221
v 0.009951 -0.104050 -0.698687
v 0.009951 0.091257 -0.698687
v 0.007821 -0.121396 -0.716033
v 0.007821 -0.121396 -0.429683
v 0.007821 0.108604 -0.716033
v 0.007821 0.108604 -0.429683
v 0.007821 0.101604 -0.863221
v 0.007821 -0.114396 -0.863221
v 0.007821 -0.114396 -0.723033
v 0.007821 0.101604 -0.723033
v 0.007821 -0.113396 -0.708033
v 0.007821 -0.113396 -0.437683
v 0.007821 0.100604 -0.708033
v 0.007821 0.100604 -0.437683
v 0.016654 0.167432 -0.429683
v 0.016654 -0.142568 -0.429683
v 0.016654 0.132988 -0.429683
v 0.016654 0.098543 -0.429683
v 0.016654 0.064099 -0.429683
v 0.016654 0.029655 -0.429683
v 0.016654 -0.004790 -0.429683
v 0.016654 -0.039234 -0.429683
v 0.016654 -0.073679 -0.429683
v 0.016654 -0.108123 -0.429683
v 0.016654 -0.142568 -0.416556
v 0.016654 0.167432 -0.416556
v 0.016654 0.132988 -0.416556
v 0.016654 0.098543 -0.416556
v 0.016654 0.064099 -0.416556
v 0.016654 0.029655 -0.416556
v 0.016654 -0.004790 -0.416556
v 0.016654 -0.039234 -0.416556
v 0.016654 -0.073679 -0.416556
v 0.016654 -0.108123 -0.416556
v 0.004022 0.132988 -0.416556
v 0.004022 0.098543 -0.416556
v 0.004022 0.064099 -0.416556
v 0.004022 0.029655 -0.416556
v 0.004022 -0.004790 -0.416556
v 0.004022 -0.039234 -0.416556
v 0.004022 -0.073679 -0.416556
v 0.004022 -0.108123 -0.416556
v 0.001023 0.055745 0.928856
v 0.001023 -0.140512 0.928856
v 0.001023 0.204369 0.820855
v 0.001023 0.135537 0.870873
v 0.001023 -0.260544 0.928856
v 0.016654 0.167432 -0.039145
v -0.027341 0.167432 0.351393
v 0.009951 -0.105050 0.775585
v 0.009951 0.092257 0.775585
v 0.009951 0.091257 0.368740
v 0.009951 -0.104050 0.368740
v 0.009951 -0.105050 0.654090
v 0.009951 0.092257 0.654090
v 0.007821 0.108604 0.791931
v 0.007821 -0.121396 0.791931
v 0.009951 -0.104050 0.620397
v 0.009951 0.091257 0.620397
v 0.007821 -0.121396 0.637743
v 0.007821 -0.121396 0.351393
v 0.007821 0.108604 0.637743
v 0.007821 0.108604 0.351393
v 0.007821 0.101604 0.784931
v 0.007821 -0.114396 0.784931
v 0.007821 -0.114396 0.644743
v 0.007821 0.101604 0.644743
v 0.007821 -0.113396 0.629743
v 0.007821 -0.113396 0.359393
v 0.007821 0.100604 0.629743
v 0.007821 0.100604 0.359393
v 0.016654 0.167432 0.351393
v 0.016654 -0.142568 0.351393
v 0.016654 -0.142568 -0.039145
v -0.027341 -0.004790 0.351393
v -0.027341 -0.039234 0.351393
v -0.027341 -0.073679 0.351393
v -0.027341 -0.108123 0.351393
v 0.016654 0.132988 0.351393
v 0.016654 0.098543 0.351393
v 0.016654 0.064099 0.351393
v 0.016654 0.029655 0.351393
v 0.016654 -0.004790 0.351393
v 0.016654 -0.039234 0.351393
v 0.016654 -0.073679 0.351393
v 0.016654 -0.108123 0.351393
v 0.016654 -0.108123 -0.039145
v 0.016654 -0.073679 -0.039145
v 0.016654 -0.039234 -0.039145
v 0.016654 -0.004790 -0.039145
v 0.016654 0.029655 -0.039145
v 0.016654 0.064099 -0.039145
v 0.016654 0.098543 -0.039145
v 0.016654 0.132988 -0.039145
v 0.016654 -0.142568 0.338266
v 0.016654 0.167432 0.338266
v 0.016654 0.132988 0.338266
v 0.016654 0.098543 0.338266
v 0.016654 0.064099 0.338266
v 0.016654 0.029655 0.338266
v 0.016654 -0.004790 0.338266
v 0.016654 -0.039234 0.338266
v 0.016654 -0.073679 0.338266
v 0.016654 -0.108123 0.338266
v 0.004022 -0.108123 -0.039145
v 0.004022 -0.073679 -0.039145
v 0.004022 -0.039234 -0.039145
v 0.004022 -0.004790 -0.039145
v 0.004022 0.029655 -0.039145
v 0.004022 0.064099 -0.039145
v 0.004022 0.098543 -0.039145
v 0.004022 0.132988 -0.039145
v 0.004022 0.132988 0.338266
v 0.004022 0.098543 0.338266
v 0.004022 0.064099 0.338266
v 0.004022 0.029655 0.338266
v 0.004022 -0.004790 0.338266
v 0.004022 -0.039234 0.338266
v 0.004022 -0.073679 0.338266
v 0.004022 -0.108123 0.338266
v -0.009394 -0.172568 0.952702
v -0.009395 -0.172568 -1.030992
v 0.027437 -0.189255 -1.030992
vn 1.0000 -0.0000 -0.0000
vn 0.9750 -0.0000 -0.2222
vn 0.9750 -0.2222 -0.0000
vn 0.9750 0.2222 -0.0000
vn 0.9750 -0.0000 0.2222
vn -0.0000 -0.0000 1.0000
vn -0.0000 -1.0000 -0.0000
vn -0.0000 1.0000 -0.0000
vn 0.4127 0.9109 -0.0000
vt 0.360051 0.963921
vt 0.135959 0.499815
vt 0.362723 0.499815
vt 0.494359 0.941396
vt 0.448237 0.515818
vt 0.490349 0.522339
vt 0.133286 0.963921
vt -0.002731 0.499815
vt 0.220052 0.946728
vt 0.179828 -0.000000
vt 0.220052 0.029230
vt 0.489010 0.936077
vt 0.428798 0.592946
vt 0.490042 0.595123
vt 0.409910 0.575223
vt 0.311435 0.892865
vt 0.311994 0.575196
vt 0.422905 0.949821
vt 0.420518 0.564284
vt 0.424013 0.576385
vt 0.493583 0.952283
vt 0.419340 0.961797
vt 0.538510 0.147882
vt 0.464295 0.144365
vt 0.542039 0.144352
vt 0.494733 0.576341
vt 0.498281 0.961797
vt 0.494751 0.949699
vt 0.112538 0.521191
vt 0.539315 0.391151
vt 0.427752 0.387131
vt 0.543336 0.387131
vt 0.427767 0.933899
vt 0.764902 0.521318
vt 0.410496 0.890027
vt 0.414719 0.563175
vt 0.415345 0.901962
vt 0.307176 0.563175
vt 0.436590 0.395972
vt 0.534506 0.395983
vt 0.306732 0.905182
vt 0.319574 0.236739
vt 0.386481 0.238343
vt 0.385472 0.245844
vt 0.316268 0.180190
vt 0.383175 0.181794
vt 0.382166 0.189295
vt 0.320583 0.229238
vt 0.387491 0.230841
vt 0.411025 0.386882
vt 0.428389 0.380514
vt 0.428389 0.386882
vt 0.316254 0.190515
vt 0.383161 0.192119
vt 0.382152 0.199620
vt 0.317556 0.251741
vt 0.384463 0.253345
vt 0.383454 0.260846
vt 0.110692 0.521191
vt 0.318333 0.174226
vt 0.385240 0.175829
vt 0.384231 0.183331
vt 0.445753 0.196625
vt 0.428389 0.006368
vt 0.445753 0.006368
vt 0.321361 0.151722
vt 0.254454 0.150119
vt 0.255463 0.142618
vt 0.265747 0.196874
vt 0.283110 0.387131
vt 0.265747 0.387131
vt 0.445753 -0.000000
vt 0.428389 0.000000
vt 0.152356 0.321879
vt 0.208665 0.255019
vt 0.208928 0.321761
vt 0.211369 0.259209
vt 0.258481 0.320762
vt 0.210896 0.320002
vt 0.463117 0.376064
vt 0.466639 0.263844
vt 0.466639 0.372542
vt 0.537186 0.372542
vt 0.207233 0.326734
vt 0.210484 0.251499
vt 0.210484 0.324372
vt 0.262917 0.254713
vt 0.262922 0.322330
vt 0.261031 0.256711
vt 0.306843 0.531216
vt 0.311965 0.391650
vt 0.310887 0.527236
vt 0.471459 0.268609
vt 0.471481 0.367821
vt 0.152336 0.255482
vt 0.212967 0.251738
vt 0.201347 0.528963
vt 0.208548 0.322295
vt 0.419066 0.528998
vt 0.315754 0.522481
vt 0.414402 0.524058
vt 0.209068 0.256893
vt 0.258770 0.259046
vt 0.254685 0.220133
vt 0.253676 0.227634
vt 0.251379 0.163584
vt 0.250370 0.171085
vt 0.319204 0.239490
vt 0.255695 0.212632
vt 0.254686 0.220133
vt 0.250029 0.171904
vt 0.314918 0.188510
vt 0.249020 0.179406
vt 0.252667 0.235135
vt 0.251658 0.242636
vt 0.289479 -0.000000
vt 0.272115 0.006617
vt 0.272115 -0.000000
vt 0.254751 0.006617
vt 0.254751 -0.000000
vt 0.376298 -0.000000
vt 0.358934 0.006617
vt 0.358934 -0.000000
vt 0.341570 0.006617
vt 0.341570 -0.000000
vt 0.324206 0.006617
vt 0.324206 -0.000000
vt 0.306843 0.006617
vt 0.306843 -0.000000
vt 0.411025 -0.000000
vt 0.393661 0.006617
vt 0.393661 -0.000000
vt 0.376298 0.006617
vt 0.376298 -0.000000
vt 0.306842 -0.000000
vt 0.289479 0.006617
vt 0.252108 0.155615
vt 0.316997 0.172221
vt 0.251099 0.163116
vt 0.386110 0.174130
vt 0.321221 0.157524
vt 0.387119 0.166629
vt 0.384913 0.166324
vt 0.320024 0.149718
vt 0.385922 0.158823
vt 0.253306 0.230385
vt 0.318195 0.246991
vt 0.252297 0.237886
vt 0.000000 0.000000
vt 0.020384 1.000000
vt -0.000000 1.000000
vt 0.452246 0.953263
vt -0.005403 0.963921
vt 0.467790 0.147895
vt 0.498262 0.564240
vt 0.467150 0.140319
vt 0.463117 0.144352
vt 0.463117 0.000000
vt 0.431772 0.391151
vt 0.488920 0.935551
vt 0.494923 0.579144
vt 0.317277 0.172689
vt 0.321593 0.221737
vt 0.315927 0.181009
vt 0.381825 0.190114
vt 0.318565 0.244240
vt 0.254751 0.393749
vt 0.260935 0.409974
vt 0.254751 0.412331
vt 0.254751 0.387131
vt 0.272115 0.387131
vt 0.272115 0.393748
vt 0.289479 0.387131
vt 0.306843 0.387131
vt 0.306843 0.393749
vt 0.318006 0.164720
vt 0.383904 0.173825
vt 0.320212 0.165025
vt 0.254314 0.155920
vt 0.319015 0.157219
vt 0.253117 0.148114
vt 0.385102 0.248595
vt 0.260935 0.393749
vt 0.266913 0.410051
vt 0.260935 0.412243
vt 0.144650 0.327396
vt 0.144650 0.249936
vt 0.147895 0.252293
vt 0.207233 0.249137
vt 0.264920 0.324215
vt 0.307985 0.387606
vt 0.147895 0.325038
vt 0.306842 0.006617
vt 0.411025 0.380514
s 1
g off
g Parrilla_MT_Car
usemtl MT_Car
f 56/1/1 2/2/1 1/3/1
f 58/4/1 4/5/1 3/6/1
f 57/7/1 5/8/1 2/2/1
f 59/9/1 1/10/1 4/11/1
f 10/12/1 7/13/1 11/14/1
f 9/15/1 15/16/1 8/17/1
f 21/18/1 12/19/1 20/20/1
f 22/21/1 13/22/1 21/18/1
f 23/23/1 12/24/1 18/25/1
f 23/26/1 16/27/1 22/28/1
f 25/29/1 16/29/1 24/29/1
f 26/29/1 19/29/1 27/29/1
f 25/30/1 19/31/1 17/32/1
f 24/29/1 18/29/1 26/29/1
f 6/33/2 20/20/2 7/13/2
f 10/34/3 21/34/3 6/34/3
f 7/34/4 23/34/4 11/34/4
f 10/34/5 23/34/5 22/34/5
f 14/35/3 25/36/3 24/37/3
f 15/16/4 27/38/4 8/17/4
f 8/39/5 25/30/5 9/40/5
f 14/35/2 26/41/2 15/16/2
f 100/42/1 38/43/1 47/44/1
f 61/45/1 40/46/1 39/47/1
f 106/48/1 42/49/1 41/43/1
f 40/50/6 49/51/6 41/52/6
f 104/53/1 44/54/1 43/55/1
f 102/56/1 46/57/1 45/58/1
f 46/59/1 37/59/1 36/59/1
f 45/29/1 36/29/1 35/29/1
f 44/59/1 35/59/1 34/59/1
f 43/29/1 34/29/1 33/29/1
f 42/59/1 33/59/1 32/59/1
f 41/29/1 32/29/1 31/29/1
f 40/59/1 31/59/1 30/59/1
f 39/29/1 30/29/1 28/29/1
f 47/29/1 29/29/1 37/29/1
f 125/60/1 49/61/1 48/62/1
f 123/63/1 51/64/1 50/65/1
f 121/66/1 53/67/1 52/68/1
f 119/69/1 55/70/1 54/71/1
f 107/29/7 48/29/7 40/29/7
f 46/59/6 55/59/6 47/59/6
f 105/29/7 50/29/7 42/29/7
f 45/59/6 52/59/6 53/59/6
f 103/29/7 52/29/7 44/29/7
f 42/72/6 51/64/6 43/73/6
f 64/74/1 67/75/1 68/76/1
f 72/77/1 66/78/1 65/79/1
f 69/80/1 78/81/1 77/82/1
f 70/29/1 79/29/1 78/29/1
f 80/83/1 69/80/1 77/82/1
f 73/84/1 80/85/1 79/86/1
f 73/87/1 82/88/1 81/89/1
f 76/90/1 83/91/1 84/92/1
f 82/29/1 76/29/1 84/29/1
f 75/29/1 81/29/1 83/29/1
f 77/82/5 63/93/5 64/94/5
f 63/95/3 79/96/3 67/75/3
f 80/34/4 64/34/4 68/34/4
f 79/34/2 68/34/2 67/34/2
f 71/97/3 82/97/3 66/97/3
f 84/98/4 72/77/4 65/79/4
f 82/99/2 65/100/2 66/101/2
f 83/102/5 71/103/5 72/77/5
f 108/104/1 100/42/1 117/105/1
f 110/106/1 61/45/1 109/107/1
f 118/108/8 117/105/8 100/42/8
f 112/109/1 106/48/1 111/110/1
f 114/111/1 104/112/1 113/113/1
f 116/114/1 102/56/1 115/115/1
f 91/29/6 98/29/6 90/29/6
f 90/29/6 97/29/6 89/29/6
f 89/29/6 96/29/6 88/29/6
f 99/116/1 116/117/1 98/118/1
f 98/118/1 115/119/1 97/120/1
f 97/121/1 114/122/1 96/123/1
f 96/123/1 113/124/1 95/125/1
f 95/125/1 112/126/1 94/127/1
f 94/127/1 111/128/1 93/129/1
f 93/130/1 110/131/1 92/132/1
f 92/132/1 109/133/1 85/134/1
f 86/135/1 117/136/1 99/116/1
f 127/137/1 125/138/1 126/139/1
f 129/140/1 123/141/1 128/142/1
f 131/143/1 121/144/1 130/145/1
f 133/146/1 119/147/1 132/148/1
f 126/29/7 107/29/7 110/29/7
f 128/29/7 105/29/7 112/29/7
f 130/29/7 103/29/7 114/29/7
f 134/149/9 136/150/9 135/151/9
f 56/1/1 57/7/1 2/2/1
f 58/4/1 59/152/1 4/5/1
f 57/7/1 60/153/1 5/8/1
f 59/152/1 56/1/1 1/3/1
f 10/12/1 6/33/1 7/13/1
f 9/15/1 14/35/1 15/16/1
f 21/18/1 13/22/1 12/19/1
f 22/29/1 16/29/1 13/29/1
f 23/23/1 20/154/1 12/24/1
f 23/26/1 18/155/1 16/27/1
f 25/29/1 17/29/1 16/29/1
f 26/156/1 18/157/1 19/158/1
f 25/30/1 27/159/1 19/31/1
f 24/29/1 16/29/1 18/29/1
f 6/33/2 21/18/2 20/20/2
f 10/160/3 22/21/3 21/18/3
f 7/13/4 20/20/4 23/26/4
f 10/12/5 11/14/5 23/161/5
f 14/35/3 9/15/3 25/36/3
f 15/97/4 26/97/4 27/97/4
f 8/39/5 27/159/5 25/30/5
f 14/35/2 24/37/2 26/41/2
f 100/42/1 87/48/1 38/43/1
f 61/45/1 107/162/1 40/46/1
f 106/48/1 105/163/1 42/49/1
f 104/112/1 103/164/1 44/165/1
f 102/56/1 101/166/1 46/57/1
f 46/167/1 47/168/1 37/169/1
f 45/170/1 46/171/1 36/172/1
f 44/59/1 45/59/1 35/59/1
f 43/29/1 44/29/1 34/29/1
f 42/59/1 43/59/1 33/59/1
f 41/29/1 42/29/1 32/29/1
f 40/59/1 41/59/1 31/59/1
f 39/29/1 40/29/1 30/29/1
f 47/173/1 38/174/1 29/175/1
f 125/138/1 124/176/1 49/177/1
f 123/141/1 122/178/1 51/179/1
f 121/144/1 120/180/1 53/181/1
f 119/147/1 118/108/1 55/182/1
f 107/29/7 125/29/7 48/29/7
f 45/183/6 44/184/6 52/185/6
f 42/72/6 50/65/6 51/64/6
f 64/74/1 63/95/1 67/75/1
f 72/77/1 71/103/1 66/78/1
f 69/186/1 70/187/1 78/188/1
f 70/29/1 73/29/1 79/29/1
f 80/29/1 75/29/1 69/29/1
f 73/84/1 75/189/1 80/85/1
f 73/87/1 74/190/1 82/88/1
f 76/90/1 75/191/1 83/91/1
f 82/29/1 74/29/1 76/29/1
f 75/29/1 73/29/1 81/29/1
f 77/192/5 78/188/5 63/95/5
f 63/95/3 78/188/3 79/96/3
f 80/34/4 77/34/4 64/34/4
f 79/34/2 80/34/2 68/34/2
f 71/103/3 81/89/3 82/88/3
f 84/98/4 83/102/4 72/77/4
f 82/99/2 84/92/2 65/100/2
f 83/102/5 81/89/5 71/103/5
f 108/104/1 87/48/1 100/42/1
f 110/106/1 107/162/1 61/45/1
f 118/108/8 133/146/8 117/105/8
f 112/109/1 105/163/1 106/48/1
f 114/111/1 103/164/1 104/112/1
f 116/114/1 101/166/1 102/56/1
f 99/116/1 117/136/1 116/117/1
f 98/118/1 116/117/1 115/119/1
f 97/59/1 115/59/1 114/59/1
f 96/123/1 114/122/1 113/124/1
f 95/125/1 113/124/1 112/126/1
f 94/127/1 112/126/1 111/128/1
f 93/59/1 111/59/1 110/59/1
f 92/132/1 110/131/1 109/133/1
f 86/135/1 108/193/1 117/136/1
f 127/137/1 124/176/1 125/138/1
f 129/140/1 122/178/1 123/141/1
f 131/143/1 120/180/1 121/144/1
f 133/146/1 118/108/1 119/147/1
f 126/29/7 125/29/7 107/29/7
f 128/29/7 123/29/7 105/29/7
f 130/29/7 121/29/7 103/29/7
f 105/29/7 123/29/7 50/29/7
f 103/29/7 121/29/7 52/29/7
f 92/29/6 85/29/6 62/29/6
f 91/29/6 99/29/6 98/29/6
f 90/29/6 98/29/6 97/29/6
f 89/29/6 97/29/6 96/29/6
f 88/29/6 96/29/6 95/29/6
f 40/50/6 48/194/6 49/51/6
f 46/59/6 54/59/6 55/59/6
