# Blender 5.0.1
# www.blender.org
mtllib carro_cajuela.mtl
o Cajuela
v 0.377239 -0.020036 -0.790479
v 1.087239 -0.128170 -0.790479
v -0.012761 -0.020037 -0.790479
v 0.034362 -0.020037 -0.790479
v 0.114813 -0.020037 -0.790479
v 0.235215 -0.020037 -0.790479
v 0.519259 -0.032395 -0.790479
v 0.639665 -0.044291 -0.790479
v 0.377239 -0.020036 0.929521
v 1.087239 -0.128170 0.929521
v -0.012761 -0.020037 0.929521
v 0.034363 -0.020037 0.929521
v 0.114813 -0.020037 0.929521
v 0.235215 -0.020037 0.929521
v 0.519259 -0.032395 0.929521
v 0.639665 -0.044291 0.929521
vn 0.1414 0.9900 -0.0000
vn 0.0925 0.9957 -0.0000
vn 0.0434 0.9991 -0.0000
vn 0.1842 0.9829 -0.0000
vn -0.0000 1.0000 -0.0000
vt 0.396142 0.522508
s 1
g off
g Cajuela_MT_Car
usemtl MT_Car
f 8/1/1 15/1/2 16/1/1
f 7/1/2 9/1/3 15/1/2
f 16/1/1 2/1/4 8/1/1
f 1/1/3 14/1/5 9/1/3
f 6/1/5 13/1/5 14/1/5
f 11/1/5 4/1/5 3/1/5
f 5/1/5 12/1/5 13/1/5
f 16/1/1 10/1/4 2/1/4
f 8/1/1 7/1/2 15/1/2
f 7/1/2 1/1/3 9/1/3
f 1/1/3 6/1/5 14/1/5
f 6/1/5 5/1/5 13/1/5
f 11/1/5 12/1/5 4/1/5
f 5/1/5 4/1/5 12/1/5
