# Blender 5.0.1
# www.blender.org
mtllib dado_animal_chanchito_vaca_volteado.mtl
g Cube_Malla
v 1.000000 1.000000 -1.000000
v 1.000000 -1.000000 -1.000000
v 1.000000 1.000000 1.000000
v 1.000000 -1.000000 1.000000
v -1.000000 1.000000 -1.000000
v -1.000000 -1.000000 -1.000000
v -1.000000 1.000000 1.000000
v -1.000000 -1.000000 1.000000
vn -0.0000 1.0000 -0.0000
vn -0.0000 -0.0000 1.0000
vn -1.0000 -0.0000 -0.0000
vn -0.0000 -1.0000 -0.0000
vn 1.0000 -0.0000 -0.0000
vn -0.0000 -0.0000 -1.0000
vt 0.743348 0.671596
vt 0.500730 0.994276
vt 0.500730 0.671596
vt 0.334651 0.999801
vt 0.089326 0.670039
vt 0.336368 0.668290
vt 0.744292 0.666727
vt 0.499326 0.336272
vt 0.745016 0.337244
vt 0.133350 0.334066
vt 0.376244 0.002984
vt 0.377896 0.334888
vt 0.249513 0.662358
vt 0.009954 0.335751
vt 0.250090 0.340225
vt 0.497706 0.664871
vt 0.251909 0.336744
vt 0.497042 0.335609
vt 0.743348 0.994276
vt 0.088362 0.998855
vt 0.498601 0.665756
vt 0.131697 0.002162
vt 0.003010 0.661302
vt 0.250112 0.665391
s 0
g off
g Cube_Material
usemtl Material
f 5/1/1 3/2/1 1/3/1
f 3/4/2 8/5/2 4/6/2
f 7/7/3 6/8/3 8/9/3
f 2/10/4 8/11/4 6/12/4
f 1/13/5 4/14/5 2/15/5
f 5/16/6 2/17/6 6/18/6
f 5/1/1 7/19/1 3/2/1
f 3/4/2 7/20/2 8/5/2
f 7/7/3 5/21/3 6/8/3
f 2/10/4 4/22/4 8/11/4
f 1/13/5 3/23/5 4/14/5
f 5/16/6 1/24/6 2/17/6
