# Blender 5.0.1
# www.blender.org
mtllib engranaje_2.mtl
g Engranaje2_1_Malla
v -0.002869 0.985491 -0.042365
v -0.002869 0.985491 0.092024
v -0.000000 0.891169 0.090095
v -0.000000 0.891169 -0.040436
v 0.207701 0.963359 -0.042365
v 0.207701 0.963359 0.092024
v 0.185284 0.871695 0.090095
v 0.185284 0.871695 -0.040436
v 0.398215 0.901457 -0.042365
v 0.398215 0.901457 0.092024
v 0.362471 0.814124 0.090095
v 0.362471 0.814124 -0.040436
v 0.581578 0.795593 -0.042365
v 0.581578 0.795593 0.092024
v 0.523816 0.720971 0.090095
v 0.523816 0.720971 -0.040436
v 0.730443 0.661554 -0.042365
v 0.730443 0.661554 0.092024
v 0.662268 0.596309 0.090095
v 0.662268 0.596309 -0.040436
v 0.854894 0.490261 -0.042365
v 0.854894 0.490261 0.092024
v 0.771775 0.445585 0.090095
v 0.771775 0.445585 -0.040436
v 0.936371 0.307262 -0.042365
v 0.936371 0.307262 0.092024
v 0.847552 0.275386 0.090095
v 0.847552 0.275386 -0.040436
v 0.980392 0.100159 -0.042365
v 0.980392 0.100159 0.092024
v 0.886287 0.093153 0.090095
v 0.886287 0.093153 -0.040436
v 0.980392 -0.100159 -0.042365
v 0.980392 -0.100159 0.092024
v 0.886287 -0.093153 0.090095
v 0.886287 -0.093153 -0.040436
v 0.936371 -0.307262 -0.042365
v 0.936371 -0.307262 0.092024
v 0.847552 -0.275386 0.090095
v 0.847552 -0.275386 -0.040436
v 0.854894 -0.490261 -0.042365
v 0.854894 -0.490261 0.092024
v 0.771775 -0.445585 0.090095
v 0.771775 -0.445585 -0.040436
v 0.730443 -0.661554 -0.042365
v 0.730443 -0.661554 0.092024
v 0.662268 -0.596309 0.090095
v 0.662268 -0.596309 -0.040436
v 0.581578 -0.795593 -0.042365
v 0.581578 -0.795593 0.092024
v 0.523816 -0.720971 0.090095
v 0.523816 -0.720971 -0.040436
v 0.398215 -0.901457 -0.042365
v 0.398215 -0.901457 0.092024
v 0.362471 -0.814124 0.090095
v 0.362471 -0.814124 -0.040436
v 0.207701 -0.963359 -0.042365
v 0.207701 -0.963359 0.092024
v 0.185284 -0.871695 0.090095
v 0.185284 -0.871695 -0.040436
v -0.002869 -0.985491 -0.042365
v -0.002869 -0.985491 0.092024
v -0.000000 -0.891169 0.090095
v -0.000000 -0.891169 -0.040436
v -0.202089 -0.964552 -0.042365
v -0.202089 -0.964552 0.092024
v -0.185285 -0.871695 0.090095
v -0.185285 -0.871695 -0.040436
v -0.403456 -0.899124 -0.042365
v -0.403456 -0.899124 0.092024
v -0.362471 -0.814124 0.090095
v -0.362471 -0.814124 -0.040436
v -0.576936 -0.798965 -0.042365
v -0.576936 -0.798965 0.092024
v -0.523816 -0.720971 0.090095
v -0.523816 -0.720971 -0.040436
v -0.734282 -0.657290 -0.042365
v -0.734282 -0.657290 0.092024
v -0.662268 -0.596309 0.090095
v -0.662268 -0.596309 -0.040436
v -0.852026 -0.495230 -0.042365
v -0.852026 -0.495230 0.092024
v -0.771775 -0.445585 0.090095
v -0.771775 -0.445585 -0.040436
v -0.938144 -0.301805 -0.042365
v -0.938144 -0.301805 0.092024
v -0.847552 -0.275386 0.090095
v -0.847552 -0.275386 -0.040436
v -0.979792 -0.105865 -0.042365
v -0.979792 -0.105865 0.092024
v -0.886287 -0.093153 0.090095
v -0.886287 -0.093153 -0.040436
v -0.979792 0.105865 -0.042365
v -0.979792 0.105865 0.092024
v -0.886287 0.093153 0.090095
v -0.886287 0.093153 -0.040436
v -0.938144 0.301805 -0.042365
v -0.938144 0.301805 0.092024
v -0.847552 0.275386 0.090095
v -0.847552 0.275386 -0.040436
v -0.852026 0.495230 -0.042365
v -0.852026 0.495230 0.092024
v -0.771775 0.445585 0.090095
v -0.771775 0.445585 -0.040436
v -0.734282 0.657290 -0.042365
v -0.734282 0.657290 0.092024
v -0.662268 0.596309 0.090095
v -0.662268 0.596309 -0.040436
v -0.576936 0.798965 -0.042365
v -0.576936 0.798965 0.092024
v -0.523816 0.720971 0.090095
v -0.523816 0.720971 -0.040436
v -0.403456 0.899124 -0.042365
v -0.403456 0.899124 0.092024
v -0.362472 0.814123 0.090095
v -0.362472 0.814123 -0.040436
v -0.202090 0.964552 -0.042365
v -0.202090 0.964552 0.092024
v -0.185285 0.871695 0.090095
v -0.185285 0.871695 -0.040436
v 0.183040 1.213781 0.091434
v 0.183040 1.213781 -0.041775
v 0.073319 1.225313 -0.041775
v 0.073319 1.225313 0.091434
v 0.565359 1.089557 -0.041775
v 0.565359 1.089557 0.091434
v 0.660905 1.034394 0.091434
v 0.660905 1.034394 -0.041775
v 0.959645 0.765408 -0.041775
v 0.959645 0.765408 0.091434
v 1.024493 0.676152 0.091434
v 1.024493 0.676152 -0.041775
v 1.187999 0.308912 -0.041775
v 1.187999 0.308912 0.091434
v 1.210937 0.200997 0.091434
v 1.210937 0.200997 -0.041775
v 1.210937 -0.200997 -0.041775
v 1.210937 -0.200997 0.091434
v 1.187999 -0.308912 0.091434
v 1.187999 -0.308912 -0.041775
v 1.024493 -0.676152 -0.041775
v 1.024493 -0.676152 0.091434
v 0.959644 -0.765408 0.091434
v 0.959644 -0.765408 -0.041775
v 0.660905 -1.034395 -0.041775
v 0.660905 -1.034395 0.091434
v 0.565360 -1.089558 0.091434
v 0.565360 -1.089558 -0.041775
v 0.183040 -1.213781 -0.041775
v 0.183040 -1.213781 0.091434
v 0.073319 -1.225313 0.091434
v 0.073319 -1.225313 -0.041775
v -0.326473 -1.183293 -0.041775
v -0.326473 -1.183293 0.091434
v -0.431400 -1.149200 0.091434
v -0.431400 -1.149200 -0.041775
v -0.779537 -0.948203 -0.041775
v -0.779537 -0.948203 0.091434
v -0.861525 -0.874381 0.091434
v -0.861525 -0.874381 -0.041775
v -1.097812 -0.549161 -0.041775
v -1.097812 -0.549161 0.091434
v -1.142685 -0.448373 0.091434
v -1.142685 -0.448373 -0.041775
v -1.226264 -0.055163 -0.041775
v -1.226264 -0.055163 0.091434
v -1.226264 0.055163 0.091434
v -1.226264 0.055163 -0.041775
v -1.142685 0.448373 -0.041775
v -1.142685 0.448373 0.091434
v -1.097811 0.549161 0.091434
v -1.097811 0.549161 -0.041775
v -0.861525 0.874381 -0.041775
v -0.861525 0.874381 0.091434
v -0.779537 0.948203 0.091434
v -0.779537 0.948203 -0.041775
v -0.431400 1.149200 -0.041775
v -0.431400 1.149200 0.091434
v -0.326474 1.183293 0.091434
v -0.326474 1.183293 -0.041775
v -0.000000 0.572557 -0.042365
v -0.000000 0.572557 0.092140
v -0.000000 0.510489 0.092140
v -0.000000 0.510489 -0.042365
v 0.119041 0.560046 -0.042365
v 0.119041 0.560046 0.092140
v 0.106137 0.499333 0.092140
v 0.106137 0.499333 -0.042365
v 0.232880 0.523057 -0.042365
v 0.232880 0.523057 0.092140
v 0.207634 0.466355 0.092140
v 0.207634 0.466355 -0.042365
v 0.336541 0.463209 -0.042365
v 0.336541 0.463209 0.092140
v 0.300058 0.412994 0.092140
v 0.300058 0.412994 -0.042365
v 0.425493 0.383116 -0.042365
v 0.425493 0.383116 0.092140
v 0.379367 0.341584 0.092140
v 0.379367 0.341584 -0.042365
v 0.495849 0.286279 -0.042365
v 0.495849 0.286279 0.092140
v 0.442096 0.255244 0.092140
v 0.442096 0.255244 -0.042365
v 0.544534 0.176930 -0.042365
v 0.544534 0.176930 0.092140
v 0.485504 0.157750 0.092140
v 0.485504 0.157750 -0.042365
v 0.569421 0.059849 -0.042365
v 0.569421 0.059849 0.092140
v 0.507692 0.053361 0.092140
v 0.507692 0.053361 -0.042365
v 0.569421 -0.059849 -0.042365
v 0.569421 -0.059849 0.092140
v 0.507692 -0.053361 0.092140
v 0.507692 -0.053361 -0.042365
v 0.544534 -0.176930 -0.042365
v 0.544534 -0.176930 0.092140
v 0.485504 -0.157750 0.092140
v 0.485504 -0.157750 -0.042365
v 0.495849 -0.286279 -0.042365
v 0.495849 -0.286279 0.092140
v 0.442096 -0.255244 0.092140
v 0.442096 -0.255244 -0.042365
v 0.425493 -0.383116 -0.042365
v 0.425493 -0.383116 0.092140
v 0.379367 -0.341584 0.092140
v 0.379367 -0.341584 -0.042365
v 0.336541 -0.463209 -0.042365
v 0.336541 -0.463209 0.092140
v 0.300058 -0.412994 0.092140
v 0.300058 -0.412994 -0.042365
v 0.232880 -0.523057 -0.042365
v 0.232880 -0.523057 0.092140
v 0.207634 -0.466355 0.092140
v 0.207634 -0.466355 -0.042365
v 0.119041 -0.560046 -0.042365
v 0.119041 -0.560046 0.092140
v 0.106137 -0.499333 0.092140
v 0.106137 -0.499333 -0.042365
v -0.000000 -0.572557 -0.042365
v -0.000000 -0.572557 0.092140
v -0.000000 -0.510489 0.092140
v -0.000000 -0.510489 -0.042365
v -0.119041 -0.560046 -0.042365
v -0.119041 -0.560046 0.092140
v -0.106137 -0.499333 0.092140
v -0.106137 -0.499333 -0.042365
v -0.232880 -0.523057 -0.042365
v -0.232880 -0.523057 0.092140
v -0.207634 -0.466355 0.092140
v -0.207634 -0.466355 -0.042365
v -0.336541 -0.463209 -0.042365
v -0.336541 -0.463209 0.092140
v -0.300058 -0.412994 0.092140
v -0.300058 -0.412994 -0.042365
v -0.425493 -0.383116 -0.042365
v -0.425493 -0.383116 0.092140
v -0.379367 -0.341584 0.092140
v -0.379367 -0.341584 -0.042365
v -0.495849 -0.286279 -0.042365
v -0.495849 -0.286279 0.092140
v -0.442096 -0.255244 0.092140
v -0.442096 -0.255244 -0.042365
v -0.544534 -0.176930 -0.042365
v -0.544534 -0.176930 0.092140
v -0.485504 -0.157750 0.092140
v -0.485504 -0.157750 -0.042365
v -0.569421 -0.059849 -0.042365
v -0.569421 -0.059849 0.092140
v -0.507692 -0.053361 0.092140
v -0.507692 -0.053361 -0.042365
v -0.569421 0.059849 -0.042365
v -0.569421 0.059849 0.092140
v -0.507692 0.053361 0.092140
v -0.507692 0.053361 -0.042365
v -0.544534 0.176930 -0.042365
v -0.544534 0.176930 0.092140
v -0.485504 0.157750 0.092140
v -0.485504 0.157750 -0.042365
v -0.495849 0.286279 -0.042365
v -0.495849 0.286279 0.092140
v -0.442096 0.255244 0.092140
v -0.442096 0.255244 -0.042365
v -0.425493 0.383116 -0.042365
v -0.425493 0.383116 0.092140
v -0.379367 0.341584 0.092140
v -0.379367 0.341584 -0.042365
v -0.336541 0.463209 -0.042365
v -0.336541 0.463209 0.092140
v -0.300058 0.412994 0.092140
v -0.300058 0.412994 -0.042365
v -0.232880 0.523057 -0.042365
v -0.232880 0.523057 0.092140
v -0.207635 0.466354 0.092140
v -0.207635 0.466354 -0.042365
v -0.119042 0.560046 -0.042365
v -0.119042 0.560046 0.092140
v -0.106137 0.499333 0.092140
v -0.106137 0.499333 -0.042365
v 0.208771 0.001923 -0.042365
v 0.196105 0.073757 -0.042365
v 0.159634 0.136927 -0.042365
v 0.103757 0.183813 -0.042365
v 0.035214 0.208760 -0.042365
v -0.037728 0.208760 -0.042365
v -0.106271 0.183813 -0.042365
v -0.162148 0.136927 -0.042365
v -0.198619 0.073757 -0.042365
v -0.211285 0.001923 -0.042365
v -0.198619 -0.069911 -0.042365
v -0.162148 -0.133080 -0.042365
v -0.106271 -0.179966 -0.042365
v -0.037728 -0.204914 -0.042365
v 0.035214 -0.204914 -0.042365
v 0.103757 -0.179967 -0.042365
v 0.159634 -0.133080 -0.042365
v 0.196105 -0.069911 -0.042365
v 0.208771 0.001923 0.056335
v 0.196105 0.073757 0.056335
v 0.159634 0.136927 0.056335
v 0.103757 0.183813 0.056335
v 0.035214 0.208760 0.056335
v -0.037728 0.208760 0.056335
v -0.106271 0.183813 0.056335
v -0.162148 0.136927 0.056335
v -0.198619 0.073757 0.056335
v -0.211285 0.001923 0.056335
v -0.198619 -0.069911 0.056335
v -0.162148 -0.133080 0.056335
v -0.106271 -0.179966 0.056335
v -0.037728 -0.204914 0.056335
v 0.035214 -0.204914 0.056335
v 0.103757 -0.179967 0.056335
v 0.159634 -0.133080 0.056335
v 0.196105 -0.069911 0.056335
v 0.894416 -0.039029 -0.042365
v 0.894416 0.041405 -0.042365
v -0.895087 -0.039028 -0.042365
v -0.895087 0.041406 -0.042365
v 0.894416 -0.039029 -0.000869
v 0.894416 0.041405 -0.000869
v -0.895087 -0.039028 -0.000869
v -0.895087 0.041406 -0.000869
v 0.603911 -0.659934 -0.042365
v -0.661458 0.605436 -0.042365
v -0.604583 0.662312 -0.042365
v 0.660787 -0.603058 -0.042365
v 0.603911 -0.659934 -0.000869
v 0.660787 -0.603058 -0.000869
v -0.604583 0.662312 -0.000869
v -0.661458 0.605436 -0.000869
v -0.040553 -0.893563 -0.042365
v -0.040553 0.895940 -0.042365
v 0.039882 0.895940 -0.042365
v 0.039881 -0.893563 -0.042365
v -0.040553 -0.893563 -0.000869
v 0.039881 -0.893563 -0.000869
v 0.039882 0.895940 -0.000869
v -0.040553 0.895940 -0.000869
v -0.661459 -0.603058 -0.042365
v 0.603911 0.662311 -0.042365
v 0.660787 0.605436 -0.042365
v -0.604583 -0.659934 -0.042365
v -0.661459 -0.603058 -0.000869
v -0.604583 -0.659934 -0.000869
v 0.660787 0.605436 -0.000869
v 0.603911 0.662311 -0.000869
vn 0.1045 0.9945 -0.0000
vn -0.0000 -0.0204 0.9998
vn -0.0042 -0.0200 0.9998
vn -0.0043 -0.0200 0.9998
vn -0.0000 -1.0000 -0.0000
vn -0.2079 -0.9781 -0.0000
vn -0.0000 -0.0204 -0.9998
vn -0.0043 -0.0200 -0.9998
vn -0.0042 -0.0200 -0.9998
vn 0.3090 0.9511 -0.0000
vn -0.0084 -0.0187 0.9998
vn -0.0083 -0.0187 0.9998
vn -0.4067 -0.9135 -0.0000
vn -0.0083 -0.0187 -0.9998
vn -0.0084 -0.0187 -0.9998
vn 0.5000 0.8660 -0.0000
vn -0.0120 -0.0166 0.9998
vn -0.0120 -0.0165 0.9998
vn -0.5878 -0.8090 -0.0000
vn -0.0120 -0.0165 -0.9998
vn -0.0120 -0.0166 -0.9998
vn 0.6691 0.7431 -0.0000
vn -0.0152 -0.0136 0.9998
vn -0.0152 -0.0137 0.9998
vn -0.7431 -0.6691 -0.0000
vn -0.0152 -0.0137 -0.9998
vn -0.0152 -0.0136 -0.9998
vn 0.8090 0.5878 -0.0000
vn -0.0177 -0.0103 0.9998
vn -0.0177 -0.0102 0.9998
vn -0.8660 -0.5000 -0.0000
vn -0.0177 -0.0102 -0.9998
vn -0.0177 -0.0103 -0.9998
vn 0.9135 0.4067 -0.0000
vn -0.0195 -0.0063 0.9998
vn -0.0194 -0.0064 0.9998
vn -0.9511 -0.3090 -0.0000
vn -0.0194 -0.0064 -0.9998
vn -0.0195 -0.0063 -0.9998
vn 0.9781 0.2079 -0.0000
vn -0.0203 -0.0022 0.9998
vn -0.0203 -0.0021 0.9998
vn -0.9945 -0.1045 -0.0000
vn -0.0203 -0.0021 -0.9998
vn -0.0203 -0.0022 -0.9998
vn 1.0000 -0.0000 -0.0000
vn -0.0203 0.0022 0.9998
vn -0.0203 0.0021 0.9998
vn -0.9945 0.1045 -0.0000
vn -0.0203 0.0021 -0.9998
vn -0.0203 0.0022 -0.9998
vn 0.9781 -0.2079 -0.0000
vn -0.0195 0.0063 0.9998
vn -0.0194 0.0064 0.9998
vn -0.9511 0.3090 -0.0000
vn -0.0194 0.0064 -0.9998
vn -0.0195 0.0063 -0.9998
vn 0.9135 -0.4067 -0.0000
vn -0.0177 0.0103 0.9998
vn -0.0177 0.0102 0.9998
vn -0.8660 0.5000 -0.0000
vn -0.0177 0.0102 -0.9998
vn -0.0177 0.0103 -0.9998
vn 0.8090 -0.5878 -0.0000
vn -0.0152 0.0136 0.9998
vn -0.0152 0.0137 0.9998
vn -0.7431 0.6691 -0.0000
vn -0.0152 0.0137 -0.9998
vn -0.0152 0.0136 -0.9998
vn 0.6691 -0.7431 -0.0000
vn -0.0120 0.0166 0.9998
vn -0.0120 0.0165 0.9998
vn -0.5878 0.8090 -0.0000
vn -0.0120 0.0165 -0.9998
vn -0.0120 0.0166 -0.9998
vn 0.5000 -0.8660 -0.0000
vn -0.0084 0.0187 0.9998
vn -0.0083 0.0187 0.9998
vn -0.4067 0.9135 -0.0000
vn -0.0083 0.0187 -0.9998
vn -0.0084 0.0187 -0.9998
vn 0.3090 -0.9511 -0.0000
vn -0.0042 0.0200 0.9998
vn -0.0043 0.0200 0.9998
vn -0.2079 0.9781 -0.0000
vn -0.0043 0.0200 -0.9998
vn -0.0042 0.0200 -0.9998
vn 0.1045 -0.9945 -0.0000
vn -0.0000 0.0204 0.9998
vn -0.0000 1.0000 -0.0000
vn -0.0000 0.0204 -0.9998
vn -0.1045 -0.9945 -0.0000
vn 0.0043 0.0200 0.9998
vn 0.0042 0.0200 0.9998
vn 0.2079 0.9781 -0.0000
vn 0.0042 0.0200 -0.9998
vn 0.0043 0.0200 -0.9998
vn -0.3090 -0.9511 -0.0000
vn 0.0083 0.0187 0.9998
vn 0.4067 0.9135 -0.0000
vn 0.0083 0.0187 -0.9998
vn -0.5000 -0.8660 -0.0000
vn 0.0121 0.0165 0.9998
vn 0.0120 0.0166 0.9998
vn 0.5878 0.8090 -0.0000
vn 0.0120 0.0166 -0.9998
vn 0.0121 0.0165 -0.9998
vn -0.6691 -0.7431 -0.0000
vn 0.0152 0.0137 0.9998
vn 0.7431 0.6691 -0.0000
vn 0.0152 0.0137 -0.9998
vn -0.8090 -0.5878 -0.0000
vn 0.0177 0.0102 0.9998
vn 0.0177 0.0103 0.9998
vn 0.8660 0.5000 -0.0000
vn 0.0177 0.0103 -0.9998
vn 0.0177 0.0102 -0.9998
vn -0.9135 -0.4067 -0.0000
vn 0.0194 0.0064 0.9998
vn 0.0195 0.0063 0.9998
vn 0.9511 0.3090 -0.0000
vn 0.0195 0.0063 -0.9998
vn 0.0194 0.0064 -0.9998
vn -0.9781 -0.2079 -0.0000
vn 0.0203 0.0021 0.9998
vn 0.0203 0.0022 0.9998
vn 0.9945 0.1045 -0.0000
vn 0.0203 0.0022 -0.9998
vn 0.0203 0.0021 -0.9998
vn -1.0000 -0.0000 -0.0000
vn 0.0203 -0.0021 0.9998
vn 0.0203 -0.0022 0.9998
vn 0.9945 -0.1045 -0.0000
vn 0.0203 -0.0022 -0.9998
vn 0.0203 -0.0021 -0.9998
vn -0.9781 0.2079 -0.0000
vn 0.0194 -0.0064 0.9998
vn 0.0195 -0.0063 0.9998
vn 0.9511 -0.3090 -0.0000
vn 0.0195 -0.0063 -0.9998
vn 0.0194 -0.0064 -0.9998
vn -0.9135 0.4067 -0.0000
vn 0.0177 -0.0102 0.9998
vn 0.0177 -0.0103 0.9998
vn 0.8660 -0.5000 -0.0000
vn 0.0177 -0.0103 -0.9998
vn 0.0177 -0.0102 -0.9998
vn -0.8090 0.5878 -0.0000
vn 0.0152 -0.0137 0.9998
vn 0.7431 -0.6691 -0.0000
vn 0.0152 -0.0137 -0.9998
vn -0.6691 0.7431 -0.0000
vn 0.0121 -0.0165 0.9998
vn 0.0120 -0.0166 0.9998
vn 0.5878 -0.8090 -0.0000
vn 0.0120 -0.0166 -0.9998
vn 0.0121 -0.0165 -0.9998
vn -0.5000 0.8660 -0.0000
vn 0.0083 -0.0187 0.9998
vn 0.4067 -0.9135 -0.0000
vn 0.0083 -0.0187 -0.9998
vn -0.3090 0.9511 -0.0000
vn 0.0043 -0.0200 0.9998
vn 0.0042 -0.0200 0.9998
vn 0.2079 -0.9781 -0.0000
vn 0.0042 -0.0200 -0.9998
vn 0.0043 -0.0200 -0.9998
vn -0.1045 0.9945 -0.0000
vn 0.9952 0.0980 -0.0000
vn 0.0003 0.0024 -1.0000
vn -0.9531 0.3028 -0.0000
vn 0.0003 0.0024 1.0000
vn -0.7475 0.6642 -0.0000
vn 0.0012 0.0021 1.0000
vn 0.9490 -0.3152 -0.0000
vn 0.0012 0.0021 -1.0000
vn -0.4127 0.9109 -0.0000
vn 0.0019 0.0014 1.0000
vn 0.7387 -0.6740 -0.0000
vn 0.0019 0.0014 -1.0000
vn -0.0066 1.0000 -0.0000
vn 0.0023 0.0005 1.0000
vn 0.4007 -0.9162 -0.0000
vn 0.0023 0.0005 -1.0000
vn 0.4007 0.9162 -0.0000
vn 0.0023 -0.0005 1.0000
vn -0.0066 -1.0000 -0.0000
vn 0.0023 -0.0005 -1.0000
vn 0.7387 0.6740 -0.0000
vn 0.0019 -0.0014 1.0000
vn -0.4127 -0.9109 -0.0000
vn 0.0019 -0.0014 -1.0000
vn 0.9490 0.3152 -0.0000
vn 0.0012 -0.0021 1.0000
vn -0.7475 -0.6642 -0.0000
vn 0.0012 -0.0021 -1.0000
vn 0.9952 -0.0980 -0.0000
vn 0.0003 -0.0024 1.0000
vn -0.9531 -0.3028 -0.0000
vn 0.0003 -0.0024 -1.0000
vn 0.8693 -0.4943 -0.0000
vn -0.0007 -0.0023 1.0000
vn -0.9938 0.1110 -0.0000
vn -0.0007 -0.0023 -1.0000
vn 0.5931 -0.8051 -0.0000
vn -0.0016 -0.0018 1.0000
vn -0.8627 0.5057 -0.0000
vn -0.0016 -0.0018 -1.0000
vn 0.2143 -0.9768 -0.0000
vn -0.0022 -0.0010 1.0000
vn -0.5825 0.8129 -0.0000
vn -0.0022 -0.0010 -1.0000
vn -0.2015 -0.9795 -0.0000
vn -0.0024 -0.0000 1.0000
vn -0.2015 0.9795 -0.0000
vn -0.0024 -0.0000 -1.0000
vn -0.5825 -0.8129 -0.0000
vn -0.0022 0.0010 1.0000
vn 0.2143 0.9768 -0.0000
vn -0.0022 0.0010 -1.0000
vn -0.8627 -0.5057 -0.0000
vn -0.0016 0.0018 1.0000
vn 0.5931 0.8051 -0.0000
vn -0.0016 0.0018 -1.0000
vn -0.9938 -0.1111 -0.0000
vn -0.0007 0.0023 1.0000
vn 0.8693 0.4943 -0.0000
vn -0.0007 0.0023 -1.0000
vn -0.0000 -0.0000 1.0000
vn -0.0000 -0.0000 -1.0000
vn 0.9397 0.3420 -0.0000
vn 0.7660 0.6428 -0.0000
vn 0.1736 0.9848 -0.0000
vn 0.1737 0.9848 -0.0000
vn -0.1737 0.9848 -0.0000
vn -0.1736 0.9848 -0.0000
vn -0.7660 0.6428 -0.0000
vn -0.9397 0.3420 -0.0000
vn -0.9397 -0.3420 -0.0000
vn -0.7660 -0.6428 -0.0000
vn -0.1736 -0.9848 -0.0000
vn -0.1737 -0.9848 -0.0000
vn 0.1737 -0.9848 -0.0000
vn 0.1736 -0.9848 -0.0000
vn 0.7660 -0.6428 -0.0000
vn 0.9397 -0.3420 -0.0000
vn 0.7071 -0.7071 -0.0000
vn 0.7071 0.7071 -0.0000
vn -0.7071 0.7071 -0.0000
vn -0.7071 -0.7071 -0.0000
vt 0.285007 0.246729
vt 0.285007 0.233122
vt 0.296277 0.233122
vt 0.296277 0.246729
vt 0.601900 0.577004
vt 0.611542 0.576830
vt 0.614446 0.595643
vt 0.605200 0.598384
vt 0.192123 0.678016
vt 0.178179 0.678016
vt 0.178179 0.658114
vt 0.192123 0.658114
vt 0.716339 0.233416
vt 0.718098 0.242895
vt 0.696493 0.243942
vt 0.697327 0.234338
vt 0.303018 0.266385
vt 0.303018 0.252657
vt 0.323481 0.252657
vt 0.323481 0.266385
vt 0.621197 0.613441
vt 0.612459 0.617521
vt 0.178179 0.638648
vt 0.192123 0.638648
vt 0.676292 0.240661
vt 0.678540 0.231286
vt 0.116858 0.517166
vt 0.116858 0.503558
vt 0.128128 0.503558
vt 0.128128 0.517166
vt 0.631500 0.629446
vt 0.624168 0.635710
vt 0.178179 0.620467
vt 0.192123 0.620467
vt 0.656128 0.232830
vt 0.660797 0.224396
vt 0.324418 0.169642
vt 0.324418 0.155914
vt 0.344881 0.155914
vt 0.344881 0.169642
vt 0.644905 0.642959
vt 0.638582 0.650240
vt 0.178179 0.604366
vt 0.192123 0.604366
vt 0.639009 0.221617
vt 0.644875 0.213967
vt 0.263812 0.232317
vt 0.263812 0.218709
vt 0.275082 0.218709
vt 0.275082 0.232317
vt 0.660826 0.653390
vt 0.656675 0.662094
vt 0.178179 0.731764
vt 0.164235 0.731764
vt 0.164235 0.715663
vt 0.178179 0.715663
vt 0.623773 0.206262
vt 0.631469 0.200455
vt 0.344905 0.049517
vt 0.331177 0.049517
vt 0.331177 0.029054
vt 0.344905 0.029054
vt 0.678567 0.660282
vt 0.675750 0.669504
vt 0.164235 0.697482
vt 0.178179 0.697482
vt 0.612695 0.189055
vt 0.621166 0.184452
vt 0.249803 0.321964
vt 0.236196 0.321964
vt 0.236196 0.310693
vt 0.249803 0.310693
vt 0.697353 0.663334
vt 0.697100 0.672973
vt 0.164235 0.678016
vt 0.178179 0.678016
vt 0.605022 0.168830
vt 0.614414 0.166656
vt 0.182398 0.169642
vt 0.182398 0.155914
vt 0.202861 0.155914
vt 0.202861 0.169642
vt 0.716362 0.662413
vt 0.717539 0.671983
vt 0.164235 0.658114
vt 0.178179 0.658114
vt 0.601900 0.148605
vt 0.611511 0.147845
vt 0.174115 0.346074
vt 0.174115 0.332467
vt 0.185385 0.332467
vt 0.185385 0.346074
vt 0.734764 0.657559
vt 0.738452 0.666466
vt 0.164235 0.638648
vt 0.178179 0.638648
vt 0.603117 0.127008
vt 0.612581 0.128842
vt 0.148601 0.244759
vt 0.134873 0.244759
vt 0.134873 0.224296
vt 0.148601 0.224296
vt 0.751755 0.648984
vt 0.756721 0.657246
vt 0.164235 0.620467
vt 0.178179 0.620467
vt 0.608491 0.107261
vt 0.617580 0.110476
vt 0.165110 0.068827
vt 0.165110 0.055219
vt 0.176381 0.055219
vt 0.176381 0.068827
vt 0.766592 0.637063
vt 0.773583 0.643699
vt 0.164235 0.604366
vt 0.178179 0.604366
vt 0.618387 0.088026
vt 0.626287 0.093551
vt 0.245415 0.200600
vt 0.245415 0.186872
vt 0.265878 0.186872
vt 0.265878 0.200600
vt 0.778626 0.622317
vt 0.786522 0.627844
vt 0.153348 0.749596
vt 0.139485 0.749596
vt 0.139485 0.729810
vt 0.153348 0.729810
vt 0.631328 0.072172
vt 0.638323 0.078806
vt 0.306407 0.231437
vt 0.306407 0.217829
vt 0.317677 0.217829
vt 0.317677 0.231437
vt 0.787332 0.605391
vt 0.796416 0.608607
vt 0.139485 0.710456
vt 0.153348 0.710456
vt 0.648192 0.058626
vt 0.653162 0.066886
vt 0.275781 0.232438
vt 0.275781 0.218710
vt 0.296244 0.218710
vt 0.296244 0.232438
vt 0.792330 0.587024
vt 0.801789 0.588859
vt 0.139485 0.692380
vt 0.153348 0.692380
vt 0.666463 0.049406
vt 0.670155 0.058312
vt 0.233445 0.200479
vt 0.233445 0.186871
vt 0.244716 0.186871
vt 0.244716 0.200479
vt 0.793400 0.568018
vt 0.803005 0.567260
vt 0.139485 0.676373
vt 0.153348 0.676373
vt 0.687378 0.043890
vt 0.688559 0.053458
vt 0.164889 0.320561
vt 0.164889 0.306833
vt 0.185352 0.306833
vt 0.185352 0.320561
vt 0.790495 0.549205
vt 0.799883 0.547032
vt 0.124641 0.678793
vt 0.110779 0.678793
vt 0.110779 0.659006
vt 0.124641 0.659006
vt 0.707820 0.042899
vt 0.707570 0.052536
vt 0.205587 0.217893
vt 0.205587 0.204285
vt 0.216857 0.204285
vt 0.216857 0.217893
vt 0.783744 0.531407
vt 0.792210 0.526805
vt 0.110779 0.639653
vt 0.124641 0.639653
vt 0.729171 0.046366
vt 0.726358 0.055587
vt 0.197049 0.249838
vt 0.183321 0.249838
vt 0.183321 0.229375
vt 0.197049 0.229375
vt 0.773441 0.515402
vt 0.781132 0.509596
vt 0.110779 0.621577
vt 0.124641 0.621577
vt 0.748248 0.053775
vt 0.744100 0.062478
vt 0.313163 0.068827
vt 0.313163 0.055219
vt 0.324433 0.055219
vt 0.324433 0.068827
vt 0.760036 0.501889
vt 0.765898 0.494239
vt 0.110779 0.605570
vt 0.124641 0.605570
vt 0.766343 0.065627
vt 0.760022 0.072907
vt 0.344905 0.203489
vt 0.331177 0.203489
vt 0.331177 0.183026
vt 0.344905 0.183026
vt 0.744115 0.491458
vt 0.748780 0.483024
vt 0.138995 0.749596
vt 0.125132 0.749596
vt 0.125132 0.729810
vt 0.138995 0.729810
vt 0.780757 0.080155
vt 0.773428 0.086418
vt 0.185788 0.264154
vt 0.185788 0.250546
vt 0.197058 0.250546
vt 0.197058 0.264154
vt 0.726374 0.484567
vt 0.728618 0.475191
vt 0.125132 0.710456
vt 0.138995 0.710456
vt 0.792467 0.098342
vt 0.783732 0.102422
vt 0.148601 0.497856
vt 0.134873 0.497856
vt 0.134873 0.477393
vt 0.148601 0.477393
vt 0.707589 0.481514
vt 0.708419 0.471910
vt 0.125132 0.692380
vt 0.138995 0.692380
vt 0.799726 0.117477
vt 0.790483 0.120218
vt 0.264094 0.321964
vt 0.250487 0.321964
vt 0.250487 0.310693
vt 0.264094 0.310693
vt 0.688579 0.482435
vt 0.686816 0.472956
vt 0.125132 0.676373
vt 0.138995 0.676373
vt 0.803026 0.138855
vt 0.793387 0.139029
vt 0.197049 0.228642
vt 0.183321 0.228642
vt 0.183321 0.208179
vt 0.197049 0.208179
vt 0.670177 0.487289
vt 0.667029 0.478175
vt 0.110697 0.678793
vt 0.096834 0.678793
vt 0.096834 0.659006
vt 0.110697 0.659006
vt 0.801875 0.159287
vt 0.792316 0.158032
vt 0.116858 0.264068
vt 0.116858 0.250461
vt 0.128128 0.250461
vt 0.128128 0.264068
vt 0.653187 0.495864
vt 0.647720 0.487920
vt 0.096834 0.639653
vt 0.110697 0.639653
vt 0.796194 0.180159
vt 0.787318 0.176398
vt 0.171758 0.203489
vt 0.158030 0.203489
vt 0.158030 0.183026
vt 0.171758 0.183026
vt 0.638350 0.507785
vt 0.631767 0.500738
vt 0.096834 0.621577
vt 0.110697 0.621577
vt 0.786832 0.198357
vt 0.778610 0.193323
vt 0.181690 0.178398
vt 0.168083 0.178398
vt 0.168083 0.167128
vt 0.181690 0.167128
vt 0.626315 0.522531
vt 0.618090 0.517496
vt 0.096834 0.605570
vt 0.110697 0.605570
vt 0.773153 0.215114
vt 0.766574 0.208067
vt 0.324418 0.334973
vt 0.324418 0.321245
vt 0.344881 0.321245
vt 0.344881 0.334973
vt 0.617609 0.539457
vt 0.608730 0.535696
vt 0.192123 0.731764
vt 0.178179 0.731764
vt 0.178179 0.715663
vt 0.192123 0.715663
vt 0.757199 0.227931
vt 0.751736 0.219987
vt 0.312448 0.180262
vt 0.312448 0.166654
vt 0.323719 0.166654
vt 0.323719 0.180262
vt 0.612612 0.557825
vt 0.603050 0.556569
vt 0.178179 0.697483
vt 0.192123 0.697483
vt 0.737887 0.237675
vt 0.734743 0.228562
vt 0.196853 0.049517
vt 0.183125 0.049517
vt 0.183125 0.029054
vt 0.196853 0.029054
vt 0.344862 0.008660
vt 0.344862 0.022388
vt 0.319157 0.022328
vt 0.319157 0.008721
vt 0.572578 0.245468
vt 0.574839 0.223958
vt 0.599337 0.231740
vt 0.598159 0.242949
vt 0.122853 0.470727
vt 0.122853 0.456999
vt 0.148558 0.457060
vt 0.148558 0.470667
vt 0.371892 0.477055
vt 0.374152 0.498565
vt 0.348571 0.496046
vt 0.347393 0.484838
vt 0.266630 0.200600
vt 0.266630 0.186872
vt 0.292334 0.186932
vt 0.292334 0.200540
vt 0.380587 0.518340
vt 0.391402 0.537071
vt 0.367007 0.545174
vt 0.361372 0.535414
vt 0.111984 0.536611
vt 0.111984 0.550339
vt 0.086279 0.550279
vt 0.086279 0.536671
vt 0.555328 0.283974
vt 0.566143 0.265243
vt 0.585358 0.282317
vt 0.579723 0.292077
vt 0.086279 0.297266
vt 0.086279 0.283537
vt 0.111984 0.283598
vt 0.111984 0.297205
vt 0.405325 0.552533
vt 0.422823 0.565246
vt 0.403834 0.582571
vt 0.394716 0.575947
vt 0.148558 0.203902
vt 0.148558 0.217630
vt 0.122853 0.217570
vt 0.122853 0.203962
vt 0.523907 0.312149
vt 0.541405 0.299436
vt 0.552014 0.322850
vt 0.542896 0.329474
vt 0.040119 0.268429
vt 0.040119 0.254701
vt 0.065823 0.254761
vt 0.065823 0.268369
vt 0.441827 0.573713
vt 0.462983 0.578210
vt 0.452683 0.601761
vt 0.441659 0.599418
vt 0.308288 0.045035
vt 0.308288 0.058763
vt 0.282584 0.058702
vt 0.282584 0.045095
vt 0.483747 0.325113
vt 0.504903 0.320616
vt 0.505071 0.346321
vt 0.494047 0.348664
vt 0.282584 0.087588
vt 0.282584 0.073859
vt 0.308288 0.073920
vt 0.308288 0.087527
vt 0.483747 0.578210
vt 0.504903 0.573713
vt 0.505071 0.599418
vt 0.494047 0.601761
vt 0.041762 0.203902
vt 0.041762 0.217630
vt 0.016057 0.217570
vt 0.016057 0.203962
vt 0.441827 0.320616
vt 0.462983 0.325113
vt 0.452683 0.348664
vt 0.441659 0.346321
vt 0.028639 0.596235
vt 0.014911 0.596235
vt 0.014971 0.570530
vt 0.028578 0.570530
vt 0.523907 0.565246
vt 0.541405 0.552533
vt 0.552014 0.575947
vt 0.542896 0.582571
vt 0.344862 0.306833
vt 0.344862 0.320561
vt 0.319157 0.320500
vt 0.319157 0.306893
vt 0.405325 0.299436
vt 0.422823 0.312149
vt 0.403834 0.329474
vt 0.394716 0.322850
vt 0.196853 0.147896
vt 0.183125 0.147896
vt 0.183185 0.122191
vt 0.196793 0.122191
vt 0.555328 0.537071
vt 0.566143 0.518340
vt 0.585358 0.535414
vt 0.579723 0.545174
vt 0.111984 0.269125
vt 0.111984 0.282853
vt 0.086279 0.282793
vt 0.086279 0.269185
vt 0.380587 0.265243
vt 0.391402 0.283974
vt 0.367007 0.292077
vt 0.361372 0.282317
vt 0.282584 0.073175
vt 0.282584 0.059447
vt 0.308288 0.059507
vt 0.308288 0.073115
vt 0.572578 0.498565
vt 0.574839 0.477055
vt 0.599337 0.484838
vt 0.598159 0.496046
vt 0.111984 0.493374
vt 0.111984 0.507102
vt 0.086279 0.507041
vt 0.086279 0.493434
vt 0.371892 0.223958
vt 0.374152 0.245468
vt 0.348571 0.242949
vt 0.347393 0.231740
vt 0.028639 0.343138
vt 0.014911 0.343138
vt 0.014971 0.317433
vt 0.028578 0.317433
vt 0.572661 0.456396
vt 0.565977 0.435826
vt 0.591523 0.432972
vt 0.595005 0.443690
vt 0.111984 0.522198
vt 0.111984 0.535926
vt 0.086279 0.535866
vt 0.086279 0.522259
vt 0.380753 0.182729
vt 0.374070 0.203299
vt 0.351725 0.190593
vt 0.355207 0.179875
vt 0.148601 0.343138
vt 0.134873 0.343138
vt 0.134933 0.317433
vt 0.148541 0.317433
vt 0.555570 0.417809
vt 0.541098 0.401736
vt 0.563274 0.388738
vt 0.570816 0.397113
vt 0.065823 0.240276
vt 0.065823 0.254005
vt 0.040119 0.253944
vt 0.040119 0.240337
vt 0.405632 0.148639
vt 0.391160 0.164712
vt 0.375915 0.144016
vt 0.383456 0.135641
vt 0.088371 0.069994
vt 0.088371 0.056266
vt 0.114076 0.056326
vt 0.114076 0.069934
vt 0.524266 0.389504
vt 0.504507 0.380707
vt 0.519480 0.359813
vt 0.529775 0.364397
vt 0.331177 0.122191
vt 0.344905 0.122191
vt 0.344845 0.147896
vt 0.331237 0.147896
vt 0.442223 0.127610
vt 0.422464 0.136407
vt 0.416955 0.111299
vt 0.427250 0.106715
vt 0.224943 0.147896
vt 0.211215 0.147896
vt 0.211275 0.122191
vt 0.224883 0.122191
vt 0.484179 0.376375
vt 0.462551 0.376375
vt 0.467730 0.351197
vt 0.479000 0.351197
vt 0.238067 0.008660
vt 0.238067 0.022388
vt 0.212362 0.022328
vt 0.212362 0.008721
vt 0.484179 0.123278
vt 0.462551 0.123278
vt 0.467730 0.098100
vt 0.479000 0.098100
vt 0.148601 0.596235
vt 0.134873 0.596235
vt 0.134933 0.570530
vt 0.148541 0.570530
vt 0.442223 0.380707
vt 0.422464 0.389504
vt 0.416955 0.364397
vt 0.427250 0.359813
vt 0.063163 0.122191
vt 0.076891 0.122191
vt 0.076831 0.147896
vt 0.063223 0.147896
vt 0.524266 0.136407
vt 0.504507 0.127610
vt 0.519480 0.106715
vt 0.529775 0.111299
vt 0.086279 0.521514
vt 0.086279 0.507786
vt 0.111984 0.507846
vt 0.111984 0.521454
vt 0.405632 0.401736
vt 0.391160 0.417809
vt 0.375915 0.397113
vt 0.383456 0.388738
vt 0.041762 0.456999
vt 0.041762 0.470727
vt 0.016057 0.470667
vt 0.016057 0.457060
vt 0.555570 0.164712
vt 0.541098 0.148639
vt 0.563274 0.135641
vt 0.570816 0.144016
vt 0.282584 0.102000
vt 0.282584 0.088272
vt 0.308288 0.088332
vt 0.308288 0.101940
vt 0.380753 0.435826
vt 0.374070 0.456396
vt 0.351725 0.443690
vt 0.355207 0.432972
vt 0.114076 0.070690
vt 0.114076 0.084418
vt 0.088371 0.084358
vt 0.088371 0.070751
vt 0.572661 0.203299
vt 0.565977 0.182729
vt 0.591523 0.179874
vt 0.595005 0.190593
vt 0.250507 0.218340
vt 0.250507 0.203972
vt 0.263294 0.203972
vt 0.263294 0.218340
vt 0.693409 0.514827
vt 0.694376 0.521094
vt 0.683835 0.523874
vt 0.681586 0.517946
vt 0.153396 0.647557
vt 0.139028 0.647557
vt 0.139028 0.636157
vt 0.153396 0.636157
vt 0.650404 0.151613
vt 0.644138 0.152580
vt 0.643546 0.140367
vt 0.649876 0.140724
vt 0.275800 0.203972
vt 0.275800 0.218340
vt 0.674102 0.528785
vt 0.670670 0.523454
vt 0.139028 0.625006
vt 0.153396 0.625006
vt 0.645506 0.128298
vt 0.651624 0.129963
vt 0.287481 0.203972
vt 0.287481 0.218340
vt 0.665603 0.535613
vt 0.661137 0.531112
vt 0.139028 0.614592
vt 0.153396 0.614592
vt 0.649933 0.116900
vt 0.655571 0.119801
vt 0.297826 0.203972
vt 0.297826 0.218340
vt 0.658709 0.544058
vt 0.653405 0.540584
vt 0.139028 0.605369
vt 0.153396 0.605369
vt 0.656632 0.106672
vt 0.661544 0.110681
vt 0.065767 0.254289
vt 0.065767 0.240004
vt 0.078479 0.240004
vt 0.078479 0.254289
vt 0.653722 0.553752
vt 0.647811 0.551457
vt 0.139001 0.790256
vt 0.124716 0.790256
vt 0.124716 0.778922
vt 0.139001 0.778922
vt 0.665312 0.098060
vt 0.669283 0.103003
vt 0.090913 0.240004
vt 0.090913 0.254289
vt 0.650859 0.564271
vt 0.644600 0.563255
vt 0.124716 0.767836
vt 0.139001 0.767836
vt 0.675593 0.091440
vt 0.678449 0.097101
vt 0.102527 0.240004
vt 0.102527 0.254289
vt 0.650246 0.575156
vt 0.643912 0.575463
vt 0.124716 0.757482
vt 0.139001 0.757482
vt 0.687025 0.087103
vt 0.688642 0.093234
vt 0.112811 0.240004
vt 0.112811 0.254289
vt 0.651909 0.585930
vt 0.645778 0.587547
vt 0.124716 0.748312
vt 0.139001 0.748312
vt 0.699109 0.085238
vt 0.699416 0.091571
vt 0.114019 0.084703
vt 0.114019 0.070418
vt 0.126731 0.070418
vt 0.126731 0.084703
vt 0.655776 0.596123
vt 0.650115 0.598980
vt 0.066778 0.648002
vt 0.052493 0.648002
vt 0.052493 0.636668
vt 0.066778 0.636668
vt 0.711317 0.085926
vt 0.710301 0.092184
vt 0.139166 0.070418
vt 0.139166 0.084703
vt 0.661677 0.605290
vt 0.656734 0.609260
vt 0.052493 0.625582
vt 0.066778 0.625582
vt 0.723116 0.089137
vt 0.720820 0.095047
vt 0.150779 0.070418
vt 0.150779 0.084703
vt 0.669356 0.613029
vt 0.665346 0.617940
vt 0.052493 0.615228
vt 0.066778 0.615228
vt 0.733989 0.094730
vt 0.730514 0.100034
vt 0.161063 0.070418
vt 0.161063 0.084703
vt 0.678475 0.619002
vt 0.675575 0.624640
vt 0.052493 0.606058
vt 0.066778 0.606058
vt 0.743461 0.102462
vt 0.738960 0.106928
vt 0.114019 0.099127
vt 0.114019 0.084842
vt 0.126731 0.084842
vt 0.126731 0.099127
vt 0.688638 0.622949
vt 0.686973 0.629067
vt 0.153354 0.790256
vt 0.139070 0.790256
vt 0.139070 0.778922
vt 0.153354 0.778922
vt 0.751118 0.111995
vt 0.745787 0.115427
vt 0.139166 0.084842
vt 0.139166 0.099127
vt 0.699399 0.624696
vt 0.699042 0.631027
vt 0.139070 0.767836
vt 0.153354 0.767836
vt 0.756627 0.122911
vt 0.750698 0.125160
vt 0.150779 0.084842
vt 0.150779 0.099127
vt 0.710288 0.624168
vt 0.711255 0.630435
vt 0.139070 0.757482
vt 0.153354 0.757482
vt 0.759745 0.134734
vt 0.753479 0.135702
vt 0.161063 0.084842
vt 0.161063 0.099127
vt 0.720829 0.621388
vt 0.723078 0.627316
vt 0.139070 0.748312
vt 0.153354 0.748312
vt 0.760337 0.146947
vt 0.754007 0.146591
vt 0.065767 0.268713
vt 0.065767 0.254428
vt 0.078479 0.254428
vt 0.078479 0.268713
vt 0.730562 0.616477
vt 0.733994 0.621808
vt 0.052279 0.638644
vt 0.038285 0.638644
vt 0.038285 0.627539
vt 0.052279 0.627539
vt 0.758377 0.159017
vt 0.752259 0.157352
vt 0.090913 0.254428
vt 0.090913 0.268713
vt 0.739061 0.609649
vt 0.743527 0.614150
vt 0.038285 0.616678
vt 0.052279 0.616678
vt 0.753950 0.170415
vt 0.748312 0.167514
vt 0.102527 0.254428
vt 0.102527 0.268713
vt 0.745955 0.601204
vt 0.751259 0.604678
vt 0.038285 0.606534
vt 0.052279 0.606534
vt 0.747251 0.180643
vt 0.742339 0.176634
vt 0.112811 0.254428
vt 0.112811 0.268713
vt 0.750942 0.591510
vt 0.756853 0.593805
vt 0.139043 0.678346
vt 0.124675 0.678346
vt 0.124675 0.669123
vt 0.139043 0.669123
vt 0.738571 0.189255
vt 0.734600 0.184312
vt 0.114019 0.070278
vt 0.114019 0.055994
vt 0.126731 0.055994
vt 0.126731 0.070278
vt 0.753805 0.580991
vt 0.760064 0.582007
vt 0.124675 0.658709
vt 0.139043 0.658709
vt 0.728290 0.195875
vt 0.725434 0.190214
vt 0.139166 0.055994
vt 0.139166 0.070278
vt 0.754419 0.570106
vt 0.760752 0.569799
vt 0.124675 0.647557
vt 0.139043 0.647557
vt 0.716858 0.200212
vt 0.715241 0.194081
vt 0.150779 0.055994
vt 0.150779 0.070278
vt 0.752755 0.559332
vt 0.758886 0.557715
vt 0.124675 0.636157
vt 0.139043 0.636157
vt 0.704773 0.202077
vt 0.704466 0.195744
vt 0.161063 0.055994
vt 0.161063 0.070278
vt 0.748889 0.549139
vt 0.754549 0.546283
vt 0.124675 0.625006
vt 0.139043 0.625006
vt 0.692565 0.201389
vt 0.693582 0.195131
vt 0.161090 0.022528
vt 0.161090 0.008533
vt 0.173544 0.008533
vt 0.173544 0.022528
vt 0.742987 0.539973
vt 0.747930 0.536002
vt 0.124675 0.614592
vt 0.139043 0.614592
vt 0.680767 0.198178
vt 0.683063 0.192268
vt 0.185726 0.008533
vt 0.185726 0.022528
vt 0.735308 0.532234
vt 0.739318 0.527322
vt 0.124675 0.605369
vt 0.139043 0.605369
vt 0.669894 0.192584
vt 0.673369 0.187280
vt 0.197103 0.008533
vt 0.197103 0.022528
vt 0.726189 0.526260
vt 0.729089 0.520622
vt 0.113484 0.790192
vt 0.113484 0.776452
vt 0.124386 0.776452
vt 0.124386 0.790192
vt 0.660422 0.184852
vt 0.664923 0.180387
vt 0.215975 0.218340
vt 0.215975 0.203972
vt 0.226320 0.203972
vt 0.226320 0.218340
vt 0.716026 0.522314
vt 0.717691 0.516196
vt 0.153396 0.678346
vt 0.139028 0.678346
vt 0.139028 0.669123
vt 0.153396 0.669123
vt 0.652765 0.175320
vt 0.658096 0.171887
vt 0.238000 0.203972
vt 0.238000 0.218340
vt 0.705266 0.520566
vt 0.705622 0.514235
vt 0.139028 0.658709
vt 0.153396 0.658709
vt 0.647256 0.164403
vt 0.653184 0.162154
vt 0.060739 0.237490
vt 0.052934 0.237490
vt 0.052934 0.226929
vt 0.060739 0.226929
vt 0.045600 0.237490
vt 0.045600 0.226929
vt 0.037755 0.242193
vt 0.037755 0.248270
vt 0.027021 0.248270
vt 0.027021 0.242193
vt 0.037755 0.255724
vt 0.027021 0.255724
vt 0.037755 0.263657
vt 0.027021 0.263657
vt 0.037755 0.271111
vt 0.027021 0.271111
vt 0.037755 0.277188
vt 0.027021 0.277188
vt 0.324221 0.166251
vt 0.316375 0.166251
vt 0.316375 0.155634
vt 0.324221 0.155634
vt 0.309002 0.166251
vt 0.309002 0.155634
vt 0.302992 0.166251
vt 0.302992 0.155634
vt 0.096145 0.042009
vt 0.088693 0.042009
vt 0.088693 0.031927
vt 0.096145 0.031927
vt 0.104243 0.329240
vt 0.098166 0.329240
vt 0.098166 0.318506
vt 0.104243 0.318506
vt 0.090712 0.329240
vt 0.090712 0.318506
vt 0.082779 0.329240
vt 0.082779 0.318506
vt 0.075325 0.329240
vt 0.075325 0.318506
vt 0.069248 0.329240
vt 0.069248 0.318506
vt 0.074053 0.237490
vt 0.068074 0.237490
vt 0.068074 0.226929
vt 0.074053 0.226929
vt 0.888456 0.282480
vt 0.894060 0.287390
vt 0.897647 0.293921
vt 0.898784 0.301285
vt 0.897333 0.308594
vt 0.893471 0.314966
vt 0.887662 0.319632
vt 0.880607 0.322030
vt 0.873157 0.321871
vt 0.866212 0.319174
vt 0.860607 0.314263
vt 0.857021 0.307732
vt 0.855884 0.300368
vt 0.857334 0.293059
vt 0.861197 0.286687
vt 0.867006 0.282021
vt 0.874061 0.279623
vt 0.881510 0.279782
vt 0.897207 0.722199
vt 0.898347 0.729563
vt 0.896900 0.736872
vt 0.893040 0.743246
vt 0.887233 0.747915
vt 0.880180 0.750317
vt 0.872730 0.750161
vt 0.865783 0.747467
vt 0.860176 0.742559
vt 0.856586 0.736029
vt 0.855446 0.728666
vt 0.856893 0.721357
vt 0.860753 0.714983
vt 0.866560 0.710314
vt 0.873614 0.707912
vt 0.881063 0.708068
vt 0.888010 0.710762
vt 0.893617 0.715670
vt 0.963810 0.425661
vt 0.935922 0.244998
vt 0.944042 0.243745
vt 0.971931 0.424407
vt 0.996363 0.848857
vt 0.988243 0.850111
vt 0.960354 0.669448
vt 0.968475 0.668194
vt 0.913555 0.848775
vt 0.921772 0.848775
vt 0.921772 0.853013
vt 0.913555 0.853013
vt 0.077930 0.790172
vt 0.077930 0.607370
vt 0.082169 0.607370
vt 0.082169 0.790172
vt 0.822485 0.853074
vt 0.830701 0.853074
vt 0.830701 0.857313
vt 0.822485 0.857313
vt 0.161496 0.396339
vt 0.344298 0.396339
vt 0.344298 0.400578
vt 0.161496 0.400578
vt 0.922199 0.247280
vt 0.946539 0.428454
vt 0.938396 0.429549
vt 0.914055 0.248374
vt 0.933286 0.673940
vt 0.941354 0.672382
vt 0.976033 0.851865
vt 0.967966 0.853423
vt 0.905250 0.848775
vt 0.913466 0.848775
vt 0.913466 0.853013
vt 0.905250 0.853013
vt 0.087498 0.790172
vt 0.087498 0.607370
vt 0.091737 0.607370
vt 0.091737 0.790172
vt 0.814179 0.853074
vt 0.822396 0.853074
vt 0.822396 0.857313
vt 0.814179 0.857313
vt 0.415974 0.085387
vt 0.598776 0.085387
vt 0.598776 0.089626
vt 0.415974 0.089626
vt 0.952994 0.242363
vt 0.980882 0.423025
vt 0.972762 0.424279
vt 0.944874 0.243616
vt 0.946130 0.856697
vt 0.937936 0.857313
vt 0.924226 0.675025
vt 0.932420 0.674409
vt 0.913555 0.853074
vt 0.921772 0.853074
vt 0.921772 0.857313
vt 0.913555 0.857313
vt 0.092282 0.790172
vt 0.092282 0.607370
vt 0.096521 0.607370
vt 0.096521 0.790172
vt 0.814179 0.848775
vt 0.822396 0.848775
vt 0.822396 0.853013
vt 0.814179 0.853013
vt 0.415974 0.091413
vt 0.598776 0.091413
vt 0.598776 0.095652
vt 0.415974 0.095652
vt 0.950914 0.427616
vt 0.926573 0.246442
vt 0.934716 0.245348
vt 0.959057 0.426522
vt 0.987002 0.850295
vt 0.978893 0.851619
vt 0.949439 0.671205
vt 0.957549 0.669881
vt 0.905250 0.853074
vt 0.913466 0.853074
vt 0.913466 0.857313
vt 0.905250 0.857313
vt 0.082714 0.790172
vt 0.082714 0.607370
vt 0.086953 0.607370
vt 0.086953 0.790172
vt 0.822485 0.848775
vt 0.830701 0.848775
vt 0.830701 0.853013
vt 0.822485 0.853013
vt 0.161496 0.402366
vt 0.344298 0.402366
vt 0.344298 0.406604
vt 0.161496 0.406604
s 1
g off
g Engranaje2_1_Engrenages
usemtl Engrenages
f 123/1/1 124/2/1 121/3/1
f 121/3/1 122/4/1 123/1/1
s 2
f 2/5/2 3/6/2 7/7/3
f 7/7/3 6/8/4 2/5/2
s 3
f 3/9/5 4/10/5 8/11/6
f 8/11/6 7/12/6 3/9/5
s 4
f 4/13/7 1/14/7 5/15/8
f 5/15/8 8/16/9 4/13/7
s 5
f 5/17/10 6/18/10 10/19/10
f 10/19/10 9/20/10 5/17/10
s 2
f 6/8/4 7/7/3 11/21/11
f 11/21/11 10/22/12 6/8/4
s 3
f 7/12/6 8/11/6 12/23/13
f 12/23/13 11/24/13 7/12/6
s 4
f 8/16/9 5/15/8 9/25/14
f 9/25/14 12/26/15 8/16/9
s 6
f 125/27/16 126/28/16 127/29/16
f 127/29/16 128/30/16 125/27/16
s 2
f 10/22/12 11/21/11 15/31/17
f 15/31/17 14/32/18 10/22/12
s 3
f 11/24/13 12/23/13 16/33/19
f 16/33/19 15/34/19 11/24/13
s 4
f 12/26/15 9/25/14 13/35/20
f 13/35/20 16/36/21 12/26/15
s 7
f 13/37/22 14/38/22 18/39/22
f 18/39/22 17/40/22 13/37/22
s 2
f 14/32/18 15/31/17 19/41/23
f 19/41/23 18/42/24 14/32/18
s 3
f 15/34/19 16/33/19 20/43/25
f 20/43/25 19/44/25 15/34/19
s 4
f 16/36/21 13/35/20 17/45/26
f 17/45/26 20/46/27 16/36/21
s 8
f 129/47/28 130/48/28 131/49/28
f 131/49/28 132/50/28 129/47/28
s 2
f 18/42/24 19/41/23 23/51/29
f 23/51/29 22/52/30 18/42/24
s 3
f 19/53/25 20/54/25 24/55/31
f 24/55/31 23/56/31 19/53/25
s 4
f 20/46/27 17/45/26 21/57/32
f 21/57/32 24/58/33 20/46/27
s 9
f 21/59/34 22/60/34 26/61/34
f 26/61/34 25/62/34 21/59/34
s 2
f 22/52/30 23/51/29 27/63/35
f 27/63/35 26/64/36 22/52/30
s 3
f 23/56/31 24/55/31 28/65/37
f 28/65/37 27/66/37 23/56/31
s 4
f 24/58/33 21/57/32 25/67/38
f 25/67/38 28/68/39 24/58/33
s 10
f 133/69/40 134/70/40 135/71/40
f 135/71/40 136/72/40 133/69/40
s 2
f 26/64/36 27/63/35 31/73/41
f 31/73/41 30/74/42 26/64/36
s 3
f 27/66/37 28/65/37 32/75/43
f 32/75/43 31/76/43 27/66/37
s 4
f 28/68/39 25/67/38 29/77/44
f 29/77/44 32/78/45 28/68/39
s 11
f 29/79/46 30/80/46 34/81/46
f 34/81/46 33/82/46 29/79/46
s 2
f 30/74/42 31/73/41 35/83/47
f 35/83/47 34/84/48 30/74/42
s 3
f 31/76/43 32/75/43 36/85/49
f 36/85/49 35/86/49 31/76/43
s 4
f 32/78/45 29/77/44 33/87/50
f 33/87/50 36/88/51 32/78/45
s 12
f 137/89/52 138/90/52 139/91/52
f 139/91/52 140/92/52 137/89/52
s 2
f 34/84/48 35/83/47 39/93/53
f 39/93/53 38/94/54 34/84/48
s 3
f 35/86/49 36/85/49 40/95/55
f 40/95/55 39/96/55 35/86/49
s 4
f 36/88/51 33/87/50 37/97/56
f 37/97/56 40/98/57 36/88/51
s 13
f 37/99/58 38/100/58 42/101/58
f 42/101/58 41/102/58 37/99/58
s 2
f 38/94/54 39/93/53 43/103/59
f 43/103/59 42/104/60 38/94/54
s 3
f 39/96/55 40/95/55 44/105/61
f 44/105/61 43/106/61 39/96/55
s 4
f 40/98/57 37/97/56 41/107/62
f 41/107/62 44/108/63 40/98/57
s 14
f 141/109/64 142/110/64 143/111/64
f 143/111/64 144/112/64 141/109/64
s 2
f 42/104/60 43/103/59 47/113/65
f 47/113/65 46/114/66 42/104/60
s 3
f 43/106/61 44/105/61 48/115/67
f 48/115/67 47/116/67 43/106/61
s 4
f 44/108/63 41/107/62 45/117/68
f 45/117/68 48/118/69 44/108/63
s 15
f 45/119/70 46/120/70 50/121/70
f 50/121/70 49/122/70 45/119/70
s 2
f 46/114/66 47/113/65 51/123/71
f 51/123/71 50/124/72 46/114/66
s 3
f 47/125/67 48/126/67 52/127/73
f 52/127/73 51/128/73 47/125/67
s 4
f 48/118/69 45/117/68 49/129/74
f 49/129/74 52/130/75 48/118/69
s 16
f 145/131/76 146/132/76 147/133/76
f 147/133/76 148/134/76 145/131/76
s 2
f 50/124/72 51/123/71 55/135/77
f 55/135/77 54/136/78 50/124/72
s 3
f 51/128/73 52/127/73 56/137/79
f 56/137/79 55/138/79 51/128/73
s 4
f 52/130/75 49/129/74 53/139/80
f 53/139/80 56/140/81 52/130/75
s 17
f 53/141/82 54/142/82 58/143/82
f 58/143/82 57/144/82 53/141/82
s 2
f 54/136/78 55/135/77 59/145/83
f 59/145/83 58/146/84 54/136/78
s 3
f 55/138/79 56/137/79 60/147/85
f 60/147/85 59/148/85 55/138/79
s 4
f 56/140/81 53/139/80 57/149/86
f 57/149/86 60/150/87 56/140/81
s 18
f 149/151/88 150/152/88 151/153/88
f 151/153/88 152/154/88 149/151/88
s 2
f 58/146/84 59/145/83 63/155/89
f 63/155/89 62/156/89 58/146/84
s 3
f 59/148/85 60/147/85 64/157/90
f 64/157/90 63/158/90 59/148/85
s 4
f 60/150/87 57/149/86 61/159/91
f 61/159/91 64/160/91 60/150/87
s 19
f 61/161/92 62/162/92 66/163/92
f 66/163/92 65/164/92 61/161/92
s 2
f 62/156/89 63/155/89 67/165/93
f 67/165/93 66/166/94 62/156/89
s 3
f 63/167/90 64/168/90 68/169/95
f 68/169/95 67/170/95 63/167/90
s 4
f 64/160/91 61/159/91 65/171/96
f 65/171/96 68/172/97 64/160/91
s 20
f 153/173/98 154/174/98 155/175/98
f 155/175/98 156/176/98 153/173/98
s 2
f 66/166/94 67/165/93 71/177/99
f 71/177/99 70/178/99 66/166/94
s 3
f 67/170/95 68/169/95 72/179/100
f 72/179/100 71/180/100 67/170/95
s 4
f 68/172/97 65/171/96 69/181/101
f 69/181/101 72/182/101 68/172/97
s 21
f 69/183/102 70/184/102 74/185/102
f 74/185/102 73/186/102 69/183/102
s 2
f 70/178/99 71/177/99 75/187/103
f 75/187/103 74/188/104 70/178/99
s 3
f 71/180/100 72/179/100 76/189/105
f 76/189/105 75/190/105 71/180/100
s 4
f 72/182/101 69/181/101 73/191/106
f 73/191/106 76/192/107 72/182/101
s 22
f 157/193/108 158/194/108 159/195/108
f 159/195/108 160/196/108 157/193/108
s 2
f 74/188/104 75/187/103 79/197/109
f 79/197/109 78/198/109 74/188/104
s 3
f 75/190/105 76/189/105 80/199/110
f 80/199/110 79/200/110 75/190/105
s 4
f 76/192/107 73/191/106 77/201/111
f 77/201/111 80/202/111 76/192/107
s 23
f 77/203/112 78/204/112 82/205/112
f 82/205/112 81/206/112 77/203/112
s 2
f 78/198/109 79/197/109 83/207/113
f 83/207/113 82/208/114 78/198/109
s 3
f 79/209/110 80/210/110 84/211/115
f 84/211/115 83/212/115 79/209/110
s 4
f 80/202/111 77/201/111 81/213/116
f 81/213/116 84/214/117 80/202/111
s 24
f 161/215/118 162/216/118 163/217/118
f 163/217/118 164/218/118 161/215/118
s 2
f 82/208/114 83/207/113 87/219/119
f 87/219/119 86/220/120 82/208/114
s 3
f 83/212/115 84/211/115 88/221/121
f 88/221/121 87/222/121 83/212/115
s 4
f 84/214/117 81/213/116 85/223/122
f 85/223/122 88/224/123 84/214/117
s 25
f 85/225/124 86/226/124 90/227/124
f 90/227/124 89/228/124 85/225/124
s 2
f 86/220/120 87/219/119 91/229/125
f 91/229/125 90/230/126 86/220/120
s 3
f 87/222/121 88/221/121 92/231/127
f 92/231/127 91/232/127 87/222/121
s 4
f 88/224/123 85/223/122 89/233/128
f 89/233/128 92/234/129 88/224/123
s 26
f 165/235/130 166/236/130 167/237/130
f 167/237/130 168/238/130 165/235/130
s 2
f 90/230/126 91/229/125 95/239/131
f 95/239/131 94/240/132 90/230/126
s 3
f 91/232/127 92/231/127 96/241/133
f 96/241/133 95/242/133 91/232/127
s 4
f 92/234/129 89/233/128 93/243/134
f 93/243/134 96/244/135 92/234/129
s 27
f 93/245/136 94/246/136 98/247/136
f 98/247/136 97/248/136 93/245/136
s 2
f 94/240/132 95/239/131 99/249/137
f 99/249/137 98/250/138 94/240/132
s 3
f 95/251/133 96/252/133 100/253/139
f 100/253/139 99/254/139 95/251/133
s 4
f 96/244/135 93/243/134 97/255/140
f 97/255/140 100/256/141 96/244/135
s 28
f 169/257/142 170/258/142 171/259/142
f 171/259/142 172/260/142 169/257/142
s 2
f 98/250/138 99/249/137 103/261/143
f 103/261/143 102/262/144 98/250/138
s 3
f 99/254/139 100/253/139 104/263/145
f 104/263/145 103/264/145 99/254/139
s 4
f 100/256/141 97/255/140 101/265/146
f 101/265/146 104/266/147 100/256/141
s 29
f 101/267/148 102/268/148 106/269/148
f 106/269/148 105/270/148 101/267/148
s 2
f 102/262/144 103/261/143 107/271/149
f 107/271/149 106/272/149 102/262/144
s 3
f 103/264/145 104/263/145 108/273/150
f 108/273/150 107/274/150 103/264/145
s 4
f 104/266/147 101/265/146 105/275/151
f 105/275/151 108/276/151 104/266/147
s 30
f 173/277/152 174/278/152 175/279/152
f 175/279/152 176/280/152 173/277/152
s 2
f 106/272/149 107/271/149 111/281/153
f 111/281/153 110/282/154 106/272/149
s 3
f 107/274/150 108/273/150 112/283/155
f 112/283/155 111/284/155 107/274/150
s 4
f 108/276/151 105/275/151 109/285/156
f 109/285/156 112/286/157 108/276/151
s 31
f 109/287/158 110/288/158 114/289/158
f 114/289/158 113/290/158 109/287/158
s 2
f 110/282/154 111/281/153 115/291/159
f 115/291/159 114/292/159 110/282/154
s 3
f 111/293/155 112/294/155 116/295/160
f 116/295/160 115/296/160 111/293/155
s 4
f 112/286/157 109/285/156 113/297/161
f 113/297/161 116/298/161 112/286/157
s 32
f 177/299/162 178/300/162 179/301/162
f 179/301/162 180/302/162 177/299/162
s 2
f 114/292/159 115/291/159 119/303/163
f 119/303/163 118/304/164 114/292/159
s 3
f 115/296/160 116/295/160 120/305/165
f 120/305/165 119/306/165 115/296/160
s 4
f 116/298/161 113/297/161 117/307/166
f 117/307/166 120/308/167 116/298/161
s 33
f 117/309/168 118/310/168 2/311/168
f 2/311/168 1/312/168 117/309/168
s 2
f 118/304/164 119/303/163 3/6/2
f 3/6/2 2/5/2 118/304/164
s 3
f 119/306/165 120/305/165 4/10/5
f 4/10/5 3/9/5 119/306/165
s 4
f 120/308/167 117/307/166 1/14/7
f 1/14/7 4/13/7 120/308/167
s 34
f 6/313/169 5/314/169 122/315/169
f 122/315/169 121/316/169 6/313/169
s 35
f 5/317/170 1/318/170 123/319/170
f 123/319/170 122/320/170 5/317/170
s 36
f 1/321/171 2/322/171 124/323/171
f 124/323/171 123/324/171 1/321/171
s 37
f 2/325/172 6/326/172 121/327/172
f 121/327/172 124/328/172 2/325/172
s 38
f 9/329/173 10/330/173 126/331/173
f 126/331/173 125/332/173 9/329/173
s 39
f 10/333/174 14/334/174 127/335/174
f 127/335/174 126/336/174 10/333/174
s 40
f 14/337/175 13/338/175 128/339/175
f 128/339/175 127/340/175 14/337/175
s 41
f 13/341/176 9/342/176 125/343/176
f 125/343/176 128/344/176 13/341/176
s 42
f 17/345/177 18/346/177 130/347/177
f 130/347/177 129/348/177 17/345/177
s 43
f 18/349/178 22/350/178 131/351/178
f 131/351/178 130/352/178 18/349/178
s 44
f 22/353/179 21/354/179 132/355/179
f 132/355/179 131/356/179 22/353/179
s 45
f 21/357/180 17/358/180 129/359/180
f 129/359/180 132/360/180 21/357/180
s 46
f 25/361/181 26/362/181 134/363/181
f 134/363/181 133/364/181 25/361/181
s 47
f 26/365/182 30/366/182 135/367/182
f 135/367/182 134/368/182 26/365/182
s 48
f 30/369/183 29/370/183 136/371/183
f 136/371/183 135/372/183 30/369/183
s 49
f 29/373/184 25/374/184 133/375/184
f 133/375/184 136/376/184 29/373/184
s 50
f 33/377/185 34/378/185 138/379/185
f 138/379/185 137/380/185 33/377/185
s 51
f 34/381/186 38/382/186 139/383/186
f 139/383/186 138/384/186 34/381/186
s 52
f 38/385/187 37/386/187 140/387/187
f 140/387/187 139/388/187 38/385/187
s 53
f 37/389/188 33/390/188 137/391/188
f 137/391/188 140/392/188 37/389/188
s 54
f 41/393/189 42/394/189 142/395/189
f 142/395/189 141/396/189 41/393/189
s 55
f 42/397/190 46/398/190 143/399/190
f 143/399/190 142/400/190 42/397/190
s 56
f 46/401/191 45/402/191 144/403/191
f 144/403/191 143/404/191 46/401/191
s 57
f 45/405/192 41/406/192 141/407/192
f 141/407/192 144/408/192 45/405/192
s 58
f 49/409/193 50/410/193 146/411/193
f 146/411/193 145/412/193 49/409/193
s 59
f 50/413/194 54/414/194 147/415/194
f 147/415/194 146/416/194 50/413/194
s 60
f 54/417/195 53/418/195 148/419/195
f 148/419/195 147/420/195 54/417/195
s 61
f 53/421/196 49/422/196 145/423/196
f 145/423/196 148/424/196 53/421/196
s 62
f 57/425/197 58/426/197 150/427/197
f 150/427/197 149/428/197 57/425/197
s 63
f 58/429/198 62/430/198 151/431/198
f 151/431/198 150/432/198 58/429/198
s 64
f 62/433/199 61/434/199 152/435/199
f 152/435/199 151/436/199 62/433/199
s 65
f 61/437/200 57/438/200 149/439/200
f 149/439/200 152/440/200 61/437/200
s 66
f 65/441/201 66/442/201 154/443/201
f 154/443/201 153/444/201 65/441/201
s 67
f 66/445/202 70/446/202 155/447/202
f 155/447/202 154/448/202 66/445/202
s 68
f 70/449/203 69/450/203 156/451/203
f 156/451/203 155/452/203 70/449/203
s 69
f 69/453/204 65/454/204 153/455/204
f 153/455/204 156/456/204 69/453/204
s 70
f 73/457/205 74/458/205 158/459/205
f 158/459/205 157/460/205 73/457/205
s 71
f 74/461/206 78/462/206 159/463/206
f 159/463/206 158/464/206 74/461/206
s 72
f 78/465/207 77/466/207 160/467/207
f 160/467/207 159/468/207 78/465/207
s 73
f 77/469/208 73/470/208 157/471/208
f 157/471/208 160/472/208 77/469/208
s 74
f 81/473/209 82/474/209 162/475/209
f 162/475/209 161/476/209 81/473/209
s 75
f 82/477/210 86/478/210 163/479/210
f 163/479/210 162/480/210 82/477/210
s 76
f 86/481/211 85/482/211 164/483/211
f 164/483/211 163/484/211 86/481/211
s 77
f 85/485/212 81/486/212 161/487/212
f 161/487/212 164/488/212 85/485/212
s 78
f 89/489/213 90/490/213 166/491/213
f 166/491/213 165/492/213 89/489/213
s 79
f 90/493/214 94/494/214 167/495/214
f 167/495/214 166/496/214 90/493/214
s 80
f 94/497/215 93/498/215 168/499/215
f 168/499/215 167/500/215 94/497/215
s 81
f 93/501/216 89/502/216 165/503/216
f 165/503/216 168/504/216 93/501/216
s 82
f 97/505/217 98/506/217 170/507/217
f 170/507/217 169/508/217 97/505/217
s 83
f 98/509/218 102/510/218 171/511/218
f 171/511/218 170/512/218 98/509/218
s 84
f 102/513/219 101/514/219 172/515/219
f 172/515/219 171/516/219 102/513/219
s 85
f 101/517/220 97/518/220 169/519/220
f 169/519/220 172/520/220 101/517/220
s 86
f 105/521/221 106/522/221 174/523/221
f 174/523/221 173/524/221 105/521/221
s 87
f 106/525/222 110/526/222 175/527/222
f 175/527/222 174/528/222 106/525/222
s 88
f 110/529/223 109/530/223 176/531/223
f 176/531/223 175/532/223 110/529/223
s 89
f 109/533/224 105/534/224 173/535/224
f 173/535/224 176/536/224 109/533/224
s 90
f 113/537/225 114/538/225 178/539/225
f 178/539/225 177/540/225 113/537/225
s 91
f 114/541/226 118/542/226 179/543/226
f 179/543/226 178/544/226 114/541/226
s 92
f 118/545/227 117/546/227 180/547/227
f 180/547/227 179/548/227 118/545/227
s 93
f 117/549/228 113/550/228 177/551/228
f 177/551/228 180/552/228 117/549/228
s 94
f 181/553/90 182/554/90 186/555/95
f 186/555/95 185/556/95 181/553/90
s 95
f 182/557/229 183/558/229 187/559/229
f 187/559/229 186/560/229 182/557/229
s 96
f 183/561/5 184/562/5 188/563/6
f 188/563/6 187/564/6 183/561/5
s 97
f 184/565/230 181/566/230 185/567/230
f 185/567/230 188/568/230 184/565/230
s 94
f 185/556/95 186/555/95 190/569/100
f 190/569/100 189/570/100 185/556/95
s 95
f 186/560/229 187/559/229 191/571/229
f 191/571/229 190/572/229 186/560/229
s 96
f 187/564/6 188/563/6 192/573/13
f 192/573/13 191/574/13 187/564/6
s 97
f 188/568/230 185/567/230 189/575/230
f 189/575/230 192/576/230 188/568/230
s 94
f 189/570/100 190/569/100 194/577/105
f 194/577/105 193/578/105 189/570/100
s 95
f 190/572/229 191/571/229 195/579/229
f 195/579/229 194/580/229 190/572/229
s 96
f 191/574/13 192/573/13 196/581/19
f 196/581/19 195/582/19 191/574/13
s 97
f 192/576/230 189/575/230 193/583/230
f 193/583/230 196/584/230 192/576/230
s 94
f 193/578/105 194/577/105 198/585/110
f 198/585/110 197/586/110 193/578/105
s 95
f 194/580/229 195/579/229 199/587/229
f 199/587/229 198/588/229 194/580/229
s 96
f 195/582/19 196/581/19 200/589/25
f 200/589/25 199/590/25 195/582/19
s 97
f 196/584/230 193/583/230 197/591/230
f 197/591/230 200/592/230 196/584/230
s 94
f 197/593/110 198/594/110 202/595/115
f 202/595/115 201/596/115 197/593/110
s 95
f 198/588/229 199/587/229 203/597/229
f 203/597/229 202/598/229 198/588/229
s 96
f 199/599/25 200/600/25 204/601/31
f 204/601/31 203/602/31 199/599/25
s 97
f 200/592/230 197/591/230 201/603/230
f 201/603/230 204/604/230 200/592/230
s 94
f 201/596/115 202/595/115 206/605/121
f 206/605/121 205/606/121 201/596/115
s 95
f 202/598/229 203/597/229 207/607/229
f 207/607/229 206/608/229 202/598/229
s 96
f 203/602/31 204/601/31 208/609/37
f 208/609/37 207/610/37 203/602/31
s 97
f 204/604/230 201/603/230 205/611/230
f 205/611/230 208/612/230 204/604/230
s 94
f 205/606/121 206/605/121 210/613/127
f 210/613/127 209/614/127 205/606/121
s 95
f 206/608/229 207/607/229 211/615/229
f 211/615/229 210/616/229 206/608/229
s 96
f 207/610/37 208/609/37 212/617/43
f 212/617/43 211/618/43 207/610/37
s 97
f 208/612/230 205/611/230 209/619/230
f 209/619/230 212/620/230 208/612/230
s 94
f 209/614/127 210/613/127 214/621/133
f 214/621/133 213/622/133 209/614/127
s 95
f 210/616/229 211/615/229 215/623/229
f 215/623/229 214/624/229 210/616/229
s 96
f 211/618/43 212/617/43 216/625/49
f 216/625/49 215/626/49 211/618/43
s 97
f 212/620/230 209/619/230 213/627/230
f 213/627/230 216/628/230 212/620/230
s 94
f 213/629/133 214/630/133 218/631/139
f 218/631/139 217/632/139 213/629/133
s 95
f 214/624/229 215/623/229 219/633/229
f 219/633/229 218/634/229 214/624/229
s 96
f 215/635/49 216/636/49 220/637/55
f 220/637/55 219/638/55 215/635/49
s 97
f 216/628/230 213/627/230 217/639/230
f 217/639/230 220/640/230 216/628/230
s 94
f 217/632/139 218/631/139 222/641/145
f 222/641/145 221/642/145 217/632/139
s 95
f 218/634/229 219/633/229 223/643/229
f 223/643/229 222/644/229 218/634/229
s 96
f 219/638/55 220/637/55 224/645/61
f 224/645/61 223/646/61 219/638/55
s 97
f 220/640/230 217/639/230 221/647/230
f 221/647/230 224/648/230 220/640/230
s 94
f 221/642/145 222/641/145 226/649/150
f 226/649/150 225/650/150 221/642/145
s 95
f 222/644/229 223/643/229 227/651/229
f 227/651/229 226/652/229 222/644/229
s 96
f 223/646/61 224/645/61 228/653/67
f 228/653/67 227/654/67 223/646/61
s 97
f 224/648/230 221/647/230 225/655/230
f 225/655/230 228/656/230 224/648/230
s 94
f 225/650/150 226/649/150 230/657/155
f 230/657/155 229/658/155 225/650/150
s 95
f 226/652/229 227/651/229 231/659/229
f 231/659/229 230/660/229 226/652/229
s 96
f 227/654/67 228/653/67 232/661/73
f 232/661/73 231/662/73 227/654/67
s 97
f 228/656/230 225/655/230 229/663/230
f 229/663/230 232/664/230 228/656/230
s 94
f 229/665/155 230/666/155 234/667/160
f 234/667/160 233/668/160 229/665/155
s 95
f 230/660/229 231/659/229 235/669/229
f 235/669/229 234/670/229 230/660/229
s 96
f 231/671/73 232/672/73 236/673/79
f 236/673/79 235/674/79 231/671/73
s 97
f 232/664/230 229/663/230 233/675/230
f 233/675/230 236/676/230 232/664/230
s 94
f 233/668/160 234/667/160 238/677/165
f 238/677/165 237/678/165 233/668/160
s 95
f 234/670/229 235/669/229 239/679/229
f 239/679/229 238/680/229 234/670/229
s 96
f 235/674/79 236/673/79 240/681/85
f 240/681/85 239/682/85 235/674/79
s 97
f 236/676/230 233/675/230 237/683/230
f 237/683/230 240/684/230 236/676/230
s 94
f 237/678/165 238/677/165 242/685/5
f 242/685/5 241/686/5 237/678/165
s 95
f 238/680/229 239/679/229 243/687/229
f 243/687/229 242/688/229 238/680/229
s 96
f 239/682/85 240/681/85 244/689/90
f 244/689/90 243/690/90 239/682/85
s 97
f 240/684/230 237/683/230 241/691/230
f 241/691/230 244/692/230 240/684/230
s 94
f 241/686/5 242/685/5 246/693/6
f 246/693/6 245/694/6 241/686/5
s 95
f 242/688/229 243/687/229 247/695/229
f 247/695/229 246/696/229 242/688/229
s 96
f 243/690/90 244/689/90 248/697/95
f 248/697/95 247/698/95 243/690/90
s 97
f 244/692/230 241/691/230 245/699/230
f 245/699/230 248/700/230 244/692/230
s 94
f 245/701/6 246/702/6 250/703/13
f 250/703/13 249/704/13 245/701/6
s 95
f 246/696/229 247/695/229 251/705/229
f 251/705/229 250/706/229 246/696/229
s 96
f 247/707/95 248/708/95 252/709/100
f 252/709/100 251/710/100 247/707/95
s 97
f 248/700/230 245/699/230 249/711/230
f 249/711/230 252/712/230 248/700/230
s 94
f 249/704/13 250/703/13 254/713/19
f 254/713/19 253/714/19 249/704/13
s 95
f 250/706/229 251/705/229 255/715/229
f 255/715/229 254/716/229 250/706/229
s 96
f 251/710/100 252/709/100 256/717/105
f 256/717/105 255/718/105 251/710/100
s 97
f 252/712/230 249/711/230 253/719/230
f 253/719/230 256/720/230 252/712/230
s 94
f 253/714/19 254/713/19 258/721/25
f 258/721/25 257/722/25 253/714/19
s 95
f 254/716/229 255/715/229 259/723/229
f 259/723/229 258/724/229 254/716/229
s 96
f 255/718/105 256/717/105 260/725/110
f 260/725/110 259/726/110 255/718/105
s 97
f 256/720/230 253/719/230 257/727/230
f 257/727/230 260/728/230 256/720/230
s 94
f 257/722/25 258/721/25 262/729/31
f 262/729/31 261/730/31 257/722/25
s 95
f 258/724/229 259/723/229 263/731/229
f 263/731/229 262/732/229 258/724/229
s 96
f 259/733/110 260/734/110 264/735/115
f 264/735/115 263/736/115 259/733/110
s 97
f 260/728/230 257/727/230 261/737/230
f 261/737/230 264/738/230 260/728/230
s 94
f 261/739/31 262/740/31 266/741/37
f 266/741/37 265/742/37 261/739/31
s 95
f 262/732/229 263/731/229 267/743/229
f 267/743/229 266/744/229 262/732/229
s 96
f 263/736/115 264/735/115 268/745/121
f 268/745/121 267/746/121 263/736/115
s 97
f 264/738/230 261/737/230 265/747/230
f 265/747/230 268/748/230 264/738/230
s 94
f 265/742/37 266/741/37 270/749/43
f 270/749/43 269/750/43 265/742/37
s 95
f 266/744/229 267/743/229 271/751/229
f 271/751/229 270/752/229 266/744/229
s 96
f 267/746/121 268/745/121 272/753/127
f 272/753/127 271/754/127 267/746/121
s 97
f 268/748/230 265/747/230 269/755/230
f 269/755/230 272/756/230 268/748/230
s 94
f 269/750/43 270/749/43 274/757/49
f 274/757/49 273/758/49 269/750/43
s 95
f 270/752/229 271/751/229 275/759/229
f 275/759/229 274/760/229 270/752/229
s 96
f 271/754/127 272/753/127 276/761/133
f 276/761/133 275/762/133 271/754/127
s 97
f 272/756/230 269/755/230 273/763/230
f 273/763/230 276/764/230 272/756/230
s 94
f 273/758/49 274/757/49 278/765/55
f 278/765/55 277/766/55 273/758/49
s 95
f 274/760/229 275/759/229 279/767/229
f 279/767/229 278/768/229 274/760/229
s 96
f 275/762/133 276/761/133 280/769/139
f 280/769/139 279/770/139 275/762/133
s 97
f 276/764/230 273/763/230 277/771/230
f 277/771/230 280/772/230 276/764/230
s 94
f 277/773/55 278/774/55 282/775/61
f 282/775/61 281/776/61 277/773/55
s 95
f 278/768/229 279/767/229 283/777/229
f 283/777/229 282/778/229 278/768/229
s 96
f 279/770/139 280/769/139 284/779/145
f 284/779/145 283/780/145 279/770/139
s 97
f 280/772/230 277/771/230 281/781/230
f 281/781/230 284/782/230 280/772/230
s 94
f 281/776/61 282/775/61 286/783/67
f 286/783/67 285/784/67 281/776/61
s 95
f 282/778/229 283/777/229 287/785/229
f 287/785/229 286/786/229 282/778/229
s 96
f 283/780/145 284/779/145 288/787/150
f 288/787/150 287/788/150 283/780/145
s 97
f 284/782/230 281/781/230 285/789/230
f 285/789/230 288/790/230 284/782/230
s 94
f 285/784/67 286/783/67 290/791/73
f 290/791/73 289/792/73 285/784/67
s 95
f 286/786/229 287/785/229 291/793/229
f 291/793/229 290/794/229 286/786/229
s 96
f 287/795/150 288/796/150 292/797/155
f 292/797/155 291/798/155 287/795/150
s 97
f 288/790/230 285/789/230 289/799/230
f 289/799/230 292/800/230 288/790/230
s 94
f 289/801/73 290/802/73 294/803/79
f 294/803/79 293/804/79 289/801/73
s 95
f 290/794/229 291/793/229 295/805/229
f 295/805/229 294/806/229 290/794/229
s 96
f 291/807/155 292/808/155 296/809/160
f 296/809/160 295/810/160 291/807/155
s 97
f 292/800/230 289/799/230 293/811/230
f 293/811/230 296/812/230 292/800/230
s 94
f 293/804/79 294/803/79 298/813/85
f 298/813/85 297/814/85 293/804/79
s 95
f 294/806/229 295/805/229 299/815/229
f 299/815/229 298/816/229 294/806/229
s 96
f 295/810/160 296/809/160 300/817/165
f 300/817/165 299/818/165 295/810/160
s 97
f 296/812/230 293/811/230 297/819/230
f 297/819/230 300/820/230 296/812/230
s 94
f 297/814/85 298/813/85 182/554/90
f 182/554/90 181/553/90 297/814/85
s 95
f 298/816/229 299/815/229 183/558/229
f 183/558/229 182/557/229 298/816/229
s 96
f 299/818/165 300/817/165 184/562/5
f 184/562/5 183/561/5 299/818/165
s 97
f 300/820/230 297/819/230 181/566/230
f 181/566/230 184/565/230 300/820/230
s 98
f 301/821/46 302/822/231 320/823/231
f 320/823/231 319/824/46 301/821/46
f 302/822/231 303/825/232 321/826/232
f 321/826/232 320/823/231 302/822/231
f 303/827/232 304/828/16 322/829/16
f 322/829/16 321/830/232 303/827/232
f 304/828/16 305/831/233 323/832/234
f 323/832/234 322/829/16 304/828/16
f 305/831/233 306/833/235 324/834/236
f 324/834/236 323/832/234 305/831/233
f 306/833/235 307/835/158 325/836/158
f 325/836/158 324/834/236 306/833/235
f 307/835/158 308/837/237 326/838/237
f 326/838/237 325/836/158 307/835/158
f 308/839/237 309/840/238 327/841/238
f 327/841/238 326/842/237 308/839/237
f 309/840/238 310/843/130 328/844/130
f 328/844/130 327/841/238 309/840/238
f 310/843/130 311/845/239 329/846/239
f 329/846/239 328/844/130 310/843/130
f 311/847/239 312/848/240 330/849/240
f 330/849/240 329/850/239 311/847/239
f 312/851/240 313/852/102 331/853/102
f 331/853/102 330/854/240 312/851/240
f 313/852/102 314/855/241 332/856/242
f 332/856/242 331/853/102 313/852/102
f 314/855/241 315/857/243 333/858/244
f 333/858/244 332/856/242 314/855/241
f 315/857/243 316/859/76 334/860/76
f 334/860/76 333/858/244 315/857/243
f 316/859/76 317/861/245 335/862/245
f 335/862/245 334/860/76 316/859/76
f 317/863/245 318/864/246 336/865/246
f 336/865/246 335/866/245 317/863/245
f 318/864/246 301/821/46 319/824/46
f 319/824/46 336/865/246 318/864/246
s 99
f 317/867/230 316/868/230 315/869/230
f 315/869/230 314/870/230 313/871/230
f 313/871/230 312/872/230 311/873/230
f 315/869/230 313/871/230 311/873/230
f 311/873/230 310/874/230 309/875/230
f 309/875/230 308/876/230 307/877/230
f 311/873/230 309/875/230 307/877/230
f 307/877/230 306/878/230 305/879/230
f 305/879/230 304/880/230 303/881/230
f 307/877/230 305/879/230 303/881/230
f 311/873/230 307/877/230 303/881/230
f 315/869/230 311/873/230 303/881/230
f 303/881/230 302/882/230 301/883/230
f 315/869/230 303/881/230 301/883/230
f 317/867/230 315/869/230 301/883/230
f 318/884/230 317/867/230 301/883/230
s 100
f 320/885/229 321/886/229 322/887/229
f 322/887/229 323/888/229 324/889/229
f 324/889/229 325/890/229 326/891/229
f 322/887/229 324/889/229 326/891/229
f 326/891/229 327/892/229 328/893/229
f 328/893/229 329/894/229 330/895/229
f 326/891/229 328/893/229 330/895/229
f 330/895/229 331/896/229 332/897/229
f 332/897/229 333/898/229 334/899/229
f 330/895/229 332/897/229 334/899/229
f 326/891/229 330/895/229 334/899/229
f 322/887/229 326/891/229 334/899/229
f 334/899/229 335/900/229 336/901/229
f 322/887/229 334/899/229 336/901/229
f 320/885/229 322/887/229 336/901/229
f 319/902/229 320/885/229 336/901/229
s 101
f 337/903/230 339/904/230 340/905/230
f 340/905/230 338/906/230 337/903/230
s 102
f 341/907/229 342/908/229 344/909/229
f 344/909/229 343/910/229 341/907/229
s 103
f 337/911/46 338/912/46 342/913/46
f 342/913/46 341/914/46 337/911/46
s 104
f 338/915/90 340/916/90 344/917/90
f 344/917/90 342/918/90 338/915/90
s 105
f 340/919/130 339/920/130 343/921/130
f 343/921/130 344/922/130 340/919/130
s 106
f 339/923/5 337/924/5 341/925/5
f 341/925/5 343/926/5 339/923/5
s 107
f 345/927/230 346/928/230 347/929/230
f 347/929/230 348/930/230 345/927/230
s 108
f 349/931/229 350/932/229 351/933/229
f 351/933/229 352/934/229 349/931/229
s 109
f 345/935/247 348/936/247 350/937/247
f 350/937/247 349/938/247 345/935/247
s 110
f 348/939/248 347/940/248 351/941/248
f 351/941/248 350/942/248 348/939/248
s 111
f 347/943/249 346/944/249 352/945/249
f 352/945/249 351/946/249 347/943/249
s 112
f 346/947/250 345/948/250 349/949/250
f 349/949/250 352/950/250 346/947/250
s 113
f 353/951/230 354/952/230 355/953/230
f 355/953/230 356/954/230 353/951/230
s 114
f 357/955/229 358/956/229 359/957/229
f 359/957/229 360/958/229 357/955/229
s 115
f 353/959/5 356/960/5 358/961/5
f 358/961/5 357/962/5 353/959/5
s 116
f 356/963/46 355/964/46 359/965/46
f 359/965/46 358/966/46 356/963/46
s 117
f 355/967/90 354/968/90 360/969/90
f 360/969/90 359/970/90 355/967/90
s 118
f 354/971/130 353/972/130 357/973/130
f 357/973/130 360/974/130 354/971/130
s 119
f 361/975/230 362/976/230 363/977/230
f 363/977/230 364/978/230 361/975/230
s 120
f 365/979/229 366/980/229 367/981/229
f 367/981/229 368/982/229 365/979/229
s 121
f 361/983/250 364/984/250 366/985/250
f 366/985/250 365/986/250 361/983/250
s 122
f 364/987/247 363/988/247 367/989/247
f 367/989/247 366/990/247 364/987/247
s 123
f 363/991/248 362/992/248 368/993/248
f 368/993/248 367/994/248 363/991/248
s 124
f 362/995/249 361/996/249 365/997/249
f 365/997/249 368/998/249 362/995/249
