# Blender 5.0.1
# www.blender.org
mtllib engranaje_1.mtl
g Engranaje1_2_Malla
v 0.009839 0.556115 -0.051418
v 0.009839 0.556115 0.026246
v 0.011497 0.455949 0.021787
v 0.011497 0.455949 -0.046959
v 0.131528 0.543325 -0.051418
v 0.131528 0.543325 0.026246
v 0.109081 0.445693 0.021787
v 0.109081 0.445693 -0.046959
v 0.241626 0.507552 -0.051418
v 0.241626 0.507552 0.026246
v 0.202399 0.415372 0.021787
v 0.202399 0.415372 -0.046959
v 0.347592 0.446372 -0.051418
v 0.347592 0.446372 0.026246
v 0.287375 0.366311 0.021787
v 0.287375 0.366311 -0.046959
v 0.433621 0.368911 -0.051418
v 0.433621 0.368911 0.026246
v 0.360293 0.300655 0.021787
v 0.360293 0.300655 -0.046959
v 0.505542 0.269921 -0.051418
v 0.505542 0.269921 0.026246
v 0.417967 0.221274 0.021787
v 0.417967 0.221274 -0.046959
v 0.552627 0.164165 -0.051418
v 0.552627 0.164165 0.026246
v 0.457876 0.131636 0.021787
v 0.457876 0.131636 -0.046959
v 0.578067 0.044480 -0.051418
v 0.578067 0.044480 0.026246
v 0.478277 0.035659 0.021787
v 0.478277 0.035659 -0.046959
v 0.578067 -0.071284 -0.051418
v 0.578067 -0.071284 0.026246
v 0.478277 -0.062462 0.021787
v 0.478277 -0.062462 -0.046959
v 0.552627 -0.190969 -0.051418
v 0.552627 -0.190969 0.026246
v 0.457876 -0.158439 0.021787
v 0.457876 -0.158439 -0.046959
v 0.505542 -0.296724 -0.051418
v 0.505542 -0.296724 0.026246
v 0.417967 -0.248077 0.021787
v 0.417967 -0.248077 -0.046959
v 0.433621 -0.395715 -0.051418
v 0.433621 -0.395715 0.026246
v 0.360293 -0.327459 0.021787
v 0.360293 -0.327459 -0.046959
v 0.347592 -0.473176 -0.051418
v 0.347592 -0.473176 0.026246
v 0.287375 -0.393115 0.021787
v 0.287375 -0.393115 -0.046959
v 0.241626 -0.534355 -0.051418
v 0.241626 -0.534355 0.026246
v 0.202399 -0.442175 0.021787
v 0.202399 -0.442175 -0.046959
v 0.131528 -0.570129 -0.051418
v 0.131528 -0.570129 0.026246
v 0.109081 -0.472496 0.021787
v 0.109081 -0.472496 -0.046959
v 0.009839 -0.582919 -0.051418
v 0.009839 -0.582919 0.026246
v 0.011497 -0.482753 0.021787
v 0.011497 -0.482753 -0.046959
v -0.105291 -0.570818 -0.051418
v -0.105291 -0.570818 0.026246
v -0.086086 -0.472496 0.021787
v -0.086086 -0.472496 -0.046959
v -0.221661 -0.533007 -0.051418
v -0.221661 -0.533007 0.026246
v -0.179405 -0.442175 0.021787
v -0.179405 -0.442175 -0.046959
v -0.321915 -0.475125 -0.051418
v -0.321915 -0.475125 0.026246
v -0.264381 -0.393115 0.021787
v -0.264381 -0.393115 -0.046959
v -0.412845 -0.393251 -0.051418
v -0.412845 -0.393251 0.026246
v -0.337299 -0.327459 0.021787
v -0.337299 -0.327459 -0.046959
v -0.480890 -0.299596 -0.051418
v -0.480890 -0.299596 0.026246
v -0.394973 -0.248077 0.021787
v -0.394973 -0.248077 -0.046959
v -0.530658 -0.187815 -0.051418
v -0.530658 -0.187815 0.026246
v -0.434882 -0.158439 0.021787
v -0.434882 -0.158439 -0.046959
v -0.554726 -0.074581 -0.051418
v -0.554726 -0.074581 0.026246
v -0.455283 -0.062462 0.021787
v -0.455283 -0.062462 -0.046959
v -0.554726 0.047778 -0.051418
v -0.554726 0.047778 0.026246
v -0.455283 0.035659 0.021787
v -0.455283 0.035659 -0.046959
v -0.530658 0.161012 -0.051418
v -0.530658 0.161012 0.026246
v -0.434882 0.131636 0.021787
v -0.434882 0.131636 -0.046959
v -0.480890 0.272792 -0.051418
v -0.480890 0.272792 0.026246
v -0.394973 0.221274 0.021787
v -0.394973 0.221274 -0.046959
v -0.412845 0.366447 -0.051418
v -0.412845 0.366447 0.026246
v -0.337299 0.300655 0.021787
v -0.337299 0.300655 -0.046959
v -0.321915 0.448321 -0.051418
v -0.321915 0.448321 0.026246
v -0.264381 0.366311 0.021787
v -0.264381 0.366311 -0.046959
v -0.221661 0.506203 -0.051418
v -0.221661 0.506203 0.026246
v -0.179405 0.415372 0.021787
v -0.179405 0.415372 -0.046959
v -0.105291 0.544014 -0.051418
v -0.105291 0.544014 0.026246
v -0.086087 0.445693 0.021787
v -0.086087 0.445693 -0.046959
v 0.117276 0.688044 0.025905
v 0.117276 0.688044 -0.051077
v 0.053868 0.694708 -0.051077
v 0.053868 0.694708 0.025905
v 0.338219 0.616255 -0.051077
v 0.338219 0.616255 0.025905
v 0.393435 0.584376 0.025905
v 0.393435 0.584376 -0.051077
v 0.566077 0.428928 -0.051077
v 0.566077 0.428928 0.025905
v 0.603553 0.377348 0.025905
v 0.603553 0.377348 -0.051077
v 0.698043 0.165119 -0.051077
v 0.698043 0.165119 0.025905
v 0.711299 0.102755 0.025905
v 0.711299 0.102755 -0.051077
v 0.711299 -0.129558 -0.051077
v 0.711299 -0.129558 0.025905
v 0.698043 -0.191923 0.025905
v 0.698043 -0.191923 -0.051077
v 0.603553 -0.404151 -0.051077
v 0.603553 -0.404151 0.025905
v 0.566077 -0.455732 0.025905
v 0.566077 -0.455732 -0.051077
v 0.393435 -0.611180 -0.051077
v 0.393435 -0.611180 0.025905
v 0.338219 -0.643059 0.025905
v 0.338219 -0.643059 -0.051077
v 0.117276 -0.714847 -0.051077
v 0.117276 -0.714847 0.025905
v 0.053868 -0.721512 0.025905
v 0.053868 -0.721512 -0.051077
v -0.177172 -0.697228 -0.051077
v -0.177172 -0.697228 0.025905
v -0.237809 -0.677526 0.025905
v -0.237809 -0.677526 -0.051077
v -0.438998 -0.561370 -0.051077
v -0.438998 -0.561370 0.025905
v -0.486379 -0.518708 0.025905
v -0.486379 -0.518708 -0.051077
v -0.622930 -0.330763 -0.051077
v -0.622930 -0.330763 0.025905
v -0.648862 -0.272517 0.025905
v -0.648862 -0.272517 -0.051077
v -0.697163 -0.045281 -0.051077
v -0.697163 -0.045281 0.025905
v -0.697163 0.018477 0.025905
v -0.697163 0.018477 -0.051077
v -0.648862 0.245713 -0.051077
v -0.648862 0.245713 0.025905
v -0.622930 0.303959 0.025905
v -0.622930 0.303959 -0.051077
v -0.486379 0.491904 -0.051077
v -0.486379 0.491904 0.025905
v -0.438998 0.534566 0.025905
v -0.438998 0.534566 -0.051077
v -0.237810 0.650723 -0.051077
v -0.237810 0.650723 0.025905
v -0.177173 0.670425 0.025905
v -0.177173 0.670425 -0.051077
v 0.329977 -0.013487 -0.027036
v 0.310448 0.097271 -0.027036
v 0.254215 0.194669 -0.027036
v 0.168061 0.266961 -0.027036
v 0.062378 0.305426 -0.027036
v -0.050088 0.305426 -0.027036
v -0.155771 0.266961 -0.027036
v -0.241925 0.194669 -0.027036
v -0.298158 0.097271 -0.027036
v -0.317687 -0.013487 -0.027036
v -0.298158 -0.124244 -0.027036
v -0.241925 -0.221642 -0.027036
v -0.155771 -0.293934 -0.027036
v -0.050088 -0.332399 -0.027036
v 0.062378 -0.332399 -0.027036
v 0.168061 -0.293934 -0.027036
v 0.254215 -0.221642 -0.027036
v 0.310448 -0.124244 -0.027036
v 0.329977 -0.013487 -0.002352
v 0.310448 0.097271 -0.002352
v 0.254215 0.194669 -0.002352
v 0.168061 0.266961 -0.002352
v 0.062378 0.305426 -0.002352
v -0.050088 0.305426 -0.002352
v -0.155771 0.266961 -0.002352
v -0.241925 0.194669 -0.002352
v -0.298158 0.097271 -0.002352
v -0.317687 -0.013487 -0.002352
v -0.298158 -0.124244 -0.002352
v -0.241925 -0.221642 -0.002352
v -0.155771 -0.293934 -0.002352
v -0.050088 -0.332399 -0.002352
v 0.062378 -0.332399 -0.002352
v 0.168061 -0.293934 -0.002352
v 0.254215 -0.221642 -0.002352
v 0.310448 -0.124244 -0.002352
v 0.005340 0.407440 -0.051418
v 0.005340 0.407440 -0.001844
v 0.005340 0.377831 -0.001844
v 0.005340 0.377831 -0.051418
v 0.093058 0.398220 -0.051418
v 0.093058 0.398220 -0.001844
v 0.086902 0.369259 -0.001844
v 0.086902 0.369259 -0.051418
v 0.176943 0.370964 -0.051418
v 0.176943 0.370964 -0.001844
v 0.164900 0.343916 -0.001844
v 0.164900 0.343916 -0.051418
v 0.253328 0.326864 -0.051418
v 0.253328 0.326864 -0.001844
v 0.235924 0.302910 -0.001844
v 0.235924 0.302910 -0.051418
v 0.318874 0.267845 -0.051418
v 0.318874 0.267845 -0.001844
v 0.296871 0.248034 -0.001844
v 0.296871 0.248034 -0.051418
v 0.370717 0.196489 -0.051418
v 0.370717 0.196489 -0.001844
v 0.345076 0.181685 -0.001844
v 0.345076 0.181685 -0.051418
v 0.406592 0.115913 -0.051418
v 0.406592 0.115913 -0.001844
v 0.378433 0.106764 -0.001844
v 0.378433 0.106764 -0.051418
v 0.424930 0.029639 -0.051418
v 0.424930 0.029639 -0.001844
v 0.395484 0.026544 -0.001844
v 0.395484 0.026544 -0.051418
v 0.424930 -0.058562 -0.051418
v 0.424930 -0.058562 -0.001844
v 0.395484 -0.055468 -0.001844
v 0.395484 -0.055468 -0.051418
v 0.406592 -0.144837 -0.051418
v 0.406592 -0.144837 -0.001844
v 0.378433 -0.135687 -0.001844
v 0.378433 -0.135687 -0.051418
v 0.370717 -0.225413 -0.051418
v 0.370717 -0.225413 -0.001844
v 0.345076 -0.210608 -0.001844
v 0.345076 -0.210608 -0.051418
v 0.318874 -0.296769 -0.051418
v 0.318874 -0.296769 -0.001844
v 0.296871 -0.276957 -0.001844
v 0.296871 -0.276957 -0.051418
v 0.253328 -0.355787 -0.051418
v 0.253328 -0.355787 -0.001844
v 0.235924 -0.331834 -0.001844
v 0.235924 -0.331834 -0.051418
v 0.176943 -0.399888 -0.051418
v 0.176943 -0.399888 -0.001844
v 0.164900 -0.372840 -0.001844
v 0.164900 -0.372840 -0.051418
v 0.093058 -0.427144 -0.051418
v 0.093058 -0.427144 -0.001844
v 0.086902 -0.398183 -0.001844
v 0.086902 -0.398183 -0.051418
v 0.005340 -0.436363 -0.051418
v 0.005340 -0.436363 -0.001844
v 0.005340 -0.406755 -0.001844
v 0.005340 -0.406755 -0.051418
v -0.082378 -0.427144 -0.051418
v -0.082378 -0.427144 -0.001844
v -0.076222 -0.398183 -0.001844
v -0.076222 -0.398183 -0.051418
v -0.166263 -0.399888 -0.051418
v -0.166263 -0.399888 -0.001844
v -0.154220 -0.372840 -0.001844
v -0.154220 -0.372840 -0.051418
v -0.242647 -0.355787 -0.051418
v -0.242647 -0.355787 -0.001844
v -0.225244 -0.331834 -0.001844
v -0.225244 -0.331834 -0.051418
v -0.308194 -0.296769 -0.051418
v -0.308194 -0.296769 -0.001844
v -0.286191 -0.276957 -0.001844
v -0.286191 -0.276957 -0.051418
v -0.360037 -0.225413 -0.051418
v -0.360037 -0.225413 -0.001844
v -0.334396 -0.210608 -0.001844
v -0.334396 -0.210608 -0.051418
v -0.395912 -0.144837 -0.051418
v -0.395912 -0.144837 -0.001844
v -0.367753 -0.135687 -0.001844
v -0.367753 -0.135687 -0.051418
v -0.414250 -0.058562 -0.051418
v -0.414250 -0.058562 -0.001844
v -0.384804 -0.055468 -0.001844
v -0.384804 -0.055468 -0.051418
v -0.414250 0.029639 -0.051418
v -0.414250 0.029639 -0.001844
v -0.384804 0.026544 -0.001844
v -0.384804 0.026544 -0.051418
v -0.395912 0.115913 -0.051418
v -0.395912 0.115913 -0.001844
v -0.367753 0.106764 -0.001844
v -0.367753 0.106764 -0.051418
v -0.360037 0.196489 -0.051418
v -0.360037 0.196489 -0.001844
v -0.334396 0.181685 -0.001844
v -0.334396 0.181685 -0.051418
v -0.308194 0.267845 -0.051418
v -0.308194 0.267845 -0.001844
v -0.286191 0.248034 -0.001844
v -0.286191 0.248034 -0.051418
v -0.242648 0.326864 -0.051418
v -0.242648 0.326864 -0.001844
v -0.225244 0.302910 -0.001844
v -0.225244 0.302910 -0.051418
v -0.166263 0.370964 -0.051418
v -0.166263 0.370964 -0.001844
v -0.154220 0.343916 -0.001844
v -0.154220 0.343916 -0.051418
v -0.082379 0.398220 -0.051418
v -0.082379 0.398220 -0.001844
v -0.076223 0.369259 -0.001844
v -0.076223 0.369259 -0.051418
vn 0.1045 0.9945 -0.0000
vn -0.0000 -0.0445 0.9990
vn -0.0001 -0.0445 0.9990
vn -0.0092 -0.0435 0.9990
vn -0.0093 -0.0435 0.9990
vn -0.0000 -1.0000 -0.0000
vn -0.2079 -0.9781 -0.0000
vn -0.0001 -0.0445 -0.9990
vn -0.0000 -0.0445 -0.9990
vn -0.0093 -0.0435 -0.9990
vn -0.0092 -0.0435 -0.9990
vn 0.3090 0.9511 -0.0000
vn -0.0181 -0.0406 0.9990
vn -0.0180 -0.0406 0.9990
vn -0.4067 -0.9135 -0.0000
vn -0.0180 -0.0406 -0.9990
vn -0.0181 -0.0406 -0.9990
vn 0.5000 0.8660 -0.0000
vn -0.0261 -0.0360 0.9990
vn -0.0262 -0.0359 0.9990
vn -0.5878 -0.8090 -0.0000
vn -0.0262 -0.0359 -0.9990
vn -0.0261 -0.0360 -0.9990
vn 0.6691 0.7431 -0.0000
vn -0.0331 -0.0297 0.9990
vn -0.0330 -0.0298 0.9990
vn -0.7431 -0.6691 -0.0000
vn -0.0330 -0.0298 -0.9990
vn -0.0331 -0.0297 -0.9990
vn 0.8090 0.5878 -0.0000
vn -0.0385 -0.0223 0.9990
vn -0.0385 -0.0222 0.9990
vn -0.8660 -0.5000 -0.0000
vn -0.0385 -0.0222 -0.9990
vn -0.0385 -0.0223 -0.9990
vn 0.9135 0.4067 -0.0000
vn -0.0423 -0.0137 0.9990
vn -0.0423 -0.0138 0.9990
vn -0.9511 -0.3090 -0.0000
vn -0.0423 -0.0138 -0.9990
vn -0.0423 -0.0137 -0.9990
vn 0.9781 0.2079 -0.0000
vn -0.0442 -0.0047 0.9990
vn -0.0442 -0.0046 0.9990
vn -0.9945 -0.1045 -0.0000
vn -0.0442 -0.0046 -0.9990
vn -0.0442 -0.0047 -0.9990
vn 1.0000 -0.0000 -0.0000
vn -0.0442 0.0047 0.9990
vn -0.0442 0.0046 0.9990
vn -0.9945 0.1045 -0.0000
vn -0.0442 0.0046 -0.9990
vn -0.0442 0.0047 -0.9990
vn 0.9781 -0.2079 -0.0000
vn -0.0423 0.0137 0.9990
vn -0.0423 0.0138 0.9990
vn -0.9511 0.3090 -0.0000
vn -0.0423 0.0138 -0.9990
vn -0.0423 0.0137 -0.9990
vn 0.9135 -0.4067 -0.0000
vn -0.0385 0.0223 0.9990
vn -0.0385 0.0222 0.9990
vn -0.8660 0.5000 -0.0000
vn -0.0385 0.0222 -0.9990
vn -0.0385 0.0223 -0.9990
vn 0.8090 -0.5878 -0.0000
vn -0.0331 0.0297 0.9990
vn -0.0330 0.0298 0.9990
vn -0.7431 0.6691 -0.0000
vn -0.0330 0.0298 -0.9990
vn -0.0331 0.0297 -0.9990
vn 0.6691 -0.7431 -0.0000
vn -0.0261 0.0360 0.9990
vn -0.0262 0.0359 0.9990
vn -0.5878 0.8090 -0.0000
vn -0.0262 0.0359 -0.9990
vn -0.0261 0.0360 -0.9990
vn 0.5000 -0.8660 -0.0000
vn -0.0181 0.0406 0.9990
vn -0.0180 0.0406 0.9990
vn -0.4067 0.9135 -0.0000
vn -0.0180 0.0406 -0.9990
vn -0.0181 0.0406 -0.9990
vn 0.3090 -0.9511 -0.0000
vn -0.0092 0.0435 0.9990
vn -0.0093 0.0435 0.9990
vn -0.2079 0.9781 -0.0000
vn -0.0093 0.0435 -0.9990
vn -0.0092 0.0435 -0.9990
vn 0.1045 -0.9945 -0.0000
vn -0.0001 0.0445 0.9990
vn -0.0000 0.0445 0.9990
vn -0.0000 1.0000 -0.0000
vn -0.0000 0.0445 -0.9990
vn -0.0001 0.0445 -0.9990
vn -0.1045 -0.9945 -0.0000
vn 0.0093 0.0435 0.9990
vn 0.0092 0.0435 0.9990
vn 0.2079 0.9781 -0.0000
vn 0.0092 0.0435 -0.9990
vn 0.0093 0.0435 -0.9990
vn -0.3090 -0.9511 -0.0000
vn 0.0180 0.0406 0.9990
vn 0.0181 0.0406 0.9990
vn 0.4067 0.9135 -0.0000
vn 0.0181 0.0406 -0.9990
vn 0.0180 0.0406 -0.9990
vn -0.5000 -0.8660 -0.0000
vn 0.0262 0.0359 0.9990
vn 0.0261 0.0360 0.9990
vn 0.5878 0.8090 -0.0000
vn 0.0261 0.0360 -0.9990
vn 0.0262 0.0359 -0.9990
vn -0.6691 -0.7431 -0.0000
vn 0.0330 0.0298 0.9990
vn 0.0331 0.0297 0.9990
vn 0.7431 0.6691 -0.0000
vn 0.0331 0.0297 -0.9990
vn 0.0330 0.0298 -0.9990
vn -0.8090 -0.5878 -0.0000
vn 0.0385 0.0222 0.9990
vn 0.0385 0.0223 0.9990
vn 0.8660 0.5000 -0.0000
vn 0.0385 0.0223 -0.9990
vn 0.0385 0.0222 -0.9990
vn -0.9135 -0.4067 -0.0000
vn 0.0423 0.0138 0.9990
vn 0.0423 0.0137 0.9990
vn 0.9511 0.3090 -0.0000
vn 0.0423 0.0137 -0.9990
vn 0.0423 0.0138 -0.9990
vn -0.9781 -0.2079 -0.0000
vn 0.0442 0.0046 0.9990
vn 0.0442 0.0047 0.9990
vn 0.9945 0.1045 -0.0000
vn 0.0442 0.0047 -0.9990
vn 0.0442 0.0046 -0.9990
vn -1.0000 -0.0000 -0.0000
vn 0.0442 -0.0046 0.9990
vn 0.0442 -0.0047 0.9990
vn 0.9945 -0.1045 -0.0000
vn 0.0442 -0.0047 -0.9990
vn 0.0442 -0.0046 -0.9990
vn -0.9781 0.2079 -0.0000
vn 0.0423 -0.0138 0.9990
vn 0.0423 -0.0137 0.9990
vn 0.9511 -0.3090 -0.0000
vn 0.0423 -0.0137 -0.9990
vn 0.0423 -0.0138 -0.9990
vn -0.9135 0.4067 -0.0000
vn 0.0385 -0.0222 0.9990
vn 0.0385 -0.0223 0.9990
vn 0.8660 -0.5000 -0.0000
vn 0.0385 -0.0223 -0.9990
vn 0.0385 -0.0222 -0.9990
vn -0.8090 0.5878 -0.0000
vn 0.0330 -0.0298 0.9990
vn 0.0331 -0.0297 0.9990
vn 0.7431 -0.6691 -0.0000
vn 0.0331 -0.0297 -0.9990
vn 0.0330 -0.0298 -0.9990
vn -0.6691 0.7431 -0.0000
vn 0.0262 -0.0359 0.9990
vn 0.0261 -0.0360 0.9990
vn 0.5878 -0.8090 -0.0000
vn 0.0261 -0.0360 -0.9990
vn 0.0262 -0.0359 -0.9990
vn -0.5000 0.8660 -0.0000
vn 0.0180 -0.0406 0.9990
vn 0.0181 -0.0406 0.9990
vn 0.4067 -0.9135 -0.0000
vn 0.0181 -0.0406 -0.9990
vn 0.0180 -0.0406 -0.9990
vn -0.3090 0.9511 -0.0000
vn 0.0093 -0.0435 0.9990
vn 0.0092 -0.0435 0.9990
vn 0.2079 -0.9781 -0.0000
vn 0.0092 -0.0435 -0.9990
vn 0.0093 -0.0435 -0.9990
vn -0.1045 0.9945 -0.0000
vn 0.9952 0.0980 -0.0000
vn 0.0003 0.0024 -1.0000
vn -0.9531 0.3028 -0.0000
vn 0.0003 0.0024 1.0000
vn -0.7475 0.6642 -0.0000
vn 0.0012 0.0021 1.0000
vn 0.9490 -0.3152 -0.0000
vn 0.0012 0.0021 -1.0000
vn -0.4127 0.9109 -0.0000
vn 0.0019 0.0014 1.0000
vn 0.7387 -0.6740 -0.0000
vn 0.0019 0.0014 -1.0000
vn -0.0066 1.0000 -0.0000
vn 0.0023 0.0005 1.0000
vn 0.4007 -0.9162 -0.0000
vn 0.0023 0.0005 -1.0000
vn 0.4007 0.9162 -0.0000
vn 0.0023 -0.0005 1.0000
vn -0.0066 -1.0000 -0.0000
vn 0.0023 -0.0005 -1.0000
vn 0.7387 0.6740 -0.0000
vn 0.0019 -0.0014 1.0000
vn -0.4127 -0.9109 -0.0000
vn 0.0019 -0.0014 -1.0000
vn 0.9490 0.3152 -0.0000
vn 0.0012 -0.0021 1.0000
vn -0.7475 -0.6642 -0.0000
vn 0.0012 -0.0021 -1.0000
vn 0.9952 -0.0980 -0.0000
vn 0.0003 -0.0024 1.0000
vn -0.9531 -0.3028 -0.0000
vn 0.0003 -0.0024 -1.0000
vn 0.8693 -0.4943 -0.0000
vn -0.0007 -0.0023 1.0000
vn -0.9938 0.1110 -0.0000
vn -0.9938 0.1111 -0.0000
vn -0.0007 -0.0023 -1.0000
vn 0.5931 -0.8051 -0.0000
vn -0.0016 -0.0018 1.0000
vn -0.8627 0.5057 -0.0000
vn -0.0016 -0.0018 -1.0000
vn 0.2143 -0.9768 -0.0000
vn -0.0022 -0.0010 1.0000
vn -0.5825 0.8129 -0.0000
vn -0.0022 -0.0010 -1.0000
vn -0.2015 -0.9795 -0.0000
vn -0.0024 -0.0000 1.0000
vn -0.2015 0.9795 -0.0000
vn -0.0024 -0.0000 -1.0000
vn -0.5825 -0.8129 -0.0000
vn -0.0022 0.0010 1.0000
vn 0.2143 0.9768 -0.0000
vn -0.0022 0.0010 -1.0000
vn -0.8627 -0.5057 -0.0000
vn -0.0016 0.0018 1.0000
vn 0.5931 0.8051 -0.0000
vn -0.0016 0.0018 -1.0000
vn -0.9938 -0.1111 -0.0000
vn -0.0007 0.0023 1.0000
vn 0.8693 0.4943 -0.0000
vn -0.0007 0.0023 -1.0000
vn 0.9397 0.3420 -0.0000
vn 0.7660 0.6428 -0.0000
vn 0.1737 0.9848 -0.0000
vn 0.1736 0.9848 -0.0000
vn -0.1736 0.9848 -0.0000
vn -0.1737 0.9848 -0.0000
vn -0.7660 0.6428 -0.0000
vn -0.9397 0.3420 -0.0000
vn -0.9397 -0.3420 -0.0000
vn -0.7660 -0.6428 -0.0000
vn -0.1737 -0.9848 -0.0000
vn -0.1736 -0.9848 -0.0000
vn 0.1736 -0.9848 -0.0000
vn 0.1737 -0.9848 -0.0000
vn 0.7660 -0.6428 -0.0000
vn 0.9397 -0.3420 -0.0000
vn -0.0000 -0.0000 -1.0000
vn -0.0000 -0.0000 1.0000
vt 0.227234 0.112531
vt 0.227234 0.104667
vt 0.233747 0.104667
vt 0.233747 0.112531
vt 0.813786 0.624987
vt 0.824035 0.624659
vt 0.825566 0.634575
vt 0.815695 0.637352
vt 0.077589 0.697683
vt 0.070139 0.697683
vt 0.070139 0.687109
vt 0.077589 0.687109
vt 0.861634 0.124096
vt 0.863364 0.134188
vt 0.850873 0.134794
vt 0.851618 0.124582
vt 0.333087 0.576419
vt 0.333087 0.568485
vt 0.344912 0.568485
vt 0.344912 0.576419
vt 0.829122 0.643956
vt 0.819891 0.648421
vt 0.070139 0.676997
vt 0.077589 0.676997
vt 0.839194 0.132897
vt 0.841719 0.122974
vt 0.175954 0.151622
vt 0.175954 0.143758
vt 0.182467 0.143758
vt 0.182467 0.151622
vt 0.834550 0.652393
vt 0.826660 0.658941
vt 0.070139 0.667789
vt 0.077589 0.667789
vt 0.827537 0.128370
vt 0.832371 0.119344
vt 0.277566 0.343768
vt 0.277566 0.335835
vt 0.289392 0.335835
vt 0.289392 0.343768
vt 0.841611 0.659516
vt 0.834990 0.667345
vt 0.070139 0.659887
vt 0.077589 0.659887
vt 0.817640 0.121887
vt 0.823982 0.113849
vt 0.049948 0.592880
vt 0.049948 0.585016
vt 0.056461 0.585016
vt 0.056461 0.592880
vt 0.849997 0.665015
vt 0.845447 0.674202
vt 0.025138 0.717598
vt 0.017836 0.717598
vt 0.017836 0.707177
vt 0.025138 0.707177
vt 0.808832 0.113009
vt 0.816919 0.106730
vt 0.185230 0.477741
vt 0.185230 0.469808
vt 0.197056 0.469808
vt 0.197056 0.477741
vt 0.859341 0.668648
vt 0.856472 0.678489
vt 0.017836 0.696984
vt 0.025138 0.696984
vt 0.802427 0.103062
vt 0.811490 0.098298
vt 0.068134 0.102446
vt 0.060270 0.102446
vt 0.060270 0.095933
vt 0.068134 0.095933
vt 0.869235 0.670258
vt 0.868810 0.680497
vt 0.017836 0.687464
vt 0.025138 0.687464
vt 0.797991 0.091369
vt 0.807933 0.088922
vt 0.134209 0.344756
vt 0.126276 0.344756
vt 0.126276 0.332930
vt 0.134209 0.332930
vt 0.879247 0.669774
vt 0.880622 0.679926
vt 0.017836 0.679033
vt 0.025138 0.679033
vt 0.796186 0.079676
vt 0.806403 0.079011
vt 0.079181 0.112531
vt 0.079181 0.104667
vt 0.085695 0.104667
vt 0.085695 0.112531
vt 0.888938 0.667217
vt 0.892708 0.676737
vt 0.043886 0.787246
vt 0.036584 0.787246
vt 0.036584 0.776825
vt 0.043886 0.776825
vt 0.796889 0.067190
vt 0.806967 0.068999
vt 0.197070 0.548530
vt 0.189136 0.548530
vt 0.189136 0.536705
vt 0.197070 0.536705
vt 0.897887 0.662698
vt 0.903265 0.671406
vt 0.036584 0.766632
vt 0.043886 0.766632
vt 0.799996 0.055774
vt 0.809601 0.059322
vt 0.062554 0.077711
vt 0.054690 0.077711
vt 0.054690 0.071198
vt 0.062554 0.071198
vt 0.905700 0.656416
vt 0.913008 0.663572
vt 0.036584 0.757112
vt 0.043886 0.757112
vt 0.805717 0.044654
vt 0.814188 0.050405
vt 0.257230 0.571712
vt 0.257230 0.563779
vt 0.269055 0.563779
vt 0.269055 0.571712
vt 0.912037 0.648645
vt 0.920485 0.654403
vt 0.036584 0.748681
vt 0.043886 0.748681
vt 0.813199 0.035488
vt 0.820530 0.042636
vt 0.073355 0.339782
vt 0.073355 0.331919
vt 0.079868 0.331919
vt 0.079868 0.339782
vt 0.916622 0.639724
vt 0.926202 0.643278
vt 0.026802 0.644675
vt 0.019501 0.644675
vt 0.019501 0.634254
vt 0.026802 0.634254
vt 0.822949 0.027657
vt 0.828348 0.036356
vt 0.284450 0.468421
vt 0.284450 0.460487
vt 0.296275 0.460487
vt 0.296275 0.468421
vt 0.919252 0.630043
vt 0.929305 0.631857
vt 0.019501 0.624061
vt 0.026802 0.624061
vt 0.833512 0.022327
vt 0.837301 0.031838
vt 0.148622 0.550785
vt 0.140758 0.550785
vt 0.140758 0.544272
vt 0.148622 0.544272
vt 0.919815 0.620026
vt 0.930007 0.619365
vt 0.019501 0.614542
vt 0.026802 0.614542
vt 0.845603 0.019137
vt 0.846998 0.029281
vt 0.014247 0.597853
vt 0.006314 0.597853
vt 0.006314 0.586028
vt 0.014247 0.586028
vt 0.918284 0.610110
vt 0.928201 0.607666
vt 0.019501 0.606111
vt 0.026802 0.606111
vt 0.857421 0.018565
vt 0.857014 0.028795
vt 0.073355 0.592880
vt 0.073355 0.585016
vt 0.079868 0.585016
vt 0.079868 0.592880
vt 0.914727 0.600729
vt 0.923765 0.595968
vt 0.011626 0.644675
vt 0.004325 0.644675
vt 0.004325 0.634254
vt 0.011626 0.634254
vt 0.869765 0.020569
vt 0.866913 0.030403
vt 0.265011 0.447882
vt 0.265011 0.439948
vt 0.276837 0.439948
vt 0.276837 0.447882
vt 0.909300 0.592292
vt 0.917362 0.586014
vt 0.004325 0.624061
vt 0.011626 0.624061
vt 0.880794 0.024853
vt 0.876261 0.034033
vt 0.030929 0.560870
vt 0.030929 0.553006
vt 0.037442 0.553006
vt 0.037442 0.560870
vt 0.902239 0.585169
vt 0.908557 0.577131
vt 0.004325 0.614542
vt 0.011626 0.614542
vt 0.891255 0.031705
vt 0.884650 0.039528
vt 0.068159 0.215721
vt 0.060226 0.215721
vt 0.060226 0.203895
vt 0.068159 0.203895
vt 0.893853 0.579670
vt 0.898663 0.570644
vt 0.004325 0.606111
vt 0.011626 0.606111
vt 0.899588 0.040103
vt 0.891713 0.046647
vt 0.014302 0.526050
vt 0.006438 0.526050
vt 0.006438 0.519537
vt 0.014302 0.519537
vt 0.884509 0.576036
vt 0.887011 0.566113
vt 0.164091 0.794667
vt 0.156790 0.794667
vt 0.156790 0.784246
vt 0.164091 0.784246
vt 0.906358 0.050618
vt 0.897142 0.055079
vt 0.025598 0.545200
vt 0.025598 0.537266
vt 0.037423 0.537266
vt 0.037423 0.545200
vt 0.874615 0.574426
vt 0.875338 0.564213
vt 0.156790 0.774053
vt 0.164091 0.774053
vt 0.910555 0.061680
vt 0.900699 0.064455
vt 0.071060 0.077711
vt 0.063196 0.077711
vt 0.063196 0.071198
vt 0.071060 0.071198
vt 0.864603 0.574911
vt 0.862853 0.564817
vt 0.156790 0.764533
vt 0.164091 0.764533
vt 0.912463 0.074039
vt 0.902229 0.074366
vt 0.330514 0.149514
vt 0.322580 0.149514
vt 0.322580 0.137689
vt 0.330514 0.137689
vt 0.854911 0.577468
vt 0.851418 0.567834
vt 0.156790 0.756103
vt 0.164091 0.756103
vt 0.911797 0.085852
vt 0.901665 0.084378
vt 0.098200 0.144541
vt 0.098200 0.136677
vt 0.104713 0.136677
vt 0.104713 0.144541
vt 0.845963 0.581986
vt 0.840260 0.573469
vt 0.013788 0.769204
vt 0.006726 0.769204
vt 0.006726 0.759126
vt 0.013788 0.759126
vt 0.908513 0.097919
vt 0.899032 0.094055
vt 0.050427 0.579855
vt 0.050427 0.571921
vt 0.062253 0.571921
vt 0.062253 0.579855
vt 0.838150 0.588269
vt 0.831042 0.580881
vt 0.006726 0.749267
vt 0.013788 0.749267
vt 0.903100 0.108440
vt 0.894444 0.102972
vt 0.296538 0.151815
vt 0.296538 0.143952
vt 0.303051 0.143952
vt 0.303051 0.151815
vt 0.831812 0.596040
vt 0.823139 0.590572
vt 0.077589 0.735479
vt 0.070139 0.735479
vt 0.070139 0.727578
vt 0.077589 0.727578
vt 0.895193 0.118127
vt 0.888102 0.110741
vt 0.333087 0.452588
vt 0.333087 0.444655
vt 0.344912 0.444655
vt 0.344912 0.452588
vt 0.827228 0.604961
vt 0.817730 0.601097
vt 0.070139 0.718370
vt 0.077589 0.718370
vt 0.885969 0.125537
vt 0.880284 0.117021
vt 0.100233 0.600155
vt 0.100233 0.592291
vt 0.106746 0.592291
vt 0.106746 0.600155
vt 0.824597 0.614642
vt 0.814450 0.613169
vt 0.070139 0.708258
vt 0.077589 0.708258
vt 0.874804 0.131171
vt 0.871331 0.121539
vt 0.116411 0.020479
vt 0.108478 0.020479
vt 0.108478 0.008653
vt 0.116411 0.008653
vt 0.214428 0.579282
vt 0.222361 0.579282
vt 0.222326 0.594137
vt 0.214463 0.594137
vt 0.133130 0.289069
vt 0.134437 0.276638
vt 0.148595 0.281136
vt 0.147914 0.287613
vt 0.253489 0.594137
vt 0.245555 0.594137
vt 0.245590 0.579282
vt 0.253454 0.579282
vt 0.065406 0.081397
vt 0.066712 0.093827
vt 0.051929 0.092372
vt 0.051248 0.085894
vt 0.237925 0.423870
vt 0.229991 0.423870
vt 0.230026 0.409015
vt 0.237890 0.409015
vt 0.070431 0.105255
vt 0.076681 0.116080
vt 0.062583 0.120763
vt 0.059327 0.115123
vt 0.263065 0.414820
vt 0.270998 0.414820
vt 0.270963 0.429675
vt 0.263099 0.429675
vt 0.123162 0.311322
vt 0.129412 0.300497
vt 0.140516 0.310364
vt 0.137260 0.316005
vt 0.014247 0.585346
vt 0.006314 0.585346
vt 0.006348 0.570491
vt 0.014212 0.570491
vt 0.084727 0.125016
vt 0.094839 0.132363
vt 0.083865 0.142375
vt 0.078596 0.138546
vt 0.310659 0.104692
vt 0.318593 0.104692
vt 0.318558 0.119547
vt 0.310694 0.119547
vt 0.105004 0.327604
vt 0.115116 0.320257
vt 0.121247 0.333788
vt 0.115978 0.337616
vt 0.253489 0.341040
vt 0.245555 0.341040
vt 0.245590 0.326185
vt 0.253454 0.326185
vt 0.105822 0.137256
vt 0.118048 0.139854
vt 0.112095 0.153464
vt 0.105724 0.152110
vt 0.284592 0.563779
vt 0.284592 0.571712
vt 0.269737 0.571677
vt 0.269737 0.563814
vt 0.081795 0.335096
vt 0.094021 0.332497
vt 0.094118 0.347352
vt 0.087748 0.348706
vt 0.330046 0.500123
vt 0.330046 0.492189
vt 0.344901 0.492224
vt 0.344901 0.500088
vt 0.130047 0.139854
vt 0.142273 0.137256
vt 0.142371 0.152110
vt 0.136000 0.153464
vt 0.214428 0.326185
vt 0.222361 0.326185
vt 0.222326 0.341040
vt 0.214463 0.341040
vt 0.057570 0.332497
vt 0.069796 0.335096
vt 0.063843 0.348706
vt 0.057472 0.347352
vt 0.303713 0.151885
vt 0.303713 0.143952
vt 0.318568 0.143987
vt 0.318568 0.151851
vt 0.153256 0.132362
vt 0.163368 0.125016
vt 0.169499 0.138546
vt 0.164230 0.142375
vt 0.171754 0.523147
vt 0.171754 0.531080
vt 0.156899 0.531045
vt 0.156899 0.523182
vt 0.036475 0.320257
vt 0.046587 0.327604
vt 0.035613 0.337616
vt 0.030344 0.333788
vt 0.122289 0.314789
vt 0.114355 0.314789
vt 0.114390 0.299934
vt 0.122254 0.299934
vt 0.171414 0.116080
vt 0.177664 0.105255
vt 0.188768 0.115123
vt 0.185512 0.120763
vt 0.171754 0.270050
vt 0.171754 0.277983
vt 0.156899 0.277948
vt 0.156899 0.270084
vt 0.022179 0.300497
vt 0.028429 0.311322
vt 0.014331 0.316005
vt 0.011075 0.310364
vt 0.330046 0.178239
vt 0.330046 0.170306
vt 0.344901 0.170341
vt 0.344901 0.178205
vt 0.181383 0.093827
vt 0.182689 0.081397
vt 0.196847 0.085894
vt 0.196166 0.092372
vt 0.324399 0.270050
vt 0.324399 0.277983
vt 0.309545 0.277948
vt 0.309545 0.270084
vt 0.017154 0.276638
vt 0.018460 0.289069
vt 0.003677 0.287613
vt 0.002996 0.281136
vt 0.330046 0.212111
vt 0.330046 0.204177
vt 0.344901 0.204212
vt 0.344901 0.212076
vt 0.181431 0.069458
vt 0.177568 0.057570
vt 0.192331 0.055921
vt 0.194344 0.062115
vt 0.309883 0.588932
vt 0.309883 0.596865
vt 0.295028 0.596830
vt 0.295028 0.588966
vt 0.022275 0.252812
vt 0.018412 0.264700
vt 0.005499 0.257357
vt 0.007512 0.251163
vt 0.081050 0.151885
vt 0.081050 0.143952
vt 0.095905 0.143987
vt 0.095905 0.151851
vt 0.171554 0.047159
vt 0.163190 0.037870
vt 0.176006 0.030358
vt 0.180364 0.035198
vt 0.133348 0.013029
vt 0.141282 0.013029
vt 0.141247 0.027884
vt 0.133383 0.027884
vt 0.036652 0.233112
vt 0.028289 0.242400
vt 0.019479 0.230440
vt 0.023837 0.225600
vt 0.229103 0.151885
vt 0.229103 0.143952
vt 0.243957 0.143987
vt 0.243957 0.151851
vt 0.153463 0.030801
vt 0.142045 0.025717
vt 0.150697 0.013642
vt 0.156647 0.016291
vt 0.344901 0.335637
vt 0.344901 0.343570
vt 0.330046 0.343535
vt 0.330046 0.335671
vt 0.057798 0.220959
vt 0.046379 0.226043
vt 0.043196 0.211533
vt 0.049146 0.208884
vt 0.170517 0.567842
vt 0.170517 0.559909
vt 0.185372 0.559944
vt 0.185372 0.567808
vt 0.130297 0.023214
vt 0.117798 0.023214
vt 0.120791 0.008663
vt 0.127304 0.008663
vt 0.344901 0.408991
vt 0.344901 0.416924
vt 0.330046 0.416889
vt 0.330046 0.409025
vt 0.082045 0.218455
vt 0.069546 0.218455
vt 0.072539 0.203905
vt 0.079052 0.203905
vt 0.309908 0.551570
vt 0.301974 0.551570
vt 0.302009 0.536716
vt 0.309873 0.536716
vt 0.106050 0.025717
vt 0.094632 0.030801
vt 0.091448 0.016291
vt 0.097398 0.013642
vt 0.085096 0.208271
vt 0.093030 0.208271
vt 0.092995 0.223126
vt 0.085131 0.223126
vt 0.105211 0.226043
vt 0.093793 0.220959
vt 0.102445 0.208884
vt 0.108395 0.211533
vt 0.188027 0.416924
vt 0.188027 0.408991
vt 0.202882 0.409025
vt 0.202882 0.416889
vt 0.084905 0.037870
vt 0.076541 0.047159
vt 0.067731 0.035198
vt 0.072089 0.030358
vt 0.114355 0.553031
vt 0.122289 0.553031
vt 0.122254 0.567886
vt 0.114390 0.567886
vt 0.123302 0.242400
vt 0.114938 0.233112
vt 0.127754 0.225600
vt 0.132112 0.230440
vt 0.308646 0.513667
vt 0.308646 0.505733
vt 0.323501 0.505768
vt 0.323501 0.513632
vt 0.070527 0.057570
vt 0.066665 0.069458
vt 0.053751 0.062115
vt 0.055764 0.055921
vt 0.197045 0.264817
vt 0.197045 0.272750
vt 0.182190 0.272715
vt 0.182190 0.264851
vt 0.133178 0.264700
vt 0.129316 0.252812
vt 0.144079 0.251163
vt 0.146092 0.257357
vt 0.296369 0.267047
vt 0.296369 0.279082
vt 0.293727 0.279082
vt 0.293727 0.267047
vt 0.296369 0.290390
vt 0.293727 0.290390
vt 0.297773 0.305526
vt 0.288404 0.305526
vt 0.288404 0.302841
vt 0.297773 0.302841
vt 0.276910 0.305526
vt 0.276910 0.302841
vt 0.264679 0.305526
vt 0.264679 0.302841
vt 0.253186 0.305526
vt 0.253186 0.302841
vt 0.243816 0.305526
vt 0.243816 0.302841
vt 0.197614 0.025633
vt 0.185517 0.025633
vt 0.185517 0.022978
vt 0.197614 0.022978
vt 0.174149 0.025633
vt 0.174149 0.022978
vt 0.164882 0.025633
vt 0.164882 0.022978
vt 0.071047 0.050426
vt 0.059558 0.050426
vt 0.059558 0.047904
vt 0.071047 0.047904
vt 0.246141 0.305526
vt 0.236772 0.305526
vt 0.236772 0.302841
vt 0.246141 0.302841
vt 0.225279 0.305526
vt 0.225279 0.302841
vt 0.213048 0.305526
vt 0.213048 0.302841
vt 0.201554 0.305526
vt 0.201554 0.302841
vt 0.192185 0.305526
vt 0.192185 0.302841
vt 0.296369 0.246520
vt 0.296369 0.255738
vt 0.293727 0.255738
vt 0.293727 0.246520
vt 0.730626 0.160654
vt 0.723055 0.169295
vt 0.712985 0.174825
vt 0.701631 0.176578
vt 0.690362 0.174342
vt 0.680538 0.168386
vt 0.673343 0.159429
vt 0.669645 0.148552
vt 0.669891 0.137066
vt 0.674050 0.126357
vt 0.681621 0.117716
vt 0.691691 0.112185
vt 0.703045 0.110432
vt 0.714314 0.112669
vt 0.724138 0.118625
vt 0.731333 0.127581
vt 0.735031 0.138459
vt 0.734786 0.149945
vt 0.952372 0.615801
vt 0.941663 0.611641
vt 0.933022 0.604070
vt 0.927492 0.594000
vt 0.925739 0.582646
vt 0.927975 0.571377
vt 0.933931 0.561553
vt 0.942888 0.554358
vt 0.953765 0.550660
vt 0.965251 0.550905
vt 0.975960 0.555065
vt 0.984601 0.562636
vt 0.990132 0.572706
vt 0.991884 0.584060
vt 0.989648 0.595329
vt 0.983693 0.605153
vt 0.974736 0.612348
vt 0.075394 0.491114
vt 0.075394 0.485818
vt 0.084816 0.485818
vt 0.084816 0.491114
vt 0.946013 0.432548
vt 0.946475 0.435537
vt 0.938374 0.437674
vt 0.937301 0.434846
vt 0.051457 0.744389
vt 0.046161 0.744389
vt 0.046161 0.735628
vt 0.051457 0.735628
vt 0.959512 0.085631
vt 0.959973 0.088620
vt 0.950974 0.089056
vt 0.951144 0.086036
vt 0.094032 0.485818
vt 0.094032 0.491114
vt 0.930895 0.441448
vt 0.929257 0.438905
vt 0.046161 0.727059
vt 0.051457 0.727059
vt 0.942080 0.087612
vt 0.942874 0.084693
vt 0.102639 0.485818
vt 0.102639 0.491114
vt 0.924363 0.446694
vt 0.922233 0.444547
vt 0.046161 0.719055
vt 0.051457 0.719055
vt 0.933681 0.084350
vt 0.935065 0.081661
vt 0.110262 0.485818
vt 0.110262 0.491114
vt 0.919066 0.453184
vt 0.916535 0.451527
vt 0.046161 0.711968
vt 0.051457 0.711968
vt 0.926144 0.079413
vt 0.928057 0.077070
vt 0.246253 0.042775
vt 0.246253 0.037479
vt 0.253875 0.037479
vt 0.253875 0.042775
vt 0.915233 0.460634
vt 0.912414 0.459539
vt 0.032693 0.787114
vt 0.027429 0.787114
vt 0.027429 0.778404
vt 0.032693 0.778404
vt 0.919798 0.073017
vt 0.922156 0.071123
vt 0.262482 0.037479
vt 0.262482 0.042775
vt 0.913033 0.468718
vt 0.910048 0.468233
vt 0.027429 0.769884
vt 0.032693 0.769884
vt 0.914921 0.065442
vt 0.917621 0.064079
vt 0.271698 0.037479
vt 0.271698 0.042775
vt 0.912562 0.477082
vt 0.909541 0.477229
vt 0.027429 0.761928
vt 0.032693 0.761928
vt 0.911725 0.057017
vt 0.914649 0.056246
vt 0.281120 0.037479
vt 0.281120 0.042775
vt 0.913840 0.485362
vt 0.910915 0.486133
vt 0.027429 0.754881
vt 0.032693 0.754881
vt 0.910350 0.048113
vt 0.913371 0.047966
vt 0.290336 0.037479
vt 0.290336 0.042775
vt 0.916811 0.493195
vt 0.914111 0.494557
vt 0.025106 0.780980
vt 0.019841 0.780980
vt 0.019841 0.772270
vt 0.025106 0.772270
vt 0.910857 0.039117
vt 0.913842 0.039602
vt 0.298943 0.037479
vt 0.298943 0.042775
vt 0.921347 0.500239
vt 0.918989 0.502133
vt 0.019841 0.763751
vt 0.025106 0.763751
vt 0.913223 0.030423
vt 0.916042 0.031518
vt 0.306566 0.037479
vt 0.306566 0.042775
vt 0.927247 0.506186
vt 0.925335 0.508529
vt 0.019841 0.755794
vt 0.025106 0.755794
vt 0.917345 0.022411
vt 0.919875 0.024069
vt 0.055983 0.025025
vt 0.055983 0.019760
vt 0.065350 0.019760
vt 0.065350 0.025025
vt 0.934256 0.510776
vt 0.932872 0.513466
vt 0.019841 0.748747
vt 0.025106 0.748747
vt 0.923043 0.015432
vt 0.925173 0.017579
vt 0.074512 0.019760
vt 0.074512 0.025025
vt 0.942065 0.513809
vt 0.941271 0.516728
vt 0.008331 0.679591
vt 0.003066 0.679591
vt 0.003066 0.670882
vt 0.008331 0.670882
vt 0.930067 0.009789
vt 0.931704 0.012332
vt 0.083070 0.019760
vt 0.083070 0.025025
vt 0.950334 0.515152
vt 0.950164 0.518172
vt 0.003066 0.662362
vt 0.008331 0.662362
vt 0.938111 0.005730
vt 0.939184 0.008558
vt 0.090648 0.019760
vt 0.090648 0.025025
vt 0.958702 0.514746
vt 0.959164 0.517736
vt 0.003066 0.654405
vt 0.008331 0.654405
vt 0.946823 0.003432
vt 0.947284 0.006421
vt 0.310830 0.101092
vt 0.310830 0.095827
vt 0.320198 0.095827
vt 0.320198 0.101092
vt 0.966803 0.512610
vt 0.967876 0.515438
vt 0.003066 0.647359
vt 0.008331 0.647359
vt 0.955822 0.002996
vt 0.955652 0.006016
vt 0.329360 0.095827
vt 0.329360 0.101092
vt 0.974282 0.508836
vt 0.975920 0.511379
vt 0.008261 0.749239
vt 0.002996 0.749239
vt 0.002996 0.740530
vt 0.008261 0.740530
vt 0.964716 0.004440
vt 0.963922 0.007359
vt 0.337918 0.095827
vt 0.337918 0.101092
vt 0.980814 0.503589
vt 0.982944 0.505736
vt 0.002996 0.732010
vt 0.008261 0.732010
vt 0.973115 0.007702
vt 0.971731 0.010392
vt 0.345496 0.095827
vt 0.345496 0.101092
vt 0.986111 0.497099
vt 0.988642 0.498756
vt 0.002996 0.724053
vt 0.008261 0.724053
vt 0.980652 0.012639
vt 0.978739 0.014982
vt 0.049948 0.485428
vt 0.049948 0.480132
vt 0.057571 0.480132
vt 0.057571 0.485428
vt 0.989944 0.489650
vt 0.992763 0.490744
vt 0.002996 0.717007
vt 0.008261 0.717007
vt 0.986998 0.019035
vt 0.984640 0.020929
vt 0.066178 0.480132
vt 0.066178 0.485428
vt 0.992144 0.481566
vt 0.995130 0.482051
vt 0.019491 0.780980
vt 0.014226 0.780980
vt 0.014226 0.772270
vt 0.019491 0.772270
vt 0.991875 0.026611
vt 0.989175 0.027973
vt 0.075394 0.480132
vt 0.075394 0.485428
vt 0.992615 0.473201
vt 0.995636 0.473055
vt 0.014226 0.763751
vt 0.019491 0.763751
vt 0.995071 0.035035
vt 0.992147 0.035806
vt 0.084816 0.480132
vt 0.084816 0.485428
vt 0.991337 0.464922
vt 0.994262 0.464150
vt 0.014226 0.755794
vt 0.019491 0.755794
vt 0.996446 0.043939
vt 0.993425 0.044086
vt 0.094032 0.480132
vt 0.094032 0.485428
vt 0.988366 0.457089
vt 0.991066 0.455726
vt 0.014226 0.748747
vt 0.019491 0.748747
vt 0.995939 0.052935
vt 0.992954 0.052450
vt 0.102639 0.480132
vt 0.102639 0.485428
vt 0.983830 0.450045
vt 0.986188 0.448151
vt 0.013822 0.794273
vt 0.008664 0.794273
vt 0.008664 0.785740
vt 0.013822 0.785740
vt 0.993573 0.061629
vt 0.990753 0.060534
vt 0.110262 0.480132
vt 0.110262 0.485428
vt 0.977930 0.444098
vt 0.979842 0.441755
vt 0.008664 0.777393
vt 0.013822 0.777393
vt 0.989451 0.069641
vt 0.986921 0.067983
vt 0.122027 0.029698
vt 0.122027 0.024634
vt 0.131037 0.024634
vt 0.131037 0.029698
vt 0.970922 0.439507
vt 0.972305 0.436818
vt 0.008664 0.769597
vt 0.013822 0.769597
vt 0.983753 0.076621
vt 0.981623 0.074473
vt 0.049948 0.491114
vt 0.049948 0.485818
vt 0.057571 0.485818
vt 0.057571 0.491114
vt 0.963112 0.436474
vt 0.963906 0.433556
vt 0.051457 0.768048
vt 0.046161 0.768048
vt 0.046161 0.760961
vt 0.051457 0.760961
vt 0.976729 0.082263
vt 0.975092 0.079720
vt 0.066178 0.485818
vt 0.066178 0.491114
vt 0.954843 0.435131
vt 0.955013 0.432112
vt 0.046161 0.752958
vt 0.051457 0.752958
vt 0.968685 0.086322
vt 0.967612 0.083494
s 1
g off
g Engranaje1_2_Engrenages
usemtl Engrenages
f 123/1/1 124/2/1 121/3/1
f 121/3/1 122/4/1 123/1/1
s 2
f 2/5/2 3/6/3 7/7/4
f 7/7/4 6/8/5 2/5/2
s 3
f 3/9/6 4/10/6 8/11/7
f 8/11/7 7/12/7 3/9/6
s 4
f 4/13/8 1/14/9 5/15/10
f 5/15/10 8/16/11 4/13/8
s 5
f 5/17/12 6/18/12 10/19/12
f 10/19/12 9/20/12 5/17/12
s 2
f 6/8/5 7/7/4 11/21/13
f 11/21/13 10/22/14 6/8/5
s 3
f 7/12/7 8/11/7 12/23/15
f 12/23/15 11/24/15 7/12/7
s 4
f 8/16/11 5/15/10 9/25/16
f 9/25/16 12/26/17 8/16/11
s 6
f 125/27/18 126/28/18 127/29/18
f 127/29/18 128/30/18 125/27/18
s 2
f 10/22/14 11/21/13 15/31/19
f 15/31/19 14/32/20 10/22/14
s 3
f 11/24/15 12/23/15 16/33/21
f 16/33/21 15/34/21 11/24/15
s 4
f 12/26/17 9/25/16 13/35/22
f 13/35/22 16/36/23 12/26/17
s 7
f 13/37/24 14/38/24 18/39/24
f 18/39/24 17/40/24 13/37/24
s 2
f 14/32/20 15/31/19 19/41/25
f 19/41/25 18/42/26 14/32/20
s 3
f 15/34/21 16/33/21 20/43/27
f 20/43/27 19/44/27 15/34/21
s 4
f 16/36/23 13/35/22 17/45/28
f 17/45/28 20/46/29 16/36/23
s 8
f 129/47/30 130/48/30 131/49/30
f 131/49/30 132/50/30 129/47/30
s 2
f 18/42/26 19/41/25 23/51/31
f 23/51/31 22/52/32 18/42/26
s 3
f 19/53/27 20/54/27 24/55/33
f 24/55/33 23/56/33 19/53/27
s 4
f 20/46/29 17/45/28 21/57/34
f 21/57/34 24/58/35 20/46/29
s 9
f 21/59/36 22/60/36 26/61/36
f 26/61/36 25/62/36 21/59/36
s 2
f 22/52/32 23/51/31 27/63/37
f 27/63/37 26/64/38 22/52/32
s 3
f 23/56/33 24/55/33 28/65/39
f 28/65/39 27/66/39 23/56/33
s 4
f 24/58/35 21/57/34 25/67/40
f 25/67/40 28/68/41 24/58/35
s 10
f 133/69/42 134/70/42 135/71/42
f 135/71/42 136/72/42 133/69/42
s 2
f 26/64/38 27/63/37 31/73/43
f 31/73/43 30/74/44 26/64/38
s 3
f 27/66/39 28/65/39 32/75/45
f 32/75/45 31/76/45 27/66/39
s 4
f 28/68/41 25/67/40 29/77/46
f 29/77/46 32/78/47 28/68/41
s 11
f 29/79/48 30/80/48 34/81/48
f 34/81/48 33/82/48 29/79/48
s 2
f 30/74/44 31/73/43 35/83/49
f 35/83/49 34/84/50 30/74/44
s 3
f 31/76/45 32/75/45 36/85/51
f 36/85/51 35/86/51 31/76/45
s 4
f 32/78/47 29/77/46 33/87/52
f 33/87/52 36/88/53 32/78/47
s 12
f 137/89/54 138/90/54 139/91/54
f 139/91/54 140/92/54 137/89/54
s 2
f 34/84/50 35/83/49 39/93/55
f 39/93/55 38/94/56 34/84/50
s 3
f 35/95/51 36/96/51 40/97/57
f 40/97/57 39/98/57 35/95/51
s 4
f 36/88/53 33/87/52 37/99/58
f 37/99/58 40/100/59 36/88/53
s 13
f 37/101/60 38/102/60 42/103/60
f 42/103/60 41/104/60 37/101/60
s 2
f 38/94/56 39/93/55 43/105/61
f 43/105/61 42/106/62 38/94/56
s 3
f 39/98/57 40/97/57 44/107/63
f 44/107/63 43/108/63 39/98/57
s 4
f 40/100/59 37/99/58 41/109/64
f 41/109/64 44/110/65 40/100/59
s 14
f 141/111/66 142/112/66 143/113/66
f 143/113/66 144/114/66 141/111/66
s 2
f 42/106/62 43/105/61 47/115/67
f 47/115/67 46/116/68 42/106/62
s 3
f 43/108/63 44/107/63 48/117/69
f 48/117/69 47/118/69 43/108/63
s 4
f 44/110/65 41/109/64 45/119/70
f 45/119/70 48/120/71 44/110/65
s 15
f 45/121/72 46/122/72 50/123/72
f 50/123/72 49/124/72 45/121/72
s 2
f 46/116/68 47/115/67 51/125/73
f 51/125/73 50/126/74 46/116/68
s 3
f 47/118/69 48/117/69 52/127/75
f 52/127/75 51/128/75 47/118/69
s 4
f 48/120/71 45/119/70 49/129/76
f 49/129/76 52/130/77 48/120/71
s 16
f 145/131/78 146/132/78 147/133/78
f 147/133/78 148/134/78 145/131/78
s 2
f 50/126/74 51/125/73 55/135/79
f 55/135/79 54/136/80 50/126/74
s 3
f 51/137/75 52/138/75 56/139/81
f 56/139/81 55/140/81 51/137/75
s 4
f 52/130/77 49/129/76 53/141/82
f 53/141/82 56/142/83 52/130/77
s 17
f 53/143/84 54/144/84 58/145/84
f 58/145/84 57/146/84 53/143/84
s 2
f 54/136/80 55/135/79 59/147/85
f 59/147/85 58/148/86 54/136/80
s 3
f 55/140/81 56/139/81 60/149/87
f 60/149/87 59/150/87 55/140/81
s 4
f 56/142/83 53/141/82 57/151/88
f 57/151/88 60/152/89 56/142/83
s 18
f 149/153/90 150/154/90 151/155/90
f 151/155/90 152/156/90 149/153/90
s 2
f 58/148/86 59/147/85 63/157/91
f 63/157/91 62/158/92 58/148/86
s 3
f 59/150/87 60/149/87 64/159/93
f 64/159/93 63/160/93 59/150/87
s 4
f 60/152/89 57/151/88 61/161/94
f 61/161/94 64/162/95 60/152/89
s 19
f 61/163/96 62/164/96 66/165/96
f 66/165/96 65/166/96 61/163/96
s 2
f 62/158/92 63/157/91 67/167/97
f 67/167/97 66/168/98 62/158/92
s 3
f 63/160/93 64/159/93 68/169/99
f 68/169/99 67/170/99 63/160/93
s 4
f 64/162/95 61/161/94 65/171/100
f 65/171/100 68/172/101 64/162/95
s 20
f 153/173/102 154/174/102 155/175/102
f 155/175/102 156/176/102 153/173/102
s 2
f 66/168/98 67/167/97 71/177/103
f 71/177/103 70/178/104 66/168/98
s 3
f 67/179/99 68/180/99 72/181/105
f 72/181/105 71/182/105 67/179/99
s 4
f 68/172/101 65/171/100 69/183/106
f 69/183/106 72/184/107 68/172/101
s 21
f 69/185/108 70/186/108 74/187/108
f 74/187/108 73/188/108 69/185/108
s 2
f 70/178/104 71/177/103 75/189/109
f 75/189/109 74/190/110 70/178/104
s 3
f 71/182/105 72/181/105 76/191/111
f 76/191/111 75/192/111 71/182/105
s 4
f 72/184/107 69/183/106 73/193/112
f 73/193/112 76/194/113 72/184/107
s 22
f 157/195/114 158/196/114 159/197/114
f 159/197/114 160/198/114 157/195/114
s 2
f 74/190/110 75/189/109 79/199/115
f 79/199/115 78/200/116 74/190/110
s 3
f 75/192/111 76/191/111 80/201/117
f 80/201/117 79/202/117 75/192/111
s 4
f 76/194/113 73/193/112 77/203/118
f 77/203/118 80/204/119 76/194/113
s 23
f 77/205/120 78/206/120 82/207/120
f 82/207/120 81/208/120 77/205/120
s 2
f 78/200/116 79/199/115 83/209/121
f 83/209/121 82/210/122 78/200/116
s 3
f 79/202/117 80/201/117 84/211/123
f 84/211/123 83/212/123 79/202/117
s 4
f 80/204/119 77/203/118 81/213/124
f 81/213/124 84/214/125 80/204/119
s 24
f 161/215/126 162/216/126 163/217/126
f 163/217/126 164/218/126 161/215/126
s 2
f 82/210/122 83/209/121 87/219/127
f 87/219/127 86/220/128 82/210/122
s 3
f 83/221/123 84/222/123 88/223/129
f 88/223/129 87/224/129 83/221/123
s 4
f 84/214/125 81/213/124 85/225/130
f 85/225/130 88/226/131 84/214/125
s 25
f 85/227/132 86/228/132 90/229/132
f 90/229/132 89/230/132 85/227/132
s 2
f 86/220/128 87/219/127 91/231/133
f 91/231/133 90/232/134 86/220/128
s 3
f 87/224/129 88/223/129 92/233/135
f 92/233/135 91/234/135 87/224/129
s 4
f 88/226/131 85/225/130 89/235/136
f 89/235/136 92/236/137 88/226/131
s 26
f 165/237/138 166/238/138 167/239/138
f 167/239/138 168/240/138 165/237/138
s 2
f 90/232/134 91/231/133 95/241/139
f 95/241/139 94/242/140 90/232/134
s 3
f 91/234/135 92/233/135 96/243/141
f 96/243/141 95/244/141 91/234/135
s 4
f 92/236/137 89/235/136 93/245/142
f 93/245/142 96/246/143 92/236/137
s 27
f 93/247/144 94/248/144 98/249/144
f 98/249/144 97/250/144 93/247/144
s 2
f 94/242/140 95/241/139 99/251/145
f 99/251/145 98/252/146 94/242/140
s 3
f 95/244/141 96/243/141 100/253/147
f 100/253/147 99/254/147 95/244/141
s 4
f 96/246/143 93/245/142 97/255/148
f 97/255/148 100/256/149 96/246/143
s 28
f 169/257/150 170/258/150 171/259/150
f 171/259/150 172/260/150 169/257/150
s 2
f 98/252/146 99/251/145 103/261/151
f 103/261/151 102/262/152 98/252/146
s 3
f 99/263/147 100/264/147 104/265/153
f 104/265/153 103/266/153 99/263/147
s 4
f 100/256/149 97/255/148 101/267/154
f 101/267/154 104/268/155 100/256/149
s 29
f 101/269/156 102/270/156 106/271/156
f 106/271/156 105/272/156 101/269/156
s 2
f 102/262/152 103/261/151 107/273/157
f 107/273/157 106/274/158 102/262/152
s 3
f 103/266/153 104/265/153 108/275/159
f 108/275/159 107/276/159 103/266/153
s 4
f 104/268/155 101/267/154 105/277/160
f 105/277/160 108/278/161 104/268/155
s 30
f 173/279/162 174/280/162 175/281/162
f 175/281/162 176/282/162 173/279/162
s 2
f 106/274/158 107/273/157 111/283/163
f 111/283/163 110/284/164 106/274/158
s 3
f 107/285/159 108/286/159 112/287/165
f 112/287/165 111/288/165 107/285/159
s 4
f 108/278/161 105/277/160 109/289/166
f 109/289/166 112/290/167 108/278/161
s 31
f 109/291/168 110/292/168 114/293/168
f 114/293/168 113/294/168 109/291/168
s 2
f 110/284/164 111/283/163 115/295/169
f 115/295/169 114/296/170 110/284/164
s 3
f 111/288/165 112/287/165 116/297/171
f 116/297/171 115/298/171 111/288/165
s 4
f 112/290/167 109/289/166 113/299/172
f 113/299/172 116/300/173 112/290/167
s 32
f 177/301/174 178/302/174 179/303/174
f 179/303/174 180/304/174 177/301/174
s 2
f 114/296/170 115/295/169 119/305/175
f 119/305/175 118/306/176 114/296/170
s 3
f 115/298/171 116/297/171 120/307/177
f 120/307/177 119/308/177 115/298/171
s 4
f 116/300/173 113/299/172 117/309/178
f 117/309/178 120/310/179 116/300/173
s 33
f 117/311/180 118/312/180 2/313/180
f 2/313/180 1/314/180 117/311/180
s 2
f 118/306/176 119/305/175 3/6/3
f 3/6/3 2/5/2 118/306/176
s 3
f 119/308/177 120/307/177 4/10/6
f 4/10/6 3/9/6 119/308/177
s 4
f 120/310/179 117/309/178 1/14/9
f 1/14/9 4/13/8 120/310/179
s 34
f 6/315/181 5/316/181 122/317/181
f 122/317/181 121/318/181 6/315/181
s 35
f 5/319/182 1/320/182 123/321/182
f 123/321/182 122/322/182 5/319/182
s 36
f 1/323/183 2/324/183 124/325/183
f 124/325/183 123/326/183 1/323/183
s 37
f 2/327/184 6/328/184 121/329/184
f 121/329/184 124/330/184 2/327/184
s 38
f 9/331/185 10/332/185 126/333/185
f 126/333/185 125/334/185 9/331/185
s 39
f 10/335/186 14/336/186 127/337/186
f 127/337/186 126/338/186 10/335/186
s 40
f 14/339/187 13/340/187 128/341/187
f 128/341/187 127/342/187 14/339/187
s 41
f 13/343/188 9/344/188 125/345/188
f 125/345/188 128/346/188 13/343/188
s 42
f 17/347/189 18/348/189 130/349/189
f 130/349/189 129/350/189 17/347/189
s 43
f 18/351/190 22/352/190 131/353/190
f 131/353/190 130/354/190 18/351/190
s 44
f 22/355/191 21/356/191 132/357/191
f 132/357/191 131/358/191 22/355/191
s 45
f 21/359/192 17/360/192 129/361/192
f 129/361/192 132/362/192 21/359/192
s 46
f 25/363/193 26/364/193 134/365/193
f 134/365/193 133/366/193 25/363/193
s 47
f 26/367/194 30/368/194 135/369/194
f 135/369/194 134/370/194 26/367/194
s 48
f 30/371/195 29/372/195 136/373/195
f 136/373/195 135/374/195 30/371/195
s 49
f 29/375/196 25/376/196 133/377/196
f 133/377/196 136/378/196 29/375/196
s 50
f 33/379/197 34/380/197 138/381/197
f 138/381/197 137/382/197 33/379/197
s 51
f 34/383/198 38/384/198 139/385/198
f 139/385/198 138/386/198 34/383/198
s 52
f 38/387/199 37/388/199 140/389/199
f 140/389/199 139/390/199 38/387/199
s 53
f 37/391/200 33/392/200 137/393/200
f 137/393/200 140/394/200 37/391/200
s 54
f 41/395/201 42/396/201 142/397/201
f 142/397/201 141/398/201 41/395/201
s 55
f 42/399/202 46/400/202 143/401/202
f 143/401/202 142/402/202 42/399/202
s 56
f 46/403/203 45/404/203 144/405/203
f 144/405/203 143/406/203 46/403/203
s 57
f 45/407/204 41/408/204 141/409/204
f 141/409/204 144/410/204 45/407/204
s 58
f 49/411/205 50/412/205 146/413/205
f 146/413/205 145/414/205 49/411/205
s 59
f 50/415/206 54/416/206 147/417/206
f 147/417/206 146/418/206 50/415/206
s 60
f 54/419/207 53/420/207 148/421/207
f 148/421/207 147/422/207 54/419/207
s 61
f 53/423/208 49/424/208 145/425/208
f 145/425/208 148/426/208 53/423/208
s 62
f 57/427/209 58/428/209 150/429/209
f 150/429/209 149/430/209 57/427/209
s 63
f 58/431/210 62/432/210 151/433/210
f 151/433/210 150/434/210 58/431/210
s 64
f 62/435/211 61/436/211 152/437/211
f 152/437/211 151/438/211 62/435/211
s 65
f 61/439/212 57/440/212 149/441/212
f 149/441/212 152/442/212 61/439/212
s 66
f 65/443/213 66/444/213 154/445/213
f 154/445/213 153/446/213 65/443/213
s 67
f 66/447/214 70/448/214 155/449/214
f 155/449/214 154/450/214 66/447/214
s 68
f 70/451/215 69/452/215 156/453/216
f 156/453/216 155/454/216 70/451/215
s 69
f 69/455/217 65/456/217 153/457/217
f 153/457/217 156/458/217 69/455/217
s 70
f 73/459/218 74/460/218 158/461/218
f 158/461/218 157/462/218 73/459/218
s 71
f 74/463/219 78/464/219 159/465/219
f 159/465/219 158/466/219 74/463/219
s 72
f 78/467/220 77/468/220 160/469/220
f 160/469/220 159/470/220 78/467/220
s 73
f 77/471/221 73/472/221 157/473/221
f 157/473/221 160/474/221 77/471/221
s 74
f 81/475/222 82/476/222 162/477/222
f 162/477/222 161/478/222 81/475/222
s 75
f 82/479/223 86/480/223 163/481/223
f 163/481/223 162/482/223 82/479/223
s 76
f 86/483/224 85/484/224 164/485/224
f 164/485/224 163/486/224 86/483/224
s 77
f 85/487/225 81/488/225 161/489/225
f 161/489/225 164/490/225 85/487/225
s 78
f 89/491/226 90/492/226 166/493/226
f 166/493/226 165/494/226 89/491/226
s 79
f 90/495/227 94/496/227 167/497/227
f 167/497/227 166/498/227 90/495/227
s 80
f 94/499/228 93/500/228 168/501/228
f 168/501/228 167/502/228 94/499/228
s 81
f 93/503/229 89/504/229 165/505/229
f 165/505/229 168/506/229 93/503/229
s 82
f 97/507/230 98/508/230 170/509/230
f 170/509/230 169/510/230 97/507/230
s 83
f 98/511/231 102/512/231 171/513/231
f 171/513/231 170/514/231 98/511/231
s 84
f 102/515/232 101/516/232 172/517/232
f 172/517/232 171/518/232 102/515/232
s 85
f 101/519/233 97/520/233 169/521/233
f 169/521/233 172/522/233 101/519/233
s 86
f 105/523/234 106/524/234 174/525/234
f 174/525/234 173/526/234 105/523/234
s 87
f 106/527/235 110/528/235 175/529/235
f 175/529/235 174/530/235 106/527/235
s 88
f 110/531/236 109/532/236 176/533/236
f 176/533/236 175/534/236 110/531/236
s 89
f 109/535/237 105/536/237 173/537/237
f 173/537/237 176/538/237 109/535/237
s 90
f 113/539/238 114/540/238 178/541/238
f 178/541/238 177/542/238 113/539/238
s 91
f 114/543/239 118/544/239 179/545/239
f 179/545/239 178/546/239 114/543/239
s 92
f 118/547/240 117/548/240 180/549/240
f 180/549/240 179/550/240 118/547/240
s 93
f 117/551/241 113/552/241 177/553/241
f 177/553/241 180/554/241 117/551/241
s 94
f 181/555/48 182/556/242 200/557/242
f 200/557/242 199/558/48 181/555/48
f 182/556/242 183/559/243 201/560/243
f 201/560/243 200/557/242 182/556/242
f 183/561/243 184/562/18 202/563/18
f 202/563/18 201/564/243 183/561/243
f 184/562/18 185/565/244 203/566/245
f 203/566/245 202/563/18 184/562/18
f 185/565/244 186/567/246 204/568/247
f 204/568/247 203/566/245 185/565/244
f 186/567/246 187/569/168 205/570/168
f 205/570/168 204/568/247 186/567/246
f 187/569/168 188/571/248 206/572/248
f 206/572/248 205/570/168 187/569/168
f 188/573/248 189/574/249 207/575/249
f 207/575/249 206/576/248 188/573/248
f 189/574/249 190/577/138 208/578/138
f 208/578/138 207/575/249 189/574/249
f 190/577/138 191/579/250 209/580/250
f 209/580/250 208/578/138 190/577/138
f 191/581/250 192/582/251 210/583/251
f 210/583/251 209/584/250 191/581/250
f 192/585/251 193/586/108 211/587/108
f 211/587/108 210/588/251 192/585/251
f 193/586/108 194/589/252 212/590/253
f 212/590/253 211/587/108 193/586/108
f 194/589/252 195/591/254 213/592/255
f 213/592/255 212/590/253 194/589/252
f 195/591/254 196/593/78 214/594/78
f 214/594/78 213/592/255 195/591/254
f 196/593/78 197/595/256 215/596/256
f 215/596/256 214/594/78 196/593/78
f 197/597/256 198/598/257 216/599/257
f 216/599/257 215/600/256 197/597/256
f 198/598/257 181/555/48 199/558/48
f 199/558/48 216/599/257 198/598/257
s 95
f 197/601/258 196/602/258 195/603/258
f 195/603/258 194/604/258 193/605/258
f 193/605/258 192/606/258 191/607/258
f 195/603/258 193/605/258 191/607/258
f 191/607/258 190/608/258 189/609/258
f 189/609/258 188/610/258 187/611/258
f 191/607/258 189/609/258 187/611/258
f 187/611/258 186/612/258 185/613/258
f 185/613/258 184/614/258 183/615/258
f 187/611/258 185/613/258 183/615/258
f 191/607/258 187/611/258 183/615/258
f 195/603/258 191/607/258 183/615/258
f 183/615/258 182/616/258 181/617/258
f 195/603/258 183/615/258 181/617/258
f 197/601/258 195/603/258 181/617/258
f 198/618/258 197/601/258 181/617/258
s 96
f 200/619/259 201/620/259 202/621/259
f 202/621/259 203/622/259 204/623/259
f 204/623/259 205/624/259 206/625/259
f 202/621/259 204/623/259 206/625/259
f 206/625/259 207/626/259 208/627/259
f 208/627/259 209/628/259 210/629/259
f 206/625/259 208/627/259 210/629/259
f 210/629/259 211/630/259 212/631/259
f 212/631/259 213/632/259 214/633/259
f 210/629/259 212/631/259 214/633/259
f 206/625/259 210/629/259 214/633/259
f 202/621/259 206/625/259 214/633/259
f 214/633/259 215/634/259 216/635/259
f 202/621/259 214/633/259 216/635/259
f 200/619/259 202/621/259 216/635/259
s 97
f 217/636/93 218/637/93 222/638/99
f 222/638/99 221/639/99 217/636/93
s 98
f 218/640/259 219/641/259 223/642/259
f 223/642/259 222/643/259 218/640/259
s 99
f 219/644/6 220/645/6 224/646/7
f 224/646/7 223/647/7 219/644/6
s 100
f 220/648/258 217/649/258 221/650/258
f 221/650/258 224/651/258 220/648/258
s 97
f 221/639/99 222/638/99 226/652/105
f 226/652/105 225/653/105 221/639/99
s 98
f 222/643/259 223/642/259 227/654/259
f 227/654/259 226/655/259 222/643/259
s 99
f 223/647/7 224/646/7 228/656/15
f 228/656/15 227/657/15 223/647/7
s 100
f 224/651/258 221/650/258 225/658/258
f 225/658/258 228/659/258 224/651/258
s 97
f 225/653/105 226/652/105 230/660/111
f 230/660/111 229/661/111 225/653/105
s 98
f 226/655/259 227/654/259 231/662/259
f 231/662/259 230/663/259 226/655/259
s 99
f 227/657/15 228/656/15 232/664/21
f 232/664/21 231/665/21 227/657/15
s 100
f 228/659/258 225/658/258 229/666/258
f 229/666/258 232/667/258 228/659/258
s 97
f 229/661/111 230/660/111 234/668/117
f 234/668/117 233/669/117 229/661/111
s 98
f 230/663/259 231/662/259 235/670/259
f 235/670/259 234/671/259 230/663/259
s 99
f 231/665/21 232/664/21 236/672/27
f 236/672/27 235/673/27 231/665/21
s 100
f 232/667/258 229/666/258 233/674/258
f 233/674/258 236/675/258 232/667/258
s 97
f 233/676/117 234/677/117 238/678/123
f 238/678/123 237/679/123 233/676/117
s 98
f 234/671/259 235/670/259 239/680/259
f 239/680/259 238/681/259 234/671/259
s 99
f 235/682/27 236/683/27 240/684/33
f 240/684/33 239/685/33 235/682/27
s 100
f 236/675/258 233/674/258 237/686/258
f 237/686/258 240/687/258 236/675/258
s 97
f 237/679/123 238/678/123 242/688/129
f 242/688/129 241/689/129 237/679/123
s 98
f 238/681/259 239/680/259 243/690/259
f 243/690/259 242/691/259 238/681/259
s 99
f 239/685/33 240/684/33 244/692/39
f 244/692/39 243/693/39 239/685/33
s 100
f 240/687/258 237/686/258 241/694/258
f 241/694/258 244/695/258 240/687/258
s 97
f 241/689/129 242/688/129 246/696/135
f 246/696/135 245/697/135 241/689/129
s 98
f 242/691/259 243/690/259 247/698/259
f 247/698/259 246/699/259 242/691/259
s 99
f 243/693/39 244/692/39 248/700/45
f 248/700/45 247/701/45 243/693/39
s 100
f 244/695/258 241/694/258 245/702/258
f 245/702/258 248/703/258 244/695/258
s 97
f 245/697/135 246/696/135 250/704/141
f 250/704/141 249/705/141 245/697/135
s 98
f 246/699/259 247/698/259 251/706/259
f 251/706/259 250/707/259 246/699/259
s 99
f 247/701/45 248/700/45 252/708/51
f 252/708/51 251/709/51 247/701/45
s 100
f 248/703/258 245/702/258 249/710/258
f 249/710/258 252/711/258 248/703/258
s 97
f 249/705/141 250/704/141 254/712/147
f 254/712/147 253/713/147 249/705/141
s 98
f 250/707/259 251/706/259 255/714/259
f 255/714/259 254/715/259 250/707/259
s 99
f 251/716/51 252/717/51 256/718/57
f 256/718/57 255/719/57 251/716/51
s 100
f 252/711/258 249/710/258 253/720/258
f 253/720/258 256/721/258 252/711/258
s 97
f 253/713/147 254/712/147 258/722/153
f 258/722/153 257/723/153 253/713/147
s 98
f 254/715/259 255/714/259 259/724/259
f 259/724/259 258/725/259 254/715/259
s 99
f 255/719/57 256/718/57 260/726/63
f 260/726/63 259/727/63 255/719/57
s 100
f 256/721/258 253/720/258 257/728/258
f 257/728/258 260/729/258 256/721/258
s 97
f 257/723/153 258/722/153 262/730/159
f 262/730/159 261/731/159 257/723/153
s 98
f 258/725/259 259/724/259 263/732/259
f 263/732/259 262/733/259 258/725/259
s 99
f 259/727/63 260/726/63 264/734/69
f 264/734/69 263/735/69 259/727/63
s 100
f 260/729/258 257/728/258 261/736/258
f 261/736/258 264/737/258 260/729/258
s 97
f 261/738/159 262/739/159 266/740/165
f 266/740/165 265/741/165 261/738/159
s 98
f 262/733/259 263/732/259 267/742/259
f 267/742/259 266/743/259 262/733/259
s 99
f 263/735/69 264/734/69 268/744/75
f 268/744/75 267/745/75 263/735/69
s 100
f 264/737/258 261/736/258 265/746/258
f 265/746/258 268/747/258 264/737/258
s 97
f 265/741/165 266/740/165 270/748/171
f 270/748/171 269/749/171 265/741/165
s 98
f 266/743/259 267/742/259 271/750/259
f 271/750/259 270/751/259 266/743/259
s 99
f 267/752/75 268/753/75 272/754/81
f 272/754/81 271/755/81 267/752/75
s 100
f 268/747/258 265/746/258 269/756/258
f 269/756/258 272/757/258 268/747/258
s 97
f 269/749/171 270/748/171 274/758/177
f 274/758/177 273/759/177 269/749/171
s 98
f 270/751/259 271/750/259 275/760/259
f 275/760/259 274/761/259 270/751/259
s 99
f 271/755/81 272/754/81 276/762/87
f 276/762/87 275/763/87 271/755/81
s 100
f 272/757/258 269/756/258 273/764/258
f 273/764/258 276/765/258 272/757/258
s 97
f 273/759/177 274/758/177 278/766/6
f 278/766/6 277/767/6 273/759/177
s 98
f 274/761/259 275/760/259 279/768/259
f 279/768/259 278/769/259 274/761/259
s 99
f 275/763/87 276/762/87 280/770/93
f 280/770/93 279/771/93 275/763/87
s 100
f 276/765/258 273/764/258 277/772/258
f 277/772/258 280/773/258 276/765/258
s 97
f 277/774/6 278/775/6 282/776/7
f 282/776/7 281/777/7 277/774/6
s 98
f 278/769/259 279/768/259 283/778/259
f 283/778/259 282/779/259 278/769/259
s 99
f 279/771/93 280/770/93 284/780/99
f 284/780/99 283/781/99 279/771/93
s 100
f 280/773/258 277/772/258 281/782/258
f 281/782/258 284/783/258 280/773/258
s 97
f 281/777/7 282/776/7 286/784/15
f 286/784/15 285/785/15 281/777/7
s 98
f 282/779/259 283/778/259 287/786/259
f 287/786/259 286/787/259 282/779/259
s 99
f 283/788/99 284/789/99 288/790/105
f 288/790/105 287/791/105 283/788/99
s 100
f 284/783/258 281/782/258 285/792/258
f 285/792/258 288/793/258 284/783/258
s 97
f 285/785/15 286/784/15 290/794/21
f 290/794/21 289/795/21 285/785/15
s 98
f 286/787/259 287/786/259 291/796/259
f 291/796/259 290/797/259 286/787/259
s 99
f 287/791/105 288/790/105 292/798/111
f 292/798/111 291/799/111 287/791/105
s 100
f 288/793/258 285/792/258 289/800/258
f 289/800/258 292/801/258 288/793/258
s 97
f 289/795/21 290/794/21 294/802/27
f 294/802/27 293/803/27 289/795/21
s 98
f 290/797/259 291/796/259 295/804/259
f 295/804/259 294/805/259 290/797/259
s 99
f 291/799/111 292/798/111 296/806/117
f 296/806/117 295/807/117 291/799/111
s 100
f 292/801/258 289/800/258 293/808/258
f 293/808/258 296/809/258 292/801/258
s 97
f 293/810/27 294/811/27 298/812/33
f 298/812/33 297/813/33 293/810/27
s 98
f 294/805/259 295/804/259 299/814/259
f 299/814/259 298/815/259 294/805/259
s 99
f 295/807/117 296/806/117 300/816/123
f 300/816/123 299/817/123 295/807/117
s 100
f 296/809/258 293/808/258 297/818/258
f 297/818/258 300/819/258 296/809/258
s 97
f 297/813/33 298/812/33 302/820/39
f 302/820/39 301/821/39 297/813/33
s 98
f 298/815/259 299/814/259 303/822/259
f 303/822/259 302/823/259 298/815/259
s 99
f 299/824/123 300/825/123 304/826/129
f 304/826/129 303/827/129 299/824/123
s 100
f 300/819/258 297/818/258 301/828/258
f 301/828/258 304/829/258 300/819/258
s 97
f 301/821/39 302/820/39 306/830/45
f 306/830/45 305/831/45 301/821/39
s 98
f 302/823/259 303/822/259 307/832/259
f 307/832/259 306/833/259 302/823/259
s 99
f 303/827/129 304/826/129 308/834/135
f 308/834/135 307/835/135 303/827/129
s 100
f 304/829/258 301/828/258 305/836/258
f 305/836/258 308/837/258 304/829/258
s 97
f 305/831/45 306/830/45 310/838/51
f 310/838/51 309/839/51 305/831/45
s 98
f 306/833/259 307/832/259 311/840/259
f 311/840/259 310/841/259 306/833/259
s 99
f 307/835/135 308/834/135 312/842/141
f 312/842/141 311/843/141 307/835/135
s 100
f 308/837/258 305/836/258 309/844/258
f 309/844/258 312/845/258 308/837/258
s 97
f 309/839/51 310/838/51 314/846/57
f 314/846/57 313/847/57 309/839/51
s 98
f 310/841/259 311/840/259 315/848/259
f 315/848/259 314/849/259 310/841/259
s 99
f 311/843/141 312/842/141 316/850/147
f 316/850/147 315/851/147 311/843/141
s 100
f 312/845/258 309/844/258 313/852/258
f 313/852/258 316/853/258 312/845/258
s 97
f 313/847/57 314/846/57 318/854/63
f 318/854/63 317/855/63 313/847/57
s 98
f 314/849/259 315/848/259 319/856/259
f 319/856/259 318/857/259 314/849/259
s 99
f 315/858/147 316/859/147 320/860/153
f 320/860/153 319/861/153 315/858/147
s 100
f 316/853/258 313/852/258 317/862/258
f 317/862/258 320/863/258 316/853/258
s 97
f 317/855/63 318/854/63 322/864/69
f 322/864/69 321/865/69 317/855/63
s 98
f 318/857/259 319/856/259 323/866/259
f 323/866/259 322/867/259 318/857/259
s 99
f 319/861/153 320/860/153 324/868/159
f 324/868/159 323/869/159 319/861/153
s 100
f 320/863/258 317/862/258 321/870/258
f 321/870/258 324/871/258 320/863/258
s 97
f 321/872/69 322/873/69 326/874/75
f 326/874/75 325/875/75 321/872/69
s 98
f 322/867/259 323/866/259 327/876/259
f 327/876/259 326/877/259 322/867/259
s 99
f 323/869/159 324/868/159 328/878/165
f 328/878/165 327/879/165 323/869/159
s 100
f 324/871/258 321/870/258 325/880/258
f 325/880/258 328/881/258 324/871/258
s 97
f 325/882/75 326/883/75 330/884/81
f 330/884/81 329/885/81 325/882/75
s 98
f 326/877/259 327/876/259 331/886/259
f 331/886/259 330/887/259 326/877/259
s 99
f 327/888/165 328/889/165 332/890/171
f 332/890/171 331/891/171 327/888/165
s 100
f 328/881/258 325/880/258 329/892/258
f 329/892/258 332/893/258 328/881/258
s 97
f 329/885/81 330/884/81 334/894/87
f 334/894/87 333/895/87 329/885/81
s 98
f 330/887/259 331/886/259 335/896/259
f 335/896/259 334/897/259 330/887/259
s 99
f 331/891/171 332/890/171 336/898/177
f 336/898/177 335/899/177 331/891/171
s 100
f 332/893/258 329/892/258 333/900/258
f 333/900/258 336/901/258 332/893/258
s 97
f 333/895/87 334/894/87 218/637/93
f 218/637/93 217/636/93 333/895/87
s 98
f 334/897/259 335/896/259 219/641/259
f 219/641/259 218/640/259 334/897/259
s 99
f 335/899/177 336/898/177 220/645/6
f 220/645/6 219/644/6 335/899/177
s 100
f 336/901/258 333/900/258 217/649/258
f 217/649/258 220/648/258 336/901/258
