# Blender 5.0.1
# www.blender.org
mtllib goddard_cola.mtl
g Cola_Malla
v 0.090676 -0.102927 -0.118069
v 0.074055 -0.084330 0.095641
v -0.010227 0.115549 0.109823
v 0.006217 0.097065 -0.103923
v -0.611701 0.036344 0.031780
v -0.618052 0.043512 0.115396
v -0.302155 -0.098960 0.139503
v -0.285534 -0.117557 -0.074207
v -0.297145 0.090539 0.142926
v -0.280652 0.072023 -0.070705
v -0.786776 0.205566 0.103999
v -0.616191 0.117809 0.116840
v -0.791858 0.195448 0.104403
v -0.609714 0.110560 0.033145
v -0.790869 0.194274 0.090819
v -0.785735 0.204360 0.090529
vn 0.4137 0.9092 -0.0467
vn 0.4136 0.9093 -0.0465
vn 0.4137 0.9092 -0.0469
vn -0.0492 0.9947 -0.0904
vn 0.0972 -0.9909 0.0933
vn 0.0973 -0.9909 0.0934
vn 0.0971 -0.9909 0.0932
vn -0.1165 0.0211 -0.9930
vn -0.1167 0.0212 -0.9929
vn -0.1165 0.0212 -0.9930
vn -0.1166 0.0213 -0.9930
vn 0.1168 -0.0209 0.9929
vn 0.1166 -0.0213 0.9929
vn 0.1167 -0.0211 0.9929
vn 0.0725 0.0056 -0.9974
vn -0.0913 -0.9927 0.0789
vn -0.0914 -0.9927 0.0789
vn -0.0913 -0.9927 0.0790
vn 0.0831 0.0160 -0.9964
vn 0.0832 0.0158 -0.9964
vn 0.0832 0.0160 -0.9964
vn 0.0833 0.0161 -0.9964
vn 0.2934 -0.0321 0.9554
vn 0.2981 -0.0253 0.9542
vn 0.2907 -0.0344 0.9562
vn 0.8895 -0.4442 0.1073
vn 0.8895 -0.4441 0.1073
vn 0.2888 -0.0350 0.9568
vn 0.6586 0.7524 -0.0144
vn 0.6586 0.7524 -0.0145
vn 0.6585 0.7524 -0.0143
vn 0.6585 0.7524 -0.0144
vn -0.4593 -0.8873 0.0415
vn -0.4594 -0.8873 0.0413
vn -0.4594 -0.8873 0.0414
vn -0.4592 -0.8874 0.0416
vt 1.000000 0.000000
vt 1.000000 1.000000
vt 0.000000 1.000000
vt 0.000000 0.000000
s 1
g off
g Cola_Goddard_None
usemtl Goddard_None
f 5/1/1 6/2/2 7/2/3
f 7/2/3 8/1/3 5/1/1
s 2
f 8/1/4 7/2/4 2/2/4
f 2/2/4 1/1/4 8/1/4
s 3
f 9/3/5 10/4/6 4/4/5
f 4/4/5 3/3/7 9/3/5
s 4
f 7/2/8 9/3/9 3/3/10
f 3/3/10 2/2/11 7/2/8
s 5
f 10/4/12 8/1/13 1/1/14
f 1/1/14 4/4/12 10/4/12
s 6
f 11/3/15 12/3/15 6/2/15
f 6/2/15 13/2/15 11/3/15
s 7
f 12/3/16 14/4/17 10/4/18
f 10/4/18 9/3/18 12/3/16
s 8
f 9/3/19 7/2/20 6/2/21
f 6/2/21 12/3/22 9/3/19
s 9
f 5/1/23 8/1/24 10/4/24
f 10/4/24 14/4/25 5/1/23
s 10
f 11/3/26 13/2/26 15/1/27
f 15/1/27 16/4/26 11/3/26
s 9
f 14/4/25 16/4/28 15/1/28
f 15/1/28 5/1/23 14/4/25
s 11
f 13/2/29 6/2/30 5/1/31
f 5/1/31 15/1/32 13/2/29
s 12
f 16/4/33 14/4/34 12/3/35
f 12/3/35 11/3/36 16/4/33
