# Blender 5.0.1
# www.blender.org
mtllib llanta_derecha.mtl
o MS_Car_Wheel_FR
v -0.197486 -0.081801 0.031549
v -0.000000 -0.213757 0.031549
v 0.151149 -0.151149 0.031549
v 0.197486 -0.081801 0.031549
v 0.151149 0.151149 0.031549
v 0.081801 0.197486 0.031549
v -0.000000 0.213757 0.031549
v -0.081802 0.197486 0.031549
v -0.000001 0.000000 -0.176268
v -0.326822 0.000000 -0.176268
v -0.231098 -0.231097 -0.176268
v -0.125070 -0.301943 0.031549
v 0.125069 -0.301943 -0.176268
v 0.231097 -0.231097 -0.176268
v 0.301943 -0.125069 0.031549
v 0.301943 0.125070 0.031549
v 0.231097 0.231098 -0.176268
v -0.125070 0.301944 0.031549
v -0.231098 0.231098 0.031549
v -0.301944 0.125070 0.031549
v -0.072066 -0.029850 0.012234
v -0.078003 0.000000 0.012234
v -0.055157 -0.055156 0.012234
v -0.029851 -0.072065 0.012234
v 0.029850 -0.072065 0.012234
v 0.055156 -0.055156 0.012234
v 0.072065 -0.029850 0.012234
v 0.072065 0.029851 0.012234
v 0.029850 0.072065 0.012234
v -0.029851 0.072065 0.012234
v -0.072066 0.029851 0.012234
v -0.197486 -0.081801 0.012234
v -0.000000 -0.213757 0.012234
v 0.081801 -0.197486 0.012234
v 0.151149 0.151149 0.012234
v 0.081801 0.197486 0.012234
v -0.081802 0.197486 0.012234
v -0.197486 0.081802 0.012234
v -0.000000 -0.039301 0.014953
v -0.015040 -0.036309 0.014953
v 0.015039 -0.036309 0.014953
v 0.039300 0.000000 0.014953
v 0.015039 0.036309 0.014953
v -0.036309 -0.015040 0.014953
v -0.036309 0.015040 0.014953
v -0.151150 -0.151149 0.002274
v -0.197486 -0.081801 0.002274
v -0.000000 -0.213757 0.002274
v 0.151149 -0.151149 0.002274
v 0.081801 -0.197486 0.002274
v 0.197486 -0.081801 0.002274
v 0.081801 0.197486 0.002274
v -0.151149 0.151149 0.002274
v -0.213758 0.000000 0.002274
v -0.197486 0.081802 0.002274
v -0.055157 -0.055156 0.002274
v 0.055156 -0.055156 0.002274
v 0.029850 -0.072065 0.002274
v 0.072065 -0.029850 0.002274
v -0.000000 0.078003 0.002274
v 0.029850 0.072065 0.002274
v -0.078003 0.000000 0.002274
v -0.000000 -0.073776 0.021030
v 0.028232 -0.068160 0.021030
v 0.052167 -0.052167 0.021030
v 0.068159 -0.028233 0.021030
v 0.068159 0.028233 0.021030
v -0.052168 0.052167 0.021030
v -0.068160 -0.028233 0.021030
v -0.000000 0.073776 0.021030
v -0.068160 0.028233 0.021030
v 0.027789 -0.027790 0.014953
v 0.027789 0.027790 0.014953
v -0.039301 0.000000 0.014953
v -0.000000 -0.047825 0.014953
v -0.018302 -0.044185 0.014953
v 0.044184 -0.018302 0.014953
v 0.033817 -0.033817 0.014953
v 0.044184 0.018302 0.014953
v -0.018302 0.044185 0.014953
v -0.000000 0.047825 0.014953
v -0.044185 -0.018302 0.014953
v -0.047826 0.000000 0.014953
v -0.044185 0.018302 0.014953
v 0.012500 -0.030179 0.022149
v 0.030179 -0.012500 0.022149
v 0.023098 -0.023098 0.022149
v 0.030179 0.012501 0.022149
v 0.023098 0.023098 0.022149
v -0.000000 0.032666 0.022149
v 0.032665 0.000000 0.022149
v -0.030179 -0.012500 0.022149
v -0.032666 0.000000 0.022149
v -0.023098 -0.023098 0.022149
v 0.044184 -0.018302 0.010356
v 0.033817 -0.033817 0.010356
v -0.018302 0.044185 0.010356
v -0.000000 0.047825 0.010356
v 0.033817 0.033818 0.010356
v 0.018302 0.044185 0.010356
v -0.044185 -0.018302 0.010356
v -0.018302 -0.044185 0.010356
v 0.047825 0.000000 0.010356
v -0.033818 0.033818 0.010356
v -0.000000 -0.039301 0.010356
v 0.027789 -0.027790 0.010356
v 0.027789 0.027790 0.010356
v -0.036309 -0.015040 0.010356
v -0.039301 0.000000 0.010356
v -0.027790 -0.027790 0.010356
v -0.036309 0.015040 0.010356
v -0.027790 0.027790 0.010356
v -0.213758 0.000000 0.031549
v -0.151150 -0.151149 0.031549
v -0.081802 -0.197486 0.031549
v 0.081801 -0.197486 0.031549
v 0.213757 0.000000 0.031549
v 0.197486 0.081802 0.031549
v -0.151149 0.151149 0.031549
v -0.197486 0.081802 0.031549
v -0.301944 -0.125069 -0.176268
v -0.301944 -0.125069 0.031549
v -0.326822 0.000000 0.031549
v -0.231098 -0.231097 0.031549
v -0.125070 -0.301943 -0.176268
v -0.000001 -0.326821 -0.176268
v -0.000001 -0.326821 0.031549
v 0.125069 -0.301943 0.031549
v 0.231097 -0.231097 0.031549
v 0.301943 -0.125069 -0.176268
v 0.326821 0.000000 -0.176268
v 0.326821 0.000000 0.031549
v 0.301943 0.125070 -0.176268
v 0.231097 0.231098 0.031549
v 0.125069 0.301944 -0.176268
v 0.125069 0.301944 0.031549
v -0.000000 0.326822 -0.176268
v -0.000000 0.326822 0.031549
v -0.125070 0.301944 -0.176268
v -0.231098 0.231098 -0.176268
v -0.301944 0.125070 -0.176268
v -0.000000 -0.078003 0.012234
v 0.078003 0.000000 0.012234
v 0.055156 0.055156 0.012234
v -0.000000 0.078003 0.012234
v -0.055157 0.055157 0.012234
v -0.213758 0.000000 0.012234
v -0.151150 -0.151149 0.012234
v -0.081802 -0.197486 0.012234
v 0.151149 -0.151149 0.012234
v 0.197486 -0.081801 0.012234
v 0.213757 0.000000 0.012234
v 0.197486 0.081802 0.012234
v -0.000000 0.213757 0.012234
v -0.151149 0.151149 0.012234
v -0.081802 -0.197486 0.002274
v 0.213757 0.000000 0.002274
v 0.151149 0.151149 0.002274
v 0.197486 0.081802 0.002274
v -0.000000 0.213757 0.002274
v -0.081802 0.197486 0.002274
v -0.072066 -0.029850 0.002274
v -0.000000 -0.078003 0.002274
v -0.029851 -0.072065 0.002274
v 0.078003 0.000000 0.002274
v 0.055156 0.055156 0.002274
v 0.072065 0.029851 0.002274
v -0.055157 0.055157 0.002274
v -0.029851 0.072065 0.002274
v -0.072066 0.029851 0.002274
v -0.028233 -0.068160 0.021030
v 0.073775 0.000000 0.021030
v 0.052167 0.052167 0.021030
v 0.028232 0.068160 0.021030
v -0.028233 0.068160 0.021030
v -0.073776 0.000000 0.021030
v -0.052168 -0.052167 0.021030
v 0.036309 -0.015040 0.014953
v 0.036309 0.015040 0.014953
v -0.015040 0.036309 0.014953
v -0.027790 0.027790 0.014953
v -0.027790 -0.027790 0.014953
v -0.000000 0.039301 0.014953
v 0.018302 -0.044185 0.014953
v 0.033817 0.033818 0.014953
v -0.033818 0.033818 0.014953
v 0.047825 0.000000 0.014953
v 0.018302 0.044185 0.014953
v -0.033818 -0.033817 0.014953
v -0.000000 0.000000 0.022149
v -0.000001 -0.032665 0.022149
v -0.012501 -0.030179 0.022149
v -0.012501 0.030179 0.022149
v -0.023098 0.023098 0.022149
v 0.012500 0.030179 0.022149
v -0.030179 0.012501 0.022149
v 0.018302 -0.044185 0.010356
v -0.000000 -0.047825 0.010356
v -0.047826 0.000000 0.010356
v -0.033818 -0.033817 0.010356
v 0.044184 0.018302 0.010356
v -0.044185 0.018302 0.010356
v 0.015039 -0.036309 0.010356
v 0.036309 -0.015040 0.010356
v -0.015040 0.036309 0.010356
v -0.000000 0.039301 0.010356
v 0.015039 0.036309 0.010356
v -0.015040 -0.036309 0.010356
v 0.036309 0.015040 0.010356
v 0.039300 0.000000 0.010356
vn -0.9239 -0.3827 -0.0000
vn -1.0000 -0.0000 -0.0000
vn -0.7071 -0.7071 -0.0000
vn -0.3827 -0.9239 -0.0000
vn -0.0000 -1.0000 -0.0000
vn 0.3827 -0.9239 -0.0000
vn 0.7071 -0.7071 -0.0000
vn 0.9239 -0.3827 -0.0000
vn 1.0000 -0.0000 -0.0000
vn 0.9239 0.3827 -0.0000
vn 0.7071 0.7071 -0.0000
vn 0.3827 0.9239 -0.0000
vn -0.3827 0.9239 -0.0000
vn -0.0000 1.0000 -0.0000
vn -0.7071 0.7071 -0.0000
vn -0.9239 0.3827 -0.0000
vn 0.6588 -0.7523 -0.0000
vn -0.0000 -0.0000 -1.0000
vn -0.0000 -0.0000 1.0000
vn -0.3006 -0.9087 0.2896
vn -0.6373 -0.6373 0.4331
vn -0.7245 -0.6255 0.2896
vn 0.8965 0.4430 -0.0000
vn -0.9978 0.0662 -0.0000
vn 0.9472 -0.3207 -0.0000
vn 0.7523 0.6588 -0.0000
vn 0.9978 -0.0662 -0.0000
vn -0.7523 -0.6588 -0.0000
vn 0.0662 0.9978 -0.0000
vn -0.3207 -0.9472 -0.0000
vn -0.4430 0.8965 -0.0000
vn -0.0662 -0.9978 -0.0000
vn -0.6588 0.7523 -0.0000
vn 0.4430 -0.8965 -0.0000
vn -0.9472 0.3207 -0.0000
vn -0.1951 -0.9808 -0.0000
vn -0.0700 -0.9546 0.2896
vn -0.9808 0.1951 -0.0000
vn -0.9546 0.0700 0.2896
vn -0.9087 0.3006 0.2896
vn -0.8315 -0.5556 -0.0000
vn -0.8551 -0.4300 0.2896
vn 0.7245 0.6255 0.2896
vn 0.8327 0.3449 0.4331
vn 0.8551 0.4300 0.2896
vn -0.0000 -0.9013 0.4331
vn 0.3449 0.8327 0.4331
vn 0.3006 0.9087 0.2896
vn 0.3449 -0.8327 0.4331
vn 0.4300 -0.8551 0.2896
vn 0.0700 0.9546 0.2896
vn 0.6373 -0.6373 0.4332
vn 0.6255 -0.7245 0.2896
vn -0.3449 0.8327 0.4331
vn -0.4300 0.8551 0.2896
vn 0.8327 -0.3449 0.4331
vn 0.9087 -0.3006 0.2896
vn -0.6255 0.7245 0.2896
vn 0.9013 -0.0000 0.4331
vn 0.9546 -0.0700 0.2896
vn -0.6373 0.6373 0.4331
vn -0.8327 -0.3449 0.4331
vn -0.8327 0.3449 0.4331
vn -0.8965 -0.4430 -0.0000
vn 0.5556 -0.8315 -0.0000
vn 0.9808 -0.1951 -0.0000
vn 0.8315 0.5556 -0.0000
vn 0.1951 0.9808 -0.0000
vn 0.3207 0.9472 -0.0000
vn -0.5556 0.8315 -0.0000
vn 0.0873 0.2106 0.9737
vn -0.0000 0.1649 0.9863
vn 0.0631 0.1523 0.9863
vn -0.0000 0.2280 0.9737
vn -0.0631 0.1523 0.9863
vn -0.1612 0.1612 0.9737
vn -0.1166 0.1166 0.9863
vn -0.2106 0.0873 0.9737
vn -0.1523 0.0631 0.9863
vn -0.1649 -0.0000 0.9863
vn -0.2106 -0.0873 0.9737
vn -0.1166 -0.1166 0.9863
vn -0.1523 -0.0631 0.9863
vn 0.0873 -0.2106 0.9737
vn 0.1166 -0.1166 0.9863
vn 0.0631 -0.1523 0.9863
vn 0.2280 -0.0000 0.9737
vn 0.1523 0.0631 0.9863
vn 0.1649 -0.0000 0.9863
vn 0.1612 0.1612 0.9737
vn 0.1166 0.1166 0.9863
vn -0.0631 -0.1523 0.9863
vn -0.0000 -0.2280 0.9737
vn -0.0000 -0.1649 0.9863
vn 0.1612 -0.1612 0.9737
vn 0.1523 -0.0631 0.9863
vn 0.2106 -0.0873 0.9737
vn -0.5198 0.5198 0.6779
vn -0.6792 0.2813 0.6779
vn 0.9808 0.1951 -0.0000
vn -0.5556 -0.8315 -0.0000
vn -0.1951 0.9808 -0.0000
vn -0.9808 -0.1951 -0.0000
vn 0.5556 0.8315 -0.0000
vn 0.5198 -0.5198 0.6779
vn 0.6792 -0.2813 0.6779
vn -0.0000 0.7352 0.6779
vn -0.2813 0.6792 0.6779
vn 0.7352 -0.0000 0.6779
vn 0.6792 0.2813 0.6779
vn -0.5198 -0.5198 0.6779
vn -0.2813 -0.6792 0.6779
vn 0.5198 0.5198 0.6779
vn 0.2813 0.6792 0.6779
vn 0.2813 -0.6792 0.6779
vn -0.7352 -0.0000 0.6779
vn -0.6792 -0.2813 0.6779
vn -0.0000 -0.7352 0.6779
vn -0.8315 0.5556 -0.0000
vn 0.1951 -0.9808 -0.0000
vn 0.8315 -0.5556 -0.0000
vn -0.1612 -0.1612 0.9737
vn 0.6373 0.6373 0.4331
vn -0.0000 0.9013 0.4331
vn -0.0873 0.2106 0.9737
vn -0.2280 -0.0000 0.9737
vn 0.2106 0.0873 0.9737
vn -0.0873 -0.2106 0.9737
vn -0.3449 -0.8327 0.4331
vn -0.9013 -0.0000 0.4331
vt 0.023566 0.516762
vt 0.108991 0.523830
s 1
g off
g MS_Car_Wheel_FR_MT_Car
usemtl MT_Car
f 121/1/1 123/1/2 10/1/2
f 11/1/3 122/1/1 121/1/1
f 125/1/4 124/1/3 11/1/3
f 126/1/5 12/1/4 125/1/4
f 13/1/6 127/1/5 126/1/5
f 14/1/7 128/1/6 13/1/6
f 130/1/8 129/1/7 14/1/7
f 131/1/9 15/1/8 130/1/8
f 133/1/10 132/1/9 131/1/9
f 133/1/10 134/1/11 16/1/10
f 135/1/12 134/1/11 17/1/11
f 139/1/13 138/1/14 137/1/14
f 140/1/15 18/1/13 139/1/13
f 141/1/16 19/1/15 140/1/15
f 10/1/2 20/1/16 141/1/16
f 155/1/17 8/1/6 119/1/7
f 140/1/18 9/1/18 141/1/18
f 123/1/19 1/1/19 113/1/19
f 139/1/18 9/1/18 140/1/18
f 1/1/19 124/1/19 114/1/19
f 137/1/18 9/1/18 139/1/18
f 124/1/19 115/1/19 114/1/19
f 135/1/18 9/1/18 137/1/18
f 12/1/19 2/1/19 115/1/19
f 17/1/18 9/1/18 135/1/18
f 127/1/19 116/1/19 2/1/19
f 133/1/18 9/1/18 17/1/18
f 116/1/19 129/1/19 3/1/19
f 131/1/18 9/1/18 133/1/18
f 129/1/19 4/1/19 3/1/19
f 130/1/18 9/1/18 131/1/18
f 4/1/19 132/1/19 117/1/19
f 14/1/18 9/1/18 130/1/18
f 132/1/19 118/1/19 117/1/19
f 13/1/18 9/1/18 14/1/18
f 118/1/19 134/1/19 5/1/19
f 126/1/18 9/1/18 13/1/18
f 134/1/19 6/1/19 5/1/19
f 125/1/18 9/1/18 126/1/18
f 6/1/19 138/1/19 7/1/19
f 11/1/18 9/1/18 125/1/18
f 138/1/19 8/1/19 7/1/19
f 121/1/18 9/1/18 11/1/18
f 8/1/19 19/1/19 119/1/19
f 19/1/19 120/1/19 119/1/19
f 10/1/18 9/1/18 121/1/18
f 120/1/19 123/1/19 113/1/19
f 24/2/20 177/2/21 23/2/22
f 32/1/23 113/1/9 1/1/10
f 152/1/24 4/1/16 117/1/2
f 38/1/25 119/1/7 120/1/8
f 148/1/26 1/1/10 114/1/11
f 147/1/27 120/1/8 113/1/9
f 35/1/28 118/1/1 5/1/3
f 33/1/29 115/1/12 2/1/14
f 36/1/30 5/1/3 6/1/4
f 34/1/31 2/1/14 116/1/13
f 154/1/32 6/1/4 7/1/5
f 150/1/33 116/1/13 3/1/15
f 37/1/34 7/1/5 8/1/6
f 151/1/35 3/1/15 4/1/16
f 147/2/19 21/2/19 22/2/19
f 168/2/11 155/2/11 146/2/11
f 148/2/19 24/2/19 23/2/19
f 164/2/36 142/2/37 24/2/20
f 33/2/19 25/2/19 142/2/19
f 62/2/14 147/2/14 22/2/14
f 150/2/19 27/2/19 26/2/19
f 161/2/1 30/2/1 37/2/1
f 152/2/19 28/2/19 143/2/19
f 157/1/38 151/1/35 152/1/24
f 35/2/19 29/2/19 144/2/19
f 170/2/38 22/2/39 31/2/40
f 154/2/19 30/2/19 145/2/19
f 60/2/9 154/2/9 145/2/9
f 146/2/19 38/2/19 31/2/19
f 162/2/41 23/2/22 21/2/42
f 177/2/21 21/2/42 23/2/22
f 144/2/43 67/2/44 28/2/45
f 63/2/46 24/2/20 142/2/37
f 174/2/47 144/2/43 29/2/48
f 64/2/49 142/2/37 25/2/50
f 145/2/51 174/2/47 29/2/48
f 65/2/52 25/2/50 26/2/53
f 175/2/54 145/2/51 30/2/55
f 66/2/56 26/2/53 27/2/57
f 146/2/58 175/2/54 30/2/55
f 172/2/59 27/2/57 143/2/60
f 31/2/40 68/2/61 146/2/58
f 69/2/62 22/2/39 21/2/42
f 28/2/45 172/2/59 143/2/60
f 22/2/39 71/2/63 31/2/40
f 141/1/18 9/1/18 10/1/18
f 162/1/19 46/1/19 56/1/19
f 156/1/19 163/1/19 164/1/19
f 58/1/19 49/1/19 57/1/19
f 51/1/19 165/1/19 59/1/19
f 61/1/19 160/1/19 60/1/19
f 161/1/19 168/1/19 169/1/19
f 170/1/19 54/1/19 62/1/19
f 47/2/6 21/2/6 32/2/6
f 158/1/41 153/1/64 35/1/28
f 55/2/4 31/2/4 38/2/4
f 56/2/15 148/2/15 23/2/15
f 58/2/65 26/2/53 25/2/50
f 156/2/8 24/2/8 149/2/8
f 160/1/36 36/1/30 154/1/32
f 163/2/2 33/2/2 142/2/2
f 59/2/66 143/2/60 27/2/57
f 50/2/10 25/2/10 34/2/10
f 53/1/65 37/1/34 155/1/17
f 57/2/3 150/2/3 26/2/3
f 167/2/67 144/2/43 28/2/45
f 46/1/67 32/1/23 148/1/26
f 51/2/12 27/2/12 151/2/12
f 54/1/66 38/1/25 147/1/27
f 61/2/68 145/2/51 29/2/48
f 48/1/68 149/1/69 33/1/29
f 159/2/13 28/2/13 153/2/13
f 166/2/7 35/2/7 144/2/7
f 169/2/70 146/2/58 30/2/55
f 49/1/70 34/1/31 150/1/33
f 52/2/16 29/2/16 36/2/16
f 171/2/71 75/2/72 76/2/73
f 63/2/74 184/2/75 75/2/72
f 184/2/75 65/2/76 78/2/77
f 78/2/77 66/2/78 77/2/79
f 66/2/78 187/2/80 77/2/79
f 67/2/81 185/2/82 79/2/83
f 175/2/84 186/2/85 80/2/86
f 176/2/87 82/2/88 83/2/89
f 82/2/88 177/2/90 189/2/91
f 177/2/90 76/2/73 189/2/91
f 187/2/80 67/2/81 79/2/83
f 188/2/92 70/2/93 81/2/94
f 81/2/94 175/2/84 80/2/86
f 68/2/95 84/2/96 186/2/85
f 71/2/97 83/2/89 84/2/96
f 181/2/98 196/2/99 194/2/98
f 40/2/19 75/2/72 39/2/19
f 101/2/100 83/2/100 82/2/100
f 104/2/3 181/2/3 186/2/3
f 79/2/83 73/2/19 179/2/19
f 80/2/86 181/2/19 180/2/19
f 100/2/101 185/2/101 188/2/101
f 184/2/75 72/2/19 41/2/19
f 77/2/79 42/2/19 178/2/19
f 205/2/10 80/2/10 180/2/10
f 197/2/102 75/2/102 184/2/102
f 44/2/19 189/2/91 182/2/19
f 109/2/103 44/2/103 74/2/103
f 99/2/15 73/2/15 185/2/15
f 43/2/19 81/2/94 183/2/19
f 107/2/104 43/2/104 73/2/104
f 45/2/19 83/2/89 74/2/19
f 87/2/105 178/2/106 86/2/106
f 90/2/107 180/2/108 193/2/108
f 42/2/109 88/2/110 91/2/109
f 94/2/111 40/2/112 192/2/112
f 73/2/113 195/2/114 89/2/113
f 43/2/114 90/2/107 195/2/114
f 86/2/106 42/2/109 91/2/109
f 41/2/115 87/2/105 85/2/115
f 74/2/116 92/2/117 93/2/116
f 196/2/99 74/2/116 93/2/116
f 92/2/117 182/2/111 94/2/111
f 179/2/110 89/2/113 88/2/110
f 39/2/118 85/2/115 191/2/118
f 193/2/19 190/2/19 90/2/19
f 90/2/19 190/2/19 195/2/19
f 195/2/19 190/2/19 89/2/19
f 89/2/19 190/2/19 88/2/19
f 88/2/19 190/2/19 91/2/19
f 91/2/19 190/2/19 86/2/19
f 86/2/19 190/2/19 87/2/19
f 87/2/19 190/2/19 85/2/19
f 85/2/19 190/2/19 191/2/19
f 192/2/19 190/2/19 94/2/19
f 94/2/19 190/2/19 92/2/19
f 92/2/19 190/2/19 93/2/19
f 93/2/19 190/2/19 196/2/19
f 191/2/118 40/2/112 39/2/118
f 198/1/19 203/1/19 105/1/19
f 96/1/19 204/1/19 106/1/19
f 98/1/19 205/1/19 206/1/19
f 107/1/19 100/1/19 207/1/19
f 199/1/19 108/1/19 109/1/19
f 110/1/19 102/1/19 208/1/19
f 210/1/19 201/1/19 209/1/19
f 104/1/19 111/1/19 112/1/19
f 110/2/101 40/2/101 182/2/101
f 98/2/2 183/2/2 81/2/2
f 210/2/100 179/2/100 42/2/100
f 103/2/14 42/2/14 187/2/14
f 102/2/104 189/2/104 76/2/104
f 207/2/8 188/2/8 43/2/8
f 201/2/103 187/2/103 79/2/103
f 112/2/119 45/2/119 181/2/119
f 105/2/120 41/2/120 39/2/120
f 199/2/5 74/2/5 83/2/5
f 106/2/121 178/2/121 72/2/121
f 108/2/13 82/2/13 44/2/13
f 202/2/121 186/2/121 84/2/121
f 208/2/16 76/2/16 40/2/16
f 200/2/7 182/2/7 189/2/7
f 198/2/9 39/2/9 75/2/9
f 95/2/119 78/2/119 77/2/119
f 111/2/12 84/2/12 45/2/12
f 203/2/1 184/2/1 41/2/1
f 96/2/11 72/2/11 78/2/11
f 204/2/4 77/2/4 178/2/4
f 97/2/120 81/2/120 80/2/120
f 209/2/6 79/2/6 179/2/6
f 137/1/14 136/1/12 135/1/12
f 153/1/64 117/1/2 118/1/1
f 149/1/69 114/1/11 115/1/12
f 167/1/19 158/1/19 166/1/19
f 165/2/5 152/2/5 143/2/5
f 173/2/122 188/2/92 185/2/82
f 180/2/108 194/2/98 193/2/108
f 196/2/19 190/2/19 194/2/19
f 194/2/19 190/2/19 193/2/19
f 191/2/19 190/2/19 192/2/19
f 206/2/102 180/2/102 183/2/102
f 14/1/7 129/1/7 128/1/6
f 130/1/8 15/1/8 129/1/7
f 131/1/9 132/1/9 15/1/8
f 133/1/10 16/1/10 132/1/9
f 133/1/10 17/1/11 134/1/11
f 135/1/12 136/1/12 134/1/11
f 139/1/13 18/1/13 138/1/14
f 155/1/17 37/1/34 8/1/6
f 123/1/19 122/1/19 1/1/19
f 1/1/19 122/1/19 124/1/19
f 124/1/19 12/1/19 115/1/19
f 12/1/19 127/1/19 2/1/19
f 127/1/19 128/1/19 116/1/19
f 116/1/19 128/1/19 129/1/19
f 129/1/19 15/1/19 4/1/19
f 4/1/19 15/1/19 132/1/19
f 132/1/19 16/1/19 118/1/19
f 118/1/19 16/1/19 134/1/19
f 134/1/19 136/1/19 6/1/19
f 6/1/19 136/1/19 138/1/19
f 138/1/19 18/1/19 8/1/19
f 8/1/19 18/1/19 19/1/19
f 19/1/19 20/1/19 120/1/19
f 120/1/19 20/1/19 123/1/19
f 32/1/23 147/1/27 113/1/9
f 38/1/25 155/1/17 119/1/7
f 148/1/26 32/1/23 1/1/10
f 147/1/27 38/1/25 120/1/8
f 35/1/28 153/1/64 118/1/1
f 33/1/29 149/1/69 115/1/12
f 34/1/31 33/1/29 2/1/14
f 147/2/19 32/2/19 21/2/19
f 168/2/11 53/2/11 155/2/11
f 148/2/19 149/2/19 24/2/19
f 33/2/19 34/2/19 25/2/19
f 62/2/14 54/2/14 147/2/14
f 150/2/19 151/2/19 27/2/19
f 152/2/19 153/2/19 28/2/19
f 35/2/19 36/2/19 29/2/19
f 154/2/19 37/2/19 30/2/19
f 60/2/9 160/2/9 154/2/9
f 146/2/19 155/2/19 38/2/19
f 144/2/43 173/2/123 67/2/44
f 174/2/47 173/2/123 144/2/43
f 145/2/51 70/2/124 174/2/47
f 65/2/52 64/2/49 25/2/50
f 175/2/54 70/2/124 145/2/51
f 66/2/56 65/2/52 26/2/53
f 172/2/59 66/2/56 27/2/57
f 28/2/45 67/2/44 172/2/59
f 162/1/19 47/1/19 46/1/19
f 156/1/19 48/1/19 163/1/19
f 58/1/19 50/1/19 49/1/19
f 51/1/19 157/1/19 165/1/19
f 61/1/19 52/1/19 160/1/19
f 161/1/19 53/1/19 168/1/19
f 170/1/19 55/1/19 54/1/19
f 47/2/6 162/2/6 21/2/6
f 156/2/8 164/2/8 24/2/8
f 59/2/66 165/2/66 143/2/60
f 50/2/10 58/2/10 25/2/10
f 53/1/65 161/1/65 37/1/34
f 167/2/67 166/2/67 144/2/43
f 46/1/67 47/1/67 32/1/23
f 51/2/12 59/2/12 27/2/12
f 54/1/66 55/1/66 38/1/25
f 61/2/68 60/2/68 145/2/51
f 48/1/68 156/1/68 149/1/69
f 166/2/7 158/2/7 35/2/7
f 52/2/16 61/2/16 29/2/16
f 171/2/71 63/2/74 75/2/72
f 63/2/74 64/2/125 184/2/75
f 184/2/75 64/2/125 65/2/76
f 78/2/77 65/2/76 66/2/78
f 66/2/78 172/2/126 187/2/80
f 67/2/81 173/2/122 185/2/82
f 175/2/84 68/2/95 186/2/85
f 176/2/87 69/2/127 82/2/88
f 82/2/88 69/2/127 177/2/90
f 177/2/90 171/2/71 76/2/73
f 187/2/80 172/2/126 67/2/81
f 188/2/92 174/2/128 70/2/93
f 81/2/94 70/2/93 175/2/84
f 68/2/95 71/2/97 84/2/96
f 71/2/97 176/2/87 83/2/89
f 40/2/19 76/2/73 75/2/72
f 80/2/86 186/2/85 181/2/19
f 184/2/75 78/2/77 72/2/19
f 77/2/79 187/2/80 42/2/19
f 43/2/19 188/2/92 81/2/94
f 107/2/104 207/2/104 43/2/104
f 45/2/19 84/2/96 83/2/89
f 87/2/105 72/2/105 178/2/106
f 90/2/107 183/2/107 180/2/108
f 42/2/109 179/2/110 88/2/110
f 73/2/113 43/2/114 195/2/114
f 43/2/114 183/2/107 90/2/107
f 86/2/106 178/2/106 42/2/109
f 41/2/115 72/2/105 87/2/105
f 179/2/110 73/2/113 89/2/113
f 39/2/118 41/2/115 85/2/115
f 98/1/19 97/1/19 205/1/19
f 104/1/19 202/1/19 111/1/19
f 210/2/100 209/2/100 179/2/100
f 207/2/8 100/2/8 188/2/8
f 106/2/121 204/2/121 178/2/121
f 198/2/9 105/2/9 39/2/9
f 96/2/11 106/2/11 72/2/11
f 137/1/14 138/1/14 136/1/12
f 149/1/69 148/1/26 114/1/11
f 167/1/19 159/1/19 158/1/19
f 173/2/122 174/2/128 188/2/92
f 140/1/15 19/1/15 18/1/13
f 141/1/16 20/1/16 19/1/15
f 121/1/1 122/1/1 123/1/2
f 11/1/3 124/1/3 122/1/1
f 125/1/4 12/1/4 124/1/3
f 126/1/5 127/1/5 12/1/4
f 13/1/6 128/1/6 127/1/5
f 10/1/2 123/1/2 20/1/16
f 24/2/20 171/2/129 177/2/21
f 152/1/24 151/1/35 4/1/16
f 36/1/30 35/1/28 5/1/3
f 154/1/32 36/1/30 6/1/4
f 150/1/33 34/1/31 116/1/13
f 37/1/34 154/1/32 7/1/5
f 151/1/35 150/1/33 3/1/15
f 164/2/36 163/2/36 142/2/37
f 161/2/1 169/2/1 30/2/1
f 157/1/38 51/1/38 151/1/35
f 170/2/38 62/2/38 22/2/39
f 162/2/41 56/2/41 23/2/22
f 177/2/21 69/2/62 21/2/42
f 63/2/46 171/2/129 24/2/20
f 64/2/49 63/2/46 142/2/37
f 146/2/58 68/2/61 175/2/54
f 31/2/40 71/2/63 68/2/61
f 69/2/62 176/2/130 22/2/39
f 22/2/39 176/2/130 71/2/63
f 158/1/41 159/1/41 153/1/64
f 55/2/4 170/2/4 31/2/4
f 56/2/15 46/2/15 148/2/15
f 160/1/36 52/1/36 36/1/30
f 163/2/2 48/2/2 33/2/2
f 57/2/3 49/2/3 150/2/3
f 49/1/70 50/1/70 34/1/31
f 181/2/98 45/2/99 196/2/99
f 44/2/19 82/2/88 189/2/91
f 109/2/103 108/2/103 44/2/103
f 94/2/111 182/2/111 40/2/112
f 74/2/116 44/2/117 92/2/117
f 196/2/99 45/2/99 74/2/116
f 92/2/117 44/2/117 182/2/111
f 191/2/118 192/2/112 40/2/112
f 198/1/19 197/1/19 203/1/19
f 110/2/101 208/2/101 40/2/101
f 112/2/119 111/2/119 45/2/119
f 199/2/5 109/2/5 74/2/5
f 95/2/119 96/2/119 78/2/119
f 203/2/1 197/2/1 184/2/1
f 97/2/120 98/2/120 81/2/120
f 153/1/64 152/1/24 117/1/2
f 165/2/5 157/2/5 152/2/5
f 180/2/108 181/2/98 194/2/98
f 58/2/65 57/2/65 26/2/53
f 159/2/13 167/2/13 28/2/13
f 169/2/70 168/2/70 146/2/58
f 101/2/100 199/2/100 83/2/100
f 104/2/3 112/2/3 181/2/3
f 79/2/83 185/2/82 73/2/19
f 100/2/101 99/2/101 185/2/101
f 205/2/10 97/2/10 80/2/10
f 197/2/102 198/2/102 75/2/102
f 99/2/15 107/2/15 73/2/15
f 96/1/19 95/1/19 204/1/19
f 107/1/19 99/1/19 100/1/19
f 199/1/19 101/1/19 108/1/19
f 110/1/19 200/1/19 102/1/19
f 210/1/19 103/1/19 201/1/19
f 98/2/2 206/2/2 183/2/2
f 103/2/14 210/2/14 42/2/14
f 102/2/104 200/2/104 189/2/104
f 201/2/103 103/2/103 187/2/103
f 105/2/120 203/2/120 41/2/120
f 108/2/13 101/2/13 82/2/13
f 202/2/121 104/2/121 186/2/121
f 208/2/16 102/2/16 76/2/16
f 200/2/7 110/2/7 182/2/7
f 111/2/12 202/2/12 84/2/12
f 204/2/4 95/2/4 77/2/4
f 209/2/6 201/2/6 79/2/6
f 206/2/102 205/2/102 180/2/102
