# Blender 5.0.1
# www.blender.org
mtllib llanta_izquierda.mtl
o MS_Car_Wheel_FL
v -0.213757 0.000000 -0.031550
v -0.197486 -0.081801 -0.031550
v -0.151149 -0.151149 -0.031550
v -0.081801 -0.197486 -0.031550
v 0.000000 -0.213757 -0.031550
v 0.081802 -0.197486 -0.031550
v 0.197486 0.081802 -0.031550
v 0.081802 0.197486 -0.031550
v 0.000000 0.213757 -0.031550
v -0.151149 0.151149 -0.031550
v 0.000000 0.000000 0.176267
v -0.197486 0.081802 -0.031550
v -0.326821 0.000000 0.176267
v -0.301943 -0.125069 0.176267
v -0.125069 -0.301943 0.176267
v 0.231098 -0.231097 -0.031550
v 0.301944 -0.125069 0.176267
v 0.326822 0.000000 0.176267
v 0.301944 0.125070 0.176267
v 0.301944 0.125070 -0.031550
v 0.125070 0.301944 -0.031550
v 0.000000 0.326822 -0.031550
v -0.125069 0.301944 -0.031550
v -0.231097 0.231098 -0.031550
v -0.072065 -0.029850 -0.012234
v -0.078002 0.000000 -0.012234
v 0.029851 -0.072065 -0.012234
v 0.072066 -0.029850 -0.012234
v 0.078003 0.000000 -0.012234
v 0.029851 0.072065 -0.012234
v 0.000000 0.078003 -0.012234
v -0.072065 0.029851 -0.012234
v -0.197486 -0.081801 -0.012234
v -0.213757 0.000000 -0.012234
v 0.000000 -0.213757 -0.012234
v 0.213758 0.000000 -0.012234
v -0.197486 0.081802 -0.012234
v 0.039301 0.000000 -0.014954
v 0.015040 0.036309 -0.014954
v -0.036309 -0.015040 -0.014954
v -0.151149 -0.151149 -0.002274
v 0.000000 -0.213757 -0.002274
v -0.081801 -0.197486 -0.002274
v 0.213758 0.000000 -0.002274
v 0.151150 0.151149 -0.002274
v 0.000000 0.213757 -0.002274
v -0.213757 0.000000 -0.002274
v -0.055156 -0.055156 -0.002274
v 0.029851 -0.072065 -0.002274
v 0.078003 0.000000 -0.002274
v 0.072066 -0.029850 -0.002274
v 0.000000 0.078003 -0.002274
v 0.029851 0.072065 -0.002274
v -0.029850 0.072065 -0.002274
v 0.000000 -0.073776 -0.021030
v -0.028232 -0.068160 -0.021030
v 0.028233 -0.068160 -0.021030
v 0.052168 -0.052167 -0.021030
v 0.068160 0.028233 -0.021030
v 0.052168 0.052167 -0.021030
v -0.028232 0.068160 -0.021030
v -0.052167 -0.052167 -0.021030
v 0.000000 0.073776 -0.021030
v 0.027790 -0.027790 -0.014954
v 0.036309 0.015040 -0.014954
v 0.027790 0.027790 -0.014954
v -0.015039 0.036309 -0.014954
v -0.018302 -0.044185 -0.014954
v 0.018302 -0.044185 -0.014954
v 0.044185 -0.018302 -0.014954
v 0.044185 0.018302 -0.014954
v 0.033818 0.033818 -0.014954
v -0.044184 -0.018302 -0.014954
v -0.044184 0.018302 -0.014954
v 0.000000 0.000000 -0.022150
v 0.000000 -0.032665 -0.022149
v 0.023098 0.023098 -0.022149
v -0.023098 0.023098 -0.022149
v 0.000000 0.032666 -0.022149
v 0.012501 0.030179 -0.022149
v -0.032665 0.000000 -0.022149
v -0.023098 -0.023098 -0.022149
v 0.000000 -0.047825 -0.010357
v 0.033818 -0.033817 -0.010357
v 0.000000 0.047825 -0.010357
v 0.018302 0.044185 -0.010357
v -0.044184 -0.018302 -0.010357
v -0.018302 -0.044185 -0.010357
v -0.033817 -0.033818 -0.010357
v 0.047826 0.000000 -0.010357
v -0.033817 0.033818 -0.010357
v 0.036309 -0.015040 -0.010357
v 0.000000 0.039301 -0.010357
v 0.027790 0.027790 -0.010357
v 0.015040 0.036309 -0.010357
v -0.015039 -0.036309 -0.010357
v -0.027789 -0.027790 -0.010357
v 0.036309 0.015040 -0.010357
v 0.039301 0.000000 -0.010357
v -0.036309 0.015040 -0.010357
v -0.027789 0.027790 -0.010357
v 0.151149 -0.151149 -0.031550
v 0.197486 -0.081801 -0.031550
v 0.213758 0.000000 -0.031550
v 0.151150 0.151149 -0.031550
v -0.081801 0.197486 -0.031550
v -0.301943 -0.125069 -0.031550
v -0.326821 0.000000 -0.031550
v -0.231097 -0.231097 0.176267
v -0.231097 -0.231097 -0.031550
v -0.125069 -0.301943 -0.031550
v 0.000000 -0.326821 0.176267
v 0.000000 -0.326821 -0.031550
v 0.125070 -0.301943 0.176267
v 0.125070 -0.301943 -0.031550
v 0.231098 -0.231097 0.176267
v 0.301944 -0.125069 -0.031550
v 0.326822 0.000000 -0.031550
v 0.231098 0.231098 0.176267
v 0.231098 0.231098 -0.031550
v 0.125070 0.301944 0.176267
v 0.000000 0.326822 0.176267
v -0.125069 0.301944 0.176267
v -0.231097 0.231098 0.176267
v -0.301943 0.125070 0.176267
v -0.301943 0.125070 -0.031550
v -0.055156 -0.055156 -0.012234
v -0.029850 -0.072065 -0.012234
v 0.000000 -0.078003 -0.012234
v 0.055157 -0.055156 -0.012234
v 0.072066 0.029851 -0.012234
v 0.055157 0.055156 -0.012234
v -0.029850 0.072065 -0.012234
v -0.055156 0.055157 -0.012234
v -0.151149 -0.151149 -0.012234
v -0.081801 -0.197486 -0.012234
v 0.081802 -0.197486 -0.012234
v 0.151149 -0.151149 -0.012234
v 0.197486 -0.081801 -0.012234
v 0.197486 0.081802 -0.012234
v 0.151150 0.151149 -0.012234
v 0.081802 0.197486 -0.012234
v 0.000000 0.213757 -0.012234
v -0.081801 0.197486 -0.012234
v -0.151149 0.151149 -0.012234
v 0.000000 -0.039301 -0.014954
v -0.015039 -0.036309 -0.014954
v 0.015040 -0.036309 -0.014954
v -0.036309 0.015040 -0.014954
v -0.197486 -0.081801 -0.002274
v 0.151149 -0.151149 -0.002274
v 0.081802 -0.197486 -0.002274
v 0.197486 -0.081801 -0.002274
v 0.197486 0.081802 -0.002274
v 0.081802 0.197486 -0.002274
v -0.151149 0.151149 -0.002274
v -0.081801 0.197486 -0.002274
v -0.197486 0.081802 -0.002274
v -0.072065 -0.029850 -0.002274
v 0.000000 -0.078003 -0.002274
v -0.029850 -0.072065 -0.002274
v 0.055157 -0.055156 -0.002274
v 0.055157 0.055156 -0.002274
v 0.072066 0.029851 -0.002274
v -0.055156 0.055157 -0.002274
v -0.078002 0.000000 -0.002274
v -0.072065 0.029851 -0.002274
v 0.068160 -0.028233 -0.021030
v 0.073776 0.000000 -0.021030
v 0.028233 0.068160 -0.021030
v -0.052167 0.052167 -0.021030
v -0.068160 -0.028233 -0.021030
v -0.073775 0.000000 -0.021030
v -0.068160 0.028233 -0.021030
v 0.036309 -0.015040 -0.014954
v -0.027789 0.027790 -0.014954
v -0.039300 0.000000 -0.014954
v -0.027789 -0.027790 -0.014954
v 0.000000 0.039301 -0.014954
v 0.000000 -0.047825 -0.014954
v 0.033818 -0.033817 -0.014954
v -0.018302 0.044185 -0.014954
v -0.033817 0.033818 -0.014954
v 0.000000 0.047825 -0.014954
v 0.047826 0.000000 -0.014954
v 0.018302 0.044185 -0.014954
v -0.047825 0.000000 -0.014954
v -0.033817 -0.033818 -0.014954
v -0.012500 -0.030179 -0.022149
v 0.012501 -0.030179 -0.022149
v 0.030179 -0.012500 -0.022149
v 0.023098 -0.023098 -0.022149
v 0.030179 0.012501 -0.022149
v -0.012500 0.030179 -0.022149
v 0.032666 0.000000 -0.022149
v -0.030179 -0.012500 -0.022149
v -0.030179 0.012501 -0.022149
v 0.018302 -0.044185 -0.010357
v 0.044185 -0.018302 -0.010357
v -0.018302 0.044185 -0.010357
v 0.033818 0.033818 -0.010357
v -0.047825 0.000000 -0.010357
v 0.044185 0.018302 -0.010357
v -0.044184 0.018302 -0.010357
v 0.015040 -0.036309 -0.010357
v 0.000000 -0.039301 -0.010357
v 0.027790 -0.027790 -0.010357
v -0.015039 0.036309 -0.010357
v -0.036309 -0.015040 -0.010357
v -0.039300 0.000000 -0.010357
vn -1.0000 -0.0000 -0.0000
vn -0.9239 -0.3827 -0.0000
vn -0.7071 -0.7071 -0.0000
vn -0.3827 -0.9239 -0.0000
vn -0.0000 -1.0000 -0.0000
vn 0.3827 -0.9239 -0.0000
vn 0.7071 -0.7071 -0.0000
vn 0.9239 -0.3827 -0.0000
vn 1.0000 -0.0000 -0.0000
vn 0.9239 0.3827 -0.0000
vn 0.7071 0.7071 -0.0000
vn 0.3827 0.9239 -0.0000
vn -0.0000 1.0000 -0.0000
vn -0.3827 0.9239 -0.0000
vn -0.7071 0.7071 -0.0000
vn -0.9239 0.3827 -0.0000
vn 0.6588 -0.7523 -0.0000
vn -0.0000 -0.0000 1.0000
vn -0.0000 -0.0000 -1.0000
vn -0.7245 -0.6255 -0.2896
vn -0.3449 -0.8327 -0.4331
vn -0.3006 -0.9087 -0.2896
vn 0.8965 0.4430 -0.0000
vn -0.9978 0.0662 -0.0000
vn 0.9472 -0.3207 -0.0000
vn 0.7523 0.6588 -0.0000
vn -0.8965 -0.4430 -0.0000
vn 0.9978 -0.0662 -0.0000
vn 0.3207 0.9472 -0.0000
vn -0.7523 -0.6588 -0.0000
vn 0.0662 0.9978 -0.0000
vn -0.3207 -0.9472 -0.0000
vn -0.4430 0.8965 -0.0000
vn -0.0662 -0.9978 -0.0000
vn -0.6588 0.7523 -0.0000
vn 0.4430 -0.8965 -0.0000
vn -0.9472 0.3207 -0.0000
vn -0.9808 0.1951 -0.0000
vn -0.9546 0.0700 -0.2896
vn -0.9087 0.3006 -0.2896
vn -0.8315 -0.5556 -0.0000
vn -0.8551 -0.4300 -0.2896
vn -0.6373 -0.6373 -0.4331
vn 0.8551 0.4300 -0.2896
vn 0.6373 0.6373 -0.4331
vn 0.7245 0.6255 -0.2896
vn -0.0000 -0.9013 -0.4331
vn -0.0700 -0.9546 -0.2896
vn 0.3449 0.8327 -0.4331
vn 0.3006 0.9087 -0.2896
vn 0.3449 -0.8327 -0.4331
vn 0.4300 -0.8551 -0.2896
vn 0.0700 0.9546 -0.2896
vn -0.0000 0.9013 -0.4331
vn 0.6373 -0.6373 -0.4332
vn 0.6255 -0.7245 -0.2896
vn -0.3449 0.8327 -0.4331
vn -0.4300 0.8551 -0.2896
vn 0.8327 -0.3449 -0.4331
vn 0.9087 -0.3006 -0.2896
vn -0.6255 0.7245 -0.2896
vn -0.6373 0.6373 -0.4331
vn 0.9013 -0.0000 -0.4331
vn 0.9546 -0.0700 -0.2896
vn -0.8327 0.3449 -0.4331
vn -0.8327 -0.3449 -0.4331
vn 0.8327 0.3449 -0.4331
vn -0.9013 -0.0000 -0.4331
vn 0.5556 -0.8315 -0.0000
vn -0.1951 -0.9808 -0.0000
vn 0.9808 -0.1951 -0.0000
vn 0.8315 0.5556 -0.0000
vn 0.1951 0.9808 -0.0000
vn -0.5556 0.8315 -0.0000
vn -0.0000 0.1649 -0.9863
vn 0.0873 0.2106 -0.9737
vn 0.0631 0.1523 -0.9863
vn -0.0631 0.1523 -0.9863
vn -0.0000 0.2280 -0.9737
vn -0.1612 0.1612 -0.9737
vn -0.0873 0.2106 -0.9737
vn -0.1166 0.1166 -0.9863
vn -0.2106 0.0873 -0.9737
vn -0.1649 -0.0000 -0.9863
vn -0.1523 0.0631 -0.9863
vn -0.1166 -0.1166 -0.9863
vn -0.2106 -0.0873 -0.9737
vn -0.1523 -0.0631 -0.9863
vn -0.0631 -0.1523 -0.9863
vn -0.1612 -0.1612 -0.9737
vn 0.0631 -0.1523 -0.9863
vn 0.1612 -0.1612 -0.9737
vn 0.0873 -0.2106 -0.9737
vn 0.1523 0.0631 -0.9863
vn 0.2280 -0.0000 -0.9737
vn 0.1649 -0.0000 -0.9863
vn 0.1612 0.1612 -0.9737
vn 0.2106 0.0873 -0.9737
vn 0.1166 0.1166 -0.9863
vn -0.2280 -0.0000 -0.9737
vn -0.0000 -0.2280 -0.9737
vn -0.0873 -0.2106 -0.9737
vn -0.0000 -0.1649 -0.9863
vn 0.1523 -0.0631 -0.9863
vn 0.1166 -0.1166 -0.9863
vn 0.2106 -0.0873 -0.9737
vn -0.6792 0.2813 -0.6779
vn -0.5198 0.5198 -0.6779
vn 0.9808 0.1951 -0.0000
vn -0.5556 -0.8315 -0.0000
vn -0.1951 0.9808 -0.0000
vn -0.9808 -0.1951 -0.0000
vn 0.5556 0.8315 -0.0000
vn 0.5198 -0.5198 -0.6779
vn 0.6792 -0.2813 -0.6779
vn -0.2813 0.6792 -0.6779
vn -0.0000 0.7352 -0.6779
vn 0.6792 0.2813 -0.6779
vn 0.7352 -0.0000 -0.6779
vn -0.5198 -0.5198 -0.6779
vn -0.2813 -0.6792 -0.6779
vn 0.2813 0.6792 -0.6779
vn 0.5198 0.5198 -0.6779
vn 0.2813 -0.6792 -0.6779
vn -0.6792 -0.2813 -0.6779
vn -0.7352 -0.0000 -0.6779
vn -0.0000 -0.7352 -0.6779
vn -0.8315 0.5556 -0.0000
vn 0.8315 -0.5556 -0.0000
vn 0.1951 -0.9808 -0.0000
vt 0.023566 0.516762
vt 0.108991 0.523830
s 1
g off
g MS_Car_Wheel_FL_MT_Car
usemtl MT_Car
f 108/1/1 14/1/2 13/1/1
f 14/1/2 110/1/3 109/1/3
f 110/1/3 15/1/4 109/1/3
f 111/1/4 112/1/5 15/1/4
f 115/1/6 116/1/7 114/1/6
f 16/1/7 17/1/8 116/1/7
f 117/1/8 18/1/9 17/1/8
f 118/1/9 19/1/10 18/1/9
f 20/1/10 119/1/11 19/1/10
f 119/1/11 21/1/12 121/1/12
f 21/1/12 122/1/13 121/1/12
f 22/1/13 123/1/14 122/1/13
f 23/1/14 124/1/15 123/1/14
f 24/1/15 125/1/16 124/1/15
f 126/1/16 13/1/1 125/1/16
f 106/1/6 145/1/17 10/1/7
f 124/1/18 125/1/18 11/1/18
f 2/1/19 108/1/19 1/1/19
f 123/1/18 124/1/18 11/1/18
f 2/1/19 110/1/19 107/1/19
f 122/1/18 123/1/18 11/1/18
f 4/1/19 110/1/19 3/1/19
f 121/1/18 122/1/18 11/1/18
f 4/1/19 113/1/19 111/1/19
f 119/1/18 121/1/18 11/1/18
f 6/1/19 113/1/19 5/1/19
f 19/1/18 119/1/18 11/1/18
f 6/1/19 16/1/19 115/1/19
f 18/1/18 19/1/18 11/1/18
f 103/1/19 16/1/19 102/1/19
f 17/1/18 18/1/18 11/1/18
f 116/1/18 17/1/18 11/1/18
f 7/1/19 118/1/19 104/1/19
f 114/1/18 116/1/18 11/1/18
f 7/1/19 120/1/19 20/1/19
f 112/1/18 114/1/18 11/1/18
f 8/1/19 120/1/19 105/1/19
f 15/1/18 112/1/18 11/1/18
f 8/1/19 22/1/19 21/1/19
f 109/1/18 15/1/18 11/1/18
f 106/1/19 22/1/19 9/1/19
f 14/1/18 109/1/18 11/1/18
f 106/1/19 24/1/19 23/1/19
f 12/1/19 24/1/19 10/1/19
f 13/1/18 14/1/18 11/1/18
f 12/1/19 108/1/19 126/1/19
f 127/2/20 56/2/21 128/2/22
f 1/1/9 33/1/23 2/1/10
f 103/1/16 36/1/24 104/1/1
f 10/1/7 37/1/25 12/1/8
f 2/1/10 135/1/26 3/1/11
f 104/1/1 140/1/27 7/1/2
f 12/1/8 34/1/28 1/1/9
f 3/1/11 136/1/29 4/1/12
f 7/1/2 141/1/30 105/1/3
f 4/1/12 35/1/31 5/1/13
f 105/1/3 142/1/32 8/1/4
f 5/1/13 137/1/33 6/1/14
f 8/1/4 143/1/34 9/1/5
f 6/1/14 138/1/35 102/1/15
f 9/1/5 144/1/36 106/1/6
f 25/2/19 34/2/19 26/2/19
f 27/2/19 35/2/19 129/2/19
f 34/2/13 166/2/13 26/2/13
f 28/2/19 138/2/19 130/2/19
f 133/2/2 157/2/2 144/2/2
f 131/2/19 36/2/19 29/2/19
f 139/1/37 44/1/38 36/1/24
f 30/2/19 141/2/19 132/2/19
f 26/2/39 167/2/38 32/2/40
f 133/2/19 143/2/19 31/2/19
f 143/2/9 52/2/9 31/2/9
f 134/2/19 37/2/19 145/2/19
f 127/2/20 159/2/41 25/2/42
f 25/2/42 62/2/43 127/2/20
f 131/2/44 60/2/45 132/2/46
f 128/2/22 55/2/47 129/2/48
f 132/2/46 170/2/49 30/2/50
f 129/2/48 57/2/51 27/2/52
f 31/2/53 170/2/49 63/2/54
f 27/2/52 58/2/55 130/2/56
f 31/2/53 61/2/57 133/2/58
f 130/2/56 168/2/59 28/2/60
f 134/2/61 61/2/57 171/2/62
f 28/2/60 169/2/63 29/2/64
f 32/2/40 171/2/62 174/2/65
f 26/2/39 172/2/66 25/2/42
f 131/2/44 169/2/63 59/2/67
f 26/2/39 174/2/65 173/2/68
f 125/1/18 13/1/18 11/1/18
f 159/1/19 41/1/19 150/1/19
f 160/1/19 43/1/19 161/1/19
f 49/1/19 151/1/19 152/1/19
f 50/1/19 153/1/19 51/1/19
f 164/1/19 45/1/19 154/1/19
f 53/1/19 46/1/19 155/1/19
f 165/1/19 157/1/19 54/1/19
f 167/1/19 47/1/19 158/1/19
f 25/2/6 150/2/6 33/2/6
f 140/1/27 45/1/41 141/1/30
f 32/2/4 158/2/4 37/2/4
f 135/2/15 48/2/15 127/2/15
f 130/2/56 49/2/69 27/2/52
f 128/2/8 43/2/8 136/2/8
f 142/1/32 46/1/70 143/1/34
f 35/2/1 160/2/1 129/2/1
f 29/2/64 51/2/71 28/2/60
f 27/2/10 152/2/10 137/2/10
f 33/1/23 41/1/72 135/1/26
f 28/2/12 153/2/12 139/2/12
f 37/1/25 47/1/71 34/1/28
f 36/2/5 50/2/5 29/2/5
f 31/2/53 53/2/73 30/2/50
f 136/1/29 42/1/73 35/1/31
f 141/2/7 163/2/7 132/2/7
f 134/2/61 54/2/74 133/2/58
f 30/2/16 155/2/16 142/2/16
f 180/2/75 56/2/76 68/2/77
f 69/2/78 55/2/79 180/2/75
f 69/2/78 58/2/80 57/2/81
f 181/2/82 168/2/83 58/2/80
f 185/2/84 168/2/83 70/2/85
f 72/2/86 59/2/87 71/2/88
f 186/2/89 60/2/90 72/2/86
f 182/2/91 171/2/92 61/2/93
f 73/2/94 173/2/95 187/2/96
f 73/2/94 62/2/97 172/2/98
f 68/2/77 62/2/97 188/2/99
f 185/2/84 59/2/87 169/2/100
f 186/2/89 63/2/101 170/2/102
f 184/2/103 61/2/93 63/2/101
f 74/2/104 171/2/92 183/2/105
f 187/2/96 174/2/106 74/2/104
f 197/2/107 176/2/108 78/2/108
f 146/2/19 68/2/77 147/2/19
f 187/2/109 87/2/109 73/2/109
f 176/2/3 91/2/3 183/2/3
f 66/2/19 71/2/88 65/2/19
f 176/2/19 182/2/91 67/2/19
f 72/2/110 86/2/110 186/2/110
f 64/2/19 69/2/78 148/2/19
f 38/2/19 70/2/85 175/2/19
f 182/2/10 208/2/10 67/2/10
f 180/2/111 198/2/111 69/2/111
f 40/2/19 188/2/99 73/2/94
f 40/2/112 210/2/112 177/2/112
f 66/2/15 201/2/15 72/2/15
f 39/2/19 184/2/103 186/2/89
f 39/2/113 94/2/113 66/2/113
f 149/2/19 187/2/96 74/2/104
f 192/2/114 175/2/115 64/2/114
f 78/2/108 67/2/116 194/2/116
f 197/2/19 78/2/19 75/2/19
f 79/2/117 67/2/116 179/2/117
f 193/2/118 38/2/119 195/2/119
f 82/2/120 147/2/121 178/2/120
f 80/2/122 66/2/123 77/2/123
f 79/2/117 39/2/122 80/2/122
f 191/2/115 38/2/119 175/2/115
f 192/2/114 148/2/124 190/2/124
f 196/2/125 177/2/126 81/2/126
f 197/2/107 177/2/126 149/2/107
f 196/2/125 178/2/120 40/2/125
f 77/2/123 65/2/118 193/2/118
f 190/2/124 146/2/127 76/2/127
f 78/2/19 194/2/19 75/2/19
f 194/2/19 79/2/19 75/2/19
f 79/2/19 80/2/19 75/2/19
f 80/2/19 77/2/19 75/2/19
f 77/2/19 193/2/19 75/2/19
f 193/2/19 195/2/19 75/2/19
f 195/2/19 191/2/19 75/2/19
f 191/2/19 192/2/19 75/2/19
f 192/2/19 190/2/19 75/2/19
f 190/2/19 76/2/19 75/2/19
f 76/2/19 189/2/19 75/2/19
f 189/2/19 82/2/19 75/2/19
f 82/2/19 196/2/19 75/2/19
f 196/2/19 81/2/19 75/2/19
f 81/2/19 197/2/19 75/2/19
f 147/2/121 76/2/127 146/2/127
f 205/1/19 83/1/19 206/1/19
f 92/1/19 84/1/19 207/1/19
f 208/1/19 85/1/19 93/1/19
f 94/1/19 86/1/19 201/1/19
f 209/1/19 202/1/19 210/1/19
f 97/1/19 88/1/19 89/1/19
f 99/1/19 203/1/19 90/1/19
f 100/1/19 91/1/19 101/1/19
f 147/2/110 97/2/110 178/2/110
f 179/2/1 85/2/1 184/2/1
f 65/2/109 99/2/109 38/2/109
f 38/2/13 90/2/13 185/2/13
f 188/2/113 88/2/113 68/2/113
f 186/2/8 95/2/8 39/2/8
f 185/2/112 203/2/112 71/2/112
f 149/2/128 101/2/128 176/2/128
f 175/2/129 207/2/129 64/2/129
f 73/2/14 209/2/14 40/2/14
f 183/2/129 204/2/129 74/2/129
f 68/2/16 96/2/16 147/2/16
f 178/2/7 89/2/7 188/2/7
f 146/2/9 83/2/9 180/2/9
f 181/2/128 199/2/128 70/2/128
f 74/2/12 100/2/12 149/2/12
f 69/2/2 205/2/2 148/2/2
f 67/2/111 93/2/111 179/2/111
f 64/2/11 84/2/11 181/2/11
f 70/2/4 92/2/4 175/2/4
f 184/2/130 200/2/130 182/2/130
f 71/2/6 98/2/6 65/2/6
f 113/1/5 114/1/6 112/1/5
f 103/1/19 118/1/19 117/1/19
f 102/1/15 139/1/37 103/1/16
f 145/2/11 165/2/11 134/2/11
f 128/2/19 135/2/19 127/2/19
f 129/2/48 161/2/70 128/2/22
f 144/1/36 156/1/69 145/1/17
f 138/2/3 162/2/3 130/2/3
f 132/2/46 164/2/72 131/2/44
f 131/2/14 154/2/14 140/2/14
f 137/1/33 151/1/74 138/1/35
f 148/2/130 206/2/130 146/2/130
f 177/2/5 202/2/5 187/2/5
f 108/1/1 107/1/2 14/1/2
f 14/1/2 107/1/2 110/1/3
f 110/1/3 111/1/4 15/1/4
f 111/1/4 113/1/5 112/1/5
f 115/1/6 16/1/7 116/1/7
f 16/1/7 117/1/8 17/1/8
f 117/1/8 118/1/9 18/1/9
f 118/1/9 20/1/10 19/1/10
f 20/1/10 120/1/11 119/1/11
f 119/1/11 120/1/11 21/1/12
f 21/1/12 22/1/13 122/1/13
f 22/1/13 23/1/14 123/1/14
f 23/1/14 24/1/15 124/1/15
f 24/1/15 126/1/16 125/1/16
f 126/1/16 108/1/1 13/1/1
f 2/1/19 107/1/19 108/1/19
f 2/1/19 3/1/19 110/1/19
f 4/1/19 111/1/19 110/1/19
f 4/1/19 5/1/19 113/1/19
f 6/1/19 115/1/19 113/1/19
f 6/1/19 102/1/19 16/1/19
f 103/1/19 117/1/19 16/1/19
f 7/1/19 20/1/19 118/1/19
f 7/1/19 105/1/19 120/1/19
f 8/1/19 21/1/19 120/1/19
f 8/1/19 9/1/19 22/1/19
f 106/1/19 23/1/19 22/1/19
f 106/1/19 10/1/19 24/1/19
f 12/1/19 126/1/19 24/1/19
f 12/1/19 1/1/19 108/1/19
f 1/1/9 34/1/28 33/1/23
f 103/1/16 139/1/37 36/1/24
f 2/1/10 33/1/23 135/1/26
f 3/1/11 135/1/26 136/1/29
f 4/1/12 136/1/29 35/1/31
f 5/1/13 35/1/31 137/1/33
f 6/1/14 137/1/33 138/1/35
f 25/2/19 33/2/19 34/2/19
f 27/2/19 137/2/19 35/2/19
f 34/2/13 47/2/13 166/2/13
f 28/2/19 139/2/19 138/2/19
f 131/2/19 140/2/19 36/2/19
f 30/2/19 142/2/19 141/2/19
f 133/2/19 144/2/19 143/2/19
f 134/2/19 32/2/19 37/2/19
f 25/2/42 172/2/66 62/2/43
f 131/2/44 59/2/67 60/2/45
f 132/2/46 60/2/45 170/2/49
f 31/2/53 30/2/50 170/2/49
f 31/2/53 63/2/54 61/2/57
f 134/2/61 133/2/58 61/2/57
f 28/2/60 168/2/59 169/2/63
f 32/2/40 134/2/61 171/2/62
f 26/2/39 173/2/68 172/2/66
f 131/2/44 29/2/64 169/2/63
f 26/2/39 32/2/40 174/2/65
f 159/1/19 48/1/19 41/1/19
f 160/1/19 42/1/19 43/1/19
f 49/1/19 162/1/19 151/1/19
f 50/1/19 44/1/19 153/1/19
f 164/1/19 163/1/19 45/1/19
f 53/1/19 52/1/19 46/1/19
f 165/1/19 156/1/19 157/1/19
f 167/1/19 166/1/19 47/1/19
f 135/2/15 41/2/15 48/2/15
f 27/2/10 49/2/10 152/2/10
f 33/1/23 150/1/72 41/1/72
f 28/2/12 51/2/12 153/2/12
f 36/2/5 44/2/5 50/2/5
f 31/2/53 52/2/73 53/2/73
f 136/1/29 43/1/73 42/1/73
f 134/2/61 165/2/74 54/2/74
f 30/2/16 53/2/16 155/2/16
f 180/2/75 55/2/79 56/2/76
f 69/2/78 57/2/81 55/2/79
f 69/2/78 181/2/82 58/2/80
f 181/2/82 70/2/85 168/2/83
f 185/2/84 169/2/100 168/2/83
f 72/2/86 60/2/90 59/2/87
f 186/2/89 170/2/102 60/2/90
f 182/2/91 183/2/105 171/2/92
f 73/2/94 172/2/98 173/2/95
f 73/2/94 188/2/99 62/2/97
f 68/2/77 56/2/76 62/2/97
f 185/2/84 71/2/88 59/2/87
f 186/2/89 184/2/103 63/2/101
f 184/2/103 182/2/91 61/2/93
f 74/2/104 174/2/106 171/2/92
f 187/2/96 173/2/95 174/2/106
f 197/2/107 149/2/107 176/2/108
f 146/2/19 180/2/75 68/2/77
f 66/2/19 72/2/86 71/2/88
f 176/2/19 183/2/105 182/2/91
f 64/2/19 181/2/82 69/2/78
f 38/2/19 185/2/84 70/2/85
f 40/2/19 178/2/19 188/2/99
f 39/2/19 179/2/19 184/2/103
f 149/2/19 177/2/19 187/2/96
f 192/2/114 191/2/115 175/2/115
f 78/2/108 176/2/108 67/2/116
f 193/2/118 65/2/118 38/2/119
f 82/2/120 189/2/121 147/2/121
f 80/2/122 39/2/122 66/2/123
f 191/2/115 195/2/119 38/2/119
f 192/2/114 64/2/114 148/2/124
f 196/2/125 40/2/125 177/2/126
f 197/2/107 81/2/126 177/2/126
f 196/2/125 82/2/120 178/2/120
f 77/2/123 66/2/123 65/2/118
f 205/1/19 198/1/19 83/1/19
f 92/1/19 199/1/19 84/1/19
f 94/1/19 95/1/19 86/1/19
f 209/1/19 87/1/19 202/1/19
f 99/1/19 98/1/19 203/1/19
f 100/1/19 204/1/19 91/1/19
f 188/2/113 89/2/113 88/2/113
f 181/2/128 84/2/128 199/2/128
f 67/2/111 208/2/111 93/2/111
f 113/1/5 115/1/6 114/1/6
f 103/1/19 104/1/19 118/1/19
f 102/1/15 138/1/35 139/1/37
f 145/2/11 156/2/11 165/2/11
f 128/2/19 136/2/19 135/2/19
f 132/2/46 163/2/72 164/2/72
f 131/2/14 164/2/14 154/2/14
f 137/1/33 152/1/74 151/1/74
f 106/1/6 144/1/36 145/1/17
f 127/2/20 62/2/43 56/2/21
f 10/1/7 145/1/17 37/1/25
f 104/1/1 36/1/24 140/1/27
f 12/1/8 37/1/25 34/1/28
f 7/1/2 140/1/27 141/1/30
f 105/1/3 141/1/30 142/1/32
f 8/1/4 142/1/32 143/1/34
f 9/1/5 143/1/34 144/1/36
f 133/2/2 54/2/2 157/2/2
f 139/1/37 153/1/38 44/1/38
f 26/2/39 166/2/38 167/2/38
f 143/2/9 46/2/9 52/2/9
f 127/2/20 48/2/41 159/2/41
f 128/2/22 56/2/21 55/2/47
f 129/2/48 55/2/47 57/2/51
f 27/2/52 57/2/51 58/2/55
f 130/2/56 58/2/55 168/2/59
f 25/2/6 159/2/6 150/2/6
f 140/1/27 154/1/41 45/1/41
f 32/2/4 167/2/4 158/2/4
f 130/2/56 162/2/69 49/2/69
f 128/2/8 161/2/8 43/2/8
f 142/1/32 155/1/70 46/1/70
f 35/2/1 42/2/1 160/2/1
f 29/2/64 50/2/71 51/2/71
f 37/1/25 158/1/71 47/1/71
f 141/2/7 45/2/7 163/2/7
f 187/2/109 202/2/109 87/2/109
f 176/2/3 101/2/3 91/2/3
f 72/2/110 201/2/110 86/2/110
f 182/2/10 200/2/10 208/2/10
f 180/2/111 83/2/111 198/2/111
f 40/2/112 209/2/112 210/2/112
f 66/2/15 94/2/15 201/2/15
f 39/2/113 95/2/113 94/2/113
f 79/2/117 194/2/116 67/2/116
f 79/2/117 179/2/117 39/2/122
f 190/2/124 148/2/124 146/2/127
f 147/2/121 189/2/121 76/2/127
f 208/1/19 200/1/19 85/1/19
f 97/1/19 96/1/19 88/1/19
f 147/2/110 96/2/110 97/2/110
f 179/2/1 93/2/1 85/2/1
f 65/2/109 98/2/109 99/2/109
f 38/2/13 99/2/13 90/2/13
f 186/2/8 86/2/8 95/2/8
f 185/2/112 90/2/112 203/2/112
f 149/2/128 100/2/128 101/2/128
f 175/2/129 92/2/129 207/2/129
f 73/2/14 87/2/14 209/2/14
f 183/2/129 91/2/129 204/2/129
f 68/2/16 88/2/16 96/2/16
f 178/2/7 97/2/7 89/2/7
f 146/2/9 206/2/9 83/2/9
f 74/2/12 204/2/12 100/2/12
f 69/2/2 198/2/2 205/2/2
f 64/2/11 207/2/11 84/2/11
f 70/2/4 199/2/4 92/2/4
f 184/2/130 85/2/130 200/2/130
f 71/2/6 203/2/6 98/2/6
f 129/2/48 160/2/70 161/2/70
f 144/1/36 157/1/69 156/1/69
f 138/2/3 151/2/3 162/2/3
f 148/2/130 205/2/130 206/2/130
f 177/2/5 210/2/5 202/2/5
