# Blender 5.0.1
# www.blender.org
mtllib manecilla_v.mtl
g Manecilla_vertical_Malla
v 0.032432 0.002601 0.000522
v 0.019743 0.000363 -0.026233
v -0.008768 -0.004664 -0.032841
v -0.031632 -0.008696 -0.014326
v -0.031632 -0.008696 0.015370
v -0.008768 -0.004664 0.033884
v 0.019743 0.000363 0.027277
v -0.016559 0.296291 0.000522
v -0.029248 0.294054 -0.026233
v -0.057759 0.289026 -0.032841
v -0.080624 0.284995 -0.014326
v -0.080624 0.284995 0.015370
v -0.057759 0.289026 0.033885
v -0.029248 0.294054 0.027277
v -0.146570 1.033620 0.000522
v -0.159259 1.031383 -0.026233
v -0.187770 1.026356 -0.032841
v -0.210635 1.022324 -0.014326
v -0.210635 1.022324 0.015370
v -0.187770 1.026356 0.033885
v -0.159259 1.031383 0.027277
v -0.276582 1.770950 0.000522
v -0.289270 1.768712 -0.026233
v -0.317782 1.763685 -0.032841
v -0.340646 1.759653 -0.014326
v -0.340646 1.759653 0.015370
v -0.317782 1.763685 0.033885
v -0.289270 1.768712 0.027277
v -0.263250 1.800207 0.000522
v -0.282690 1.796780 -0.040470
v -0.326373 1.789077 -0.050594
v -0.361404 1.782900 -0.022227
v -0.361404 1.782900 0.023271
v -0.326373 1.789077 0.051638
v -0.282690 1.796780 0.041514
v -0.248281 1.837442 0.000522
v -0.275585 1.832628 -0.057050
v -0.336936 1.821809 -0.071269
v -0.386136 1.813134 -0.031428
v -0.386136 1.813134 0.032472
v -0.336936 1.821809 0.072313
v -0.275585 1.832627 0.058094
v -0.368175 2.231443 0.000523
v -0.377067 2.229875 -0.018228
v -0.397049 2.226352 -0.022858
v -0.413072 2.223526 -0.009883
v -0.413072 2.223526 0.010928
v -0.397049 2.226352 0.023904
v -0.377067 2.229875 0.019273
v -0.393182 2.286622 0.000523
v -0.396496 2.286038 -0.006465
v -0.403942 2.284724 -0.008190
v -0.409913 2.283672 -0.003355
v -0.409913 2.283672 0.004400
v -0.403942 2.284724 0.009236
v -0.396496 2.286038 0.007510
vn 0.9864 0.1645 -0.0000
vn 0.6135 0.1023 -0.7831
vn 0.6153 0.1056 -0.7812
vn 0.9856 0.1691 -0.0000
vn -0.2219 -0.0370 -0.9744
vn -0.2181 -0.0374 -0.9752
vn -0.8892 -0.1483 -0.4329
vn -0.8878 -0.1523 -0.4344
vn -0.8892 -0.1483 0.4329
vn -0.8878 -0.1523 0.4344
vn -0.2219 -0.0370 0.9744
vn -0.2181 -0.0374 0.9752
vn 0.6135 0.1023 0.7831
vn 0.6153 0.1056 0.7812
vn 0.6140 0.1083 -0.7818
vn 0.9848 0.1736 -0.0000
vn -0.2191 -0.0386 -0.9749
vn -0.8873 -0.1565 -0.4339
vn -0.8873 -0.1565 0.4339
vn -0.2191 -0.0386 0.9749
vn 0.6140 0.1083 0.7818
vn 0.1736 -0.9848 -0.0000
vn -0.1737 0.9848 -0.0000
vn -0.1736 0.9848 -0.0000
vn 0.8458 -0.3854 -0.3689
vn 0.2777 -0.4856 -0.8289
vn -0.4306 -0.6105 -0.6647
vn -0.7459 -0.6661 -0.0000
vn -0.4306 -0.6105 0.6647
vn 0.2777 -0.4856 0.8289
vn 0.8458 -0.3854 0.3689
vn 0.8588 -0.3453 -0.3784
vn 0.2761 -0.4480 -0.8503
vn -0.4506 -0.5761 -0.6819
vn -0.7740 -0.6332 -0.0000
vn -0.4506 -0.5761 0.6819
vn 0.2761 -0.4480 0.8503
vn 0.8588 -0.3453 0.3784
vn 0.8631 0.2626 -0.4313
vn 0.1990 0.1455 -0.9691
vn 0.1989 0.1455 -0.9691
vn -0.6293 -0.0005 -0.7772
vn -0.9979 -0.0655 -0.0000
vn -0.6293 -0.0005 0.7772
vn 0.1990 0.1455 0.9691
vn 0.1989 0.1455 0.9691
vn 0.8631 0.2626 0.4313
vn 0.8254 0.3741 -0.4227
vn 0.8254 0.3741 -0.4228
vn 0.1744 0.2593 -0.9499
vn -0.6373 0.1162 -0.7618
vn -0.9986 0.0525 -0.0000
vn -0.6373 0.1162 0.7618
vn 0.1744 0.2593 0.9499
vn 0.8254 0.3741 0.4227
vt 0.046645 0.483795
vt 0.045060 0.483928
vt 0.045060 0.466528
vt 0.046645 0.466395
vt 0.116968 0.481404
vt 0.115250 0.481373
vt 0.115729 0.463703
vt 0.117447 0.463733
vt 0.113872 0.481348
vt 0.114350 0.463678
vt 0.108032 0.076495
vt 0.109701 0.076495
vt 0.109701 0.092993
vt 0.108032 0.092993
vt 0.109966 0.481404
vt 0.108587 0.481375
vt 0.108802 0.463699
vt 0.110180 0.463729
vt 0.106869 0.481338
vt 0.107084 0.463662
vt 0.048230 0.483928
vt 0.048230 0.466528
vt 0.045060 0.422843
vt 0.046645 0.422711
vt 0.116521 0.419261
vt 0.118240 0.419291
vt 0.115143 0.419236
vt 0.109701 0.134414
vt 0.108032 0.134414
vt 0.109752 0.419260
vt 0.111130 0.419290
vt 0.108034 0.419223
vt 0.048230 0.422843
vt 0.045060 0.379159
vt 0.046645 0.379026
vt 0.117314 0.374819
vt 0.119033 0.374849
vt 0.115936 0.374794
vt 0.109701 0.175835
vt 0.108032 0.175835
vt 0.110702 0.374821
vt 0.112080 0.374851
vt 0.108984 0.374785
vt 0.048230 0.379159
vt 0.071581 0.243270
vt 0.070300 0.242233
vt 0.070300 0.240570
vt 0.071581 0.239534
vt 0.073177 0.239904
vt 0.073888 0.241402
vt 0.073177 0.242900
vt 0.035763 0.066610
vt 0.035860 0.067027
vt 0.035589 0.067361
vt 0.035155 0.067361
vt 0.034884 0.067027
vt 0.034981 0.066610
vt 0.035372 0.066424
vt 0.044216 0.377496
vt 0.046645 0.377293
vt 0.117102 0.373242
vt 0.119735 0.373289
vt 0.063346 0.245991
vt 0.063394 0.247641
vt 0.061675 0.248131
vt 0.061602 0.245603
vt 0.110144 0.177141
vt 0.107588 0.177141
vt 0.068776 0.243348
vt 0.068789 0.244999
vt 0.067061 0.245452
vt 0.067040 0.242923
vt 0.108343 0.373197
vt 0.110976 0.373254
vt 0.049074 0.377496
vt 0.043234 0.375372
vt 0.046645 0.375087
vt 0.116858 0.371214
vt 0.120556 0.371280
vt 0.059522 0.248705
vt 0.059418 0.245155
vt 0.110661 0.178840
vt 0.107072 0.178840
vt 0.064896 0.245981
vt 0.064867 0.242429
vt 0.107602 0.371158
vt 0.111299 0.371237
vt 0.050056 0.375372
vt 0.045534 0.351837
vt 0.046645 0.351744
vt 0.117947 0.346958
vt 0.119151 0.346980
vt 0.113892 0.371161
vt 0.116981 0.346941
vt 0.109451 0.201894
vt 0.108282 0.201894
vt 0.114265 0.371301
vt 0.111162 0.346957
vt 0.112128 0.346978
vt 0.109958 0.346931
vt 0.047756 0.351837
vt 0.046231 0.348509
vt 0.046645 0.348475
vt 0.118208 0.343478
vt 0.118656 0.343486
vt 0.117848 0.343472
vt 0.109084 0.205273
vt 0.108649 0.205273
vt 0.111038 0.343470
vt 0.111398 0.343478
vt 0.110589 0.343460
vt 0.047059 0.348509
s 1
g off
g Manecilla_vertical_Big_Clock
usemtl Big_Clock
f 1/1/1 2/2/2 9/3/3
f 9/3/3 8/4/4 1/1/1
f 2/5/2 3/6/5 10/7/6
f 10/7/6 9/8/3 2/5/2
f 3/6/5 4/9/7 11/10/8
f 11/10/8 10/7/6 3/6/5
f 4/11/7 5/12/9 12/13/10
f 12/13/10 11/14/8 4/11/7
f 5/15/9 6/16/11 13/17/12
f 13/17/12 12/18/10 5/15/9
f 6/16/11 7/19/13 14/20/14
f 14/20/14 13/17/12 6/16/11
f 7/21/13 1/1/1 8/4/4
f 8/4/4 14/22/14 7/21/13
f 8/4/4 9/3/3 16/23/15
f 16/23/15 15/24/16 8/4/4
f 9/8/3 10/7/6 17/25/17
f 17/25/17 16/26/15 9/8/3
f 10/7/6 11/10/8 18/27/18
f 18/27/18 17/25/17 10/7/6
f 11/14/8 12/13/10 19/28/19
f 19/28/19 18/29/18 11/14/8
f 12/18/10 13/17/12 20/30/20
f 20/30/20 19/31/19 12/18/10
f 13/17/12 14/20/14 21/32/21
f 21/32/21 20/30/20 13/17/12
f 14/22/14 8/4/4 15/24/16
f 15/24/16 21/33/21 14/22/14
f 15/24/16 16/23/15 23/34/15
f 23/34/15 22/35/16 15/24/16
f 16/26/15 17/25/17 24/36/17
f 24/36/17 23/37/15 16/26/15
f 17/25/17 18/27/18 25/38/18
f 25/38/18 24/36/17 17/25/17
f 18/29/18 19/28/19 26/39/19
f 26/39/19 25/40/18 18/29/18
f 19/31/19 20/30/20 27/41/20
f 27/41/20 26/42/19 19/31/19
f 20/30/20 21/32/21 28/43/21
f 28/43/21 27/41/20 20/30/20
f 21/33/21 15/24/16 22/35/16
f 22/35/16 28/44/21 21/33/21
s 2
f 6/45/22 5/46/22 4/47/22
f 4/47/22 3/48/22 2/49/22
f 4/47/22 2/49/22 1/50/22
f 6/45/22 4/47/22 1/50/22
f 7/51/22 6/45/22 1/50/22
s 3
f 51/52/23 52/53/23 53/54/24
f 53/54/24 54/55/24 55/56/23
f 53/54/24 55/56/23 56/57/23
f 51/52/23 53/54/24 56/57/23
f 50/58/23 51/52/23 56/57/23
s 4
f 22/35/25 23/34/25 30/59/25
f 30/59/25 29/60/25 22/35/25
s 5
f 23/37/26 24/36/26 31/61/26
f 31/61/26 30/62/26 23/37/26
s 6
f 24/63/27 25/64/27 32/65/27
f 32/65/27 31/66/27 24/63/27
s 7
f 25/40/28 26/39/28 33/67/28
f 33/67/28 32/68/28 25/40/28
s 8
f 26/69/29 27/70/29 34/71/29
f 34/71/29 33/72/29 26/69/29
s 9
f 27/41/30 28/43/30 35/73/30
f 35/73/30 34/74/30 27/41/30
s 10
f 28/44/31 22/35/31 29/60/31
f 29/60/31 35/75/31 28/44/31
s 11
f 29/60/32 30/59/32 37/76/32
f 37/76/32 36/77/32 29/60/32
s 12
f 30/62/33 31/61/33 38/78/33
f 38/78/33 37/79/33 30/62/33
s 13
f 31/66/34 32/65/34 39/80/34
f 39/80/34 38/81/34 31/66/34
s 14
f 32/68/35 33/67/35 40/82/35
f 40/82/35 39/83/35 32/68/35
s 15
f 33/72/36 34/71/36 41/84/36
f 41/84/36 40/85/36 33/72/36
s 16
f 34/74/37 35/73/37 42/86/37
f 42/86/37 41/87/37 34/74/37
s 17
f 35/75/38 29/60/38 36/77/38
f 36/77/38 42/88/38 35/75/38
s 18
f 36/77/39 37/76/39 44/89/39
f 44/89/39 43/90/39 36/77/39
s 19
f 37/79/40 38/78/40 45/91/41
f 45/91/41 44/92/41 37/79/40
s 20
f 38/78/42 39/93/42 46/94/42
f 46/94/42 45/91/42 38/78/42
s 21
f 39/83/43 40/82/43 47/95/43
f 47/95/43 46/96/43 39/83/43
s 22
f 40/97/44 41/87/44 48/98/44
f 48/98/44 47/99/44 40/97/44
s 23
f 41/87/45 42/86/45 49/100/46
f 49/100/46 48/98/46 41/87/45
s 24
f 42/88/47 36/77/47 43/90/47
f 43/90/47 49/101/47 42/88/47
s 25
f 43/90/48 44/89/48 51/102/49
f 51/102/49 50/103/49 43/90/48
s 26
f 44/92/50 45/91/50 52/104/50
f 52/104/50 51/105/50 44/92/50
s 27
f 45/91/51 46/94/51 53/106/51
f 53/106/51 52/104/51 45/91/51
s 28
f 46/96/52 47/95/52 54/107/52
f 54/107/52 53/108/52 46/96/52
s 29
f 47/99/53 48/98/53 55/109/53
f 55/109/53 54/110/53 47/99/53
s 30
f 48/98/54 49/100/54 56/111/54
f 56/111/54 55/109/54 48/98/54
s 31
f 49/101/55 43/90/55 50/103/55
f 50/103/55 56/112/55 49/101/55
