# Blender 5.0.1
# www.blender.org
mtllib manecilla_h.mtl
g Manecilla_vertical.001_Malla
v 0.021006 0.034919 0.001773
v 0.014564 0.023761 -0.024982
v 0.000088 -0.001311 -0.031590
v -0.011520 -0.021418 -0.013075
v -0.011520 -0.021418 0.016620
v 0.000088 -0.001311 0.035135
v 0.014564 0.023761 0.028528
v -0.627391 0.409271 0.001773
v -0.633833 0.398113 -0.024982
v -0.648308 0.373041 -0.031590
v -0.659917 0.352934 -0.013075
v -0.659917 0.352934 0.016621
v -0.648308 0.373041 0.035136
v -0.633833 0.398113 0.028528
v -1.275787 0.783623 0.001773
v -1.282229 0.772465 -0.024982
v -1.296704 0.747392 -0.031590
v -1.308313 0.727286 -0.013075
v -1.308313 0.727286 0.016621
v -1.296704 0.747392 0.035136
v -1.282229 0.772465 0.028528
v -1.924183 1.157975 0.001773
v -1.930626 1.146817 -0.024982
v -1.945101 1.121745 -0.031590
v -1.956710 1.101638 -0.013075
v -1.956710 1.101638 0.016621
v -1.945101 1.121745 0.035136
v -1.930626 1.146817 0.028528
v -1.938027 1.186995 0.001773
v -1.947897 1.169899 -0.039219
v -1.970076 1.131485 -0.049343
v -1.987861 1.100679 -0.020976
v -1.987861 1.100679 0.024522
v -1.970076 1.131485 0.052889
v -1.947897 1.169899 0.042765
v -1.956929 1.222394 0.001773
v -1.970791 1.198384 -0.055799
v -2.001940 1.144433 -0.070018
v -2.026919 1.101167 -0.030177
v -2.026919 1.101167 0.033723
v -2.001940 1.144433 0.073564
v -1.970791 1.198384 0.059345
v -2.335817 1.383809 0.001774
v -2.340332 1.375989 -0.016977
v -2.350477 1.358418 -0.021608
v -2.358612 1.344327 -0.008632
v -2.358612 1.344327 0.012179
v -2.350477 1.358418 0.025155
v -2.340332 1.375990 0.020524
v -2.394161 1.400121 0.001774
v -2.395843 1.397207 -0.005214
v -2.399624 1.390659 -0.006939
v -2.402655 1.385408 -0.002104
v -2.402655 1.385408 0.005651
v -2.399624 1.390659 0.010487
v -2.395843 1.397207 0.008761
vn 0.5000 0.8660 -0.0000
vn 0.3117 0.5400 -0.7818
vn -0.1113 -0.1927 -0.9749
vn -0.4505 -0.7803 -0.4339
vn -0.4505 -0.7803 0.4339
vn -0.1113 -0.1927 0.9749
vn 0.3117 0.5400 0.7818
vn 0.8660 -0.5000 -0.0000
vn -0.8660 0.5000 -0.0000
vn -0.8660 0.5001 -0.0000
vn 0.8389 0.4002 -0.3689
vn 0.5505 -0.0994 -0.8289
vn 0.1908 -0.7223 -0.6647
vn 0.0308 -0.9995 -0.0000
vn 0.1908 -0.7223 0.6647
vn 0.5505 -0.0994 0.8289
vn 0.8389 0.4002 0.3689
vn 0.8165 0.4360 -0.3784
vn 0.5207 -0.0765 -0.8503
vn 0.5206 -0.0765 -0.8503
vn 0.1517 -0.7155 -0.6819
vn -0.0125 -0.9999 -0.0000
vn 0.1517 -0.7155 0.6819
vn 0.5207 -0.0765 0.8503
vn 0.8165 0.4360 0.3784
vn 0.3536 0.8300 -0.4313
vn 0.0164 0.2460 -0.9691
vn -0.4041 -0.4824 -0.7772
vn -0.5912 -0.8065 -0.0000
vn -0.4041 -0.4824 0.7772
vn 0.0164 0.2460 0.9691
vn 0.3536 0.8300 0.4313
vn 0.2440 0.8728 -0.4228
vn -0.0865 0.3003 -0.9499
vn -0.4987 -0.4136 -0.7618
vn -0.6821 -0.7313 -0.0000
vn -0.4987 -0.4136 0.7618
vn -0.0865 0.3003 0.9499
vn 0.2440 0.8728 0.4228
vn 0.2440 0.8728 0.4227
vt 0.031296 0.269028
vt 0.029613 0.268623
vt 0.029613 0.227834
vt 0.031296 0.228239
vt 0.156639 0.370857
vt 0.158358 0.370836
vt 0.158911 0.415272
vt 0.157193 0.415294
vt 0.159736 0.370819
vt 0.160289 0.415255
vt 0.055080 0.068705
vt 0.056872 0.068705
vt 0.056872 0.107826
vt 0.055080 0.107826
vt 0.190373 0.461710
vt 0.188995 0.461744
vt 0.187888 0.417318
vt 0.189266 0.417284
vt 0.187277 0.461787
vt 0.186170 0.417361
vt 0.032979 0.268623
vt 0.032979 0.227834
vt 0.029613 0.187045
vt 0.031296 0.187450
vt 0.159465 0.459709
vt 0.157746 0.459730
vt 0.160843 0.459692
vt 0.056872 0.146947
vt 0.055080 0.146947
vt 0.186781 0.372892
vt 0.188159 0.372857
vt 0.185063 0.372934
vt 0.032979 0.187045
vt 0.029613 0.146256
vt 0.031296 0.146661
vt 0.160018 0.504145
vt 0.158300 0.504167
vt 0.161396 0.504128
vt 0.056872 0.186068
vt 0.055080 0.186068
vt 0.185674 0.328465
vt 0.187052 0.328431
vt 0.183956 0.328508
vt 0.032979 0.146256
vt 0.076844 0.237945
vt 0.075644 0.236840
vt 0.075644 0.235067
vt 0.076844 0.233961
vt 0.078342 0.234356
vt 0.079008 0.235953
vt 0.078342 0.237551
vt 0.040339 0.066571
vt 0.040442 0.066962
vt 0.040154 0.067275
vt 0.039691 0.067275
vt 0.039402 0.066962
vt 0.039505 0.066571
vt 0.039922 0.066397
vt 0.036953 0.067463
vt 0.038217 0.066218
vt 0.039553 0.067203
vt 0.037617 0.069110
vt 0.160278 0.505715
vt 0.157646 0.505748
vt 0.053963 0.185368
vt 0.054604 0.187948
vt 0.052892 0.186874
vt 0.057349 0.187948
vt 0.057989 0.185368
vt 0.059060 0.186874
vt 0.183244 0.326953
vt 0.185876 0.326887
vt 0.035179 0.067441
vt 0.034899 0.069077
vt 0.041145 0.068440
vt 0.038426 0.071120
vt 0.160584 0.507734
vt 0.156886 0.507780
vt 0.054048 0.190304
vt 0.051645 0.188797
vt 0.057904 0.190304
vt 0.060308 0.188797
vt 0.182409 0.324951
vt 0.186105 0.324859
vt 0.034609 0.071073
vt 0.062555 0.037847
vt 0.066116 0.038420
vt 0.065480 0.061047
vt 0.064321 0.060860
vt 0.160230 0.532007
vt 0.159026 0.532022
vt 0.163549 0.507697
vt 0.161196 0.531995
vt 0.056604 0.210317
vt 0.055348 0.210317
vt 0.189070 0.324785
vt 0.184845 0.300616
vt 0.185811 0.300592
vt 0.183641 0.300646
vt 0.059122 0.038957
vt 0.063203 0.061222
vt 0.065025 0.064474
vt 0.064592 0.064404
vt 0.160075 0.535492
vt 0.159626 0.535498
vt 0.160435 0.535487
vt 0.056210 0.212974
vt 0.055742 0.212974
vt 0.184560 0.297139
vt 0.184920 0.297130
vt 0.184111 0.297150
vt 0.064176 0.064539
s 1
g off
g Manecilla_vertical.001_Big_Clock
usemtl Big_Clock
f 1/1/1 2/2/2 9/3/2
f 9/3/2 8/4/1 1/1/1
f 2/5/2 3/6/3 10/7/3
f 10/7/3 9/8/2 2/5/2
f 3/6/3 4/9/4 11/10/4
f 11/10/4 10/7/3 3/6/3
f 4/11/4 5/12/5 12/13/5
f 12/13/5 11/14/4 4/11/4
f 5/15/5 6/16/6 13/17/6
f 13/17/6 12/18/5 5/15/5
f 6/16/6 7/19/7 14/20/7
f 14/20/7 13/17/6 6/16/6
f 7/21/7 1/1/1 8/4/1
f 8/4/1 14/22/7 7/21/7
f 8/4/1 9/3/2 16/23/2
f 16/23/2 15/24/1 8/4/1
f 9/8/2 10/7/3 17/25/3
f 17/25/3 16/26/2 9/8/2
f 10/7/3 11/10/4 18/27/4
f 18/27/4 17/25/3 10/7/3
f 11/14/4 12/13/5 19/28/5
f 19/28/5 18/29/4 11/14/4
f 12/18/5 13/17/6 20/30/6
f 20/30/6 19/31/5 12/18/5
f 13/17/6 14/20/7 21/32/7
f 21/32/7 20/30/6 13/17/6
f 14/22/7 8/4/1 15/24/1
f 15/24/1 21/33/7 14/22/7
f 15/24/1 16/23/2 23/34/2
f 23/34/2 22/35/1 15/24/1
f 16/26/2 17/25/3 24/36/3
f 24/36/3 23/37/2 16/26/2
f 17/25/3 18/27/4 25/38/4
f 25/38/4 24/36/3 17/25/3
f 18/29/4 19/28/5 26/39/5
f 26/39/5 25/40/4 18/29/4
f 19/31/5 20/30/6 27/41/6
f 27/41/6 26/42/5 19/31/5
f 20/30/6 21/32/7 28/43/7
f 28/43/7 27/41/6 20/30/6
f 21/33/7 15/24/1 22/35/1
f 22/35/1 28/44/7 21/33/7
s 2
f 6/45/8 5/46/8 4/47/8
f 4/47/8 3/48/8 2/49/8
f 4/47/8 2/49/8 1/50/8
f 6/45/8 4/47/8 1/50/8
f 7/51/8 6/45/8 1/50/8
s 3
f 51/52/9 52/53/9 53/54/9
f 53/54/9 54/55/9 55/56/9
f 53/54/9 55/56/9 56/57/9
f 51/52/9 53/54/9 56/57/9
f 50/58/10 51/52/9 56/57/9
s 4
f 22/59/11 23/60/11 30/61/11
f 30/61/11 29/62/11 22/59/11
s 5
f 23/37/12 24/36/12 31/63/12
f 31/63/12 30/64/12 23/37/12
s 6
f 24/65/13 25/40/13 32/66/13
f 32/66/13 31/67/13 24/65/13
s 7
f 25/40/14 26/39/14 33/68/14
f 33/68/14 32/66/14 25/40/14
s 8
f 26/39/15 27/69/15 34/70/15
f 34/70/15 33/68/15 26/39/15
s 9
f 27/41/16 28/43/16 35/71/16
f 35/71/16 34/72/16 27/41/16
s 10
f 28/73/17 22/59/17 29/62/17
f 29/62/17 35/74/17 28/73/17
s 11
f 29/62/18 30/61/18 37/75/18
f 37/75/18 36/76/18 29/62/18
s 12
f 30/64/19 31/63/20 38/77/19
f 38/77/19 37/78/19 30/64/19
s 13
f 31/67/21 32/66/21 39/79/21
f 39/79/21 38/80/21 31/67/21
s 14
f 32/66/22 33/68/22 40/81/22
f 40/81/22 39/79/22 32/66/22
s 15
f 33/68/23 34/70/23 41/82/23
f 41/82/23 40/81/23 33/68/23
s 16
f 34/72/24 35/71/24 42/83/24
f 42/83/24 41/84/24 34/72/24
s 17
f 35/74/25 29/62/25 36/76/25
f 36/76/25 42/85/25 35/74/25
s 18
f 36/86/26 37/87/26 44/88/26
f 44/88/26 43/89/26 36/86/26
s 19
f 37/78/27 38/77/27 45/90/27
f 45/90/27 44/91/27 37/78/27
s 20
f 38/77/28 39/92/28 46/93/28
f 46/93/28 45/90/28 38/77/28
s 21
f 39/79/29 40/81/29 47/94/29
f 47/94/29 46/95/29 39/79/29
s 22
f 40/96/30 41/84/30 48/97/30
f 48/97/30 47/98/30 40/96/30
s 23
f 41/84/31 42/83/31 49/99/31
f 49/99/31 48/97/31 41/84/31
s 24
f 42/100/32 36/86/32 43/89/32
f 43/89/32 49/101/32 42/100/32
s 25
f 43/89/33 44/88/33 51/102/33
f 51/102/33 50/103/33 43/89/33
s 26
f 44/91/34 45/90/34 52/104/34
f 52/104/34 51/105/34 44/91/34
s 27
f 45/90/35 46/93/35 53/106/35
f 53/106/35 52/104/35 45/90/35
s 28
f 46/95/36 47/94/36 54/107/36
f 54/107/36 53/108/36 46/95/36
s 29
f 47/98/37 48/97/37 55/109/37
f 55/109/37 54/110/37 47/98/37
s 30
f 48/97/38 49/99/38 56/111/38
f 56/111/38 55/109/38 48/97/38
s 31
f 49/101/39 43/89/39 50/103/40
f 50/103/40 56/112/40 49/101/39
